<?xml version="1.0" encoding="UTF-8" standalone="no"?>
<!-- Created with Inkscape (http://www.inkscape.org/) -->

<svg
   width="131.87775mm"
   height="131.89056mm"
   viewBox="0 0 131.87775 131.89056"
   version="1.1"
   id="svg1"
   xml:space="preserve"
   xmlns="http://www.w3.org/2000/svg"
   xmlns:svg="http://www.w3.org/2000/svg"><defs
     id="defs1" /><g
     id="layer1"
     transform="translate(-144.06112,-143.41076)"><path
       style="fill:#18345d;fill-opacity:1"
       d="m 101.1946,158.83638 c -26.727651,1.4487 -50.272069,19.47494 -58.702499,44.9442 -14.661098,44.29282 19.586393,89.18729 66.176979,86.75032 34.82696,-1.82165 62.28848,-30.79984 62.26978,-65.70884 -0.0205,-38.16768 -31.60782,-68.05277 -69.74426,-65.98568 z m -16.668741,25.49636 c 12.1887,2.01559 19.020641,12.67234 14.23675,22.20708 -2.24432,4.47312 -7.26898,7.55451 -12.33155,7.56151 -6.41602,0.009 -11.62948,3.57449 -13.017,8.90153 -2.84223,10.91205 3.16609,21.68136 15.742,28.21598 6.97548,3.62454 8.03648,4.8299 6.63659,7.53948 -2.53308,4.90293 -16.31474,0.0413 -25.6446,-9.04636 -12.772435,-12.4409 -17.871334,-29.55254 -13.655888,-45.82843 3.553711,-13.72092 15.002928,-21.70564 28.033698,-19.55079 z m 52.916661,9.86897 c 7.82264,2.16559 13.20355,8.51652 13.14875,15.51915 -0.0618,7.90118 -6.32653,13.86482 -14.60396,13.90202 -8.50579,0.0383 -13.86786,6.95128 -12.72498,16.40562 1.1202,9.26673 6.26213,15.47375 17.75508,21.43282 4.09104,2.1212 5.55323,3.4222 5.55323,4.94104 0,6.35509 -12.48202,4.02141 -22.75416,-4.2542 -15.38598,-12.39549 -22.06194,-32.77187 -16.52431,-50.43544 2.93931,-9.37564 9.8776,-16.05152 18.56258,-17.86054 2.56827,-0.53495 9.10502,-0.33778 11.58777,0.34953 z"
       id="path25-2"
       transform="matrix(-1,0,0,1,315,-15.324519)" /></g></svg>
