<svg xmlns="http://www.w3.org/2000/svg" width="32" height="32"><path d="M0 0h32v32H0V0Z" style="fill:#18345d"/><path d="M23.496 18.756c-.612 2.793-2.691 3.98-7.324 3.98-11.382 0-7.35-8.889-5.759-10.72.669-.816 1.136-1.482 2.834-1.482h3.23c4.503 0 5.362.207 6.49 2.444.61 1.205.964 3.805.529 5.785v-.007zm1.222-5.54c-.38-2.39-.876-4.986-3.011-6.42-1.294-.877-2.625-.941-4.12-.941-1.016 0-4.602-.04-6.172-.04-1.525 0-2.541-1.22-2.541-1.815C7.88 5.183 7.12 6.49 7.386 8.07c.241 1.422 1.243 2.33 2.714 2.513-1.667 2.282-3.172 4.911-3.098 7.699C7.05 20.035 7.463 27 15.57 27h1.479c3.461 0 5.558-2.496 6.168-3.456 1.791-2.84 2.091-7.235 1.524-10.316" style="fill:#fff"/></svg>