<svg width="32" height="32" version="1.1" viewBox="0 0 32 32" xmlns="http://www.w3.org/2000/svg">
 <style>
  #background { fill: #18345D }
  #samech { fill: #fff }
 </style>
 <path id="background" d="M0 0H32V32H0V0Z"/>
 <path id="samech" d="m23.496 18.756c-0.6124 2.7926-2.6912 3.9802-7.324 3.9802-11.382 0-7.3493-8.8889-5.7585-10.721 0.6684-0.8148 1.136-1.4815 2.8335-1.4815h3.23c4.5032 0 5.3621 0.2074 6.4904 2.4445 0.6099 1.2049 0.9632 3.8049 0.5286 5.7852v-0.0074zm1.2224-5.5408c-0.3812-2.3901-0.8768-4.9852-3.0114-6.4197-1.2936-0.87654-2.6252-0.94074-4.1195-0.94074-1.0165 0-4.6022-0.0395-6.1727-0.0395-1.5248 0-2.5413-1.2198-2.5413-1.8148-0.99364 1.1827-1.7535 2.4889-1.4866 4.0691 0.24142 1.4222 1.2427 2.3309 2.7141 2.5136-1.6671 2.2815-3.1715 4.9111-3.0978 7.6988 0.04574 1.7531 0.45997 8.7185 8.5667 8.7185h1.479c3.4612 0 5.5578-2.4963 6.1677-3.4568 1.7916-2.8395 2.0915-7.2346 1.5248-10.316" />
</svg>
