<svg width="24" height="24" viewBox="0 0 24 24" fill="none" xmlns="http://www.w3.org/2000/svg">
<path d="M13.2555 15.2342C14.2452 15.2342 14.3866 15.2342 14.7047 16.1885L16.366 20.9956C16.8961 22.4801 16.7194 22.6922 15.447 22.8689L14.6693 22.975C14.4573 23.187 14.4926 23.8233 14.7754 24C16.0125 23.9647 17.5677 23.894 19.0876 23.894C20.9256 23.894 22.2334 23.9293 23.6826 24C23.93 23.8233 23.93 23.2224 23.6473 22.975L23.1171 22.8689C21.3144 22.5155 21.1377 22.3034 20.3247 19.9352L15.2349 5.12519C14.6693 3.53461 14.2098 1.87334 13.6443 0.28277C13.5029 0.106039 13.3262 0 13.0434 0C12.9727 0 11.8063 1.44919 10.5692 1.69661C10.6752 2.2975 10.3218 3.1458 9.89762 4.27688L5.05521 16.8601C4.31294 18.7688 3.7474 20.2533 3.32325 21.1723C2.79306 22.3387 2.40425 22.6215 1.37921 22.7982L0.318831 22.975C0.0714087 23.2931 0.106755 23.8233 0.354178 24C1.59129 23.9293 2.68702 23.894 3.85344 23.894C5.30263 23.9293 6.64578 23.9293 7.77686 24C8.05963 23.8586 8.09497 23.2224 7.84755 22.975L6.82251 22.7982C5.51471 22.5862 5.05521 22.5155 5.76213 20.43L7.17597 16.1885C7.49409 15.2342 7.45874 15.2342 8.37774 15.2342H13.2555ZM8.94328 13.6436C8.09497 13.6436 8.02428 13.6436 8.37774 12.6186L9.96832 8.48306C10.5692 6.8218 10.9227 5.79676 11.064 5.54934H11.1347C11.3115 5.79676 11.5235 6.60972 12.1598 8.48306L13.6443 12.7246C13.9271 13.5729 13.7857 13.6436 12.796 13.6436H8.94328Z" fill="#999999"/>
</svg>
