<svg width="24" height="24" viewBox="2 -51.5 53 53" fill="none" xmlns="http://www.w3.org/2000/svg">
<path fill-rule="evenodd" d="M54.35-25.63L54.35-24.19Q47.99-21.55 44.21-19.44Q40.43-17.33 38.32-15.26L38.32-15.26Q36.25-13.18 34.14-9.42Q32.03-5.66 29.32 0.88L29.32 0.88L27.88 0.88Q25.14-5.66 23.03-9.42Q20.92-13.18 18.88-15.26L18.88-15.26Q16.77-17.33 12.99-19.44Q9.21-21.55 2.81-24.19L2.81-24.19L2.81-25.63Q9.25-28.27 13.03-30.38Q16.80-32.48 18.88-34.56L18.88-34.56Q20.92-36.63 23.03-40.39Q25.14-44.16 27.88-50.70L27.88-50.70L29.32-50.70Q32.03-44.16 34.14-40.39Q36.25-36.63 38.32-34.56L38.32-34.56Q40.36-32.48 44.14-30.38Q47.92-28.27 54.35-25.63L54.35-25.63ZM52.14-24.79L52.14-24.79L52.14-25.07Q47.21-25.56 42.73-26.82Q38.25-28.09 33.93-30.23L33.93-30.23Q31.78-34.56 30.50-39.06Q29.21-43.56 28.72-48.45L28.72-48.45L28.44-48.45Q27.95-43.56 26.67-39.06Q25.38-34.56 23.27-30.23L23.27-30.23Q18.77-28.09 14.29-26.81Q9.81-25.52 5.03-25.07L5.03-25.07L5.03-24.79Q9.81-24.29 14.29-23.01Q18.77-21.73 23.27-19.58L23.27-19.58Q25.42-15.12 26.68-10.62Q27.95-6.12 28.44-1.37L28.44-1.37L28.72-1.37Q29.21-6.12 30.48-10.62Q31.75-15.12 33.93-19.58L33.93-19.58Q38.25-21.73 42.73-23.01Q47.21-24.29 52.14-24.79Z" fill="#666666"/>
</svg>
