<svg width="18" height="18" viewBox="0 0 18 18" fill="none" xmlns="http://www.w3.org/2000/svg">
<path d="M9 1.5C13.1355 1.5 16.5 4.8645 16.5 9C16.5 13.1355 13.1355 16.5 9 16.5C4.8645 16.5 1.5 13.1355 1.5 9C1.5 4.8645 4.8645 1.5 9 1.5ZM9 0C4.02975 0 0 4.02975 0 9C0 13.9703 4.02975 18 9 18C13.9703 18 18 13.9703 18 9C18 4.02975 13.9703 0 9 0ZM7.47525 12.0075C7.89825 10.6658 8.69925 9.0585 8.841 8.652C9.04575 8.06175 8.68275 7.8 7.536 8.80875L7.281 8.32875C8.589 6.906 11.2823 6.58425 10.3658 8.7885C9.7935 10.1648 9.384 11.094 9.15 11.811C8.80875 12.8558 9.6705 12.432 10.5142 11.6528C10.629 11.8403 10.6665 11.901 10.7812 12.117C8.90775 13.9005 6.828 14.058 7.47525 12.0075ZM11.0317 5.88075C10.6327 6.2205 10.0417 6.213 9.711 5.86425C9.38025 5.5155 9.43575 4.95825 9.834 4.6185C10.233 4.27875 10.824 4.287 11.1547 4.635C11.484 4.9845 11.43 5.54175 11.0317 5.88075Z" fill="#999999"/>
</svg>
