<svg width="22" height="22" viewBox="0 0 24 24" fill="none" xmlns="http://www.w3.org/2000/svg">
<path d="M12 23.567C18.3883 23.567 23.567 18.3883 23.567 12C23.567 5.61171 18.3883 0.432983 12 0.432983C5.61171 0.432983 0.432983 5.61171 0.432983 12C0.432983 18.3883 5.61171 23.567 12 23.567Z" fill="white"/>
<path d="M12 24C5.38144 24 0 18.6186 0 12C0 5.38144 5.38144 0 12 0C18.6186 0 24 5.38144 24 12C24 18.6186 18.6186 24 12 24ZM12 0.865979C5.86392 0.865979 0.865979 5.86392 0.865979 12C0.865979 18.1361 5.86392 23.134 12 23.134C18.1361 23.134 23.134 18.1361 23.134 12C23.134 5.86392 18.1485 0.865979 12 0.865979Z" fill="#999999"/>
<path d="M10.8742 13.3608C10.7629 13.0268 10.701 12.9773 10.2433 12.9773H7.9299C7.54639 12.9773 7.45979 13.0268 7.34845 13.3484L6.81649 14.9567C6.58144 15.6495 6.48247 16.0577 6.48247 16.2309C6.48247 16.4041 6.5567 16.5031 6.92783 16.5402L7.43505 16.5897C7.54639 16.6639 7.54639 16.9113 7.41031 16.9732C7.01443 16.9484 6.53196 16.9484 5.81443 16.9237C5.30722 16.9237 4.75051 16.9484 4.34227 16.9732C4.25567 16.9113 4.21856 16.6639 4.31752 16.5897L4.82474 16.5402C5.19588 16.5154 5.5299 16.3422 5.74021 15.7855C6.01237 15.0804 6.44536 14.0783 7.08866 12.3587L8.64742 8.21441C8.85773 7.65771 8.9567 7.37318 8.90722 7.12575C9.27835 7.01441 9.53814 6.74225 9.69897 6.54431C9.78557 6.54431 9.89691 6.56905 9.93402 6.68039C10.132 7.36081 10.3794 8.06596 10.6144 8.734L12.7175 14.8948C13.1629 16.2185 13.3608 16.4412 14.0165 16.5154L14.4247 16.5649C14.5361 16.6392 14.499 16.8866 14.4247 16.9484C13.7938 16.9237 13.2619 16.899 12.5691 16.899C11.8763 16.899 11.2454 16.9237 10.8 16.9484C10.6763 16.8866 10.6639 16.6392 10.7753 16.5649L11.2206 16.5154C11.5423 16.4907 11.7526 16.3917 11.7526 16.2433C11.7526 16.0948 11.6783 15.7979 11.5546 15.4268L10.8742 13.3361V13.3608ZM7.83093 11.9876C7.70722 12.334 7.71959 12.3587 8.15258 12.3587H10.033C10.4783 12.3587 10.5031 12.2969 10.367 11.8886L9.53814 9.38967C9.41443 9.01854 9.27835 8.61029 9.19175 8.42472H9.16701C9.11753 8.49895 8.96907 8.87008 8.79588 9.32782L7.83093 12V11.9876Z" fill="#999999"/>
<path d="M16.1443 9.11751C16.1443 7.49689 16.1195 7.23709 15.2041 7.1505L14.8206 7.12575C14.734 7.0639 14.7587 6.79173 14.8453 6.74225C15.6123 6.76699 16.1319 6.79173 16.7752 6.79173C17.4185 6.79173 17.9134 6.77936 18.6804 6.74225C18.767 6.79173 18.8041 7.0639 18.7051 7.12575L18.3216 7.1505C17.4185 7.22472 17.3814 7.48452 17.3814 9.11751V14.5732C17.3814 16.1938 17.4061 16.4165 18.3216 16.5278L18.7051 16.5773C18.7917 16.6392 18.767 16.9113 18.6804 16.9608C17.9134 16.9361 17.3938 16.9113 16.7752 16.9113C16.1567 16.9113 15.6123 16.9237 14.8453 16.9608C14.7587 16.9113 14.7216 16.6639 14.8206 16.5773L15.2041 16.5278C16.1072 16.4165 16.1443 16.2062 16.1443 14.5732V9.11751Z" fill="#999999"/>
</svg>