<svg width="18" height="18" viewBox="0 0 18 18" fill="none" xmlns="http://www.w3.org/2000/svg">
<path d="M8.973 15.672C8.863 14.957 8.544 14.187 8.016 13.362C7.499 12.537 6.762 11.7615 5.805 11.0355C4.837 10.2985 3.902 9.842 3 9.666V8.973C3.913 8.764 4.7985 8.357 5.6565 7.752C6.5145 7.147 7.2405 6.4265 7.8345 5.5905C8.4285 4.7435 8.808 3.88 8.973 3H9.666C9.765 3.561 9.963 4.1275 10.26 4.6995C10.568 5.2715 10.9585 5.8215 11.4315 6.3495C11.9045 6.8665 12.427 7.334 12.999 7.752C13.868 8.368 14.759 8.775 15.672 8.973V9.666C15.056 9.787 14.4235 10.0345 13.7745 10.4085C13.1365 10.7825 12.5425 11.2225 11.9925 11.7285C11.4425 12.2345 10.9915 12.768 10.6395 13.329C10.1005 14.187 9.776 14.968 9.666 15.672H8.973ZM9.204 15.276H9.435C9.49 14.704 9.578 14.132 9.699 13.56C9.831 12.977 9.9795 12.438 10.1445 11.943C10.3205 11.448 10.502 11.041 10.689 10.722C11.063 10.513 11.5085 10.3205 12.0255 10.1445C12.5535 9.9685 13.098 9.82 13.659 9.699C14.231 9.578 14.759 9.501 15.243 9.468V9.237C14.759 9.193 14.2255 9.1105 13.6425 8.9895C13.0705 8.8575 12.5205 8.7035 11.9925 8.5275C11.4645 8.3405 11.03 8.148 10.689 7.95C10.502 7.62 10.3205 7.213 10.1445 6.729C9.9795 6.234 9.831 5.706 9.699 5.145C9.578 4.573 9.49 4.001 9.435 3.429H9.204C9.16 3.946 9.0775 4.485 8.9565 5.046C8.8465 5.596 8.7035 6.124 8.5275 6.63C8.3515 7.136 8.159 7.576 7.95 7.95C7.598 8.148 7.1635 8.3405 6.6465 8.5275C6.1295 8.7035 5.585 8.8575 5.013 8.9895C4.441 9.1105 3.902 9.193 3.396 9.237V9.468C3.902 9.501 4.4355 9.578 4.9965 9.699C5.5575 9.82 6.0965 9.9685 6.6135 10.1445C7.1305 10.3205 7.576 10.513 7.95 10.722C8.159 11.074 8.346 11.5085 8.511 12.0255C8.687 12.5315 8.8355 13.0705 8.9565 13.6425C9.0775 14.2035 9.16 14.748 9.204 15.276Z" fill="#6F6F6F"/>
</svg>
