<!-- Lucide sparkle (ISC, lucide.dev), token icon-muted. Generated by scripts/icons/build_lucide_icons.py -->
<svg xmlns="http://www.w3.org/2000/svg" width="18" height="18" viewBox="0 0 24 24" fill="#6F6F6F" stroke="#6F6F6F" stroke-width="2" stroke-linecap="round" stroke-linejoin="round" ><path d="M11.017 2.814a1 1 0 0 1 1.966 0l1.051 5.558a2 2 0 0 0 1.594 1.594l5.558 1.051a1 1 0 0 1 0 1.966l-5.558 1.051a2 2 0 0 0-1.594 1.594l-1.051 5.558a1 1 0 0 1-1.966 0l-1.051-5.558a2 2 0 0 0-1.594-1.594l-5.558-1.051a1 1 0 0 1 0-1.966l5.558-1.051a2 2 0 0 0 1.594-1.594z" /></svg>
