<svg width="18" height="18" viewBox="0 0 18 18" fill="none" xmlns="http://www.w3.org/2000/svg">
<path d="M9.006 15.672C8.885 14.957 8.566 14.187 8.049 13.362C7.532 12.526 6.795 11.7505 5.838 11.0355C4.892 10.3205 3.946 9.864 3 9.666V8.973C3.935 8.753 4.8315 8.346 5.6895 7.752C6.5585 7.147 7.2845 6.421 7.8675 5.574C8.4615 4.705 8.841 3.847 9.006 3H9.699C9.798 3.55 9.996 4.1165 10.293 4.6995C10.59 5.2715 10.9695 5.8215 11.4315 6.3495C11.9045 6.8665 12.4325 7.334 13.0155 7.752C13.8845 8.368 14.77 8.775 15.672 8.973V9.666C15.067 9.787 14.44 10.0345 13.791 10.4085C13.153 10.7825 12.559 11.228 12.009 11.745C11.459 12.251 11.008 12.7845 10.656 13.3455C10.139 14.1705 9.82 14.946 9.699 15.672H9.006Z" fill="#6F6F6F"/>
</svg>
