<svg width="24" height="24" viewBox="0 0 24 24" fill="none" xmlns="http://www.w3.org/2000/svg">
<path d="M11.964 20.896C11.8173 19.9427 11.392 18.916 10.688 17.816C9.99867 16.716 9.016 15.682 7.74 14.714C6.44933 13.7313 5.20267 13.1227 4 12.888V11.964C5.21733 11.6853 6.398 11.1427 7.542 10.336C8.686 9.52933 9.654 8.56867 10.446 7.454C11.238 6.32467 11.744 5.17333 11.964 4H12.888C13.02 4.748 13.284 5.50333 13.68 6.266C14.0907 7.02867 14.6113 7.762 15.242 8.466C15.8727 9.15533 16.5693 9.77867 17.332 10.336C18.4907 11.1573 19.6787 11.7 20.896 11.964V12.888C20.0747 13.0493 19.2313 13.3793 18.366 13.878C17.5153 14.3767 16.7233 14.9633 15.99 15.638C15.2567 16.3127 14.6553 17.024 14.186 17.772C13.4673 18.916 13.0347 19.9573 12.888 20.896H11.964ZM12.272 20.368H12.58C12.6533 19.6053 12.7707 18.8427 12.932 18.08C13.108 17.3027 13.306 16.584 13.526 15.924C13.7607 15.264 14.0027 14.7213 14.252 14.296C14.7507 14.0173 15.3447 13.7607 16.034 13.526C16.738 13.2913 17.464 13.0933 18.212 12.932C18.9747 12.7707 19.6787 12.668 20.324 12.624V12.316C19.6787 12.2573 18.9673 12.1473 18.19 11.986C17.4273 11.81 16.694 11.6047 15.99 11.37C15.286 11.1207 14.7067 10.864 14.252 10.6C14.0027 10.16 13.7607 9.61733 13.526 8.972C13.306 8.312 13.108 7.608 12.932 6.86C12.7707 6.09733 12.6533 5.33467 12.58 4.572H12.272C12.2133 5.26133 12.1033 5.98 11.942 6.728C11.7953 7.46133 11.6047 8.16533 11.37 8.84C11.1353 9.51467 10.8787 10.1013 10.6 10.6C10.1307 10.864 9.55133 11.1207 8.862 11.37C8.17267 11.6047 7.44667 11.81 6.684 11.986C5.92133 12.1473 5.20267 12.2573 4.528 12.316V12.624C5.20267 12.668 5.914 12.7707 6.662 12.932C7.41 13.0933 8.12867 13.2913 8.818 13.526C9.50733 13.7607 10.1013 14.0173 10.6 14.296C10.8787 14.7653 11.128 15.3447 11.348 16.034C11.5827 16.7087 11.7807 17.4273 11.942 18.19C12.1033 18.938 12.2133 19.664 12.272 20.368Z" fill="#6F6F6F"/>
</svg>
