<svg width="24" height="24" viewBox="0 0 24 24" fill="none" xmlns="http://www.w3.org/2000/svg">
<path d="M12.008 20.896C11.8467 19.9427 11.4213 18.916 10.732 17.816C10.0427 16.7013 9.06 15.6673 7.784 14.714C6.52267 13.7607 5.26133 13.152 4 12.888V11.964C5.24667 11.6707 6.442 11.128 7.586 10.336C8.74467 9.52933 9.71267 8.56133 10.49 7.432C11.282 6.27333 11.788 5.12933 12.008 4H12.932C13.064 4.73333 13.328 5.48867 13.724 6.266C14.12 7.02867 14.626 7.762 15.242 8.466C15.8727 9.15533 16.5767 9.77867 17.354 10.336C18.5127 11.1573 19.6933 11.7 20.896 11.964V12.888C20.0893 13.0493 19.2533 13.3793 18.388 13.878C17.5373 14.3767 16.7453 14.9707 16.012 15.66C15.2787 16.3347 14.6773 17.046 14.208 17.794C13.5187 18.894 13.0933 19.928 12.932 20.896H12.008Z" fill="#6F6F6F"/>
</svg>
