<svg width="22" height="22" viewBox="0 0 93 92" fill="rgb(159, 23, 6)" xmlns="http://www.w3.org/2000/svg">
<path fill-rule="evenodd" fill="rgb(159, 23, 6)" clip-rule="evenodd" d="M29.7533 2.47957e-06H63.2467C67.4057 -7.08639e-05 70.8383 -0.000130758 73.6344 0.254119C76.5386 0.518189 79.2082 1.08493 81.7158 2.50686C85.6045 4.71194 88.7661 8.2305 90.7475 12.5582C92.0251 15.3489 92.5344 18.3199 92.7717 21.552C93.0001 24.6638 93.0001 28.4839 93 33.1124V58.8876C93.0001 63.5161 93.0001 67.3362 92.7717 70.448C92.5344 73.6801 92.0251 76.6511 90.7475 79.4418C88.7661 83.7695 85.6045 87.2881 81.7158 89.4931C79.2082 90.9151 76.5386 91.4818 73.6344 91.7459C70.8382 92.0001 67.4057 92.0001 63.2466 92H29.7534C25.5943 92.0001 22.1618 92.0001 19.3656 91.7459C16.4614 91.4818 13.7918 90.9151 11.2842 89.4931C7.39552 87.2881 4.23392 83.7695 2.25254 79.4418C0.974868 76.6511 0.465619 73.6801 0.228338 70.448C-0.000117874 67.3361 -6.36745e-05 63.516 2.22834e-06 58.8875V33.1125C-6.36745e-05 28.484 -0.000117874 24.6639 0.228338 21.552C0.465619 18.3199 0.974867 15.3489 2.25254 12.5582C4.23392 8.2305 7.39552 4.71194 11.2842 2.50686C13.7918 1.08493 16.4614 0.518189 19.3656 0.254119C22.1617 -0.000130758 25.5943 -7.08639e-05 29.7533 2.47957e-06ZM20.207 11.7159C17.9419 11.9219 16.7835 12.2952 15.9754 12.7534C14.0311 13.856 12.4503 15.6152 11.4596 17.7791C11.0479 18.6784 10.7124 19.9676 10.5274 22.4885C10.3374 25.0765 10.3333 28.4247 10.3333 33.35V58.65C10.3333 63.5753 10.3374 66.9235 10.5274 69.5115C10.7124 72.0324 11.0479 73.3216 11.4596 74.2209C12.4503 76.3848 14.0311 78.144 15.9754 79.2466C16.7835 79.7048 17.9419 80.0781 20.207 80.2841C22.5325 80.4955 25.541 80.5 29.9667 80.5H63.0333C67.459 80.5 70.4675 80.4955 72.793 80.2841C75.0581 80.0781 76.2165 79.7048 77.0246 79.2466C78.9689 78.144 80.5497 76.3848 81.5404 74.2209C81.9521 73.3216 82.2876 72.0324 82.4727 69.5115C82.6627 66.9235 82.6667 63.5753 82.6667 58.65V33.35C82.6667 28.4247 82.6627 25.0765 82.4727 22.4885C82.2876 19.9676 81.9521 18.6784 81.5404 17.7791C80.5497 15.6152 78.9689 13.856 77.0246 12.7534C76.2165 12.2952 75.0581 11.9219 72.793 11.7159C70.4675 11.5045 67.459 11.5 63.0333 11.5H29.9667C25.541 11.5 22.5325 11.5045 20.207 11.7159Z"/>
<path d="M71.1712 23V69.2154H64.0208V23H71.1712Z" fill="rgb(159, 23, 6)"/>
<path fill-rule="evenodd" clip-rule="evenodd" d="M33.0498 23H44.9388L56.9882 69.2154H49.6013L46.8207 58.5503H31.1676L28.3868 69.2154H21L33.0498 23ZM33.0214 51.4403H44.967L39.4057 30.1101H38.5828L33.0214 51.4403Z" fill="rgb(159, 23, 6)"/>
</svg>
