<svg width="24" height="24" viewBox="0 0 24 24" fill="none" xmlns="http://www.w3.org/2000/svg">
<path d="M18.1197 2.02555C19.568 2.55517 20.2944 3.5029 20.2944 4.87805C20.2339 6.15996 19.7512 7.38393 18.9238 8.35308H18.5766V7.58188C18.593 7.38783 18.5464 7.19367 18.4441 7.02904C18.3573 6.91289 18.1563 6.8525 17.841 6.8525C17.2522 7.74546 16.7532 8.69644 16.3517 9.69106C16.0773 10.4052 15.9319 11.1637 15.9222 11.9303C15.9264 12.9905 16.3133 14.0122 17.0095 14.8014L18.901 17.0267C19.8864 18.0542 20.457 19.4202 20.5 20.8548C20.4951 21.456 20.3613 22.0488 20.1081 22.592C19.8548 23.1352 19.4881 23.6157 19.0335 24H18.4852C18.4739 23.0009 18.094 22.0425 17.4207 21.3148L8.55294 10.9547C7.03006 11.7321 6.26861 12.7309 6.26861 13.9512C6.27742 14.4553 6.41098 14.949 6.65695 15.3868C6.92231 15.8766 7.24274 16.3334 7.6118 16.748L8.74026 18.0163C9.11051 18.4407 9.42954 18.9086 9.69054 19.41C9.93675 19.8561 10.0702 20.3573 10.0789 20.8688C10.0715 21.5603 9.83307 22.2287 9.40271 22.7642C9.24884 23.0128 9.04052 23.2218 8.79404 23.3749C8.54755 23.5281 8.26959 23.6211 7.98186 23.6469H4.05281V23.0616C4.8706 22.8432 5.27721 22.3647 5.27721 21.626C5.27721 21.2544 4.98482 20.3484 4.39089 18.9129C3.79696 17.4774 3.5 16.4321 3.5 15.7956C3.5 13.6276 4.92542 11.7213 7.77627 10.0767L5.28178 7.18235C4.31918 6.15258 3.76439 4.79763 3.72386 3.37747C3.74262 2.11104 4.24186 0.900957 5.11731 0L5.6427 0C5.6235 1.07107 6.00009 2.11051 6.69807 2.91289L14.4008 11.7956C14.7496 9.97067 15.4499 8.23391 16.4613 6.68525C14.4298 6.36005 13.414 5.08866 13.414 2.87108C13.3915 1.84813 13.6855 0.843819 14.2546 0L14.7846 0C14.8685 0.39274 15.0617 0.752661 15.3412 1.03685C15.6206 1.32103 15.9746 1.51749 16.3608 1.60279L18.1197 2.02555Z" fill="#999999"/>
</svg>
