<svg width="15" height="19" viewBox="0 0 15 19" fill="none" xmlns="http://www.w3.org/2000/svg">
<path d="M3 6.5L3.00075 13.583C3.00075 14.2288 3.52275 14.75 4.1685 14.75H4.5V17.4065C4.5 18.0095 5.03025 18.5 5.6325 18.5C6.237 18.5 6.75 18.0095 6.75 17.4058V14.75H8.25V17.4065C8.25 18.0095 8.78025 18.5 9.38325 18.5C9.98775 18.5 10.5 18.0095 10.5 17.4058V14.75L10.833 14.7493C11.4765 14.7493 12 14.2272 12 13.5815V6.5H3ZM15 7.60325C15 6.9995 14.4788 6.5 13.875 6.5C13.2712 6.49925 12.75 7.00025 12.75 7.604V12.1835C12.75 12.788 13.2705 13.25 13.875 13.25C14.4788 13.25 15 12.7887 15 12.1835V7.60325ZM2.25 7.60325C2.25 6.9995 1.72875 6.5 1.125 6.5C0.52125 6.49925 0 7.00025 0 7.604V12.1835C0 12.788 0.5205 13.25 1.125 13.25C1.72875 13.25 2.25 12.7887 2.25 12.1835V7.60325ZM9.71325 2.11925L10.4183 0.725C10.4692 0.626 10.404 0.5 10.296 0.5C10.2465 0.5 10.1985 0.5285 10.173 0.57875L9.46125 1.98725C8.313 1.4345 6.80325 1.37825 5.5395 1.98725L4.827 0.57875C4.80225 0.5285 4.75425 0.5 4.704 0.5C4.596 0.5 4.53075 0.626 4.58175 0.725L5.28675 2.11925C3.903 2.89475 3 4.05725 3 5.74925H12C12 4.05725 11.097 2.89475 9.71325 2.11925ZM5.62575 4.25C5.41875 4.25 5.25 4.082 5.25 3.875C5.25 3.6695 5.41875 3.5 5.62575 3.5C5.83275 3.5 6 3.6695 6 3.875C6 4.082 5.83275 4.25 5.62575 4.25ZM9.37425 4.25C9.16725 4.25 9 4.082 9 3.875C9 3.6695 9.16725 3.5 9.37425 3.5C9.58125 3.5 9.75 3.6695 9.75 3.875C9.75 4.082 9.58125 4.25 9.37425 4.25Z" fill="#b5343c"/>
</svg>
