<svg width="24" height="24" viewBox="0 0 24 24" fill="none" xmlns="http://www.w3.org/2000/svg" preserveAspectRatio="none" >
<path d="M0 5.5H24V7.25H0V5.5Z" fill="#999999"/>
<path d="M0 9H18.8571V10.75H0V9Z" fill="#999999"/>
<path d="M0 2H24V3.75H0V2Z" fill="#999999"/>
<path d="M0 5.5H24V7.25H0V5.5Z" fill="#999999"/>
<path d="M0 9H18.8571V10.75H0V9Z" fill="#999999"/>
<path d="M0 2H24V3.75H0V2Z" fill="#999999"/>
<path d="M0 5.5H24V7.25H0V5.5Z" fill="#999999"/>
<path d="M0 9H18.8571V10.75H0V9Z" fill="#999999"/>
<path d="M0 2H24V3.75H0V2Z" fill="#999999"/>
<path d="M0 5.5H24V7.25H0V5.5Z" fill="#999999"/>
<path d="M0 9H18.8571V10.75H0V9Z" fill="#999999"/>
<path d="M0 2H24V3.75H0V2Z" fill="#999999"/>
<path d="M18.8571 23V21.25H0V23H18.8571Z" fill="#999999"/>
<path d="M24 19.5V17.75H0V19.5H24Z" fill="#999999"/>
<path d="M24 16V14.25H0V16H24Z" fill="#999999"/>
<path d="M18.8571 23V21.25H0V23H18.8571Z" fill="#999999"/>
<path d="M24 19.5V17.75H0V19.5H24Z" fill="#999999"/>
<path d="M24 16V14.25H0V16H24Z" fill="#999999"/>
<path d="M18.8571 23V21.25H0V23H18.8571Z" fill="#999999"/>
<path d="M24 19.5V17.75H0V19.5H24Z" fill="#999999"/>
<path d="M24 16V14.25H0V16H24Z" fill="#999999"/>
<path d="M18.8571 23V21.25H0V23H18.8571Z" fill="#999999"/>
<path d="M24 19.5V17.75H0V19.5H24Z" fill="#999999"/>
<path d="M24 16V14.25H0V16H24Z" fill="#999999"/>
</svg>
