<svg width="24" height="24" viewBox="0 0 24 24" fill="none" xmlns="http://www.w3.org/2000/svg" preserveAspectRatio="none" >
<path d="M0 5.33333H9.42857V7H0V5.33333Z" fill="#999999"/>
<path d="M0 8.66667H4.28572V10.3333H0V8.66667Z" fill="#999999"/>
<path d="M18.8571 10.3333V8.66667H14.5714V10.3333H18.8571Z" fill="#999999"/>
<path d="M24 7V5.33333H14.5714V7H24Z" fill="#999999"/>
<path d="M0 2H9.42857V3.66667H0V2Z" fill="#999999"/>
<path d="M24 3.66667V2H14.5714V3.66667H24Z" fill="#999999"/>
<path d="M0 5.33333H9.42857V7H0V5.33333Z" fill="#999999"/>
<path d="M0 8.66667H4.28572V10.3333H0V8.66667Z" fill="#999999"/>
<path d="M18.8571 10.3333V8.66667H14.5714V10.3333H18.8571Z" fill="#999999"/>
<path d="M24 7V5.33333H14.5714V7H24Z" fill="#999999"/>
<path d="M0 2H9.42857V3.66667H0V2Z" fill="#999999"/>
<path d="M24 3.66667V2H14.5714V3.66667H24Z" fill="#999999"/>
<path d="M0 5.33333H9.42857V7H0V5.33333Z" fill="#999999"/>
<path d="M0 8.66667H4.28572V10.3333H0V8.66667Z" fill="#999999"/>
<path d="M18.8571 10.3333V8.66667H14.5714V10.3333H18.8571Z" fill="#999999"/>
<path d="M24 7V5.33333H14.5714V7H24Z" fill="#999999"/>
<path d="M0 2H9.42857V3.66667H0V2Z" fill="#999999"/>
<path d="M24 3.66667V2H14.5714V3.66667H24Z" fill="#999999"/>
<path d="M0 5.33333H9.42857V7H0V5.33333Z" fill="#999999"/>
<path d="M0 8.66667H4.28572V10.3333H0V8.66667Z" fill="#999999"/>
<path d="M18.8571 10.3333V8.66667H14.5714V10.3333H18.8571Z" fill="#999999"/>
<path d="M24 7V5.33333H14.5714V7H24Z" fill="#999999"/>
<path d="M0 2H9.42857V3.66667H0V2Z" fill="#999999"/>
<path d="M24 3.66667V2H14.5714V3.66667H24Z" fill="#999999"/>
<path d="M0 17H9.42857V18.6667H0V17Z" fill="#999999"/>
<path d="M0 20.3333H4.28572V22H0V20.3333Z" fill="#999999"/>
<path d="M18.8571 22V20.3333H14.5714V22H18.8571Z" fill="#999999"/>
<path d="M24 18.6667V17H14.5714V18.6667H24Z" fill="#999999"/>
<path d="M0 13.6667H9.42857V15.3333H0V13.6667Z" fill="#999999"/>
<path d="M24 15.3333V13.6667H14.5714V15.3333H24Z" fill="#999999"/>
<path d="M0 17H9.42857V18.6667H0V17Z" fill="#999999"/>
<path d="M0 20.3333H4.28572V22H0V20.3333Z" fill="#999999"/>
<path d="M18.8571 22V20.3333H14.5714V22H18.8571Z" fill="#999999"/>
<path d="M24 18.6667V17H14.5714V18.6667H24Z" fill="#999999"/>
<path d="M0 13.6667H9.42857V15.3333H0V13.6667Z" fill="#999999"/>
<path d="M24 15.3333V13.6667H14.5714V15.3333H24Z" fill="#999999"/>
<path d="M0 17H9.42857V18.6667H0V17Z" fill="#999999"/>
<path d="M0 20.3333H4.28572V22H0V20.3333Z" fill="#999999"/>
<path d="M18.8571 22V20.3333H14.5714V22H18.8571Z" fill="#999999"/>
<path d="M24 18.6667V17H14.5714V18.6667H24Z" fill="#999999"/>
<path d="M0 13.6667H9.42857V15.3333H0V13.6667Z" fill="#999999"/>
<path d="M24 15.3333V13.6667H14.5714V15.3333H24Z" fill="#999999"/>
<path d="M0 17H9.42857V18.6667H0V17Z" fill="#999999"/>
<path d="M0 20.3333H4.28572V22H0V20.3333Z" fill="#999999"/>
<path d="M18.8571 22V20.3333H14.5714V22H18.8571Z" fill="#999999"/>
<path d="M24 18.6667V17H14.5714V18.6667H24Z" fill="#999999"/>
<path d="M0 13.6667H9.42857V15.3333H0V13.6667Z" fill="#999999"/>
<path d="M24 15.3333V13.6667H14.5714V15.3333H24Z" fill="#999999"/>
</svg>
