<svg width="24" height="24" viewBox="0 0 24 24" fill="none" xmlns="http://www.w3.org/2000/svg" preserveAspectRatio="none" >
<path d="M24 5.33333H0V7H24V5.33333Z" fill="#999999"/>
<path d="M24 8.66667H5.14286V10.3333H24V8.66667Z" fill="#999999"/>
<path d="M24 2H0V3.66667H24V2Z" fill="#999999"/>
<path d="M24 5.33333H0V7H24V5.33333Z" fill="#999999"/>
<path d="M24 8.66667H5.14286V10.3333H24V8.66667Z" fill="#999999"/>
<path d="M24 2H0V3.66667H24V2Z" fill="#999999"/>
<path d="M24 5.33333H0V7H24V5.33333Z" fill="#999999"/>
<path d="M24 8.66667H5.14286V10.3333H24V8.66667Z" fill="#999999"/>
<path d="M24 2H0V3.66667H24V2Z" fill="#999999"/>
<path d="M24 5.33333H0V7H24V5.33333Z" fill="#999999"/>
<path d="M24 8.66667H5.14286V10.3333H24V8.66667Z" fill="#999999"/>
<path d="M24 2H0V3.66667H24V2Z" fill="#999999"/>
<path d="M5.14286 22V20.3333H24V22H5.14286Z" fill="#999999"/>
<path d="M0 18.6667V17H24V18.6667H0Z" fill="#999999"/>
<path d="M0 15.3333V13.6667H24V15.3333H0Z" fill="#999999"/>
<path d="M5.14286 22V20.3333H24V22H5.14286Z" fill="#999999"/>
<path d="M0 18.6667V17H24V18.6667H0Z" fill="#999999"/>
<path d="M0 15.3333V13.6667H24V15.3333H0Z" fill="#999999"/>
<path d="M5.14286 22V20.3333H24V22H5.14286Z" fill="#999999"/>
<path d="M0 18.6667V17H24V18.6667H0Z" fill="#999999"/>
<path d="M0 15.3333V13.6667H24V15.3333H0Z" fill="#999999"/>
<path d="M5.14286 22V20.3333H24V22H5.14286Z" fill="#999999"/>
<path d="M0 18.6667V17H24V18.6667H0Z" fill="#999999"/>
<path d="M0 15.3333V13.6667H24V15.3333H0Z" fill="#999999"/>
</svg>
