<svg width="16" height="16" viewBox="0 0 16 16" fill="none" xmlns="http://www.w3.org/2000/svg">
<path d="M16 8C16 3.582 12.418 -1.56574e-07 8 -3.49691e-07C3.582 -5.42808e-07 -1.56574e-07 3.582 -3.49691e-07 8C-5.42808e-07 12.418 3.582 16 8 16C12.418 16 16 12.418 16 8ZM8 14C6.70667 14 5.51 13.584 4.52866 12.8853L12.8853 4.52867C13.584 5.51 14 6.70667 14 8C14 11.308 11.308 14 8 14ZM8 2C9.29333 2 10.49 2.416 11.4713 3.11467L3.11533 11.4707C2.416 10.49 2 9.29333 2 8C2 4.692 4.692 2 8 2Z" fill="#999999"/>
</svg>
