<svg width="32" height="32" viewBox="0 0 32 32" fill="none" xmlns="http://www.w3.org/2000/svg"><rect width="32" height="32" fill="transparent" /><path d="M4.68796 27.3118C3.15979 25.8359 1.94088 24.0704 1.10233 22.1183C0.26379 20.1662 -0.17759 18.0667 -0.196051 15.9423C-0.214512 13.8178 0.190315 11.7109 0.994809 9.74457C1.7993 7.77823 2.98735 5.9918 4.48964 4.48951C5.99192 2.98723 7.77835 1.79918 9.74469 0.994687C11.711 0.190193 13.8179 -0.214634 15.9424 -0.196173C18.0668 -0.177712 20.1664 0.263667 22.1184 1.10221C24.0705 1.94076 25.836 3.15967 27.312 4.68783C30.2265 7.70547 31.8392 11.7471 31.8027 15.9423C31.7663 20.1374 30.0836 24.1504 27.1171 27.1169C24.1505 30.0835 20.1375 31.7662 15.9424 31.8026C11.7472 31.8391 7.70559 30.2264 4.68796 27.3118ZM6.94396 25.0558C9.34576 27.4576 12.6033 28.807 16 28.807C19.3966 28.807 22.6542 27.4576 25.056 25.0558C27.4578 22.654 28.8071 19.3965 28.8071 15.9998C28.8071 12.6032 27.4578 9.34563 25.056 6.94383C22.6542 4.54203 19.3966 3.19272 16 3.19272C12.6033 3.19272 9.34576 4.54203 6.94396 6.94383C4.54216 9.34563 3.19284 12.6032 3.19284 15.9998C3.19284 19.3965 4.54216 22.654 6.94396 25.0558ZM22.784 11.4718L18.256 15.9998L22.784 20.5278L20.528 22.7838L16 18.2558L11.472 22.7838L9.21596 20.5278L13.744 15.9998L9.21596 11.4718L11.472 9.21583L16 13.7438L20.528 9.21583L22.784 11.4718Z" fill="#666666"/></svg>
