<svg width="17" height="18" viewBox="0 0 17 18" fill="none" xmlns="http://www.w3.org/2000/svg">
<path fill-rule="evenodd" clip-rule="evenodd" d="M11.2476 18H1.79349C1.79349 18 2.34402 15.0516 2.26826 13.7353C2.23751 13.1923 2.14751 12.6298 1.86325 12.1573C1.37948 11.4072 -0.113835 9.36714 0.00691964 6.58452C0.174927 2.67761 3.52682 0 7.60174 0C11.4254 0 13.9823 2.25084 14.9955 5.61248C15.2416 6.42177 15.2288 6.76828 14.8823 7.56782L14.8778 7.57757L16.1911 9.18413C16.3861 9.46989 16.5009 9.77741 16.5009 10.1134C16.5009 10.5237 16.3261 10.8972 16.0433 11.1627C15.7673 11.4215 15.4681 11.5017 15.1073 11.6442C15.1073 11.6442 14.6753 13.5883 14.4525 14.1126C13.9275 15.3449 12.975 15.3569 12.2249 15.4994C11.9294 15.5616 11.8574 15.5991 11.7142 16.0102C11.5582 16.4534 11.4419 17.0865 11.2476 18ZM7.61599 1.49931C4.4021 1.53531 1.81074 3.41039 1.52498 6.36552C1.38098 7.85883 1.87225 9.35514 2.66203 10.6444C3.1203 11.3945 3.64082 11.8385 3.76008 13.5508C3.82833 14.5356 3.72257 15.5279 3.57932 16.4999H10.0326C10.1383 16.0162 10.2951 15.3861 10.5479 14.9571C10.8846 14.3826 11.3706 14.1328 11.9924 14.0166C12.6209 13.9056 12.921 13.9723 13.1092 13.4278C13.2682 12.9935 13.5682 11.762 13.7325 10.5012C14.6348 10.2499 14.1915 10.3804 14.9858 10.0819C14.8313 9.90641 13.5472 8.34635 13.452 8.13184C13.2 7.56256 13.4175 7.2393 13.6207 6.69703C13.6852 6.50877 13.6657 6.42927 13.614 6.23726C12.8272 3.27539 10.6956 1.49931 7.61599 1.49931ZM8.006 3.74941C8.18751 4.26243 8.24001 4.59094 8.63678 4.7552H8.63753C9.03505 4.92096 9.30731 4.7222 9.79483 4.49044L10.5096 5.20447C10.2756 5.69574 10.0798 5.9665 10.2441 6.36251V6.36327C10.4084 6.75928 10.7339 6.81103 11.2506 6.99404V8.00433C10.7399 8.18659 10.4084 8.23909 10.2441 8.63661C10.0791 9.03338 10.2763 9.30489 10.5096 9.79466L9.79483 10.5087C9.30206 10.2739 9.0343 10.0782 8.63903 10.2424H8.63828C8.24001 10.4089 8.18751 10.7382 8.006 11.2497H6.99496C6.81345 10.7367 6.76095 10.4082 6.36418 10.2447L6.36343 10.2439C5.96667 10.0782 5.69441 10.2762 5.20539 10.5087L4.49136 9.79466C4.72012 9.31239 4.92187 9.03638 4.75612 8.63586C4.59111 8.23909 4.26035 8.18659 3.75033 8.00433V6.99404C4.2611 6.81253 4.59111 6.76003 4.75612 6.36327C4.92112 5.965 4.72462 5.69499 4.49136 5.20447L5.20539 4.49044C5.69816 4.72445 5.96667 4.92021 6.36343 4.7552H6.36418C6.76095 4.59094 6.81345 4.25943 6.99496 3.74941H8.006ZM7.50048 8.74986C6.81045 8.74986 6.25018 8.19034 6.25018 7.49956C6.25018 6.80878 6.81045 6.24926 7.50048 6.24926C8.19051 6.24926 8.75003 6.80878 8.75003 7.49956C8.75003 8.19034 8.19051 8.74986 7.50048 8.74986Z" fill="#999999"/>
</svg>
