<svg width="18" height="5" viewBox="0 0 18 5" fill="none" xmlns="http://www.w3.org/2000/svg">
<path d="M4.5 2.25C4.5 3.49275 3.49275 4.5 2.25 4.5C1.00725 4.5 0 3.49275 0 2.25C0 1.00725 1.00725 0 2.25 0C3.49275 0 4.5 1.00725 4.5 2.25ZM11.25 2.25C11.25 3.49275 10.2428 4.5 9 4.5C7.75725 4.5 6.75 3.49275 6.75 2.25C6.75 1.00725 7.75725 0 9 0C10.2428 0 11.25 1.00725 11.25 2.25ZM18 2.25C18 3.49275 16.9928 4.5 15.75 4.5C14.5072 4.5 13.5 3.49275 13.5 2.25C13.5 1.00725 14.5072 0 15.75 0C16.9928 0 18 1.00725 18 2.25Z" fill="#999999"/>
</svg>
