<svg width="24" height="22" viewBox="0 0 24 22" fill="none" xmlns="http://www.w3.org/2000/svg">
<path fill-rule="evenodd" clip-rule="evenodd" d="M12 0C12.5098 0 12.9231 0.413274 12.9231 0.923073V8.67688C12.9231 9.18668 12.5098 9.59996 12 9.59996C11.4902 9.59996 11.0769 9.18668 11.0769 8.67688V0.923073C11.0769 0.413274 11.4902 0 12 0ZM6.10352e-05 6.46151C6.10352e-05 5.95171 0.413335 5.53844 0.923134 5.53844H5.35388C5.86368 5.53844 6.27696 5.95171 6.27696 6.46151C6.27696 6.97131 5.86368 7.38458 5.35388 7.38458H1.84621V19.9384H22.1538V7.38458H18.6461C18.1363 7.38458 17.7231 6.97131 17.7231 6.46151C17.7231 5.95171 18.1363 5.53844 18.6461 5.53844H23.0769C23.5867 5.53844 24 5.95171 24 6.46151V20.8614C24 21.3712 23.5867 21.7845 23.0769 21.7845H0.923134C0.413335 21.7845 6.10352e-05 21.3712 6.10352e-05 20.8614V6.46151Z" fill="#000000"/>
<path fill-rule="evenodd" clip-rule="evenodd" d="M8.02421 4.7011C8.38469 4.34062 8.96915 4.34062 9.32963 4.7011L12 7.37145L14.6703 4.7011C15.0308 4.34062 15.6153 4.34062 15.9758 4.7011C16.3362 5.06158 16.3362 5.64604 15.9758 6.00652L12.6527 9.32959C12.4796 9.5027 12.2448 9.59995 12 9.59995C11.7552 9.59995 11.5204 9.5027 11.3473 9.32959L8.02421 6.00652C7.66372 5.64604 7.66372 5.06158 8.02421 4.7011Z" fill="#000000"/>
<path fill-rule="evenodd" clip-rule="evenodd" d="M0.184669 5.90767C0.490548 5.49983 1.06913 5.41717 1.47697 5.72305L12 13.6153L22.523 5.72305C22.9309 5.41717 23.5095 5.49983 23.8153 5.90767C24.1212 6.31551 24.0386 6.89409 23.6307 7.19997L12.5538 15.5076C12.2256 15.7538 11.7744 15.7538 11.4462 15.5076L0.369283 7.19997C-0.0385557 6.89409 -0.121211 6.31551 0.184669 5.90767Z" fill="#000000"/>
</svg>
