<?xml version="1.0" encoding="UTF-8" standalone="no"?>
<!-- Created with Inkscape (http://www.inkscape.org/) -->

<svg
   width="24"
   height="24"
   viewBox="0 0 130.73396 124.27034"
   version="1.1"
   id="svg1"
   xml:space="preserve"
   xmlns="http://www.w3.org/2000/svg"
   xmlns:svg="http://www.w3.org/2000/svg"><defs
     id="defs1" /><g
     id="layer1"
     transform="translate(-21.781422,-69.588262)"><path
       style="fill:#999999;fill-opacity:1;stroke:none;stroke-width:2.073;stroke-linecap:square;stroke-linejoin:miter;stroke-dasharray:none;stroke-opacity:1;paint-order:fill markers stroke"
       d="m 90.953615,108.1012 c -2.713799,0.96376 -2.713799,0.96376 -2.713799,0.96376"
       id="path2" /><path
       style="fill:#999999;fill-opacity:1;stroke:#999999;stroke-width:4;stroke-dasharray:none;stroke-opacity:1"
       d="m 69.824741,191.38876 c -1.468489,-0.79679 -1.52468,-1.17596 -1.52468,-10.28831 v -8.34751 H 53.267405 c -22.009776,0 -26.589139,-1.92591 -29.011235,-12.20101 -0.701137,-2.97439 -0.594955,-61.853032 0.116563,-64.635052 1.417769,-5.543417 5.465976,-9.65638 11.266105,-11.446313 1.486569,-0.458759 3.234073,-0.485334 31.91416,-0.485334 h 30.341474 l 0.74707,0.554438 c 1.577428,1.1707 1.667618,3.50746 0.189,4.896759 l -0.675,0.63422 -30.339718,0.132291 -30.339719,0.132292 -1.646337,0.760456 c -1.933798,0.893238 -4.050838,2.986531 -4.916889,4.861741 l -0.580524,1.25697 v 31.220832 31.22083 l 0.899345,1.6585 c 1.034564,1.90786 2.326504,3.17063 4.316676,4.21921 l 1.398562,0.73688 17.739079,0.13229 c 22.258655,0.166 19.769255,-0.96196 19.964045,9.04579 l 0.13229,6.79683 9.525,-7.1562 c 5.23875,-3.93592 9.9924,-7.47074 10.56367,-7.85517 l 1.03867,-0.69896 17.614448,-0.13229 c 17.43701,-0.13096 17.62712,-0.13814 18.87143,-0.71282 1.87521,-0.86605 3.9685,-2.98309 4.86174,-4.91689 l 0.76045,-1.64633 0.13229,-23.98977 0.1323,-23.98977 0.63422,-0.67495 c 1.38937,-1.4786 3.72613,-1.38835 4.89676,0.18911 0.55334,0.74565 0.55443,0.79469 0.55443,24.87084 v 24.1237 l -0.8096,2.26065 c -3.45999,9.66126 -6.64722,10.83623 -29.39454,10.83623 H 97.934752 l -12.70501,9.525 c -13.782377,10.3327 -13.481277,10.15462 -15.405001,9.11082 z m -25.490555,-44.5332 c -2.252228,-1.3775 -1.675128,-4.85075 0.931282,-5.60487 0.63263,-0.18304 13.597194,-0.24674 39.485544,-0.19399 l 38.543668,0.0785 0.74696,0.55444 c 1.57737,1.17081 1.66748,3.50758 0.18882,4.89676 l -0.67507,0.63422 -39.203178,0.0666 c -37.994075,0.0646 -39.228323,0.0513 -40.018026,-0.43173 z m 0,-19.04825 c -2.251676,-1.38201 -1.676171,-4.84815 0.931282,-5.60891 2.059906,-0.60101 33.466244,-0.19727 34.326334,0.44127 1.57718,1.17092 1.66725,3.50754 0.18876,4.89676 l -0.67498,0.63422 -16.978281,0.0684 c -16.25185,0.0655 -17.013144,0.047 -17.793115,-0.43173 z m 50.799996,0.003 c -1.39401,-0.86124 -1.4661,-1.35125 -1.38019,-9.38128 l 0.0784,-7.3238 19.579158,-19.605588 c 24.39474,-24.427652 20.97743,-23.105372 30.66367,-13.408478 9.6781,9.688748 10.84495,6.0595 -13.46494,30.367726 l -19.7128,19.71146 -7.47421,0.0717 c -6.956718,0.0667 -7.530628,0.0368 -8.289048,-0.43173 z m 30.644728,-23.25214 17.39597,-17.39448 -4.16413,-4.170245 -4.16414,-4.170245 -17.39828,17.396778 -17.39827,17.396782 v 4.16794 4.16794 h 4.16644 4.16644 z"
       id="path3" /></g></svg>
