<svg width="18" height="18" viewBox="0 0 18 18" fill="none" xmlns="http://www.w3.org/2000/svg">
<path d="M9 1.5C13.1355 1.5 16.5 4.8645 16.5 9C16.5 13.1355 13.1355 16.5 9 16.5C4.8645 16.5 1.5 13.1355 1.5 9C1.5 4.8645 4.8645 1.5 9 1.5ZM9 0C4.02975 0 0 4.02975 0 9C0 13.9703 4.02975 18 9 18C13.9703 18 18 13.9703 18 9C18 4.02975 13.9703 0 9 0ZM9.9375 12.75C9.9375 13.2675 9.51825 13.6875 9 13.6875C8.48325 13.6875 8.0625 13.2675 8.0625 12.75C8.0625 12.2325 8.48325 11.8125 9 11.8125C9.51825 11.8125 9.9375 12.2325 9.9375 12.75ZM10.9823 5.2515C10.5262 4.7895 9.846 4.53525 9.069 4.53525C7.434 4.53525 6.3765 5.69775 6.3765 7.49775H7.88475C7.88475 6.38325 8.5065 5.988 9.03825 5.988C9.51375 5.988 10.0185 6.30375 10.0612 6.9075C10.1077 7.54275 9.76875 7.86525 9.33975 8.27325C8.28075 9.2805 8.26125 9.768 8.26575 10.8742H9.7695C9.75975 10.3762 9.792 9.972 10.4708 9.24075C10.9785 8.69325 11.61 8.01225 11.6227 6.97425C11.631 6.28125 11.4097 5.685 10.9823 5.2515Z" fill="#999"/>
</svg>
