<svg width="16" height="17" viewBox="0 0 16 17" fill="none" xmlns="http://www.w3.org/2000/svg">
<path d="M7.98933 11.51C9.72 11.51 11.1267 10.1027 11.1267 8.372C11.1267 7.43267 10.7113 6.58934 10.056 6.01334C9.82533 5.81134 9.566 5.64267 9.284 5.51467C8.88867 5.33467 8.45133 5.234 7.99 5.234C7.52867 5.234 7.09067 5.33467 6.696 5.51467C6.41333 5.644 6.15333 5.81267 5.924 6.014C5.26733 6.59 4.852 7.43334 4.852 8.37267C4.852 10.1027 6.26 11.51 7.98933 11.51ZM8 6.054C9.28067 6.054 10.3193 7.092 10.3193 8.37267C10.3193 9.65334 9.28067 10.692 8 10.692C6.71933 10.692 5.68067 9.654 5.68067 8.37267C5.68067 7.092 6.71933 6.054 8 6.054ZM11.482 6.3H16V13.152C16 14.8907 14.5907 16.3 12.852 16.3H3.19C1.45133 16.3 0 14.8907 0 13.152V6.3H4.498C4.13533 6.90867 3.91667 7.61267 3.91667 8.37267C3.91667 10.622 5.74 12.4453 7.98933 12.4453C10.2387 12.4453 12.062 10.622 12.062 8.37267C12.0627 7.61267 11.844 6.90867 11.482 6.3ZM12.852 0.300003H4.66667V3.63334H4V0.300003H3.33333V3.63334H2.66667V0.351336C2.436 0.389336 2.212 0.44667 2 0.531336V3.63334H1.33333V0.89867C0.532 1.47 0 2.396 0 3.448V5.63334H4.982C5.76 4.77867 6.84733 4.3 7.98933 4.3C9.13733 4.3 10.2233 4.78334 10.9967 5.63334H16V3.448C16 1.70934 14.5907 0.300003 12.852 0.300003V0.300003ZM14.6667 3.81C14.6667 4.08067 14.4447 4.3 14.17 4.3H12.496C12.222 4.3 12 4.08067 12 3.81V2.12334C12 1.85267 12.222 1.63334 12.496 1.63334H14.17C14.4447 1.63334 14.6667 1.85267 14.6667 2.12334V3.81Z" fill="#b5343c"/>
</svg>
