<svg width="15" height="18" viewBox="0 0 15 18" fill="none" xmlns="http://www.w3.org/2000/svg">
<path d="M15.0005 13.2057C14.411 14.9157 12.6462 17.9436 10.8281 17.9766C9.62206 17.9998 9.2343 17.2618 7.85575 17.2618C6.47796 17.2618 6.0467 17.9541 4.90666 17.9991C2.9776 18.0733 0 13.6287 0 9.75257C0 6.1922 2.48108 4.42739 4.64865 4.39514C5.81119 4.37414 6.90922 5.17892 7.618 5.17892C8.32977 5.17892 9.66331 4.21139 11.0651 4.35314C11.6516 4.37789 13.2994 4.5894 14.357 6.13595C11.5511 7.96751 11.9884 11.7979 15.0005 13.2057ZM11.0839 0C8.96429 0.0855028 7.23473 2.30932 7.47624 4.14838C9.43531 4.30064 11.3149 2.10457 11.0839 0Z" fill="#b5343c"/>
</svg>
