<svg width="24" height="20" viewBox="0 0 24 20" fill="none" xmlns="http://www.w3.org/2000/svg">
<path d="M12 2.707C9.062 0.877 4.584 0.14 0 0V17.714C3.937 17.834 7.795 18.395 10.667 19.709C11.513 20.097 12.484 20.097 13.334 19.709C16.206 18.395 20.063 17.834 24 17.714V0C19.416 0.14 14.938 0.877 12 2.707ZM2 15.811V2.107C7.157 2.496 9.527 3.57 11 4.441V17.609C9.475 17.063 6.284 16.104 2 15.811ZM22 15.811C17.717 16.104 14.525 17.063 13 17.61V4.439C14.453 3.578 16.83 2.497 22 2.107V15.811Z" fill="#18345D"/>
</svg>
