<svg width="30" height="30" viewBox="0 0 30 30" fill="none" xmlns="http://www.w3.org/2000/svg">
<path d="M15 0C6.71625 0 0 6.71625 0 15C0 23.2838 6.71625 30 15 30C23.2838 30 30 23.2838 30 15C30 6.71625 23.2838 0 15 0ZM24.6912 22.8813C24.365 22.1488 23.705 21.6425 22.3525 21.33C19.4862 20.6687 16.8175 20.0888 18.1112 17.6488C22.0425 10.2213 19.1525 6.25 15 6.25C10.765 6.25 7.945 10.3738 11.8888 17.6488C13.2212 20.1038 10.4537 20.6825 7.6475 21.33C6.2925 21.6425 5.6375 22.1525 5.31375 22.8875C3.5575 20.7337 2.5 17.9888 2.5 15C2.5 8.1075 8.1075 2.5 15 2.5C21.8925 2.5 27.5 8.1075 27.5 15C27.5 17.9862 26.4438 20.7288 24.6912 22.8813Z" fill="#666666"/>
</svg>
