<svg width="18" height="15" viewBox="0 0 18 15" fill="none" xmlns="http://www.w3.org/2000/svg">
<path d="M6 5.25V2.25L12 7.5L6 12.75V9.75H0V5.25H6ZM10.5 0C9.15975 0 7.905 0.3555 6.81675 0.97125L6.98775 1.12125L8.034 2.037C8.787 1.695 9.62025 1.5 10.5 1.5C13.8082 1.5 16.5 4.19175 16.5 7.5C16.5 10.8082 13.8082 13.5 10.5 13.5C9.62025 13.5 8.787 13.305 8.034 12.9637L6.98775 13.8795L6.81675 14.0295C7.905 14.6445 9.15975 15 10.5 15C14.6415 15 18 11.6423 18 7.5C18 3.35775 14.6415 0 10.5 0Z" fill="#999999"/>
</svg>
