<svg width="24" height="24" viewBox="0 0 24 24" fill="none" xmlns="http://www.w3.org/2000/svg" preserveAspectRatio="none" >
<path d="M24 5.5H0V7.25H24V5.5Z" fill="#999999"/>
<path d="M24 9H5.14286V10.75H24V9Z" fill="#999999"/>
<path d="M24 2H0V3.75H24V2Z" fill="#999999"/>
<path d="M24 5.5H0V7.25H24V5.5Z" fill="#999999"/>
<path d="M24 9H5.14286V10.75H24V9Z" fill="#999999"/>
<path d="M24 2H0V3.75H24V2Z" fill="#999999"/>
<path d="M24 5.5H0V7.25H24V5.5Z" fill="#999999"/>
<path d="M24 9H5.14286V10.75H24V9Z" fill="#999999"/>
<path d="M24 2H0V3.75H24V2Z" fill="#999999"/>
<path d="M24 5.5H0V7.25H24V5.5Z" fill="#999999"/>
<path d="M24 9H5.14286V10.75H24V9Z" fill="#999999"/>
<path d="M24 2H0V3.75H24V2Z" fill="#999999"/>
<path d="M0 23V21.25H18.8571V23H0Z" fill="#999999"/>
<path d="M0 19.5V17.75H24V19.5H0Z" fill="#999999"/>
<path d="M0 16V14.25H24V16H0Z" fill="#999999"/>
<path d="M0 23V21.25H18.8571V23H0Z" fill="#999999"/>
<path d="M0 19.5V17.75H24V19.5H0Z" fill="#999999"/>
<path d="M0 16V14.25H24V16H0Z" fill="#999999"/>
<path d="M0 23V21.25H18.8571V23H0Z" fill="#999999"/>
<path d="M0 19.5V17.75H24V19.5H0Z" fill="#999999"/>
<path d="M0 16V14.25H24V16H0Z" fill="#999999"/>
<path d="M0 23V21.25H18.8571V23H0Z" fill="#999999"/>
<path d="M0 19.5V17.75H24V19.5H0Z" fill="#999999"/>
<path d="M0 16V14.25H24V16H0Z" fill="#999999"/>
</svg>
