<svg width="24" height="24" viewBox="0 0 24 24" fill="none" xmlns="http://www.w3.org/2000/svg" preserveAspectRatio="none" >
<path d="M9.42857 5.33333H0V7H9.42857V5.33333Z" fill="#999999"/>
<path d="M9.42857 8.66667H5.14286V10.3333H9.42857V8.66667Z" fill="#999999"/>
<path d="M14.5714 10.3333V8.66667H18.8571V10.3333H14.5714Z" fill="#999999"/>
<path d="M14.5714 7V5.33333H24V7H14.5714Z" fill="#999999"/>
<path d="M9.42857 2H0V3.66667H9.42857V2Z" fill="#999999"/>
<path d="M14.5714 3.66667V2H24V3.66667H14.5714Z" fill="#999999"/>
<path d="M9.42857 5.33333H0V7H9.42857V5.33333Z" fill="#999999"/>
<path d="M9.42857 8.66667H5.14286V10.3333H9.42857V8.66667Z" fill="#999999"/>
<path d="M14.5714 10.3333V8.66667H18.8571V10.3333H14.5714Z" fill="#999999"/>
<path d="M14.5714 7V5.33333H24V7H14.5714Z" fill="#999999"/>
<path d="M9.42857 2H0V3.66667H9.42857V2Z" fill="#999999"/>
<path d="M14.5714 3.66667V2H24V3.66667H14.5714Z" fill="#999999"/>
<path d="M9.42857 5.33333H0V7H9.42857V5.33333Z" fill="#999999"/>
<path d="M9.42857 8.66667H5.14286V10.3333H9.42857V8.66667Z" fill="#999999"/>
<path d="M14.5714 10.3333V8.66667H18.8571V10.3333H14.5714Z" fill="#999999"/>
<path d="M14.5714 7V5.33333H24V7H14.5714Z" fill="#999999"/>
<path d="M9.42857 2H0V3.66667H9.42857V2Z" fill="#999999"/>
<path d="M14.5714 3.66667V2H24V3.66667H14.5714Z" fill="#999999"/>
<path d="M9.42857 5.33333H0V7H9.42857V5.33333Z" fill="#999999"/>
<path d="M9.42857 8.66667H5.14286V10.3333H9.42857V8.66667Z" fill="#999999"/>
<path d="M14.5714 10.3333V8.66667H18.8571V10.3333H14.5714Z" fill="#999999"/>
<path d="M14.5714 7V5.33333H24V7H14.5714Z" fill="#999999"/>
<path d="M9.42857 2H0V3.66667H9.42857V2Z" fill="#999999"/>
<path d="M14.5714 3.66667V2H24V3.66667H14.5714Z" fill="#999999"/>
<path d="M9.42857 17H0V18.6667H9.42857V17Z" fill="#999999"/>
<path d="M9.42857 20.3333H5.14286V22H9.42857V20.3333Z" fill="#999999"/>
<path d="M14.5714 22V20.3333H18.8571V22H14.5714Z" fill="#999999"/>
<path d="M14.5714 18.6667V17H24V18.6667H14.5714Z" fill="#999999"/>
<path d="M9.42857 13.6667H0V15.3333H9.42857V13.6667Z" fill="#999999"/>
<path d="M14.5714 15.3333V13.6667H24V15.3333H14.5714Z" fill="#999999"/>
<path d="M9.42857 17H0V18.6667H9.42857V17Z" fill="#999999"/>
<path d="M9.42857 20.3333H5.14286V22H9.42857V20.3333Z" fill="#999999"/>
<path d="M14.5714 22V20.3333H18.8571V22H14.5714Z" fill="#999999"/>
<path d="M14.5714 18.6667V17H24V18.6667H14.5714Z" fill="#999999"/>
<path d="M9.42857 13.6667H0V15.3333H9.42857V13.6667Z" fill="#999999"/>
<path d="M14.5714 15.3333V13.6667H24V15.3333H14.5714Z" fill="#999999"/>
<path d="M9.42857 17H0V18.6667H9.42857V17Z" fill="#999999"/>
<path d="M9.42857 20.3333H5.14286V22H9.42857V20.3333Z" fill="#999999"/>
<path d="M14.5714 22V20.3333H18.8571V22H14.5714Z" fill="#999999"/>
<path d="M14.5714 18.6667V17H24V18.6667H14.5714Z" fill="#999999"/>
<path d="M9.42857 13.6667H0V15.3333H9.42857V13.6667Z" fill="#999999"/>
<path d="M14.5714 15.3333V13.6667H24V15.3333H14.5714Z" fill="#999999"/>
<path d="M9.42857 17H0V18.6667H9.42857V17Z" fill="#999999"/>
<path d="M9.42857 20.3333H5.14286V22H9.42857V20.3333Z" fill="#999999"/>
<path d="M14.5714 22V20.3333H18.8571V22H14.5714Z" fill="#999999"/>
<path d="M14.5714 18.6667V17H24V18.6667H14.5714Z" fill="#999999"/>
<path d="M9.42857 13.6667H0V15.3333H9.42857V13.6667Z" fill="#999999"/>
<path d="M14.5714 15.3333V13.6667H24V15.3333H14.5714Z" fill="#999999"/>
</svg>
