<svg width="24" height="24" viewBox="0 0 24 24" fill="none" xmlns="http://www.w3.org/2000/svg" preserveAspectRatio="none" >
<path d="M24 5.33333H14.5714V7H24V5.33333Z" fill="#999999"/>
<path d="M24 8.66667H19.7143V10.3333H24V8.66667Z" fill="#999999"/>
<path d="M0 10.3333V8.66667H4.28572V10.3333H0Z" fill="#999999"/>
<path d="M0 7V5.33333H9.42857V7H0Z" fill="#999999"/>
<path d="M24 2H14.5714V3.66667H24V2Z" fill="#999999"/>
<path d="M0 3.66667V2H9.42857V3.66667H0Z" fill="#999999"/>
<path d="M24 5.33333H14.5714V7H24V5.33333Z" fill="#999999"/>
<path d="M24 8.66667H19.7143V10.3333H24V8.66667Z" fill="#999999"/>
<path d="M0 10.3333V8.66667H4.28572V10.3333H0Z" fill="#999999"/>
<path d="M0 7V5.33333H9.42857V7H0Z" fill="#999999"/>
<path d="M24 2H14.5714V3.66667H24V2Z" fill="#999999"/>
<path d="M0 3.66667V2H9.42857V3.66667H0Z" fill="#999999"/>
<path d="M24 5.33333H14.5714V7H24V5.33333Z" fill="#999999"/>
<path d="M24 8.66667H19.7143V10.3333H24V8.66667Z" fill="#999999"/>
<path d="M0 10.3333V8.66667H4.28572V10.3333H0Z" fill="#999999"/>
<path d="M0 7V5.33333H9.42857V7H0Z" fill="#999999"/>
<path d="M24 2H14.5714V3.66667H24V2Z" fill="#999999"/>
<path d="M0 3.66667V2H9.42857V3.66667H0Z" fill="#999999"/>
<path d="M24 5.33333H14.5714V7H24V5.33333Z" fill="#999999"/>
<path d="M24 8.66667H19.7143V10.3333H24V8.66667Z" fill="#999999"/>
<path d="M0 10.3333V8.66667H4.28572V10.3333H0Z" fill="#999999"/>
<path d="M0 7V5.33333H9.42857V7H0Z" fill="#999999"/>
<path d="M24 2H14.5714V3.66667H24V2Z" fill="#999999"/>
<path d="M0 3.66667V2H9.42857V3.66667H0Z" fill="#999999"/>
<path d="M24 17H14.5714V18.6667H24V17Z" fill="#999999"/>
<path d="M24 20.3333H19.7143V22H24V20.3333Z" fill="#999999"/>
<path d="M0 22V20.3333H4.28572V22H0Z" fill="#999999"/>
<path d="M0 18.6667V17H9.42857V18.6667H0Z" fill="#999999"/>
<path d="M24 13.6667H14.5714V15.3333H24V13.6667Z" fill="#999999"/>
<path d="M0 15.3333V13.6667H9.42857V15.3333H0Z" fill="#999999"/>
<path d="M24 17H14.5714V18.6667H24V17Z" fill="#999999"/>
<path d="M24 20.3333H19.7143V22H24V20.3333Z" fill="#999999"/>
<path d="M0 22V20.3333H4.28572V22H0Z" fill="#999999"/>
<path d="M0 18.6667V17H9.42857V18.6667H0Z" fill="#999999"/>
<path d="M24 13.6667H14.5714V15.3333H24V13.6667Z" fill="#999999"/>
<path d="M0 15.3333V13.6667H9.42857V15.3333H0Z" fill="#999999"/>
<path d="M24 17H14.5714V18.6667H24V17Z" fill="#999999"/>
<path d="M24 20.3333H19.7143V22H24V20.3333Z" fill="#999999"/>
<path d="M0 22V20.3333H4.28572V22H0Z" fill="#999999"/>
<path d="M0 18.6667V17H9.42857V18.6667H0Z" fill="#999999"/>
<path d="M24 13.6667H14.5714V15.3333H24V13.6667Z" fill="#999999"/>
<path d="M0 15.3333V13.6667H9.42857V15.3333H0Z" fill="#999999"/>
<path d="M24 17H14.5714V18.6667H24V17Z" fill="#999999"/>
<path d="M24 20.3333H19.7143V22H24V20.3333Z" fill="#999999"/>
<path d="M0 22V20.3333H4.28572V22H0Z" fill="#999999"/>
<path d="M0 18.6667V17H9.42857V18.6667H0Z" fill="#999999"/>
<path d="M24 13.6667H14.5714V15.3333H24V13.6667Z" fill="#999999"/>
<path d="M0 15.3333V13.6667H9.42857V15.3333H0Z" fill="#999999"/>
</svg>
