<?xml version="1.0" encoding="UTF-8" standalone="no"?>
<!-- Created with Inkscape (http://www.inkscape.org/) -->

<svg
   width="6.3499999mm"
   height="5.291667mm"
   viewBox="0 0 6.3499999 5.291667"
   version="1.1"
   id="svg1"
   xml:space="preserve"
   xmlns="http://www.w3.org/2000/svg"
   xmlns:svg="http://www.w3.org/2000/svg"><defs
     id="defs1" /><g
     id="layer1"
     transform="translate(-101.825,-145.86367)"><g
       style="fill:none"
       id="g1"
       transform="matrix(0.26458333,0,0,0.26458333,101.825,145.33451)"><g
         id="g2"><path
           d="M 0,5.33333 H 9.42857 V 7 H 0 Z"
           fill="#999999"
           id="path1" /><path
           d="M 0,8.66667 H 4.28571 V 10.3333 H 0 Z"
           fill="#999999"
           id="path2" /><path
           d="M 14.5714,10.3333 V 8.66667 h 4.2857 v 1.66663 z"
           fill="#999999"
           id="path3" /><path
           d="M 14.5714,7 V 5.33333 H 24 V 7 Z"
           fill="#999999"
           id="path4" /><path
           d="M 0,2 H 9.42857 V 3.66667 H 0 Z"
           fill="#999999"
           id="path5" /><path
           d="M 14.5714,3.66667 V 2 H 24 v 1.66667 z"
           fill="#999999"
           id="path6" /><path
           d="M 0,5.33333 H 9.42857 V 7 H 0 Z"
           fill="#999999"
           id="path7" /><path
           d="M 0,8.66667 H 4.28571 V 10.3333 H 0 Z"
           fill="#999999"
           id="path8" /><path
           d="M 14.5714,10.3333 V 8.66667 h 4.2857 v 1.66663 z"
           fill="#999999"
           id="path9" /><path
           d="M 14.5714,7 V 5.33333 H 24 V 7 Z"
           fill="#999999"
           id="path10" /><path
           d="M 0,2 H 9.42857 V 3.66667 H 0 Z"
           fill="#999999"
           id="path11" /><path
           d="M 14.5714,3.66667 V 2 H 24 v 1.66667 z"
           fill="#999999"
           id="path12" /><path
           d="M 0,5.33333 H 9.42857 V 7 H 0 Z"
           fill="#999999"
           id="path13" /><path
           d="M 0,8.66667 H 4.28571 V 10.3333 H 0 Z"
           fill="#999999"
           id="path14" /><path
           d="M 14.5714,10.3333 V 8.66667 h 4.2857 v 1.66663 z"
           fill="#999999"
           id="path15" /><path
           d="M 14.5714,7 V 5.33333 H 24 V 7 Z"
           fill="#999999"
           id="path16" /><path
           d="M 0,2 H 9.42857 V 3.66667 H 0 Z"
           fill="#999999"
           id="path17" /><path
           d="M 14.5714,3.66667 V 2 H 24 v 1.66667 z"
           fill="#999999"
           id="path18" /><path
           d="M 0,5.33333 H 9.42857 V 7 H 0 Z"
           fill="#999999"
           id="path19" /><path
           d="M 0,8.66667 H 4.28571 V 10.3333 H 0 Z"
           fill="#999999"
           id="path20" /><path
           d="M 14.5714,10.3333 V 8.66667 h 4.2857 v 1.66663 z"
           fill="#999999"
           id="path21" /><path
           d="M 14.5714,7 V 5.33333 H 24 V 7 Z"
           fill="#999999"
           id="path22" /><path
           d="M 0,2 H 9.42857 V 3.66667 H 0 Z"
           fill="#999999"
           id="path23" /><path
           d="M 14.5714,3.66667 V 2 H 24 v 1.66667 z"
           fill="#999999"
           id="path24" /><path
           d="m 0,17 h 9.42857 v 1.6667 H 0 Z"
           fill="#999999"
           id="path25" /><path
           d="M 0,20.3333 H 4.28571 V 22 H 0 Z"
           fill="#999999"
           id="path26" /><path
           d="m 14.5714,22 v -1.6667 h 4.2857 V 22 Z"
           fill="#999999"
           id="path27" /><path
           d="M 14.5714,18.6667 V 17 H 24 v 1.6667 z"
           fill="#999999"
           id="path28" /><path
           d="m 0,13.6667 h 9.42857 v 1.6666 H 0 Z"
           fill="#999999"
           id="path29" /><path
           d="M 14.5714,15.3333 V 13.6667 H 24 v 1.6666 z"
           fill="#999999"
           id="path30" /><path
           d="m 0,17 h 9.42857 v 1.6667 H 0 Z"
           fill="#999999"
           id="path31" /><path
           d="M 0,20.3333 H 4.28571 V 22 H 0 Z"
           fill="#999999"
           id="path32" /><path
           d="m 14.5714,22 v -1.6667 h 4.2857 V 22 Z"
           fill="#999999"
           id="path33" /><path
           d="M 14.5714,18.6667 V 17 H 24 v 1.6667 z"
           fill="#999999"
           id="path34" /><path
           d="m 0,13.6667 h 9.42857 v 1.6666 H 0 Z"
           fill="#999999"
           id="path35" /><path
           d="M 14.5714,15.3333 V 13.6667 H 24 v 1.6666 z"
           fill="#999999"
           id="path36" /><path
           d="m 0,17 h 9.42857 v 1.6667 H 0 Z"
           fill="#999999"
           id="path37" /><path
           d="M 0,20.3333 H 4.28571 V 22 H 0 Z"
           fill="#999999"
           id="path38" /><path
           d="m 14.5714,22 v -1.6667 h 4.2857 V 22 Z"
           fill="#999999"
           id="path39" /><path
           d="M 14.5714,18.6667 V 17 H 24 v 1.6667 z"
           fill="#999999"
           id="path40" /><path
           d="m 0,13.6667 h 9.42857 v 1.6666 H 0 Z"
           fill="#999999"
           id="path41" /><path
           d="M 14.5714,15.3333 V 13.6667 H 24 v 1.6666 z"
           fill="#999999"
           id="path42" /><path
           d="m 0,17 h 9.42857 v 1.6667 H 0 Z"
           fill="#999999"
           id="path43" /><path
           d="M 0,20.3333 H 4.28571 V 22 H 0 Z"
           fill="#999999"
           id="path44" /><path
           d="m 14.5714,22 v -1.6667 h 4.2857 V 22 Z"
           fill="#999999"
           id="path45" /><path
           d="M 14.5714,18.6667 V 17 H 24 v 1.6667 z"
           fill="#999999"
           id="path46" /><path
           d="m 0,13.6667 h 9.42857 v 1.6666 H 0 Z"
           fill="#999999"
           id="path47" /><path
           d="M 14.5714,15.3333 V 13.6667 H 24 v 1.6666 z"
           fill="#999999"
           id="path48" /></g></g></g></svg>
