<svg width="18" height="18" viewBox="0 0 18 18" fill="none" xmlns="http://www.w3.org/2000/svg">
<path d="M5.25 3.375C5.25 4.41053 4.41053 5.25 3.375 5.25C2.33947 5.25 1.5 4.41053 1.5 3.375C1.5 2.33947 2.33947 1.5 3.375 1.5C4.41053 1.5 5.25 2.33947 5.25 3.375ZM10.875 3.375C10.875 2.33947 10.0355 1.5 9 1.5C7.96447 1.5 7.125 2.33947 7.125 3.375C7.125 4.41053 7.96447 5.25 9 5.25C10.0355 5.25 10.875 4.41053 10.875 3.375ZM16.5 3.375C16.5 2.33947 15.6605 1.5 14.625 1.5C13.5895 1.5 12.75 2.33947 12.75 3.375C12.75 4.41053 13.5895 5.25 14.625 5.25C15.6605 5.25 16.5 4.41053 16.5 3.375ZM5.25 9C5.25 7.96447 4.41053 7.125 3.375 7.125C2.33947 7.125 1.5 7.96447 1.5 9C1.5 10.0355 2.33947 10.875 3.375 10.875C4.41053 10.875 5.25 10.0355 5.25 9ZM10.875 9C10.875 7.96447 10.0355 7.125 9 7.125C7.96447 7.125 7.125 7.96447 7.125 9C7.125 10.0355 7.96447 10.875 9 10.875C10.0355 10.875 10.875 10.0355 10.875 9ZM16.5 9C16.5 7.96447 15.6605 7.125 14.625 7.125C13.5895 7.125 12.75 7.96447 12.75 9C12.75 10.0355 13.5895 10.875 14.625 10.875C15.6605 10.875 16.5 10.0355 16.5 9ZM5.25 14.625C5.25 13.5895 4.41053 12.75 3.375 12.75C2.33947 12.75 1.5 13.5895 1.5 14.625C1.5 15.6605 2.33947 16.5 3.375 16.5C4.41053 16.5 5.25 15.6605 5.25 14.625ZM10.875 14.625C10.875 13.5895 10.0355 12.75 9 12.75C7.96447 12.75 7.125 13.5895 7.125 14.625C7.125 15.6605 7.96447 16.5 9 16.5C10.0355 16.5 10.875 15.6605 10.875 14.625ZM16.5 14.625C16.5 13.5895 15.6605 12.75 14.625 12.75C13.5895 12.75 12.75 13.5895 12.75 14.625C12.75 15.6605 13.5895 16.5 14.625 16.5C15.6605 16.5 16.5 15.6605 16.5 14.625Z" fill="#666666"/>
</svg>
