<svg width="24" height="24" viewBox="0 0 24 24" fill="none" xmlns="http://www.w3.org/2000/svg" preserveAspectRatio="none" >
<path d="M24 2H0V3.75H24V2Z" fill="#999999"/>
<path d="M24 2H0V3.75H24V2Z" fill="#999999"/>
<path d="M24 2H0V3.75H24V2Z" fill="#999999"/>
<path d="M24 2H0V3.75H24V2Z" fill="#999999"/>
<path d="M0 23V21.25H24V23H0Z" fill="#999999"/>
<path d="M0 18.1875V16.4375H24V18.1875H0Z" fill="#999999"/>
<path d="M0 13.375V11.625H24V13.375H0Z" fill="#999999"/>
<path d="M0 23V21.25H24V23H0Z" fill="#999999"/>
<path d="M0 18.1875V16.4375H24V18.1875H0Z" fill="#999999"/>
<path d="M0 13.375V11.625H24V13.375H0Z" fill="#999999"/>
<path d="M0 23V21.25H24V23H0Z" fill="#999999"/>
<path d="M0 18.1875V16.4375H24V18.1875H0Z" fill="#999999"/>
<path d="M0 13.375V11.625H24V13.375H0Z" fill="#999999"/>
<path d="M0 23V21.25H24V23H0Z" fill="#999999"/>
<path d="M0 18.1875V16.4375H24V18.1875H0Z" fill="#999999"/>
<path d="M0 13.375V11.625H24V13.375H0Z" fill="#999999"/>
<path d="M0 23V21.25H24V23H0Z" fill="#999999"/>
<path d="M0 23V21.25H24V23H0Z" fill="#999999"/>
<path d="M0 23V21.25H24V23H0Z" fill="#999999"/>
<path d="M0 23V21.25H24V23H0Z" fill="#999999"/>
<path d="M0 8.5625V6.8125H24V8.5625H0Z" fill="#999999"/>
<path d="M0 8.5625V6.8125H24V8.5625H0Z" fill="#999999"/>
<path d="M0 8.5625V6.8125H24V8.5625H0Z" fill="#999999"/>
<path d="M0 8.5625V6.8125H24V8.5625H0Z" fill="#999999"/>
</svg>
