<svg width="18" height="18" viewBox="0 0 18 18" fill="none" xmlns="http://www.w3.org/2000/svg">
<path d="M11.25 15.75C11.25 16.9485 10.206 18 9.02175 18C7.8375 18 6.75 16.9485 6.75 15.75H11.25ZM11.3528 2.95875C10.8698 2.67825 10.5713 2.15625 10.572 1.59375V1.5915C10.5728 0.7125 9.8685 0 9 0C8.1315 0 7.42725 0.7125 7.42725 1.5915V1.59375C7.428 2.157 7.13025 2.67825 6.6465 2.95875C3.1455 4.9905 5.15775 11.745 1.5 12.9382V14.25H16.5V12.9382C12.8423 11.745 14.8553 4.98975 11.3528 2.95875ZM9 0.75C9.414 0.75 9.75 1.08675 9.75 1.5C9.75 1.914 9.414 2.25 9 2.25C8.586 2.25 8.25 1.914 8.25 1.5C8.25 1.08675 8.586 0.75 9 0.75ZM4.16175 12.75C5.0535 11.4998 5.3655 9.83175 5.63475 8.38875C5.97 6.59625 6.2865 4.90275 7.40025 4.257C8.43525 3.65625 9.61725 3.687 10.6005 4.257C11.7143 4.90275 12.0308 6.59625 12.366 8.38875C12.6353 9.83175 12.9473 11.4998 13.839 12.75H4.16175Z" fill="#666666"/>
<circle cx="13.0506" cy="5.84998" r="3.15" fill="#CB6158"/>
</svg>
