<svg width="24" height="24" viewBox="0 0 24 24" fill="none" xmlns="http://www.w3.org/2000/svg">
<path d="M15 21C15 22.598 13.608 24 12.029 24C10.45 24 9 22.598 9 21H15ZM15.137 3.945C14.493 3.571 14.095 2.875 14.096 2.125V2.122C14.097 0.95 13.158 0 12 0C10.842 0 9.903 0.95 9.903 2.122V2.125C9.904 2.876 9.507 3.571 8.862 3.945C4.194 6.654 6.877 15.66 2 17.251V19H22V17.251C17.123 15.66 19.807 6.653 15.137 3.945V3.945ZM12 1C12.552 1 13 1.449 13 2C13 2.552 12.552 3 12 3C11.448 3 11 2.552 11 2C11 1.449 11.448 1 12 1ZM5.549 17C6.738 15.333 7.154 13.109 7.513 11.185C7.96 8.795 8.382 6.537 9.867 5.676C11.247 4.875 12.823 4.916 14.134 5.676C15.619 6.537 16.041 8.795 16.488 11.185C16.847 13.109 17.263 15.333 18.452 17H5.549V17Z" fill="#999999"/>
</svg>
