<svg width="18" height="20" viewBox="0 0 18 20" fill="none" xmlns="http://www.w3.org/2000/svg">
<path d="M11.4998 17.5C11.4998 18.8317 10.3398 20 9.024 20C7.70817 20 6.49984 18.8317 6.49984 17.5H11.4998ZM11.614 3.2875C11.0773 2.97583 10.7457 2.39583 10.7465 1.77083V1.76833C10.7473 0.791667 9.96484 0 8.99984 0C8.03484 0 7.25234 0.791667 7.25234 1.76833V1.77083C7.25317 2.39667 6.92234 2.97583 6.38484 3.2875C2.49484 5.545 4.73067 13.05 0.666504 14.3758V15.8333H17.3332V14.3758C13.269 13.05 15.5057 5.54417 11.614 3.2875ZM8.99984 0.833333C9.45984 0.833333 9.83317 1.2075 9.83317 1.66667C9.83317 2.12667 9.45984 2.5 8.99984 2.5C8.53984 2.5 8.1665 2.12667 8.1665 1.66667C8.1665 1.2075 8.53984 0.833333 8.99984 0.833333ZM3.624 14.1667C4.61484 12.7775 4.9615 10.9242 5.26067 9.32083C5.63317 7.32917 5.98484 5.4475 7.22234 4.73C8.37234 4.0625 9.68567 4.09667 10.7782 4.73C12.0157 5.4475 12.3673 7.32917 12.7398 9.32083C13.039 10.9242 13.3857 12.7775 14.3765 14.1667H3.624Z" fill="#999999"/>
</svg>
