<svg width="16" height="16" viewBox="0 0 16 16" fill="none" xmlns="http://www.w3.org/2000/svg">
<path d="M8 0C3.582 0 0 3.582 0 8C0 12.418 3.582 16 8 16C12.418 16 16 12.418 16 8C16 3.582 12.418 0 8 0ZM13.1687 12.2033C12.9947 11.8127 12.6427 11.5427 11.9213 11.376C10.3927 11.0233 8.96933 10.714 9.65933 9.41267C11.756 5.45133 10.2147 3.33333 8 3.33333C5.74133 3.33333 4.23733 5.53267 6.34067 9.41267C7.05133 10.722 5.57533 11.0307 4.07867 11.376C3.356 11.5427 3.00667 11.8147 2.834 12.2067C1.89733 11.058 1.33333 9.594 1.33333 8C1.33333 4.324 4.324 1.33333 8 1.33333C11.676 1.33333 14.6667 4.324 14.6667 8C14.6667 9.59267 14.1033 11.0553 13.1687 12.2033Z" fill="#999999"/>
</svg>
