<svg width="18" height="18" viewBox="0 0 18 18" fill="none" xmlns="http://www.w3.org/2000/svg">
<g clip-path="url(#clip0_33_223)">
<path d="M9 0C4.02975 0 0 4.02975 0 9C0 13.9703 4.02975 18 9 18C13.9703 18 18 13.9703 18 9C18 4.02975 13.9703 0 9 0ZM14.8147 13.7288C14.619 13.2893 14.223 12.9855 13.4115 12.798C11.6917 12.4012 10.0905 12.0533 10.8667 10.5893C13.2255 6.13278 11.4915 3.75 9 3.75C6.459 3.75 4.767 6.22428 7.13328 10.5893C7.93272 12.0623 6.27222 12.4095 4.5885 12.798C3.7755 12.9855 3.3825 13.2915 3.18825 13.7325C2.1345 12.4402 1.5 10.7933 1.5 9C1.5 4.8645 4.8645 1.5 9 1.5C13.1355 1.5 16.5 4.8645 16.5 9C16.5 10.7917 15.8663 12.4373 14.8147 13.7288Z" fill="#666666"/>
</g>
<defs>
<clipPath id="clip0_33_223">
<rect width="18" height="18" fill="white"/>
</clipPath>
</defs>
</svg>
