<svg width="24" height="22" viewBox="0 0 24 22" fill="none" xmlns="http://www.w3.org/2000/svg">
<path d="M11.9995 1.99992C17.5133 1.99992 21.9991 5.59177 21.9991 10.0066C21.9991 14.9234 16.8553 17.9673 12.0895 17.9673C10.1526 17.9673 8.70564 17.5703 7.69568 17.3233C6.69572 17.9363 6.10175 18.3602 3.42386 19.1432C3.95884 17.7703 4.14583 16.3953 4.02483 14.8784C3.18787 13.8784 1.99992 12.4785 1.99992 10.0066C1.99992 5.59177 6.48573 1.99992 11.9995 1.99992ZM11.9995 0C5.66176 0 0 4.22582 0 10.0066C0 12.0565 0.738969 14.0694 2.04691 15.6313C2.10191 17.4613 1.02396 20.0872 0.0539978 21.9991C2.65589 21.5291 6.35473 20.4911 8.03167 19.4632C9.44861 19.8082 10.8055 19.9662 12.0905 19.9662C19.1742 19.9662 24 15.1294 24 10.0056C23.999 4.19483 18.2982 0 11.9995 0Z" fill="#999999"/>
</svg>
