<svg width="13" height="14" viewBox="0 0 13 14" fill="none" xmlns="http://www.w3.org/2000/svg">
<path d="M0.7 2.4458H0.5229C0.2338 2.4458 0 2.2113 0 1.9229C0 1.6345 0.2338 1.4 0.5229 1.4H4.2V0.7C4.2 0.3255 4.5318 0 4.9 0H7.7C8.0682 0 8.4 0.3255 8.4 0.7V1.4H12.0778C12.3662 1.4 12.6 1.6345 12.6 1.9229C12.6 2.2113 12.3662 2.4458 12.0778 2.4458H11.9V13.2503C11.9 13.664 11.5864 14 11.2 14C9.1889 14 3.4111 14 1.4 14C1.0136 14 0.7 13.664 0.7 13.2503V2.4458ZM10.85 2.4458H1.75V12.95H10.85V2.4458ZM7.875 4.2C7.5852 4.2 7.35 4.4352 7.35 4.725V10.675C7.35 10.9648 7.5852 11.2 7.875 11.2C8.1648 11.2 8.4 10.9648 8.4 10.675V4.725C8.4 4.4352 8.1648 4.2 7.875 4.2ZM4.725 4.2C4.4352 4.2 4.2 4.4352 4.2 4.725V10.675C4.2 10.9648 4.4352 11.2 4.725 11.2C5.0148 11.2 5.25 10.9648 5.25 10.675V4.725C5.25 4.4352 5.0148 4.2 4.725 4.2ZM7.35 1.4V1.05H5.25V1.4H7.35Z" fill="#666666"/>
</svg>
