<svg width="14" height="12" viewBox="0 0 14 12" fill="none" xmlns="http://www.w3.org/2000/svg">
<path d="M10.5483 1.96593L12.4271 0.300479C12.5272 0.212229 12.6511 0.168457 12.775 0.168457C13.0676 0.168457 13.3 0.408497 13.3 0.697957C13.3 0.844099 13.2398 0.990241 13.1222 1.09473L1.5722 11.3324C1.4728 11.4214 1.3489 11.4645 1.225 11.4645C0.9345 11.4645 0.7 11.2287 0.7 10.935C0.7 10.7888 0.7602 10.6427 0.8771 10.5382L2.5837 9.02523C1.5939 8.22604 0.7448 7.22352 0.1008 6.18146C0.0336 6.0692 0 5.94283 0 5.81646C0 5.69008 0.0343 5.56371 0.1015 5.45145C1.5792 3.05811 4.144 0.874457 6.9986 0.874457C8.2691 0.874457 9.4738 1.29312 10.5483 1.96593ZM12.1716 3.25791C12.8478 3.92367 13.4337 4.6798 13.9034 5.45851C13.9678 5.56865 14 5.69291 14 5.81646C14 5.94001 13.9678 6.06426 13.9034 6.1744C12.4558 8.57692 9.8987 10.7585 6.9986 10.7585C6.0907 10.7585 5.2115 10.5375 4.3883 10.1591L5.2612 9.38529C5.8177 9.5865 6.3994 9.69946 6.9986 9.69946C9.4598 9.69946 11.6018 7.84832 12.8877 5.81646C12.4712 5.15846 11.9651 4.51883 11.3862 3.95473L12.1716 3.25791ZM9.7678 5.38933C9.7888 5.52841 9.8 5.67102 9.8 5.81646C9.8 7.3753 8.5456 8.64046 7 8.64046C6.7312 8.64046 6.4708 8.60233 6.2251 8.53032L7.3311 7.54969C7.9576 7.42896 8.4658 6.97006 8.6618 6.36996L9.7678 5.38933ZM9.7272 2.69382C8.8893 2.2208 7.9688 1.93346 6.9986 1.93346C4.5731 1.93346 2.4255 3.79165 1.1158 5.81646C1.7129 6.7399 2.4843 7.62876 3.3775 8.32205L4.5871 7.24964C4.3414 6.82957 4.2 6.3396 4.2 5.81646C4.2 4.25761 5.4544 2.99246 7 2.99246C7.6475 2.99246 8.2439 3.21485 8.7185 3.58762L9.7272 2.69382ZM7.9072 4.30703C7.6426 4.14465 7.3318 4.05146 7 4.05146C6.034 4.05146 5.25 4.84218 5.25 5.81646C5.25 6.07062 5.3032 6.31136 5.3991 6.53022L7.9072 4.30703Z" fill="#666666"/>
</svg>
