<svg width="18" height="18" viewBox="0 0 18 18" fill="none" xmlns="http://www.w3.org/2000/svg">
<path d="M15 12C13.3433 12 12 13.3433 12 15C12 16.6567 13.3433 18 15 18C16.6567 18 18 16.6567 18 15C18 13.3433 16.6567 12 15 12ZM3 12C1.34325 12 0 13.3433 0 15C0 16.6567 1.34325 18 3 18C4.65675 18 6 16.6567 6 15C6 13.3433 4.65675 12 3 12ZM9 1.5C9.82725 1.5 10.5 2.17275 10.5 3C10.5 3.82725 9.82725 4.5 9 4.5C8.17275 4.5 7.5 3.82725 7.5 3C7.5 2.17275 8.17275 1.5 9 1.5ZM9 0C7.34325 0 6 1.34325 6 3C6 4.65675 7.34325 6 9 6C10.6567 6 12 4.65675 12 3C12 1.34325 10.6567 0 9 0ZM11.9047 11.7413L9.75 9.93825V7.4325C9.5055 7.47375 9.2565 7.5 9 7.5C8.7435 7.5 8.4945 7.47375 8.25 7.4325V9.93825L6.09525 11.7413C6.45825 12.0862 6.76425 12.4913 6.996 12.9398L9 11.25L11.004 12.9398C11.2358 12.4913 11.5417 12.087 11.9047 11.7413Z" fill="#999999"/>
</svg>
