<svg width="58" height="17" viewBox="0 0 58 17" fill="none" xmlns="http://www.w3.org/2000/svg">
<path d="M2.12 11.76C2.44 12.32 2.77333 12.8133 3.12 13.24C3.48 13.6667 3.88 14 4.32 14.24C4.76 14.48 5.26 14.6 5.82 14.6C6.56667 14.6 7.16667 14.3933 7.62 13.98C8.07333 13.5667 8.3 13.04 8.3 12.4C8.3 11.7733 8.15333 11.2733 7.86 10.9C7.56667 10.5267 7.18 10.2267 6.7 10C6.23333 9.76 5.73333 9.54667 5.2 9.36C4.85333 9.24 4.46667 9.08667 4.04 8.9C3.61333 8.7 3.20667 8.45333 2.82 8.16C2.43333 7.85333 2.11333 7.48 1.86 7.04C1.62 6.6 1.5 6.06 1.5 5.42C1.5 4.72667 1.67333 4.10667 2.02 3.56C2.36667 3.01333 2.84667 2.58667 3.46 2.28C4.07333 1.96 4.77333 1.8 5.56 1.8C6.32 1.8 6.98 1.94667 7.54 2.24C8.11333 2.52 8.6 2.88667 9 3.34C9.4 3.78 9.71333 4.24667 9.94 4.74L8.48 5.58C8.30667 5.23333 8.08667 4.89333 7.82 4.56C7.55333 4.22667 7.22667 3.95333 6.84 3.74C6.46667 3.52667 6.00667 3.42 5.46 3.42C4.7 3.42 4.14667 3.60667 3.8 3.98C3.45333 4.34 3.28 4.74667 3.28 5.2C3.28 5.58667 3.38 5.94667 3.58 6.28C3.78 6.6 4.11333 6.90667 4.58 7.2C5.06 7.48 5.70667 7.76 6.52 8.04C6.89333 8.17333 7.28667 8.34667 7.7 8.56C8.11333 8.77333 8.49333 9.04667 8.84 9.38C9.2 9.7 9.49333 10.0933 9.72 10.56C9.94667 11.0133 10.06 11.56 10.06 12.2C10.06 12.8133 9.94 13.3667 9.7 13.86C9.47333 14.3533 9.15333 14.7733 8.74 15.12C8.34 15.4667 7.88 15.7333 7.36 15.92C6.85333 16.1067 6.32 16.2 5.76 16.2C5 16.2 4.29333 16.04 3.64 15.72C3 15.3867 2.43333 14.9533 1.94 14.42C1.46 13.8733 1.06667 13.2933 0.76 12.68L2.12 11.76ZM14.657 0.399999V16H13.057V0.399999H14.657ZM18.957 10.4C18.957 9.64 18.7904 9.06667 18.457 8.68C18.137 8.29333 17.6504 8.1 16.997 8.1C16.5304 8.1 16.117 8.2 15.757 8.4C15.4104 8.6 15.137 8.87333 14.937 9.22C14.7504 9.56667 14.657 9.96 14.657 10.4H14.137C14.137 9.66667 14.277 9.02 14.557 8.46C14.837 7.88667 15.217 7.43333 15.697 7.1C16.1904 6.76667 16.757 6.6 17.397 6.6C18.037 6.6 18.5904 6.73333 19.057 7C19.537 7.26667 19.9037 7.66667 20.157 8.2C20.4237 8.73333 20.557 9.4 20.557 10.2V16H18.957V10.4ZM27.7248 16.2C26.8715 16.2 26.1115 16 25.4448 15.6C24.7915 15.1867 24.2782 14.62 23.9048 13.9C23.5448 13.18 23.3648 12.3467 23.3648 11.4C23.3648 10.44 23.5515 9.6 23.9248 8.88C24.3115 8.16 24.8448 7.6 25.5248 7.2C26.2182 6.8 27.0182 6.6 27.9248 6.6C28.8315 6.6 29.6048 6.79333 30.2448 7.18C30.8982 7.55333 31.3982 8.09333 31.7448 8.8C32.0915 9.50667 32.2648 10.3467 32.2648 11.32C32.2648 11.4133 32.2582 11.5133 32.2448 11.62C32.2448 11.7133 32.2448 11.7733 32.2448 11.8H24.3848V10.44H30.9848L30.3448 11.36C30.3848 11.2933 30.4248 11.1933 30.4648 11.06C30.5048 10.9133 30.5248 10.7933 30.5248 10.7C30.5248 10.1533 30.4115 9.68 30.1848 9.28C29.9715 8.88 29.6715 8.56667 29.2848 8.34C28.8982 8.11333 28.4448 8 27.9248 8C27.3115 8 26.7848 8.13333 26.3448 8.4C25.9182 8.65333 25.5848 9.02667 25.3448 9.52C25.1182 10 24.9982 10.5933 24.9848 11.3C24.9848 12.02 25.0982 12.6333 25.3248 13.14C25.5515 13.6467 25.8848 14.0333 26.3248 14.3C26.7648 14.5667 27.2982 14.7 27.9248 14.7C28.5515 14.7 29.1048 14.5667 29.5848 14.3C30.0648 14.02 30.4715 13.6 30.8048 13.04L32.1048 13.86C31.6248 14.6333 31.0182 15.22 30.2848 15.62C29.5648 16.0067 28.7115 16.2 27.7248 16.2ZM38.6178 16.2C37.7645 16.2 37.0045 16 36.3378 15.6C35.6845 15.1867 35.1711 14.62 34.7978 13.9C34.4378 13.18 34.2578 12.3467 34.2578 11.4C34.2578 10.44 34.4445 9.6 34.8178 8.88C35.2045 8.16 35.7378 7.6 36.4178 7.2C37.1111 6.8 37.9111 6.6 38.8178 6.6C39.7245 6.6 40.4978 6.79333 41.1378 7.18C41.7911 7.55333 42.2911 8.09333 42.6378 8.8C42.9845 9.50667 43.1578 10.3467 43.1578 11.32C43.1578 11.4133 43.1511 11.5133 43.1378 11.62C43.1378 11.7133 43.1378 11.7733 43.1378 11.8H35.2778V10.44H41.8778L41.2378 11.36C41.2778 11.2933 41.3178 11.1933 41.3578 11.06C41.3978 10.9133 41.4178 10.7933 41.4178 10.7C41.4178 10.1533 41.3045 9.68 41.0778 9.28C40.8645 8.88 40.5645 8.56667 40.1778 8.34C39.7911 8.11333 39.3378 8 38.8178 8C38.2045 8 37.6778 8.13333 37.2378 8.4C36.8111 8.65333 36.4778 9.02667 36.2378 9.52C36.0111 10 35.8911 10.5933 35.8778 11.3C35.8778 12.02 35.9911 12.6333 36.2178 13.14C36.4445 13.6467 36.7778 14.0333 37.2178 14.3C37.6578 14.5667 38.1911 14.7 38.8178 14.7C39.4445 14.7 39.9978 14.5667 40.4778 14.3C40.9578 14.02 41.3645 13.6 41.6978 13.04L42.9978 13.86C42.5178 14.6333 41.9111 15.22 41.1778 15.62C40.4578 16.0067 39.6045 16.2 38.6178 16.2ZM44.5508 6.8H49.1508V8.3H44.5508V6.8ZM46.0508 3.6H47.6508V16H46.0508V3.6ZM51.7355 13.18C51.9221 13.46 52.1355 13.72 52.3755 13.96C52.6155 14.2 52.8888 14.3933 53.1955 14.54C53.5155 14.6733 53.8621 14.74 54.2355 14.74C54.6888 14.74 55.0421 14.64 55.2955 14.44C55.5621 14.2267 55.6955 13.94 55.6955 13.58C55.6955 13.26 55.5888 12.9933 55.3755 12.78C55.1755 12.5533 54.9155 12.3667 54.5955 12.22C54.2755 12.06 53.9355 11.9133 53.5755 11.78C53.1755 11.62 52.7688 11.4333 52.3555 11.22C51.9555 10.9933 51.6155 10.7067 51.3355 10.36C51.0688 10 50.9355 9.55333 50.9355 9.02C50.9355 8.47333 51.0755 8.02 51.3555 7.66C51.6488 7.3 52.0221 7.03333 52.4755 6.86C52.9421 6.68667 53.4221 6.6 53.9155 6.6C54.4088 6.6 54.8688 6.68 55.2955 6.84C55.7355 7 56.1221 7.21333 56.4555 7.48C56.7888 7.74667 57.0488 8.05333 57.2355 8.4L55.9555 9.22C55.7021 8.87333 55.3821 8.58667 54.9955 8.36C54.6221 8.13333 54.1955 8.02 53.7155 8.02C53.3821 8.02 53.0955 8.09333 52.8555 8.24C52.6155 8.38667 52.4955 8.61333 52.4955 8.92C52.4955 9.16 52.5888 9.37333 52.7755 9.56C52.9621 9.74667 53.2021 9.91333 53.4955 10.06C53.7888 10.2067 54.0955 10.3467 54.4155 10.48C54.9488 10.6933 55.4355 10.9267 55.8755 11.18C56.3155 11.42 56.6621 11.7133 56.9155 12.06C57.1821 12.4067 57.3155 12.8533 57.3155 13.4C57.3155 14.2 57.0221 14.8667 56.4355 15.4C55.8621 15.9333 55.1021 16.2 54.1555 16.2C53.5421 16.2 52.9888 16.0933 52.4955 15.88C52.0021 15.6533 51.5821 15.3667 51.2355 15.02C50.9021 14.6733 50.6488 14.32 50.4755 13.96L51.7355 13.18Z" fill="black"/>
</svg>
