<svg id="Layer_1" data-name="Layer 1" xmlns="http://www.w3.org/2000/svg" xmlns:xlink="http://www.w3.org/1999/xlink" viewBox="0 0 242.13 55.12"><defs><style>.cls-1{fill:none;}.cls-2{clip-path:url(#clip-path);}.cls-3{fill:#231f20;}</style><clipPath id="clip-path" transform="translate(-520 -411.88)"><rect class="cls-1" x="520" y="411.88" width="242.13" height="55.12"/></clipPath></defs><title>logotype</title><g class="cls-2"><path class="cls-3" d="M755,455.15a12.35,12.35,0,0,1-9.74,5.06,11.6,11.6,0,0,1-11.78-11.71c0-6.19,4.53-11.7,11.4-11.7A12.78,12.78,0,0,1,755,441.86Zm.23,11.1h6.94V430.76h-6.94V434a16.61,16.61,0,0,0-11.1-4,16.94,16.94,0,0,0-8.69,2.27,18.75,18.75,0,0,0-9.13,16.23,18.56,18.56,0,0,0,9.06,16.16,18.23,18.23,0,0,0,8.91,2.34,16.26,16.26,0,0,0,11-4Zm-47-48.1a4.61,4.61,0,0,0,4.68,4.68,4.68,4.68,0,0,0,4.76-4.68,4.75,4.75,0,0,0-4.76-4.76,4.68,4.68,0,0,0-4.68,4.76m1.13,48.1h7.17V430.76h-7.17Zm-8.68-36a18.32,18.32,0,0,0-2.8-.23c-5.2,0-8.9,2.42-10.64,4.84v-4.08h-6.95v35.49h7.18V442.76c2-3.39,5.88-6,9.59-6a10.46,10.46,0,0,1,2.79.3Zm-40.39,24.92a12.35,12.35,0,0,1-9.74,5.06,11.6,11.6,0,0,1-11.78-11.71c0-6.19,4.53-11.7,11.4-11.7a12.8,12.8,0,0,1,10.12,5.06Zm.22,11.1h7V430.76h-7V434a16.58,16.58,0,0,0-11.1-4,16.93,16.93,0,0,0-8.68,2.27,18.75,18.75,0,0,0-9.13,16.23,18.54,18.54,0,0,0,9.06,16.16,18.2,18.2,0,0,0,8.91,2.34,16.25,16.25,0,0,0,10.94-4Zm-33.07-53.84a16.61,16.61,0,0,0-4.23-.53,13.88,13.88,0,0,0-11.62,5.89c-1.59,2.27-2.27,5.21-2.27,10v3h-8.3v6.42h8.3v29.07h7.18V437.18h10.94v-6.42H616.42v-3.25c0-3.24.37-5.06,1.35-6.34a7,7,0,0,1,5.44-2.49,11.64,11.64,0,0,1,2.64.3Zm-48.55,23.86a9.92,9.92,0,0,1,9.37,7.7H568.85a10.32,10.32,0,0,1,10-7.7M595.58,450a14,14,0,0,0,.07-1.51c0-10.49-7.17-18.5-17.06-18.5-10,0-17.29,7.86-17.29,18.5A18,18,0,0,0,579.65,467c7.24,0,12.3-3.25,15-6.64l-4.69-4.46a12.75,12.75,0,0,1-10.19,4.83A11.43,11.43,0,0,1,568.24,450ZM520,458.17A23.7,23.7,0,0,0,538.5,467c9.21,0,16.38-6,16.38-15.33,0-6-3.32-9.74-6.87-12.08-6.79-4.53-18-6-18-12.68,0-4.61,4.38-7.1,8.75-7.1a14.51,14.51,0,0,1,9.44,3.63l4.46-5.52a21.76,21.76,0,0,0-14.2-5.28c-9.21,0-16,6.34-16,14,0,5.51,2.94,9.14,6.72,11.63,7,4.61,18.19,5.51,18.19,13.59,0,4.76-4.3,7.93-9.21,7.93-5.44,0-9.81-3-12.91-6.8Z" transform="translate(-520 -411.88)"/></g></svg>