<svg width="18" height="18" viewBox="0 0 18 18" fill="none" xmlns="http://www.w3.org/2000/svg">
<path d="M18 10.212V7.788C16.7617 7.34775 15.9795 7.224 15.5858 6.27375V6.273C15.1905 5.31975 15.6608 4.6725 16.221 3.49275L14.5072 1.779C13.3365 2.3355 12.6825 2.81025 11.727 2.41425H11.7262C10.7745 2.01975 10.65 1.23225 10.212 0H7.788C7.3515 1.22625 7.22625 2.019 6.27375 2.41425H6.273C5.31975 2.81025 4.674 2.34075 3.49275 1.779L1.779 3.49275C2.33775 4.66875 2.81025 5.31825 2.41425 6.273C2.019 7.22625 1.22625 7.3515 0 7.788V10.212C1.224 10.647 2.019 10.7738 2.41425 11.7262C2.81175 12.6877 2.32875 13.3507 1.779 14.5065L3.49275 16.221C4.66425 15.6638 5.31825 15.1897 6.273 15.5858H6.27375C7.22625 15.9803 7.35075 16.77 7.788 18H10.212C10.6485 16.773 10.7745 15.9825 11.7323 15.5835H11.733C12.6795 15.1905 13.323 15.6593 14.5065 16.2218L16.2203 14.5072C15.6623 13.335 15.189 12.6825 15.5842 11.7277C15.9795 10.7745 16.7752 10.6477 18 10.212ZM9 12C7.34325 12 6 10.6567 6 9C6 7.34325 7.34325 6 9 6C10.6567 6 12 7.34325 12 9C12 10.6567 10.6567 12 9 12Z" fill="#999999"/>
</svg>
