<svg id="Layer_1" data-name="Layer 1" xmlns="http://www.w3.org/2000/svg" viewBox="0 0 148.33 206.05"><title>aleph</title><path d="M502,228.14Q521,234.93,521,252.62q0,14.66-11.79,29.84h-3.4v-6.61a7.8,7.8,0,0,0-1.16-4.74q-1.16-1.52-5.27-1.52-9.29,14.48-13,24.39a54.16,54.16,0,0,0-3.75,19.21q0,13.58,9.47,24.66L508.65,357q13.94,15.73,13.94,32.88,0,15.55-12.51,27h-4.82q0-12.51-9.29-23.05l-77.56-89q-19.84,10-19.84,25.73a25.7,25.7,0,0,0,3.4,12.33,60.45,60.45,0,0,0,8.31,11.71l9.83,10.9a58.51,58.51,0,0,1,8.31,11.88,26.76,26.76,0,0,1,3.4,12.51q0,8.4-6,16.17t-12.42,7.77H379.09v-5q10.72-2.86,10.72-12.33,0-4.83-7.77-23.32t-7.77-26.9q0-27.7,37.35-49l-21.8-24.84q-13.58-15.72-13.58-32.7,0-15.72,12.15-29H393a36.58,36.58,0,0,0,9.29,25l67.2,76.31a120.6,120.6,0,0,1,18-43.78q-26.63-4.29-26.63-32.88,0-14.12,7.33-24.66h4.65q3,11.08,13.76,13.76Z" transform="translate(-374.26 -210.8)"/></svg>