<svg width="56" height="56" viewBox="0 0 56 56" fill="none" xmlns="http://www.w3.org/2000/svg">
<path d="M28 0C12.537 0 0 12.537 0 28C0 43.463 12.537 56 28 56C43.463 56 56 43.463 56 28C56 12.537 43.463 0 28 0ZM28 51.3333C20.713 51.3333 14.2007 47.971 9.919 42.7233C10.5233 41.3513 11.746 40.4017 14.2753 39.816C19.5113 38.6073 24.6797 37.527 22.1923 32.9443C14.8307 19.3643 20.0947 11.6667 28 11.6667C35.7513 11.6667 41.146 19.0797 33.8077 32.9443C31.3927 37.499 36.3743 38.5817 41.7247 39.816C44.2493 40.3993 45.4813 41.3443 46.0903 42.7117C41.8063 47.9687 35.2917 51.3333 28 51.3333Z" fill="#CCCCCC"/>
</svg>

