<svg id="Layer_1" data-name="Layer 1" xmlns="http://www.w3.org/2000/svg" viewBox="0 0 200.45 203.7"><title>Aye2</title><path d="M230.43,292.56c-2.1-6.6-3.3-7.5-12.3-7.5h-45.3c-7.5,0-9.3.9-11.4,7.2l-10.5,31.5c-4.5,13.5-6.6,21.6-6.6,24.9,0,3.6,1.5,5.4,8.7,6l9.9,0.9c2.1,1.5,2.1,6.3-.6,7.5-7.8-.6-17.1-0.6-31.2-0.9-9.9,0-20.7.6-28.8,0.9-1.8-1.2-2.4-6-.6-7.5l9.9-.9c7.2-.6,13.8-3.9,18-14.7,5.4-13.8,13.8-33.3,26.4-66.9l30.6-81c4.2-10.8,6-16.5,5.1-21.3,7.2-2.1,12.3-7.5,15.6-11.4,1.8,0,3.9.6,4.5,2.7,3.9,13.2,8.7,27,13.2,40.2l41.1,120.6c8.7,25.8,12.6,30.3,25.5,31.8l8.1,0.9c2.1,1.5,1.5,6.3,0,7.5-12.3-.6-22.8-0.9-36.3-0.9-14.4,0-25.8.6-34.5,0.9-2.4-1.2-2.7-6-.6-7.5l8.7-.9c6.3-.6,10.5-2.4,10.5-5.4,0-3.3-1.5-8.7-3.9-15.9ZM171,265.86c-2.4,6.9-2.1,7.2,6.3,7.2h36.9c8.7,0,9.3-1.2,6.6-9.3l-16.2-48.9c-2.4-7.2-5.1-15.3-6.9-18.9h-0.6c-0.9,1.5-3.9,8.7-7.2,17.7Z" transform="translate(-100.65 -159.36)"/></svg>