<svg id="Layer_1" data-name="Layer 1" xmlns="http://www.w3.org/2000/svg" viewBox="0 0 340.76 206.49"><title>aaleph2</title><path fill="#999" d="M672.95,352l-16.62-19.12q-9.47-11.08-9.47-24.66A54.16,54.16,0,0,1,650.61,289q3.75-9.92,13-24.39,4.11,0,5.27,1.52a7.81,7.81,0,0,1,1.16,4.74v6.61h3.4q11.79-15.19,11.79-29.84,0-17.69-18.94-24.48L651,219.56q-10.72-2.68-13.76-13.76h-4.65q-7.33,10.55-7.33,24.66,0,28.6,26.63,32.88a120.6,120.6,0,0,0-18,43.78l-67.2-76.31a36.58,36.58,0,0,1-9.29-25h-4.65q-12.16,13.23-12.15,29,0,17,13.58,32.7l21.8,24.84q-37.35,21.27-37.35,49,0,8.4,7.77,26.9t7.77,23.32c0,6.32-5.05,9.53-10.79,9.75a41.37,41.37,0,0,1-6.2-.56c-12.81-1.9-16.8-6-25.5-31.8l-41.1-120.6c-4.5-13.2-9.3-27-13.2-40.2-0.6-2.1-2.7-2.7-4.5-2.7-3.3,3.9-8.4,9.3-15.6,11.4,0.9,4.8-.9,10.5-5.1,21.3l-30.6,81c-12.6,33.6-21,53.1-26.4,66.9-4.2,10.8-10.8,14.1-18,14.7l-9.9.9c-1.8,1.5-1.2,6.3.6,7.5,8.1-.3,18.9-0.9,28.8-0.9,14.1,0.3,23.4.3,31.2,0.9,2.7-1.2,2.7-6,.6-7.5l-9.9-.9c-7.2-.6-8.7-2.4-8.7-6,0-3.3,2.1-11.4,6.6-24.9l10.5-31.5c2.1-6.3,3.9-7.2,11.4-7.2h45.3c9,0,10.2.9,12.3,7.5l13.2,40.8c2.4,7.2,3.9,12.6,3.9,15.9,0,3-4.2,4.8-10.5,5.4l-8.7.9c-2.1,1.5-1.8,6.3.6,7.5,8.7-.3,20.1-0.9,34.5-0.9,13.5,0,22.15.35,34.47,0.65,8.44,0.21,33.78,0,33.78,0h0.54q6.43,0,12.42-7.77t6-16.17a26.76,26.76,0,0,0-3.4-12.51,58.51,58.51,0,0,0-8.31-11.88l-9.83-10.9a60.49,60.49,0,0,1-8.31-11.71,25.7,25.7,0,0,1-3.4-12.33q0-15.72,19.84-25.73l77.56,89q9.29,10.55,9.29,23.05h4.83q12.51-11.43,12.51-27Q686.89,367.71,672.95,352ZM459.72,319.06h-36.9c-8.4,0-8.7-.3-6.3-7.2l18.9-52.2c3.3-9,6.3-16.2,7.2-17.7h0.6c1.8,3.6,4.5,11.7,6.9,18.9l16.2,48.9C469,317.86,468.42,319.06,459.72,319.06Z" transform="translate(-346.13 -205.36)"/></svg>
