<svg width="16" height="20" viewBox="0 0 16 20" fill="none" xmlns="http://www.w3.org/2000/svg">
<path d="M8 20C7.45 20 6.97933 19.8043 6.588 19.413C6.19667 19.0217 6.00067 18.5507 6 18H10C10 18.55 9.80433 19.021 9.413 19.413C9.02167 19.805 8.55067 20.0007 8 20ZM5 17C4.71667 17 4.47933 16.904 4.288 16.712C4.09667 16.52 4.00067 16.2827 4 16C3.99933 15.7173 4.09533 15.48 4.288 15.288C4.48067 15.096 4.718 15 5 15H11C11.2833 15 11.521 15.096 11.713 15.288C11.905 15.48 12.0007 15.7173 12 16C11.9993 16.2827 11.9033 16.5203 11.712 16.713C11.5207 16.9057 11.2833 17.0013 11 17H5ZM4.25 14C3.1 13.3167 2.18733 12.4 1.512 11.25C0.836668 10.1 0.499334 8.85 0.500001 7.5C0.500001 5.41667 1.22933 3.646 2.688 2.188C4.14667 0.730001 5.91733 0.000667123 8 4.56621e-07C10.0827 -0.00066621 11.8537 0.728667 13.313 2.188C14.7723 3.64733 15.5013 5.418 15.5 7.5C15.5 8.85 15.1627 10.1 14.488 11.25C13.8133 12.4 12.9007 13.3167 11.75 14H4.25ZM4.85 12H11.15C11.9 11.4667 12.4793 10.8083 12.888 10.025C13.2967 9.24167 13.5007 8.4 13.5 7.5C13.5 5.96667 12.9667 4.66667 11.9 3.6C10.8333 2.53333 9.53333 2 8 2C6.46667 2 5.16667 2.53333 4.1 3.6C3.03333 4.66667 2.5 5.96667 2.5 7.5C2.5 8.4 2.70433 9.24167 3.113 10.025C3.52167 10.8083 4.10067 11.4667 4.85 12Z" fill="#666666"/>
</svg>
