<svg width="18" height="18" viewBox="0 0 18 18" fill="none" xmlns="http://www.w3.org/2000/svg">
<path d="M9 1.5C13.1355 1.5 16.5 4.8645 16.5 9C16.5 13.1355 13.1355 16.5 9 16.5C4.8645 16.5 1.5 13.1355 1.5 9C1.5 4.8645 4.8645 1.5 9 1.5ZM9 0C4.02975 0 0 4.02975 0 9C0 13.9703 4.02975 18 9 18C13.9703 18 18 13.9703 18 9C18 4.02975 13.9703 0 9 0ZM13.5 12.4035L10.056 8.9925L13.4655 5.55225L12.4035 4.5L8.99475 7.94175L5.55375 4.5345L4.5 5.58825L7.94475 9.00225L4.5345 12.4462L5.58825 13.5L9.0045 10.053L12.4478 13.4655L13.5 12.4035Z" fill="white"/>
</svg>
