<svg width="18" height="16" viewBox="0 0 18 16" fill="none" xmlns="http://www.w3.org/2000/svg">
<path d="M9 2.53025C6.7965 1.15775 3.438 0.605 0 0.5V13.7855C2.95275 13.8755 5.84625 14.2962 8.00025 15.2817C8.63475 15.5728 9.363 15.5728 10.0005 15.2817C12.1545 14.2962 15.0472 13.8755 18 13.7855V0.5C14.562 0.605 11.2035 1.15775 9 2.53025ZM1.5 12.3583V2.08025C5.36775 2.372 7.14525 3.1775 8.25 3.83075V13.7067C7.10625 13.2972 4.713 12.578 1.5 12.3583ZM16.5 12.3583C13.2878 12.578 10.8938 13.2973 9.75 13.7075V3.82925C10.8398 3.1835 12.6225 2.37275 16.5 2.08025V12.3583Z" fill="#999999"/>
</svg>
