<?xml version="1.0" encoding="UTF-8" standalone="no"?>
<svg
   xmlns:dc="http://purl.org/dc/elements/1.1/"
   xmlns:cc="http://creativecommons.org/ns#"
   xmlns:rdf="http://www.w3.org/1999/02/22-rdf-syntax-ns#"
   xmlns:svg="http://www.w3.org/2000/svg"
   xmlns="http://www.w3.org/2000/svg"
   xmlns:sodipodi="http://sodipodi.sourceforge.net/DTD/sodipodi-0.dtd"
   xmlns:inkscape="http://www.inkscape.org/namespaces/inkscape"
   width="24"
   height="24"
   viewBox="0 0 24 24"
   version="1.1"
   id="svg4"
   sodipodi:docname="iconmonstr-control-panel-6.svg"
   inkscape:version="0.92.2 5c3e80d, 2017-08-06">
  <metadata
     id="metadata10">
    <rdf:RDF>
      <cc:Work
         rdf:about="">
        <dc:format>image/svg+xml</dc:format>
        <dc:type
           rdf:resource="http://purl.org/dc/dcmitype/StillImage" />
      </cc:Work>
    </rdf:RDF>
  </metadata>
  <defs
     id="defs8" />
  <sodipodi:namedview
     pagecolor="#ffffff"
     bordercolor="#666666"
     borderopacity="1"
     objecttolerance="10"
     gridtolerance="10"
     guidetolerance="10"
     inkscape:pageopacity="0"
     inkscape:pageshadow="2"
     inkscape:window-width="738"
     inkscape:window-height="480"
     id="namedview6"
     showgrid="false"
     inkscape:zoom="9.8333333"
     inkscape:cx="12"
     inkscape:cy="12"
     inkscape:window-x="206"
     inkscape:window-y="87"
     inkscape:window-maximized="0"
     inkscape:current-layer="svg4" />
  <path
     d="m 16,17 c 0,0.552 -0.449,1 -1,1 -0.551,0 -1,-0.448 -1,-1 0,-0.552 0.449,-1 1,-1 0.551,0 1,0.448 1,1 z m 2,0 c 0,-1.657 -1.343,-3 -3,-3 -1.657,0 -3,1.343 -3,3 0,1.657 1.343,3 3,3 1.657,0 3,-1.343 3,-3 z M 12,7 C 12,5.343 10.657,4 9,4 7.343,4 6,5.343 6,7 c 0,1.657 1.343,3 3,3 1.657,0 3,-1.343 3,-3 z m 8,10 c 0,0.343 -0.035,0.677 -0.101,1 H 22 c 0.552,0 1,-0.447 1,-1 0,-0.553 -0.448,-1 -1,-1 H 19.899 C 19.965,16.323 20,16.657 20,17 Z M 14,7 c 0,0.343 -0.035,0.677 -0.101,1 H 22 C 22.552,8 23,7.553 23,7 23,6.447 22.552,6 22,6 H 13.899 C 13.965,6.323 14,6.657 14,7 Z m -4,10 c 0,-0.343 0.035,-0.677 0.101,-1 H 2 c -0.552,0 -1,0.447 -1,1 0,0.553 0.448,1 1,1 h 8.101 C 10.035,17.677 10,17.343 10,17 Z M 4,7 C 4,6.657 4.035,6.323 4.101,6 H 2 C 1.448,6 1,6.447 1,7 1,7.553 1.448,8 2,8 H 4.101 C 4.035,7.677 4,7.343 4,7 Z"
     id="path2"
     inkscape:connector-curvature="0" />
</svg>
