<svg width="84" height="29" viewBox="0 0 84 29" fill="none" xmlns="http://www.w3.org/2000/svg">
<path d="M28.12 16.76C28.44 17.32 28.7733 17.8133 29.12 18.24C29.48 18.6667 29.88 19 30.32 19.24C30.76 19.48 31.26 19.6 31.82 19.6C32.5667 19.6 33.1667 19.3933 33.62 18.98C34.0733 18.5667 34.3 18.04 34.3 17.4C34.3 16.7733 34.1533 16.2733 33.86 15.9C33.5667 15.5267 33.18 15.2267 32.7 15C32.2333 14.76 31.7333 14.5467 31.2 14.36C30.8533 14.24 30.4667 14.0867 30.04 13.9C29.6133 13.7 29.2067 13.4533 28.82 13.16C28.4333 12.8533 28.1133 12.48 27.86 12.04C27.62 11.6 27.5 11.06 27.5 10.42C27.5 9.72667 27.6733 9.10667 28.02 8.56C28.3667 8.01333 28.8467 7.58667 29.46 7.28C30.0733 6.96 30.7733 6.8 31.56 6.8C32.32 6.8 32.98 6.94667 33.54 7.24C34.1133 7.52 34.6 7.88667 35 8.34C35.4 8.78 35.7133 9.24667 35.94 9.74L34.48 10.58C34.3067 10.2333 34.0867 9.89333 33.82 9.56C33.5533 9.22667 33.2267 8.95333 32.84 8.74C32.4667 8.52667 32.0067 8.42 31.46 8.42C30.7 8.42 30.1467 8.60667 29.8 8.98C29.4533 9.34 29.28 9.74667 29.28 10.2C29.28 10.5867 29.38 10.9467 29.58 11.28C29.78 11.6 30.1133 11.9067 30.58 12.2C31.06 12.48 31.7067 12.76 32.52 13.04C32.8933 13.1733 33.2867 13.3467 33.7 13.56C34.1133 13.7733 34.4933 14.0467 34.84 14.38C35.2 14.7 35.4933 15.0933 35.72 15.56C35.9467 16.0133 36.06 16.56 36.06 17.2C36.06 17.8133 35.94 18.3667 35.7 18.86C35.4733 19.3533 35.1533 19.7733 34.74 20.12C34.34 20.4667 33.88 20.7333 33.36 20.92C32.8533 21.1067 32.32 21.2 31.76 21.2C31 21.2 30.2933 21.04 29.64 20.72C29 20.3867 28.4333 19.9533 27.94 19.42C27.46 18.8733 27.0667 18.2933 26.76 17.68L28.12 16.76ZM40.657 5.4V21H39.057V5.4H40.657ZM44.957 15.4C44.957 14.64 44.7904 14.0667 44.457 13.68C44.137 13.2933 43.6504 13.1 42.997 13.1C42.5304 13.1 42.117 13.2 41.757 13.4C41.4104 13.6 41.137 13.8733 40.937 14.22C40.7504 14.5667 40.657 14.96 40.657 15.4H40.137C40.137 14.6667 40.277 14.02 40.557 13.46C40.837 12.8867 41.217 12.4333 41.697 12.1C42.1904 11.7667 42.757 11.6 43.397 11.6C44.037 11.6 44.5904 11.7333 45.057 12C45.537 12.2667 45.9037 12.6667 46.157 13.2C46.4237 13.7333 46.557 14.4 46.557 15.2V21H44.957V15.4ZM53.7248 21.2C52.8715 21.2 52.1115 21 51.4448 20.6C50.7915 20.1867 50.2782 19.62 49.9048 18.9C49.5448 18.18 49.3648 17.3467 49.3648 16.4C49.3648 15.44 49.5515 14.6 49.9248 13.88C50.3115 13.16 50.8448 12.6 51.5248 12.2C52.2182 11.8 53.0182 11.6 53.9248 11.6C54.8315 11.6 55.6048 11.7933 56.2448 12.18C56.8982 12.5533 57.3982 13.0933 57.7448 13.8C58.0915 14.5067 58.2648 15.3467 58.2648 16.32C58.2648 16.4133 58.2582 16.5133 58.2448 16.62C58.2448 16.7133 58.2448 16.7733 58.2448 16.8H50.3848V15.44H56.9848L56.3448 16.36C56.3848 16.2933 56.4248 16.1933 56.4648 16.06C56.5048 15.9133 56.5248 15.7933 56.5248 15.7C56.5248 15.1533 56.4115 14.68 56.1848 14.28C55.9715 13.88 55.6715 13.5667 55.2848 13.34C54.8982 13.1133 54.4448 13 53.9248 13C53.3115 13 52.7848 13.1333 52.3448 13.4C51.9182 13.6533 51.5848 14.0267 51.3448 14.52C51.1182 15 50.9982 15.5933 50.9848 16.3C50.9848 17.02 51.0982 17.6333 51.3248 18.14C51.5515 18.6467 51.8848 19.0333 52.3248 19.3C52.7648 19.5667 53.2982 19.7 53.9248 19.7C54.5515 19.7 55.1048 19.5667 55.5848 19.3C56.0648 19.02 56.4715 18.6 56.8048 18.04L58.1048 18.86C57.6248 19.6333 57.0182 20.22 56.2848 20.62C55.5648 21.0067 54.7115 21.2 53.7248 21.2ZM64.6178 21.2C63.7645 21.2 63.0045 21 62.3378 20.6C61.6845 20.1867 61.1711 19.62 60.7978 18.9C60.4378 18.18 60.2578 17.3467 60.2578 16.4C60.2578 15.44 60.4445 14.6 60.8178 13.88C61.2045 13.16 61.7378 12.6 62.4178 12.2C63.1111 11.8 63.9111 11.6 64.8178 11.6C65.7245 11.6 66.4978 11.7933 67.1378 12.18C67.7911 12.5533 68.2911 13.0933 68.6378 13.8C68.9845 14.5067 69.1578 15.3467 69.1578 16.32C69.1578 16.4133 69.1511 16.5133 69.1378 16.62C69.1378 16.7133 69.1378 16.7733 69.1378 16.8H61.2778V15.44H67.8778L67.2378 16.36C67.2778 16.2933 67.3178 16.1933 67.3578 16.06C67.3978 15.9133 67.4178 15.7933 67.4178 15.7C67.4178 15.1533 67.3045 14.68 67.0778 14.28C66.8645 13.88 66.5645 13.5667 66.1778 13.34C65.7911 13.1133 65.3378 13 64.8178 13C64.2045 13 63.6778 13.1333 63.2378 13.4C62.8111 13.6533 62.4778 14.0267 62.2378 14.52C62.0111 15 61.8911 15.5933 61.8778 16.3C61.8778 17.02 61.9911 17.6333 62.2178 18.14C62.4445 18.6467 62.7778 19.0333 63.2178 19.3C63.6578 19.5667 64.1911 19.7 64.8178 19.7C65.4445 19.7 65.9978 19.5667 66.4778 19.3C66.9578 19.02 67.3645 18.6 67.6978 18.04L68.9978 18.86C68.5178 19.6333 67.9111 20.22 67.1778 20.62C66.4578 21.0067 65.6045 21.2 64.6178 21.2ZM70.5508 11.8H75.1508V13.3H70.5508V11.8ZM72.0508 8.6H73.6508V21H72.0508V8.6ZM77.7355 18.18C77.9221 18.46 78.1355 18.72 78.3755 18.96C78.6155 19.2 78.8888 19.3933 79.1955 19.54C79.5155 19.6733 79.8621 19.74 80.2355 19.74C80.6888 19.74 81.0421 19.64 81.2955 19.44C81.5621 19.2267 81.6955 18.94 81.6955 18.58C81.6955 18.26 81.5888 17.9933 81.3755 17.78C81.1755 17.5533 80.9155 17.3667 80.5955 17.22C80.2755 17.06 79.9355 16.9133 79.5755 16.78C79.1755 16.62 78.7688 16.4333 78.3555 16.22C77.9555 15.9933 77.6155 15.7067 77.3355 15.36C77.0688 15 76.9355 14.5533 76.9355 14.02C76.9355 13.4733 77.0755 13.02 77.3555 12.66C77.6488 12.3 78.0221 12.0333 78.4755 11.86C78.9421 11.6867 79.4221 11.6 79.9155 11.6C80.4088 11.6 80.8688 11.68 81.2955 11.84C81.7355 12 82.1221 12.2133 82.4555 12.48C82.7888 12.7467 83.0488 13.0533 83.2355 13.4L81.9555 14.22C81.7021 13.8733 81.3821 13.5867 80.9955 13.36C80.6221 13.1333 80.1955 13.02 79.7155 13.02C79.3821 13.02 79.0955 13.0933 78.8555 13.24C78.6155 13.3867 78.4955 13.6133 78.4955 13.92C78.4955 14.16 78.5888 14.3733 78.7755 14.56C78.9621 14.7467 79.2021 14.9133 79.4955 15.06C79.7888 15.2067 80.0955 15.3467 80.4155 15.48C80.9488 15.6933 81.4355 15.9267 81.8755 16.18C82.3155 16.42 82.6621 16.7133 82.9155 17.06C83.1821 17.4067 83.3155 17.8533 83.3155 18.4C83.3155 19.2 83.0221 19.8667 82.4355 20.4C81.8621 20.9333 81.1021 21.2 80.1555 21.2C79.5421 21.2 78.9888 21.0933 78.4955 20.88C78.0021 20.6533 77.5821 20.3667 77.2355 20.02C76.9021 19.6733 76.6488 19.32 76.4755 18.96L77.7355 18.18Z" fill="black"/>
<path d="M17.3241 17.0413C16.6809 20.0768 14.4977 21.365 9.63225 21.365C-2.32192 21.365 1.91368 11.7032 3.58444 9.71175C4.28637 8.82877 4.77746 8.10145 6.56031 8.10145H9.95252C14.6819 8.10145 15.584 8.3269 16.769 10.7585C17.4095 12.0682 17.7805 14.8943 17.3241 17.0467V17.0413ZM18.6079 11.0134C18.2075 8.41814 17.6871 5.59474 15.4452 4.03543C14.0867 3.08535 12.6855 3.01557 11.1188 3.01557C10.0513 3.01557 6.2854 2.96994 4.636 2.96994C3.03464 2.96994 1.96706 1.64412 1.96706 1C0.923509 2.28556 0.125496 3.70532 0.405734 5.42298C0.656614 6.96887 1.71085 7.95652 3.25349 8.15244C1.50534 10.635 -0.074669 13.4933 0.00273011 16.5207C0.0507709 18.4289 0.485806 26 8.99971 26H10.5504C14.1855 26 16.3873 23.2866 17.0279 22.2426C18.9095 19.1562 19.2244 14.3816 18.6292 11.0295" fill="#518159"/>
</svg>
