<svg width="18" height="17" viewBox="0 0 18 17" fill="none" xmlns="http://www.w3.org/2000/svg">
<path d="M8.99963 1.7503C13.135 1.7503 16.4993 4.44419 16.4993 7.7553C16.4993 11.4429 12.6415 13.7258 9.06712 13.7258C7.61443 13.7258 6.52923 13.4281 5.77176 13.2428C5.02179 13.7026 4.57631 14.0205 2.56789 14.6078C2.96913 13.5781 3.10937 12.5469 3.01862 11.4092C2.3909 10.6592 1.49994 9.60923 1.49994 7.7553C1.49994 4.44419 4.8643 1.7503 8.99963 1.7503ZM8.99963 0.250366C4.24632 0.250366 0 3.41973 0 7.7553C0 9.29274 0.554227 10.8024 1.53519 11.9739C1.57643 13.3463 0.767968 15.3157 0.0404983 16.7497C1.99192 16.3972 4.76605 15.6187 6.02375 14.8478C7.08645 15.1065 8.10416 15.225 9.06787 15.225C14.3807 15.225 18 11.5974 18 7.75455C17.9993 3.39648 13.7237 0.250366 8.99963 0.250366Z" fill="#999999"/>
</svg>
