<?xml version="1.0" encoding="UTF-8" standalone="no"?>
<!-- Created with Inkscape (http://www.inkscape.org/) -->

<svg
   width="150.67801mm"
   height="150.67805mm"
   viewBox="0 0 150.67801 150.67806"
   version="1.1"
   id="svg1"
   xml:space="preserve"
   xmlns="http://www.w3.org/2000/svg"
   xmlns:svg="http://www.w3.org/2000/svg"><defs
     id="defs1" /><title
     id="title1">Fodian-logo-chinese</title><style
     id="style1">
		.s0 { fill: #c6a04f } 
		.s1 { fill: #c6a04e } 
		.s2 { fill: none;stroke: #fefefe;stroke-miterlimit:10;stroke-width: 3.5 } 
		.s3 { fill: #fefefe } 
		.s4 { fill: none;stroke: #fefefe;stroke-linecap: round;stroke-linejoin: round;stroke-width: 7 } 
	</style><g
     id="Folder 1"
     transform="matrix(0.13710606,0,0,0.13710606,-29.855631,-5.3821365)"><path
       id="&lt;Path&gt;"
       fill-rule="evenodd"
       class="s1"
       d="m 767.2,1127.4 c -148.8,0 -269.1,-120.3 -269.1,-269.2 0,-148.9 120.3,-269.2 269.1,-269.2 148.9,0 269.2,120.3 269.2,269.2 0,148.9 -120.3,269.2 -269.2,269.2 z" /><path
       id="path2"
       fill-rule="evenodd"
       class="s1"
       d="M 767.2,589 C 618.4,589 498.1,468.7 498.1,319.8 498.1,170.9 618.4,50.6 767.2,50.6 c 148.9,0 269.2,120.3 269.2,269.2 0,148.9 -120.3,269.2 -269.2,269.2 z" /><path
       id="path3"
       class="s1"
       d="m 1226.8,398.6 c 105.1,105.2 105.1,275.6 0,380.7 -105.1,105.2 -275.6,105.2 -380.7,0 C 741,674.2 741,503.8 846.1,398.6 c 105.1,-105.1 275.6,-105.1 380.7,0 z" /><path
       id="path4"
       class="s1"
       d="m 307.7,779.3 c -105.1,-105.1 -105.1,-275.5 0,-380.7 105.1,-105.1 275.6,-105.1 380.7,0 105.1,105.2 105.1,275.6 0,380.7 -105.1,105.2 -275.6,105.2 -380.7,0 z" /><path
       id="path5"
       class="s1"
       d="m 1147.9,208.3 c 105.2,105.1 105.2,275.6 0,380.7 -105.1,105.1 -275.5,105.1 -380.7,0 -105.1,-105.1 -105.1,-275.6 0,-380.7 105.2,-105.1 275.6,-105.1 380.7,0 z" /><path
       id="path6"
       class="s1"
       d="M 386.5,969.7 C 281.4,864.6 281.4,694.1 386.5,589 c 105.2,-105.1 275.6,-105.1 380.7,0 105.2,105.1 105.2,275.6 0,380.7 -105.1,105.1 -275.5,105.1 -380.7,0 z" /><path
       id="path7"
       fill-rule="evenodd"
       class="s1"
       d="m 957.6,1048.5 c -148.9,0 -269.2,-120.3 -269.2,-269.2 0,-148.8 120.3,-269.1 269.2,-269.1 148.9,0 269.2,120.3 269.2,269.1 0,148.9 -120.3,269.2 -269.2,269.2 z" /><path
       id="path8"
       fill-rule="evenodd"
       class="s1"
       d="M 576.9,667.8 C 428,667.8 307.7,547.5 307.7,398.6 307.7,249.8 428,129.5 576.9,129.5 c 148.9,0 269.2,120.3 269.2,269.1 0,148.9 -120.3,269.2 -269.2,269.2 z" /><path
       id="path9"
       fill-rule="evenodd"
       class="s1"
       d="M 767.2,858.2 C 618.4,858.2 498.1,737.9 498.1,589 c 0,-148.9 120.3,-269.2 269.1,-269.2 148.9,0 269.2,120.3 269.2,269.2 0,148.9 -120.3,269.2 -269.2,269.2 z" /><path
       id="path10"
       class="s1"
       d="m 1036.4,857.9 c 0,-148.6 -120.5,-269.1 -269.2,-269.1 -148.6,0 -269.1,120.5 -269.1,269.1" /><path
       id="path11"
       class="s1"
       d="m 1036.4,319.6 c 0,148.6 -120.5,269.2 -269.2,269.2 -148.6,0 -269.1,-120.6 -269.1,-269.2" /><path
       id="path12"
       class="s1"
       d="m 498.1,857.9 c 148.6,0 269.1,-120.5 269.1,-269.2 0,-148.6 -120.5,-269.1 -269.1,-269.1" /><path
       id="path13"
       class="s1"
       d="m 1036.4,857.9 c -148.6,0 -269.2,-120.5 -269.2,-269.2 0,-148.6 120.6,-269.1 269.2,-269.1" /><path
       id="path14"
       class="s1"
       d="M 767.2,969.5 C 872.4,864.3 872.4,693.9 767.2,588.7 662.1,483.6 491.7,483.6 386.5,588.8" /><path
       id="path15"
       class="s1"
       d="M 1148,588.7 C 1042.8,693.9 872.4,693.9 767.2,588.7 662.1,483.6 662.1,313.2 767.3,208" /><path
       id="path16"
       class="s1"
       d="m 386.5,588.7 c 105.2,105.2 275.6,105.2 380.8,0 C 872.4,483.6 872.4,313.2 767.2,208" /><path
       id="path17"
       class="s1"
       d="M 767.3,969.5 C 662.1,864.3 662.1,693.9 767.3,588.7 872.4,483.6 1042.8,483.6 1148,588.8" /><path
       id="path18"
       fill-rule="evenodd"
       class="s1"
       d="m 767.2,856.7 c -148.1,0 -267.9,-119.8 -267.9,-267.9 0,-148.2 119.8,-268 267.9,-268 148.2,0 268,119.8 268,268 0,148.1 -119.8,267.9 -268,267.9 z" /><path
       id="path19"
       class="s1"
       d="m 576.9,1048.3 c 48.7,48.7 116,78.8 190.3,78.8 74.4,0 141.7,-30.1 190.4,-78.8" /><path
       id="path20"
       class="s1"
       d="M 957.6,129.2 C 908.9,80.5 841.6,50.4 767.2,50.4 c -74.3,0 -141.6,30.1 -190.3,78.8" /><path
       id="path21"
       class="s1"
       d="m 1226.8,779.1 c 105.1,-105.1 105.1,-275.6 0,-380.7" /><path
       id="path22"
       class="s1"
       d="M 307.7,398.4 C 202.6,503.5 202.6,674 307.7,779.1" /><path
       id="path23"
       class="s1"
       d="m 1226.8,398.4 c 0,-68.9 -26.3,-137.8 -78.8,-190.3 -52.6,-52.6 -121.5,-78.9 -190.4,-78.9" /><path
       id="path24"
       class="s1"
       d="m 307.7,779.1 c 0,68.9 26.3,137.8 78.8,190.4 52.6,52.5 121.5,78.8 190.4,78.8" /><path
       id="path25"
       class="s1"
       d="m 576.9,129.2 c -148.7,0 -269.2,120.5 -269.2,269.2" /><path
       id="path26"
       class="s1"
       d="m 957.6,1048.3 c 148.7,0 269.2,-120.5 269.2,-269.2" /><path
       id="path27"
       class="s1"
       d="m 846.3,779.4 c -48.9,-48.7 -79.2,-116.2 -79.2,-190.7 0,-74.5 30.2,-141.8 79,-190.5" /><path
       id="path28"
       class="s1"
       d="m 688.3,779.4 c 48.9,-48.7 79.2,-116.2 79.2,-190.7 0,-74.5 -30.2,-141.8 -79,-190.5" /><path
       id="path29"
       class="s1"
       d="m 576.7,667.8 c 48.7,-48.9 116.2,-79.2 190.7,-79.2 74.4,0 141.8,30.2 190.5,79" /><path
       id="path30"
       class="s1"
       d="m 576.7,509.7 c 48.7,49 116.2,79.3 190.7,79.3 74.4,0 141.8,-30.2 190.5,-79" /><path
       id="path31"
       class="s1"
       d="m 688.4,779.5 c -0.1,-69.1 26.1,-138.2 78.8,-190.9 52.7,-52.7 121.7,-78.9 190.6,-78.9" /><path
       id="path32"
       class="s1"
       d="m 576.6,667.7 c 69.1,0.1 138.2,-26.2 190.9,-78.9 52.6,-52.6 78.9,-121.6 78.9,-190.5" /><path
       id="path33"
       class="s1"
       d="m 576.6,509.9 c 69.1,-0.2 138.2,26.1 190.9,78.8 52.6,52.6 78.9,121.6 78.9,190.6" /><path
       id="path34"
       class="s1"
       d="m 688.4,398.1 c -0.1,69.1 26.1,138.2 78.8,190.9 52.7,52.6 121.7,78.9 190.6,78.8" /><path
       id="path35"
       fill-rule="evenodd"
       class="s2"
       d="m 767.2,1127.4 c -148.8,0 -269.1,-120.3 -269.1,-269.2 0,-148.9 120.3,-269.2 269.1,-269.2 148.9,0 269.2,120.3 269.2,269.2 0,148.9 -120.3,269.2 -269.2,269.2 z" /><path
       id="path36"
       fill-rule="evenodd"
       class="s2"
       d="M 767.2,589 C 618.4,589 498.1,468.7 498.1,319.8 498.1,170.9 618.4,50.6 767.2,50.6 c 148.9,0 269.2,120.3 269.2,269.2 0,148.9 -120.3,269.2 -269.2,269.2 z" /><path
       id="path37"
       class="s2"
       d="m 1226.8,398.6 c 105.1,105.2 105.1,275.6 0,380.7 -105.1,105.2 -275.6,105.2 -380.7,0 C 741,674.2 741,503.8 846.1,398.6 c 105.1,-105.1 275.6,-105.1 380.7,0 z" /><path
       id="path38"
       class="s2"
       d="m 307.7,779.3 c -105.1,-105.1 -105.1,-275.5 0,-380.7 105.1,-105.1 275.6,-105.1 380.7,0 105.1,105.2 105.1,275.6 0,380.7 -105.1,105.2 -275.6,105.2 -380.7,0 z" /><path
       id="path39"
       class="s2"
       d="m 1147.9,208.3 c 105.2,105.1 105.2,275.6 0,380.7 -105.1,105.1 -275.5,105.1 -380.7,0 -105.1,-105.1 -105.1,-275.6 0,-380.7 105.2,-105.1 275.6,-105.1 380.7,0 z" /><path
       id="path40"
       class="s2"
       d="M 386.5,969.7 C 281.4,864.6 281.4,694.1 386.5,589 c 105.2,-105.1 275.6,-105.1 380.7,0 105.2,105.1 105.2,275.6 0,380.7 -105.1,105.1 -275.5,105.1 -380.7,0 z" /><path
       id="path41"
       fill-rule="evenodd"
       class="s2"
       d="m 957.6,1048.5 c -148.9,0 -269.2,-120.3 -269.2,-269.2 0,-148.8 120.3,-269.1 269.2,-269.1 148.9,0 269.2,120.3 269.2,269.1 0,148.9 -120.3,269.2 -269.2,269.2 z" /><path
       id="path42"
       fill-rule="evenodd"
       class="s2"
       d="M 576.9,667.8 C 428,667.8 307.7,547.5 307.7,398.6 307.7,249.8 428,129.5 576.9,129.5 c 148.9,0 269.2,120.3 269.2,269.1 0,148.9 -120.3,269.2 -269.2,269.2 z" /><path
       id="path43"
       fill-rule="evenodd"
       class="s2"
       d="M 767.2,858.2 C 618.4,858.2 498.1,737.9 498.1,589 c 0,-148.9 120.3,-269.2 269.1,-269.2 148.9,0 269.2,120.3 269.2,269.2 0,148.9 -120.3,269.2 -269.2,269.2 z" /><path
       id="path44"
       class="s3"
       d="m 1036.4,857.9 c 1.3,-5.7 2.4,-10.5 2.8,-15.7 0.2,-2.6 0.3,-5.2 0.3,-8.1 -0.1,-1.4 -0.1,-2.9 -0.2,-4.5 q -0.2,-2.3 -0.5,-4.9 c -0.2,-1.9 -0.6,-4.7 -1,-8.2 q -0.5,-2.6 -1,-5.6 -0.6,-3.5 -1.3,-7.1 c -0.5,-2.7 -1.2,-5.5 -1.8,-8.2 -1.2,-5.6 -2.9,-11.2 -4.5,-16.9 -3.5,-11.4 -7.7,-23.1 -13.2,-34.7 q -0.9,-2.2 -1.9,-4.4 -1.1,-2.2 -2.2,-4.4 c -1.5,-2.8 -3,-5.8 -4.6,-8.7 q -2.4,-4.2 -4.9,-8.5 c -1.6,-2.9 -3.5,-5.7 -5.3,-8.5 -7.3,-11.2 -15.4,-22.1 -24.4,-32.3 -9.1,-10.1 -18.6,-19.8 -29,-28.4 -20.6,-17.3 -43.2,-31.2 -65.4,-41 -22.2,-10 -44,-15.8 -62.6,-19.1 q -3.5,-0.7 -6.8,-1.3 -3.4,-0.4 -6.6,-0.8 -3.2,-0.4 -6.2,-0.8 c -2,-0.2 -4,-0.3 -5.9,-0.5 -3.8,-0.2 -7.3,-0.6 -10.6,-0.7 q -4.9,-0.1 -9,-0.2 c -2.7,-0.1 -5.1,-0.1 -7.2,0 q -3.2,0.1 -5.3,0.1 c -2.9,0.1 -4.4,0.1 -4.4,0.1 0,0 -0.4,0 -1.2,0.1 q -1.1,0.1 -3.3,0.3 c -2.8,0.2 -7.1,0.4 -12.5,1 -10.7,1.2 -26.2,3.6 -44.4,8.8 -18.2,5.2 -39.3,13.1 -60.3,25.3 -21.2,12 -42.4,28 -61.1,47.3 -9.4,9.5 -18.1,20.1 -26,31.1 -1.9,2.8 -4,5.5 -5.8,8.4 q -2.8,4.3 -5.5,8.5 c -3.4,5.9 -6.9,11.6 -9.8,17.6 -3.2,5.9 -5.8,12 -8.5,18 -2.4,6.1 -5,12.1 -6.9,18.2 -1,3.1 -2.2,6.1 -3,9.1 q -1.3,4.5 -2.6,9 c -0.9,3 -1.4,6 -2.2,9 q -0.5,2.2 -1,4.4 l -0.5,2.2 -0.3,1.6 c -0.8,4.5 -1.5,8.6 -2.1,12 -0.4,3.5 -0.8,6.3 -1,8.2 q -0.3,2.6 -0.5,4.9 c -0.1,1.6 -0.1,3.1 -0.2,4.5 0,2.9 0.1,5.5 0.3,8.1 0.4,5.2 1.5,10 2.8,15.7 1.6,-5.7 2.6,-10.4 3.7,-15.3 0.6,-2.5 1,-5 1.4,-7.8 q 0.3,-2.1 0.6,-4.3 0.4,-2.3 0.7,-4.8 c 0.3,-1.8 0.6,-4.5 1,-7.8 0.6,-3.4 1.3,-7.3 2.1,-11.7 l 0.3,-1.5 0.5,-2.1 q 0.5,-2.2 1,-4.3 c 0.7,-2.9 1.2,-5.8 2.1,-8.7 q 1.2,-4.3 2.5,-8.7 c 0.8,-2.9 1.9,-5.8 2.8,-8.8 1.9,-5.9 4.4,-11.7 6.7,-17.6 2.6,-5.8 5.2,-11.7 8.2,-17.4 2.9,-5.8 6.3,-11.3 9.5,-17 q 2.7,-4.1 5.3,-8.3 c 1.8,-2.8 3.8,-5.4 5.7,-8.1 7.6,-10.6 16,-20.8 25.1,-30.1 18.1,-18.7 38.6,-34.2 59.1,-45.7 20.3,-11.8 40.7,-19.5 58.3,-24.5 17.6,-5 32.6,-7.4 43,-8.5 5.2,-0.7 9.3,-0.8 12.1,-1.1 q 2.1,-0.1 3.2,-0.2 c 0.7,-0.1 1.1,-0.1 1.1,-0.1 0,0 1.5,0 4.3,-0.1 q 2.1,0 5.1,-0.1 c 2,-0.1 4.4,-0.1 7,0 q 3.9,0.1 8.7,0.2 c 3.2,0.1 6.6,0.5 10.3,0.7 1.8,0.2 3.7,0.2 5.7,0.5 q 2.9,0.4 6,0.7 3.1,0.4 6.3,0.9 3.3,0.5 6.7,1.1 c 18,3.3 39,8.9 60.4,18.6 21.5,9.5 43.4,22.9 63.3,39.7 10.1,8.2 19.3,17.6 28.1,27.4 8.7,9.8 16.6,20.4 23.6,31.3 1.7,2.7 3.6,5.3 5.1,8.2 q 2.4,4.1 4.8,8.3 c 1.5,2.7 2.9,5.6 4.4,8.4 q 1,2.1 2.1,4.2 1,2.1 1.9,4.2 c 5.3,11.2 9.3,22.6 12.8,33.6 1.5,5.5 3.2,10.9 4.3,16.3 0.6,2.7 1.3,5.3 1.8,7.9 q 0.6,3.5 1.2,6.9 0.5,3 1,5.5 c 0.4,3.3 0.7,6 1,7.8 q 0.3,2.5 0.7,4.8 0.3,2.2 0.6,4.3 c 0.4,2.8 0.8,5.3 1.4,7.8 1.1,4.9 2.1,9.6 3.7,15.3 z" /><path
       id="path45"
       class="s3"
       d="m 1036.4,319.6 c -1.6,5.7 -2.6,10.4 -3.7,15.3 -0.6,2.5 -1,5 -1.4,7.8 q -0.3,2.1 -0.6,4.3 -0.4,2.3 -0.7,4.8 c -0.3,1.8 -0.6,4.5 -1,7.8 q -0.5,2.5 -1,5.5 -0.6,3.4 -1.2,6.9 c -0.5,2.6 -1.2,5.2 -1.8,7.9 -1.1,5.4 -2.8,10.8 -4.3,16.3 -3.5,11 -7.5,22.4 -12.8,33.6 q -0.9,2.1 -1.9,4.3 -1.1,2 -2.1,4.1 c -1.5,2.8 -2.9,5.7 -4.4,8.4 q -2.4,4.2 -4.8,8.3 c -1.5,2.9 -3.4,5.5 -5.1,8.2 -7,10.9 -14.9,21.5 -23.6,31.3 -8.8,9.8 -18,19.2 -28.1,27.4 -19.9,16.8 -41.8,30.2 -63.3,39.7 -21.4,9.7 -42.4,15.3 -60.4,18.6 q -3.4,0.6 -6.7,1.1 -3.2,0.5 -6.3,0.9 -3.1,0.3 -6,0.7 c -2,0.3 -3.9,0.3 -5.7,0.5 -3.7,0.2 -7.1,0.6 -10.3,0.7 q -4.8,0.1 -8.7,0.2 c -2.6,0.1 -5,0.1 -7,0 q -3,-0.1 -5.1,-0.1 c -2.8,-0.1 -4.3,-0.1 -4.3,-0.1 0,0 -0.4,0 -1.1,-0.1 q -1.1,-0.1 -3.2,-0.2 c -2.8,-0.3 -6.9,-0.4 -12.1,-1.1 -10.4,-1.1 -25.4,-3.5 -43,-8.5 -17.6,-5 -38,-12.7 -58.3,-24.5 -20.5,-11.5 -41,-27 -59.1,-45.7 -9.1,-9.3 -17.5,-19.5 -25.1,-30.1 -1.9,-2.7 -3.9,-5.3 -5.7,-8.1 q -2.6,-4.2 -5.3,-8.3 c -3.2,-5.7 -6.6,-11.2 -9.5,-17 -3,-5.7 -5.6,-11.6 -8.2,-17.4 -2.3,-5.9 -4.8,-11.7 -6.7,-17.6 -0.9,-3 -2,-5.9 -2.8,-8.8 q -1.3,-4.4 -2.5,-8.7 c -0.9,-2.9 -1.4,-5.8 -2.1,-8.7 q -0.5,-2.1 -1,-4.3 l -0.5,-2.1 -0.3,-1.5 c -0.8,-4.4 -1.5,-8.3 -2.1,-11.7 -0.4,-3.3 -0.7,-6 -1,-7.8 q -0.3,-2.5 -0.7,-4.8 -0.3,-2.2 -0.6,-4.3 c -0.4,-2.8 -0.8,-5.3 -1.4,-7.8 -1.1,-4.9 -2.1,-9.6 -3.7,-15.3 -1.3,5.7 -2.4,10.5 -2.8,15.7 -0.2,2.6 -0.3,5.2 -0.3,8.1 0.1,1.4 0.1,2.9 0.2,4.5 q 0.2,2.3 0.5,4.9 c 0.2,1.9 0.6,4.7 1,8.2 0.6,3.4 1.3,7.5 2.1,12 l 0.3,1.6 0.5,2.2 q 0.5,2.2 1,4.4 c 0.8,3 1.3,6 2.2,9 q 1.3,4.5 2.6,9 c 0.8,3 2,6 3,9.1 1.9,6.1 4.5,12.1 6.9,18.2 2.7,6 5.3,12.1 8.5,18 2.9,6 6.4,11.7 9.8,17.6 q 2.7,4.2 5.5,8.5 c 1.8,2.9 3.9,5.6 5.8,8.4 7.9,11 16.6,21.6 26,31.1 18.7,19.3 39.9,35.3 61.1,47.3 21,12.2 42.1,20.1 60.3,25.3 18.2,5.2 33.7,7.6 44.4,8.8 5.4,0.6 9.7,0.8 12.5,1 q 2.2,0.2 3.3,0.3 c 0.8,0.1 1.2,0.1 1.2,0.1 0,0 1.5,0 4.4,0.1 q 2.1,0 5.3,0.1 c 2.1,0.1 4.5,0.1 7.2,0 q 4.1,-0.1 9,-0.2 c 3.3,-0.1 6.8,-0.5 10.6,-0.7 1.9,-0.2 3.9,-0.3 5.9,-0.5 q 3,-0.4 6.2,-0.8 3.2,-0.4 6.6,-0.8 3.3,-0.6 6.8,-1.3 c 18.6,-3.3 40.4,-9.1 62.6,-19.1 22.2,-9.8 44.8,-23.7 65.4,-41 10.4,-8.6 19.9,-18.3 29,-28.4 9,-10.2 17.1,-21.1 24.4,-32.3 1.8,-2.8 3.7,-5.6 5.3,-8.5 q 2.5,-4.3 4.9,-8.5 c 1.6,-2.9 3.1,-5.9 4.6,-8.7 q 1.1,-2.2 2.2,-4.4 1,-2.2 1.9,-4.4 c 5.5,-11.6 9.7,-23.3 13.2,-34.7 1.6,-5.7 3.3,-11.3 4.5,-16.9 0.6,-2.7 1.3,-5.5 1.8,-8.2 q 0.7,-3.6 1.3,-7.1 0.5,-3 1,-5.6 c 0.4,-3.5 0.8,-6.3 1,-8.2 q 0.3,-2.6 0.5,-4.9 c 0.1,-1.6 0.1,-3.1 0.2,-4.5 0,-2.9 -0.1,-5.5 -0.3,-8.1 -0.4,-5.2 -1.5,-10 -2.8,-15.7 z" /><path
       id="path46"
       class="s3"
       d="m 498.1,857.9 c 5.7,1.3 10.5,2.4 15.7,2.8 2.6,0.2 5.2,0.3 8.1,0.3 1.4,-0.1 2.9,-0.1 4.5,-0.2 q 2.3,-0.2 4.9,-0.5 c 1.9,-0.2 4.7,-0.6 8.2,-1 q 2.6,-0.5 5.6,-1 3.5,-0.6 7.1,-1.3 c 2.7,-0.5 5.5,-1.2 8.2,-1.8 5.6,-1.2 11.2,-2.9 16.9,-4.5 11.4,-3.5 23.1,-7.7 34.7,-13.2 q 2.2,-0.9 4.4,-1.9 2.2,-1.1 4.4,-2.2 c 2.8,-1.5 5.8,-3 8.7,-4.6 q 4.2,-2.4 8.5,-4.9 c 2.9,-1.6 5.7,-3.5 8.5,-5.3 11.2,-7.3 22.1,-15.4 32.3,-24.4 10.1,-9 19.8,-18.6 28.4,-29 17.3,-20.6 31.2,-43.2 41,-65.4 10,-22.2 15.8,-44 19.1,-62.6 q 0.7,-3.5 1.3,-6.8 0.4,-3.4 0.8,-6.6 0.4,-3.2 0.8,-6.2 c 0.2,-2 0.3,-4 0.5,-5.9 0.2,-3.8 0.6,-7.3 0.7,-10.6 q 0.1,-4.9 0.2,-9 c 0.1,-2.7 0.1,-5.1 0,-7.2 q -0.1,-3.2 -0.1,-5.3 c -0.1,-2.9 -0.1,-4.4 -0.1,-4.4 0,0 0,-0.4 -0.1,-1.2 q -0.1,-1.1 -0.3,-3.3 c -0.2,-2.8 -0.4,-7.1 -1,-12.5 -1.2,-10.7 -3.6,-26.2 -8.8,-44.4 -5.2,-18.2 -13.1,-39.3 -25.3,-60.3 -12,-21.2 -28,-42.4 -47.3,-61.1 -9.5,-9.4 -20.1,-18.1 -31.1,-26 -2.8,-1.9 -5.5,-4 -8.4,-5.8 q -4.3,-2.8 -8.5,-5.5 c -5.9,-3.4 -11.6,-6.9 -17.6,-9.8 -5.9,-3.2 -12,-5.8 -18,-8.5 -6.1,-2.4 -12.1,-5 -18.2,-6.9 -3.1,-1 -6.1,-2.2 -9.1,-3 q -4.5,-1.3 -9,-2.6 c -3,-0.9 -6,-1.4 -9,-2.2 q -2.2,-0.5 -4.4,-1 l -2.2,-0.5 -1.6,-0.3 c -4.5,-0.8 -8.6,-1.5 -12,-2.1 -3.5,-0.4 -6.3,-0.8 -8.2,-1 q -2.6,-0.3 -4.9,-0.5 c -1.6,-0.1 -3.1,-0.1 -4.5,-0.2 -2.9,0 -5.5,0.1 -8.1,0.3 -5.2,0.4 -10,1.5 -15.7,2.8 5.7,1.6 10.4,2.6 15.3,3.7 2.5,0.6 5,1 7.8,1.4 q 2.1,0.3 4.3,0.6 2.3,0.4 4.8,0.7 c 1.8,0.3 4.5,0.6 7.8,1 3.4,0.6 7.3,1.3 11.7,2.1 l 1.5,0.3 2.1,0.5 q 2.2,0.5 4.3,1 c 2.9,0.7 5.8,1.2 8.7,2.1 q 4.3,1.2 8.7,2.5 c 2.9,0.8 5.8,1.9 8.8,2.8 5.9,1.9 11.7,4.4 17.6,6.7 5.8,2.6 11.7,5.2 17.4,8.2 5.8,2.9 11.3,6.3 17,9.5 q 4.1,2.7 8.3,5.3 c 2.8,1.8 5.4,3.8 8.1,5.7 10.6,7.6 20.8,16 30.1,25.1 18.7,18.1 34.2,38.6 45.7,59.1 11.8,20.3 19.5,40.7 24.5,58.3 5,17.6 7.4,32.6 8.5,43 0.7,5.2 0.8,9.3 1.1,12.1 q 0.1,2.1 0.2,3.2 c 0.1,0.7 0.1,1.1 0.1,1.1 0,0 0,1.5 0.1,4.3 q 0,2.1 0.1,5.1 c 0.1,2 0.1,4.4 0,7 q -0.1,3.9 -0.2,8.7 c -0.1,3.2 -0.5,6.6 -0.7,10.3 -0.2,1.8 -0.2,3.7 -0.5,5.7 q -0.4,2.9 -0.7,6 -0.4,3.1 -0.9,6.3 -0.5,3.3 -1.1,6.7 c -3.3,18 -8.9,39 -18.6,60.4 -9.5,21.5 -22.9,43.4 -39.7,63.3 -8.2,10.1 -17.6,19.3 -27.4,28.1 -9.8,8.7 -20.4,16.6 -31.3,23.6 -2.7,1.7 -5.3,3.6 -8.2,5.1 q -4.1,2.4 -8.3,4.8 c -2.7,1.5 -5.6,2.9 -8.4,4.4 q -2.1,1 -4.1,2.1 -2.2,1 -4.3,1.9 c -11.2,5.3 -22.6,9.3 -33.6,12.8 -5.5,1.5 -10.9,3.2 -16.3,4.3 -2.7,0.6 -5.3,1.3 -7.9,1.8 q -3.5,0.6 -6.9,1.2 -3,0.5 -5.5,1 c -3.3,0.4 -6,0.7 -7.8,1 q -2.5,0.3 -4.8,0.7 -2.2,0.3 -4.3,0.6 c -2.8,0.4 -5.3,0.8 -7.8,1.4 -4.9,1.1 -9.6,2.1 -15.3,3.7 z" /><path
       id="path47"
       class="s3"
       d="m 1036.4,857.9 c -5.7,-1.6 -10.4,-2.6 -15.3,-3.7 -2.5,-0.6 -5,-1 -7.8,-1.4 q -2.1,-0.3 -4.3,-0.6 -2.3,-0.4 -4.8,-0.7 c -1.8,-0.3 -4.5,-0.6 -7.8,-1 q -2.5,-0.5 -5.5,-1 -3.4,-0.6 -6.9,-1.2 c -2.6,-0.5 -5.2,-1.2 -7.9,-1.8 -5.4,-1.1 -10.8,-2.8 -16.3,-4.3 -11,-3.5 -22.4,-7.5 -33.6,-12.8 q -2.1,-0.9 -4.3,-1.9 -2,-1.1 -4.1,-2.1 c -2.8,-1.5 -5.7,-2.9 -8.4,-4.4 q -4.2,-2.4 -8.4,-4.8 c -2.8,-1.5 -5.4,-3.4 -8.1,-5.1 -10.9,-7 -21.5,-14.9 -31.3,-23.6 -9.8,-8.8 -19.2,-18 -27.4,-28.1 -16.8,-19.9 -30.2,-41.8 -39.7,-63.3 -9.7,-21.4 -15.3,-42.4 -18.6,-60.4 q -0.6,-3.4 -1.1,-6.7 -0.5,-3.2 -0.9,-6.3 -0.3,-3.1 -0.7,-6 c -0.3,-2 -0.3,-3.9 -0.5,-5.7 -0.2,-3.7 -0.6,-7.1 -0.7,-10.3 q -0.1,-4.8 -0.2,-8.7 c -0.1,-2.6 -0.1,-5 0,-7 q 0.1,-3 0.1,-5.1 c 0.1,-2.8 0.1,-4.3 0.1,-4.3 0,0 0,-0.4 0.1,-1.1 q 0.1,-1.1 0.2,-3.2 c 0.3,-2.8 0.4,-6.9 1.1,-12.1 1.1,-10.4 3.5,-25.4 8.5,-43 5,-17.6 12.7,-38 24.5,-58.3 11.5,-20.5 27,-41 45.7,-59.1 9.3,-9.1 19.5,-17.5 30.1,-25.1 2.7,-1.9 5.3,-3.9 8.1,-5.7 q 4.2,-2.6 8.3,-5.3 c 5.7,-3.2 11.2,-6.6 17,-9.5 5.7,-3 11.6,-5.6 17.4,-8.2 5.9,-2.3 11.7,-4.8 17.6,-6.7 3,-0.9 5.9,-2 8.8,-2.8 q 4.4,-1.3 8.7,-2.5 c 2.9,-0.9 5.8,-1.4 8.7,-2.1 q 2.1,-0.5 4.3,-1 l 2.1,-0.5 1.5,-0.3 c 4.4,-0.8 8.3,-1.5 11.7,-2.1 3.3,-0.4 6,-0.7 7.8,-1 q 2.5,-0.3 4.8,-0.7 2.2,-0.3 4.3,-0.6 c 2.8,-0.4 5.3,-0.8 7.8,-1.4 4.9,-1.1 9.6,-2.1 15.3,-3.7 -5.7,-1.3 -10.5,-2.4 -15.7,-2.8 -2.6,-0.2 -5.2,-0.3 -8.1,-0.3 -1.4,0.1 -2.9,0.1 -4.5,0.2 q -2.3,0.2 -4.9,0.5 c -1.9,0.2 -4.7,0.6 -8.2,1 -3.4,0.6 -7.5,1.3 -12,2.1 l -1.6,0.3 -2.2,0.5 q -2.2,0.5 -4.4,1 c -3,0.8 -6,1.3 -9,2.2 q -4.5,1.3 -9,2.6 c -3,0.8 -6,2 -9.1,3 -6.1,1.9 -12.1,4.5 -18.2,6.9 -6,2.7 -12.1,5.3 -18,8.5 -6,2.9 -11.7,6.4 -17.6,9.8 q -4.2,2.7 -8.5,5.5 c -2.9,1.8 -5.6,3.9 -8.4,5.8 -11,7.9 -21.6,16.6 -31.1,26 -19.3,18.7 -35.3,39.9 -47.3,61.1 -12.2,21 -20.1,42.1 -25.3,60.3 -5.2,18.2 -7.6,33.7 -8.8,44.4 -0.6,5.4 -0.8,9.7 -1,12.5 q -0.2,2.2 -0.3,3.3 c -0.1,0.8 -0.1,1.2 -0.1,1.2 0,0 0,1.5 -0.1,4.4 q 0,2.1 -0.1,5.3 c -0.1,2.1 -0.1,4.5 0,7.2 q 0.1,4.1 0.2,9 c 0.1,3.3 0.5,6.8 0.7,10.6 0.2,1.9 0.3,3.9 0.5,5.9 q 0.4,3 0.8,6.2 0.4,3.2 0.8,6.6 0.6,3.3 1.3,6.8 c 3.3,18.6 9.1,40.4 19.1,62.6 9.8,22.2 23.7,44.8 41,65.4 8.6,10.4 18.3,20 28.4,29 10.2,9 21.1,17.1 32.3,24.4 2.8,1.8 5.6,3.7 8.5,5.3 q 4.3,2.5 8.5,4.9 c 2.9,1.6 5.9,3.1 8.7,4.6 q 2.2,1.1 4.4,2.2 2.2,1 4.4,1.9 c 11.6,5.5 23.3,9.7 34.7,13.2 5.7,1.6 11.3,3.3 16.9,4.5 2.7,0.6 5.5,1.3 8.2,1.8 q 3.6,0.7 7.1,1.3 3,0.5 5.6,1 c 3.5,0.4 6.3,0.8 8.2,1 q 2.6,0.3 4.9,0.5 c 1.6,0.1 3.1,0.1 4.5,0.2 2.9,0 5.5,-0.1 8.1,-0.3 5.2,-0.4 10,-1.5 15.7,-2.8 z" /><path
       id="path48"
       class="s3"
       d="m 767.2,969.5 c 5,-3.2 9.2,-5.9 13.1,-9.2 2,-1.7 3.9,-3.5 6,-5.6 1,-1 2,-2.1 3,-3.3 q 1.5,-1.8 3.1,-3.8 c 1.2,-1.5 2.9,-3.7 5.1,-6.5 q 1.5,-2.1 3.3,-4.7 2,-2.9 4.1,-5.9 c 1.6,-2.3 3,-4.7 4.5,-7.1 3.1,-4.7 5.9,-9.9 8.8,-15.1 5.5,-10.5 10.9,-21.8 15.2,-33.9 q 0.9,-2.2 1.7,-4.5 0.8,-2.3 1.5,-4.6 c 1,-3.1 2.1,-6.2 3,-9.3 q 1.3,-4.8 2.6,-9.6 c 0.9,-3.2 1.4,-6.5 2.2,-9.7 2.8,-13.1 4.8,-26.6 5.5,-40.1 0.8,-13.6 0.9,-27.2 -0.4,-40.6 -2.2,-26.8 -8.4,-52.6 -17.2,-75.3 C 823.7,658 812.4,638.5 801.6,623 q -2,-2.9 -4,-5.7 -2.1,-2.7 -4,-5.3 -2,-2.5 -3.9,-4.9 c -1.2,-1.6 -2.6,-3.1 -3.8,-4.5 -2.5,-2.9 -4.7,-5.7 -7,-8 q -3.4,-3.6 -6.2,-6.6 c -1.8,-2 -3.6,-3.6 -5.1,-5.1 q -2.3,-2.1 -3.9,-3.6 c -2.1,-2 -3.2,-3.1 -3.2,-3.1 0,0 -0.2,-0.2 -0.8,-0.7 q -0.9,-0.7 -2.5,-2.2 c -2.2,-1.8 -5.3,-4.7 -9.6,-8 -8.5,-6.8 -21.1,-16 -37.6,-25.3 -16.6,-9.2 -37.1,-18.5 -60.6,-24.7 -23.4,-6.5 -49.7,-10.2 -76.6,-9.8 -13.4,0.1 -27,1.5 -40.4,3.6 -3.3,0.6 -6.7,1 -10,1.8 q -5,1.1 -9.9,2.2 c -6.6,1.7 -13.1,3.3 -19.4,5.5 -6.5,1.9 -12.6,4.4 -18.8,6.7 -6,2.6 -12,5 -17.7,8 -2.9,1.5 -5.8,2.8 -8.5,4.3 q -4.2,2.3 -8.2,4.6 c -2.8,1.4 -5.3,3.2 -7.9,4.8 q -2,1.2 -3.9,2.4 l -1.9,1.2 -1.3,0.9 c -3.7,2.6 -7.2,5 -10,7 -2.8,2.2 -5,3.9 -6.5,5.1 q -2,1.6 -3.8,3.1 c -1.2,1 -2.3,2 -3.3,3 -2.1,2.1 -3.9,4 -5.6,6 -3.3,3.9 -6,8.1 -9.2,13.1 5.2,-2.9 9.3,-5.5 13.6,-8.3 2.1,-1.3 4.2,-2.8 6.5,-4.4 q 1.6,-1.3 3.4,-2.7 1.9,-1.3 3.9,-2.8 c 1.4,-1.2 3.6,-2.8 6.3,-4.9 2.7,-1.9 6.1,-4.2 9.7,-6.8 l 1.3,-0.8 1.8,-1.2 q 1.9,-1.2 3.7,-2.3 c 2.5,-1.5 5,-3.3 7.6,-4.7 q 4,-2.2 8,-4.4 c 2.6,-1.5 5.5,-2.7 8.2,-4.2 5.5,-2.8 11.4,-5.1 17.2,-7.7 5.9,-2.2 11.9,-4.6 18.1,-6.5 6.1,-2.1 12.4,-3.6 18.8,-5.3 q 4.8,-1 9.6,-2.1 c 3.2,-0.8 6.4,-1.1 9.6,-1.7 13,-2.1 26.1,-3.5 39.2,-3.5 26,-0.4 51.4,3.1 74.1,9.4 22.7,6 42.5,15 58.5,23.9 16,8.9 28.3,17.8 36.4,24.4 4.2,3.2 7.2,6 9.3,7.8 q 1.6,1.4 2.5,2.1 c 0.5,0.5 0.8,0.7 0.8,0.7 0,0 1,1 3.1,3 q 1.5,1.4 3.7,3.5 c 1.5,1.4 3.2,3 4.9,5 q 2.8,2.8 6,6.3 c 2.2,2.3 4.4,5 6.8,7.7 1.2,1.4 2.5,2.8 3.7,4.4 q 1.8,2.3 3.7,4.8 1.9,2.5 3.9,5 1.9,2.7 3.9,5.6 c 10.4,15 21.3,33.8 29.6,55.8 8.5,21.9 14.6,46.9 16.7,72.8 1.3,13 1.2,26.2 0.4,39.3 -0.7,13.1 -2.7,26.1 -5.4,38.8 -0.7,3.1 -1.2,6.3 -2.1,9.4 q -1.3,4.7 -2.5,9.3 c -0.9,3 -1.9,6 -2.9,9 q -0.7,2.2 -1.4,4.5 -0.9,2.1 -1.7,4.3 c -4.2,11.7 -9.4,22.6 -14.7,32.8 -2.8,5 -5.5,10 -8.5,14.6 -1.5,2.3 -2.8,4.6 -4.3,6.8 q -2.1,3 -4,5.8 -1.8,2.4 -3.2,4.5 c -2.1,2.7 -3.7,4.9 -4.9,6.3 q -1.5,2 -2.8,3.9 -1.4,1.8 -2.7,3.4 c -1.6,2.3 -3.1,4.4 -4.4,6.5 -2.8,4.3 -5.4,8.4 -8.3,13.6 z" /><path
       id="path49"
       class="s3"
       d="m 1148,588.7 c -5.2,2.9 -9.3,5.5 -13.6,8.3 -2.1,1.3 -4.2,2.8 -6.5,4.4 q -1.6,1.3 -3.4,2.7 -1.9,1.3 -3.9,2.8 c -1.4,1.2 -3.6,2.8 -6.3,4.9 q -2.1,1.4 -4.5,3.2 -2.8,1.9 -5.8,4 c -2.2,1.5 -4.5,2.8 -6.8,4.3 -4.6,3 -9.6,5.7 -14.6,8.5 -10.2,5.3 -21.1,10.5 -32.8,14.7 q -2.2,0.8 -4.3,1.7 -2.3,0.7 -4.5,1.4 c -3,1 -6,2 -9,2.9 q -4.6,1.2 -9.3,2.5 c -3.1,0.9 -6.3,1.4 -9.4,2.1 -12.7,2.7 -25.7,4.7 -38.8,5.4 -13.1,0.8 -26.3,0.9 -39.3,-0.4 -25.9,-2.1 -50.9,-8.2 -72.8,-16.7 -22,-8.3 -40.8,-19.2 -55.8,-29.6 q -2.9,-2 -5.6,-3.9 -2.5,-2 -5,-3.9 -2.5,-1.9 -4.8,-3.7 c -1.6,-1.2 -3,-2.5 -4.4,-3.7 -2.7,-2.4 -5.4,-4.6 -7.7,-6.8 q -3.5,-3.2 -6.3,-6 c -2,-1.7 -3.6,-3.4 -5,-4.9 q -2.1,-2.2 -3.5,-3.7 c -2,-2.1 -3,-3.1 -3,-3.1 0,0 -0.2,-0.3 -0.7,-0.8 q -0.7,-0.9 -2.1,-2.5 c -1.8,-2.1 -4.6,-5.1 -7.8,-9.3 -6.6,-8.1 -15.5,-20.4 -24.4,-36.4 -8.9,-16 -17.9,-35.8 -23.9,-58.5 -6.3,-22.7 -9.8,-48.1 -9.4,-74.1 0,-13.1 1.4,-26.2 3.5,-39.2 0.6,-3.2 0.9,-6.4 1.7,-9.6 q 1.1,-4.8 2.1,-9.6 c 1.7,-6.4 3.2,-12.7 5.3,-18.8 1.9,-6.2 4.3,-12.2 6.5,-18.1 2.6,-5.8 4.9,-11.7 7.7,-17.2 1.5,-2.7 2.7,-5.6 4.2,-8.2 q 2.2,-4 4.4,-8 c 1.4,-2.6 3.2,-5.1 4.7,-7.6 q 1.1,-1.8 2.3,-3.7 l 1.2,-1.8 0.8,-1.3 c 2.6,-3.6 4.9,-7 6.8,-9.7 2.1,-2.7 3.7,-4.9 4.9,-6.3 q 1.5,-2 2.8,-3.9 1.4,-1.8 2.7,-3.4 c 1.6,-2.3 3.1,-4.4 4.4,-6.5 2.8,-4.3 5.4,-8.4 8.3,-13.6 -5,3.2 -9.2,5.9 -13.1,9.2 -2,1.7 -3.9,3.5 -6,5.6 -1,1 -2,2.1 -3,3.3 q -1.5,1.8 -3.1,3.8 c -1.2,1.5 -2.9,3.7 -5.1,6.5 -2,2.8 -4.4,6.3 -7,10 l -0.9,1.3 -1.2,1.9 q -1.2,1.9 -2.4,3.9 c -1.6,2.6 -3.4,5.1 -4.8,7.9 q -2.3,4 -4.6,8.2 c -1.5,2.7 -2.8,5.6 -4.3,8.5 -3,5.7 -5.4,11.7 -8,17.7 -2.3,6.2 -4.8,12.3 -6.7,18.8 -2.2,6.3 -3.8,12.8 -5.5,19.4 q -1.1,4.9 -2.2,9.9 c -0.8,3.3 -1.2,6.7 -1.8,10 -2.1,13.4 -3.5,27 -3.6,40.4 -0.4,26.9 3.3,53.2 9.8,76.6 6.2,23.5 15.5,44 24.7,60.6 9.3,16.5 18.5,29.1 25.3,37.6 3.3,4.3 6.2,7.4 8,9.6 q 1.5,1.6 2.2,2.5 c 0.5,0.6 0.7,0.8 0.7,0.8 0,0 1.1,1.1 3.1,3.2 q 1.5,1.6 3.6,3.9 c 1.5,1.5 3.1,3.3 5.1,5.1 q 3,2.8 6.6,6.2 c 2.3,2.3 5.1,4.5 8,7 1.4,1.2 2.9,2.6 4.5,3.8 q 2.4,1.9 4.9,3.9 2.6,1.9 5.3,4 2.8,2 5.7,4 c 15.5,10.8 35,22.1 57.7,30.7 22.7,8.8 48.5,15 75.3,17.2 13.4,1.3 27,1.2 40.6,0.4 13.5,-0.7 27,-2.7 40.1,-5.5 3.2,-0.8 6.5,-1.3 9.7,-2.2 q 4.8,-1.3 9.6,-2.6 c 3.1,-0.9 6.2,-2 9.3,-3 q 2.3,-0.7 4.6,-1.5 2.3,-0.8 4.5,-1.7 c 12.1,-4.3 23.4,-9.7 33.9,-15.2 5.2,-2.9 10.4,-5.7 15.1,-8.8 2.4,-1.5 4.8,-2.9 7.1,-4.5 q 3,-2.1 5.9,-4.1 2.6,-1.8 4.7,-3.3 c 2.8,-2.2 5,-3.9 6.5,-5.1 q 2,-1.6 3.8,-3.1 c 1.2,-1 2.3,-2 3.3,-3 2.1,-2.1 3.9,-4 5.6,-6 3.3,-3.9 6,-8.1 9.2,-13.1 z" /><path
       id="path50"
       class="s3"
       d="m 386.5,588.8 c 3.2,4.9 5.9,9.1 9.2,13 1.7,2 3.5,3.9 5.6,6 1,1 2.1,2 3.3,3 q 1.8,1.5 3.8,3.1 c 1.5,1.2 3.7,2.9 6.5,5.1 q 2.1,1.5 4.7,3.3 2.9,2 5.9,4.1 c 2.3,1.6 4.7,3 7.1,4.5 4.7,3.1 9.9,5.9 15.1,8.8 10.5,5.5 21.8,10.9 33.9,15.2 q 2.2,0.9 4.5,1.7 2.3,0.8 4.6,1.5 c 3.1,1 6.2,2.1 9.3,3 q 4.8,1.3 9.6,2.6 c 3.2,0.9 6.5,1.4 9.7,2.2 13.1,2.8 26.6,4.8 40.1,5.5 13.6,0.8 27.2,0.9 40.6,-0.4 26.8,-2.2 52.6,-8.4 75.3,-17.2 22.7,-8.6 42.2,-19.9 57.7,-30.7 q 2.9,-2 5.7,-4 2.7,-2.1 5.3,-4 2.5,-2 4.9,-3.9 c 1.6,-1.2 3.1,-2.6 4.5,-3.8 2.9,-2.5 5.7,-4.7 8,-7 q 3.6,-3.4 6.6,-6.2 c 2,-1.8 3.6,-3.6 5.1,-5.1 q 2.1,-2.3 3.6,-3.9 c 2,-2.1 3.1,-3.2 3.1,-3.2 0,0 0.2,-0.2 0.7,-0.8 q 0.7,-0.9 2.2,-2.5 c 1.8,-2.2 4.7,-5.3 8,-9.6 6.8,-8.5 16,-21.1 25.3,-37.6 9.2,-16.6 18.5,-37.1 24.7,-60.6 6.5,-23.4 10.2,-49.7 9.8,-76.6 -0.1,-13.4 -1.5,-27 -3.6,-40.4 -0.6,-3.3 -1,-6.7 -1.8,-10 q -1.1,-5 -2.2,-9.9 c -1.7,-6.6 -3.3,-13.1 -5.5,-19.4 -1.9,-6.5 -4.4,-12.6 -6.7,-18.8 -2.6,-6 -5,-12 -8,-17.7 -1.5,-2.9 -2.8,-5.8 -4.3,-8.5 q -2.3,-4.2 -4.6,-8.2 c -1.4,-2.8 -3.2,-5.3 -4.8,-7.9 q -1.2,-2 -2.4,-3.9 l -1.2,-1.9 -0.9,-1.3 c -2.6,-3.7 -5,-7.2 -7,-10 -2.2,-2.8 -3.9,-5 -5.1,-6.5 q -1.6,-2 -3.1,-3.8 c -1,-1.2 -2,-2.3 -3,-3.3 -2.1,-2.1 -4,-3.9 -6,-5.6 -3.9,-3.3 -8.1,-6 -13.1,-9.2 2.9,5.2 5.5,9.3 8.3,13.6 1.3,2.1 2.8,4.2 4.4,6.5 q 1.3,1.6 2.7,3.4 1.3,1.9 2.8,3.9 c 1.2,1.4 2.8,3.6 4.9,6.3 1.9,2.7 4.2,6.1 6.8,9.7 l 0.8,1.3 1.2,1.8 q 1.2,1.9 2.3,3.7 c 1.5,2.6 3.3,5 4.7,7.6 q 2.2,4 4.4,8 c 1.5,2.6 2.7,5.5 4.2,8.2 2.8,5.5 5.1,11.4 7.7,17.2 2.2,5.9 4.6,11.9 6.5,18.1 2.1,6.1 3.6,12.4 5.3,18.8 q 1,4.8 2.1,9.6 c 0.8,3.2 1.1,6.4 1.7,9.6 2.1,13 3.5,26.1 3.5,39.2 0.4,26 -3.1,51.4 -9.4,74.1 -6,22.7 -15,42.5 -23.9,58.5 -8.9,16 -17.8,28.3 -24.4,36.4 -3.2,4.2 -6,7.2 -7.8,9.3 q -1.4,1.6 -2.1,2.5 c -0.5,0.5 -0.7,0.8 -0.7,0.8 0,0 -1,1 -3,3.1 q -1.4,1.5 -3.5,3.7 c -1.4,1.5 -3,3.2 -5,4.9 q -2.8,2.8 -6.3,6 c -2.3,2.2 -5,4.4 -7.7,6.8 -1.4,1.2 -2.8,2.5 -4.4,3.7 q -2.3,1.8 -4.8,3.7 -2.5,1.9 -5,3.9 -2.7,1.9 -5.6,3.9 c -15,10.4 -33.8,21.3 -55.8,29.6 -21.9,8.5 -46.9,14.6 -72.8,16.7 -13,1.3 -26.2,1.2 -39.3,0.4 -13.1,-0.7 -26.1,-2.7 -38.8,-5.4 -3.1,-0.7 -6.3,-1.2 -9.4,-2.1 q -4.7,-1.3 -9.3,-2.5 c -3,-0.9 -6,-1.9 -9,-2.9 q -2.2,-0.7 -4.5,-1.4 -2.1,-0.9 -4.3,-1.7 c -11.7,-4.2 -22.6,-9.4 -32.8,-14.7 -5,-2.8 -10,-5.5 -14.6,-8.5 -2.3,-1.5 -4.6,-2.8 -6.8,-4.3 q -3,-2.1 -5.8,-4 -2.4,-1.8 -4.5,-3.2 c -2.7,-2.1 -4.9,-3.7 -6.3,-4.9 q -2,-1.5 -3.9,-2.8 -1.8,-1.4 -3.4,-2.7 c -2.3,-1.6 -4.4,-3.1 -6.5,-4.4 -4.3,-2.8 -8.4,-5.4 -13.6,-8.2 z" /><path
       id="path51"
       class="s3"
       d="m 767.3,969.5 c -2.9,-5.2 -5.5,-9.3 -8.3,-13.6 -1.3,-2.1 -2.8,-4.2 -4.4,-6.5 q -1.3,-1.6 -2.7,-3.4 -1.3,-1.9 -2.8,-3.9 c -1.2,-1.4 -2.8,-3.6 -4.9,-6.3 q -1.4,-2.1 -3.2,-4.5 -1.9,-2.8 -4,-5.8 c -1.5,-2.2 -2.8,-4.5 -4.3,-6.8 -3,-4.6 -5.7,-9.6 -8.5,-14.6 -5.3,-10.2 -10.5,-21.1 -14.7,-32.8 q -0.8,-2.2 -1.7,-4.3 -0.7,-2.3 -1.4,-4.5 c -1,-3 -2,-6 -2.9,-9 q -1.2,-4.6 -2.5,-9.3 c -0.9,-3.1 -1.4,-6.3 -2.1,-9.4 -2.7,-12.7 -4.7,-25.7 -5.4,-38.8 -0.8,-13.1 -0.9,-26.3 0.4,-39.3 2.1,-25.9 8.2,-50.9 16.7,-72.8 8.3,-22 19.2,-40.8 29.6,-55.8 q 2,-2.9 3.9,-5.6 2,-2.5 3.9,-5 1.9,-2.5 3.7,-4.8 c 1.2,-1.6 2.5,-3 3.7,-4.4 2.4,-2.7 4.6,-5.4 6.8,-7.7 q 3.2,-3.5 6,-6.3 c 1.7,-2 3.4,-3.6 4.9,-5 q 2.2,-2.1 3.7,-3.5 c 2.1,-2 3.1,-3 3.1,-3 0,0 0.3,-0.2 0.8,-0.7 q 0.9,-0.7 2.5,-2.1 c 2.1,-1.8 5.1,-4.6 9.3,-7.8 8.1,-6.6 20.4,-15.5 36.4,-24.4 16,-8.9 35.8,-17.9 58.5,-23.9 22.7,-6.3 48.1,-9.8 74.1,-9.4 13.1,0 26.2,1.4 39.2,3.5 3.2,0.6 6.4,0.9 9.6,1.7 q 4.8,1.1 9.6,2.1 c 6.4,1.7 12.7,3.2 18.8,5.3 6.2,1.9 12.2,4.3 18.1,6.5 5.8,2.6 11.7,4.9 17.2,7.7 2.7,1.5 5.6,2.7 8.2,4.2 q 4,2.2 8,4.4 c 2.6,1.4 5.1,3.2 7.6,4.7 q 1.8,1.1 3.7,2.3 l 1.8,1.2 1.3,0.8 c 3.6,2.6 7,4.9 9.7,6.8 2.7,2.1 4.9,3.7 6.3,4.9 q 2,1.5 3.9,2.8 1.8,1.4 3.4,2.7 c 2.3,1.6 4.4,3.1 6.5,4.4 4.3,2.8 8.4,5.4 13.6,8.3 -3.2,-5 -5.9,-9.2 -9.2,-13.1 -1.7,-2 -3.5,-3.9 -5.6,-6 -1,-1 -2.1,-2 -3.3,-3 q -1.8,-1.5 -3.8,-3.1 c -1.5,-1.2 -3.7,-2.9 -6.5,-5.1 -2.8,-2 -6.3,-4.4 -10,-7 l -1.3,-0.9 -1.9,-1.2 q -1.9,-1.2 -3.9,-2.4 c -2.6,-1.6 -5.1,-3.4 -7.9,-4.8 q -4,-2.3 -8.2,-4.6 c -2.7,-1.5 -5.6,-2.8 -8.5,-4.3 -5.7,-3 -11.7,-5.4 -17.7,-8 -6.2,-2.3 -12.3,-4.8 -18.8,-6.7 -6.3,-2.2 -12.8,-3.8 -19.4,-5.5 q -4.9,-1.1 -9.9,-2.2 c -3.3,-0.8 -6.7,-1.2 -10,-1.8 -13.4,-2.1 -27,-3.5 -40.4,-3.6 -26.9,-0.4 -53.2,3.3 -76.6,9.8 -23.5,6.2 -44,15.5 -60.6,24.7 -16.5,9.3 -29.1,18.5 -37.6,25.3 -4.3,3.3 -7.4,6.2 -9.6,8 q -1.6,1.5 -2.5,2.2 c -0.6,0.5 -0.8,0.7 -0.8,0.7 0,0 -1.1,1.1 -3.2,3.1 q -1.6,1.5 -3.9,3.6 c -1.5,1.5 -3.3,3.1 -5.1,5.1 q -2.8,3 -6.2,6.6 c -2.3,2.3 -4.5,5.1 -7,8 -1.2,1.4 -2.6,2.9 -3.8,4.5 q -1.9,2.4 -3.9,4.9 -1.9,2.6 -4,5.3 -2,2.8 -4,5.7 c -10.8,15.5 -22.1,35 -30.7,57.7 -8.8,22.7 -15,48.5 -17.2,75.3 -1.3,13.4 -1.2,27 -0.4,40.6 0.7,13.5 2.7,27 5.5,40.1 0.8,3.2 1.3,6.5 2.2,9.7 q 1.3,4.8 2.6,9.6 c 0.9,3.1 2,6.2 3,9.3 q 0.7,2.3 1.5,4.6 0.8,2.3 1.7,4.5 c 4.3,12.1 9.7,23.4 15.2,33.9 2.9,5.2 5.7,10.4 8.8,15.1 1.5,2.4 2.9,4.8 4.5,7.1 q 2.1,3 4.1,5.9 1.8,2.6 3.3,4.7 c 2.2,2.8 3.9,5 5.1,6.5 q 1.6,2 3.1,3.8 c 1,1.2 2,2.3 3,3.3 2.1,2.1 4,3.9 6,5.6 3.9,3.3 8.1,6 13.1,9.2 z" /><path
       id="path52"
       class="s3"
       d="m 576.9,1048.3 c 15.6,24.8 29.6,41.1 60.8,58.2 1.3,0.7 2.8,1.5 4.7,2.4 1.8,1 4,2.1 6.6,3.3 2.7,1.1 5.7,2.5 9.2,4.1 3.6,1.4 7.8,3.1 12.5,4.9 3.3,1.2 7.2,2.5 11.4,3.9 4.3,1.4 9,2.7 13.9,4.1 4.9,1.2 10.1,2.4 15.2,3.5 5.2,0.9 10.3,1.9 15.3,2.6 5,0.6 9.7,1.3 14.1,1.7 4.3,0.3 8.3,0.6 11.6,0.9 6.6,0.1 10.8,0.2 10.8,0.2 0,0 0.8,0.1 2.4,0.1 1.6,0.1 3.9,0 6.7,0 2.8,-0.1 6.2,-0.2 10,-0.3 3.8,-0.3 8,-0.6 12.4,-0.9 4.4,-0.4 9,-1.1 13.7,-1.7 4.7,-0.7 9.5,-1.6 14.2,-2.4 4.6,-0.9 9.2,-2.1 13.5,-3.1 4.4,-1.1 8.4,-2.3 12.1,-3.3 3.3,-0.9 6.3,-2.1 9.3,-3 2.9,-1.1 5.7,-1.9 8.3,-2.9 q 3.8,-1.6 7.3,-2.9 1.7,-0.7 3.3,-1.4 1.6,-0.7 3.1,-1.3 c 3.9,-1.9 7.4,-3.4 10.3,-4.8 q 4.3,-2.2 7.2,-3.7 c 31.2,-17.1 45.2,-33.4 60.8,-58.2 -12.7,7.5 -23.4,12.9 -34.3,18.9 -11,5.8 -22.2,12 -36.8,19.6 q -2.6,1.4 -6.6,3.4 c -2.7,1.3 -5.9,2.6 -9.6,4.3 q -1.3,0.6 -2.8,1.3 -1.5,0.6 -3.1,1.2 -3.1,1.2 -6.7,2.6 c -2.3,1 -4.9,1.7 -7.6,2.7 -2.7,0.8 -5.5,2 -8.5,2.7 -3.4,1 -7.1,2.1 -11.1,3.1 -4,0.9 -8.2,2 -12.5,2.8 -4.3,0.8 -8.7,1.7 -13,2.3 -4.4,0.5 -8.6,1.2 -12.7,1.5 -4,0.4 -7.9,0.7 -11.4,0.9 -3.4,0.1 -6.6,0.2 -9.2,0.3 -2.6,0.1 -4.7,0.2 -6.2,0.1 -1.4,-0.1 -2.2,-0.1 -2.2,-0.1 0,0 -3.8,-0.1 -9.9,-0.3 -3.1,-0.2 -6.7,-0.5 -10.7,-0.8 -4.1,-0.3 -8.4,-1 -13,-1.6 -4.6,-0.6 -9.3,-1.6 -14.1,-2.4 -4.7,-1.1 -9.4,-2.1 -13.9,-3.3 -4.5,-1.3 -8.9,-2.4 -12.8,-3.7 -3.9,-1.3 -7.5,-2.5 -10.5,-3.5 -4.4,-1.8 -8.2,-3.3 -11.5,-4.6 -3.2,-1.4 -6,-2.7 -8.4,-3.8 -2.5,-1 -4.5,-2 -6.2,-2.9 -1.7,-0.9 -3.1,-1.6 -4.3,-2.2 -14.6,-7.6 -25.8,-13.8 -36.8,-19.6 -10.9,-6 -21.6,-11.4 -34.3,-18.9 z" /><path
       id="path53"
       class="s3"
       d="M 957.6,129.2 C 942,104.4 928,88.1 896.8,71 c -1.3,-0.7 -2.8,-1.5 -4.7,-2.4 -1.8,-1 -4,-2.1 -6.6,-3.3 -2.7,-1.1 -5.7,-2.5 -9.2,-4.1 -3.6,-1.4 -7.8,-3.1 -12.5,-4.9 -3.3,-1.2 -7.2,-2.5 -11.4,-3.9 -4.3,-1.4 -9,-2.7 -13.9,-4.1 -4.9,-1.2 -10.1,-2.4 -15.2,-3.5 -5.2,-0.9 -10.3,-1.9 -15.3,-2.6 -5,-0.6 -9.7,-1.3 -14.1,-1.7 -4.3,-0.3 -8.3,-0.6 -11.6,-0.9 -6.6,-0.1 -10.8,-0.2 -10.8,-0.2 0,0 -0.8,-0.1 -2.4,-0.1 -1.6,-0.1 -3.9,0 -6.7,0 -2.8,0.1 -6.2,0.2 -10,0.3 -3.8,0.3 -8,0.6 -12.4,0.9 -4.4,0.4 -9,1.1 -13.7,1.7 -4.7,0.7 -9.5,1.6 -14.2,2.4 -4.6,0.9 -9.2,2.1 -13.6,3.1 -4.3,1.1 -8.3,2.3 -12,3.3 -3.3,0.9 -6.3,2.1 -9.3,3 -2.9,1.1 -5.7,1.9 -8.3,2.9 q -3.8,1.6 -7.3,2.9 -1.7,0.7 -3.3,1.4 -1.6,0.7 -3.1,1.3 c -3.9,1.9 -7.4,3.4 -10.3,4.8 q -4.3,2.2 -7.2,3.7 c -31.2,17.1 -45.2,33.4 -60.8,58.2 12.7,-7.5 23.4,-12.9 34.3,-18.9 11,-5.8 22.2,-12 36.8,-19.6 q 2.6,-1.4 6.6,-3.4 c 2.7,-1.3 5.9,-2.6 9.6,-4.3 q 1.3,-0.6 2.8,-1.3 1.5,-0.6 3.1,-1.2 3.1,-1.2 6.7,-2.6 c 2.3,-1 4.9,-1.7 7.6,-2.7 2.7,-0.8 5.5,-2 8.5,-2.7 3.4,-1 7.1,-2.1 11.1,-3.1 4,-0.9 8.2,-2 12.5,-2.8 4.3,-0.8 8.7,-1.7 13,-2.3 4.4,-0.5 8.6,-1.2 12.7,-1.5 4,-0.4 7.9,-0.7 11.4,-0.9 3.4,-0.1 6.6,-0.2 9.2,-0.3 2.6,-0.1 4.7,-0.2 6.2,-0.1 1.4,0.1 2.2,0.1 2.2,0.1 0,0 3.8,0.1 9.9,0.3 3.1,0.2 6.7,0.5 10.7,0.8 4.1,0.3 8.4,1 13,1.6 4.6,0.6 9.3,1.6 14.1,2.4 4.7,1.1 9.4,2.1 13.9,3.3 4.5,1.3 8.9,2.4 12.8,3.7 3.9,1.3 7.5,2.5 10.5,3.5 4.4,1.8 8.2,3.3 11.5,4.6 3.2,1.4 6,2.7 8.4,3.8 2.5,1 4.5,2 6.2,2.9 1.7,0.9 3.1,1.6 4.3,2.2 14.6,7.6 25.8,13.8 36.8,19.6 10.9,6 21.6,11.4 34.3,18.9 z" /><path
       id="path54"
       class="s3"
       d="m 1226.8,779.1 c 6.1,-3.9 12,-7.5 17.1,-11.7 2.6,-2 5.3,-3.9 7.7,-6.1 q 3.6,-3.3 7.2,-6.7 c 9.2,-9.4 17.9,-20.5 26.2,-36.2 1.4,-2.7 3.2,-6.3 5.7,-11.4 2.3,-5.3 5.5,-12.1 9,-21.7 1.3,-3.3 2.5,-7.2 3.9,-11.5 0.6,-2.1 1.5,-4.3 2.1,-6.6 q 0.9,-3.5 1.9,-7.2 c 1.4,-4.9 2.4,-10.1 3.5,-15.2 1.2,-5.1 1.9,-10.3 2.7,-15.3 0.6,-4.9 1.2,-9.7 1.7,-14.1 0.3,-4.3 0.6,-8.3 0.8,-11.6 0.3,-3.3 0.2,-6 0.3,-7.9 0,-1.8 0.1,-2.9 0.1,-2.9 0,0 0,-0.8 0,-2.4 0.1,-1.6 0,-3.9 0,-6.7 -0.1,-2.8 -0.1,-6.2 -0.3,-10 -0.3,-3.8 -0.6,-8 -0.9,-12.4 -0.6,-4.4 -1.1,-9 -1.7,-13.7 -0.8,-4.7 -1.5,-9.5 -2.4,-14.2 -1.1,-4.6 -2,-9.2 -3.1,-13.5 -1.2,-4.3 -2.2,-8.4 -3.3,-12.1 -8.1,-26 -16.1,-41 -20,-48.9 -8.3,-15.7 -17,-26.8 -26.2,-36.2 q -3.6,-3.4 -7.2,-6.7 c -2.4,-2.2 -5.1,-4.1 -7.7,-6.1 -5.1,-4.2 -11,-7.8 -17.1,-11.7 3.6,6.5 7.1,12.1 10,17.8 1.5,2.9 3.1,5.5 4.5,8.3 q 2.1,4.1 4.4,8.2 c 5.7,11 12.1,22.2 19.6,36.7 3.6,7.3 10.8,21.1 18.2,45 1,3.4 2,7.2 3.1,11.1 1,4 1.8,8.2 2.8,12.5 0.9,4.3 1.5,8.7 2.3,13 0.5,4.4 1.1,8.6 1.6,12.7 0.3,4 0.5,7.9 0.8,11.4 0.2,3.4 0.2,6.6 0.3,9.2 0.1,2.6 0.2,4.7 0.1,6.2 -0.1,1.4 -0.1,2.2 -0.1,2.2 0,0 0,1 0,2.7 -0.1,1.7 -0.1,4.2 -0.3,7.2 -0.2,3.1 -0.5,6.7 -0.8,10.7 -0.5,4 -1,8.4 -1.6,13 -0.8,4.5 -1.4,9.3 -2.5,14 -1.1,4.8 -1.9,9.5 -3.2,14 q -1,3.4 -1.8,6.6 c -0.6,2.2 -1.3,4.2 -1.9,6.2 -1.3,3.9 -2.4,7.5 -3.6,10.5 -3.2,8.8 -6.1,15.1 -8.2,20 -2.3,4.7 -3.9,8 -5.2,10.5 -7.5,14.5 -13.8,25.7 -19.6,36.7 q -2.3,4.1 -4.4,8.2 c -1.4,2.8 -3,5.4 -4.5,8.3 -2.9,5.7 -6.4,11.3 -10,17.8 z" /><path
       id="path55"
       class="s3"
       d="m 307.7,398.4 c -6.1,3.9 -12,7.5 -17.1,11.7 -2.6,2 -5.3,3.9 -7.7,6.1 q -3.6,3.3 -7.2,6.7 c -9.2,9.4 -17.9,20.5 -26.2,36.2 -1.4,2.7 -3.2,6.3 -5.7,11.4 -2.3,5.3 -5.5,12.1 -9,21.7 -1.3,3.3 -2.5,7.2 -3.9,11.5 -0.6,2.1 -1.5,4.3 -2.1,6.6 q -0.9,3.5 -1.9,7.2 c -1.4,4.9 -2.4,10.1 -3.5,15.2 -1.2,5.1 -1.9,10.3 -2.7,15.3 -0.6,4.9 -1.2,9.7 -1.7,14.1 -0.3,4.3 -0.6,8.3 -0.8,11.6 -0.3,3.3 -0.2,6 -0.3,7.9 0,1.8 -0.1,2.9 -0.1,2.9 0,0 0,0.8 0,2.4 -0.1,1.6 0,3.9 0,6.7 0.1,2.8 0.1,6.2 0.3,10 0.3,3.8 0.6,8 0.9,12.4 0.6,4.4 1.1,9 1.7,13.7 0.8,4.7 1.5,9.5 2.4,14.2 1.1,4.6 2,9.2 3.1,13.5 1.2,4.3 2.2,8.4 3.3,12.1 8.1,26 16.1,41 20,48.9 8.3,15.7 17,26.8 26.2,36.2 q 3.6,3.4 7.2,6.7 c 2.4,2.2 5.1,4.1 7.7,6.1 5.1,4.2 11,7.8 17.1,11.7 -3.6,-6.5 -7.1,-12.1 -10,-17.8 -1.5,-2.9 -3.1,-5.5 -4.5,-8.3 q -2.1,-4.1 -4.4,-8.2 c -5.7,-11 -12.1,-22.2 -19.6,-36.7 -3.6,-7.3 -10.8,-21.1 -18.2,-45 -1,-3.4 -2,-7.2 -3.1,-11.1 -1,-4 -1.8,-8.2 -2.8,-12.5 -0.9,-4.3 -1.5,-8.7 -2.3,-13 -0.5,-4.4 -1.1,-8.6 -1.6,-12.7 -0.3,-4 -0.5,-7.9 -0.8,-11.4 -0.2,-3.4 -0.2,-6.6 -0.3,-9.2 -0.1,-2.6 -0.2,-4.7 -0.1,-6.2 0,-1.4 0.1,-2.2 0.1,-2.2 0,0 0,-1 0,-2.7 0.1,-1.7 0.1,-4.2 0.3,-7.2 0.2,-3.1 0.5,-6.7 0.8,-10.7 0.5,-4 1,-8.4 1.6,-13 0.8,-4.5 1.4,-9.3 2.5,-14 1.1,-4.7 1.9,-9.5 3.2,-14 q 1,-3.4 1.8,-6.6 c 0.6,-2.2 1.3,-4.2 1.9,-6.2 1.3,-3.9 2.4,-7.5 3.6,-10.5 3.2,-8.8 6.1,-15.1 8.2,-20 2.3,-4.7 3.9,-8 5.2,-10.5 7.5,-14.5 13.8,-25.7 19.6,-36.7 q 2.3,-4.1 4.4,-8.2 c 1.4,-2.8 3,-5.4 4.5,-8.3 2.9,-5.7 6.4,-11.3 10,-17.8 z" /><path
       id="path56"
       class="s3"
       d="m 1226.8,398.4 c 6.5,-28.5 8.2,-50 -1.8,-84.1 -0.5,-1.4 -1,-3.1 -1.6,-5.1 -0.7,-2 -1.4,-4.3 -2.5,-7 -1,-2.7 -2.1,-5.8 -3.5,-9.4 -1.6,-3.6 -3.3,-7.6 -5.3,-12.3 -1.6,-3.1 -3.4,-6.8 -5.4,-10.8 -2,-4.1 -4.5,-8.3 -6.9,-12.7 -2.6,-4.4 -5.5,-8.8 -8.3,-13.2 -3,-4.3 -5.9,-8.7 -8.9,-12.7 -3.1,-3.9 -6,-7.8 -8.8,-11.1 -2.9,-3.4 -5.4,-6.4 -7.6,-8.9 -4.6,-4.8 -7.4,-7.8 -7.4,-7.8 0,0 -0.6,-0.6 -1.7,-1.8 -1.1,-1.1 -2.7,-2.7 -4.8,-4.7 -2.1,-1.9 -4.5,-4.3 -7.3,-6.9 -2.8,-2.4 -6,-5.2 -9.4,-8.1 -3.4,-2.8 -7.1,-5.6 -10.9,-8.5 -3.7,-2.9 -7.8,-5.5 -11.7,-8.3 -3.9,-2.6 -8,-5 -11.7,-7.4 -3.9,-2.3 -7.6,-4.3 -11,-6.2 -2.9,-1.7 -5.9,-3 -8.6,-4.4 -2.8,-1.3 -5.3,-2.8 -7.9,-3.8 q -3.8,-1.7 -7.2,-3.1 -1.7,-0.8 -3.3,-1.5 -1.7,-0.6 -3.2,-1.2 c -4.1,-1.5 -7.6,-2.9 -10.6,-3.9 q -4.7,-1.5 -7.8,-2.5 c -34.1,-10 -55.6,-8.3 -84.1,-1.8 14.3,3.7 25.7,7.4 37.6,10.9 11.9,3.7 24.3,7.2 39.9,12.1 q 2.8,1 7.1,2.4 c 2.8,0.9 6,2.2 9.8,3.6 q 1.4,0.6 2.9,1.1 1.4,0.7 3,1.4 3.1,1.3 6.6,2.8 c 2.4,1 4.7,2.3 7.3,3.5 2.5,1.3 5.3,2.5 7.9,4.1 3.1,1.8 6.6,3.6 10.1,5.7 3.4,2.2 7.2,4.4 10.8,6.8 3.6,2.6 7.3,5 10.8,7.6 3.4,2.7 6.9,5.3 10,7.9 3.1,2.6 6.1,5.1 8.7,7.4 2.6,2.4 4.8,4.5 6.7,6.3 1.9,1.8 3.5,3.3 4.5,4.3 1,1.1 1.5,1.7 1.5,1.7 0,0 2.6,2.8 6.8,7.2 2,2.3 4.4,5.1 7,8.2 2.6,3 5.2,6.6 8.1,10.2 2.7,3.7 5.4,7.8 8.2,11.7 2.5,4.1 5.2,8.2 7.5,12.2 2.3,4.1 4.6,8 6.4,11.6 1.9,3.7 3.5,7.1 5,10 1.8,4.3 3.5,8 4.9,11.3 1.3,3.3 2.3,6.2 3.3,8.7 1,2.4 1.7,4.5 2.2,6.4 0.6,1.8 1.1,3.3 1.6,4.6 4.9,15.6 8.4,28 12.1,39.9 3.5,11.9 7.2,23.3 10.9,37.6 z" /><path
       id="path57"
       class="s3"
       d="m 307.7,779.1 c -6.5,28.5 -8.2,50 1.8,84.1 0.5,1.4 1,3.1 1.6,5.1 0.7,2 1.4,4.3 2.5,7 1,2.7 2.1,5.8 3.5,9.4 1.6,3.6 3.3,7.6 5.3,12.3 1.6,3.1 3.4,6.8 5.4,10.8 2,4.1 4.5,8.3 6.9,12.7 2.6,4.4 5.5,8.8 8.3,13.3 3,4.2 5.9,8.6 8.9,12.6 3.1,3.9 6,7.8 8.8,11.1 2.9,3.4 5.4,6.4 7.6,8.9 4.6,4.8 7.4,7.8 7.4,7.8 0,0 0.6,0.6 1.7,1.8 1.1,1.1 2.7,2.7 4.8,4.7 2.1,1.9 4.5,4.3 7.3,6.9 2.8,2.4 6,5.2 9.4,8.1 3.4,2.8 7.1,5.6 10.9,8.5 3.7,2.9 7.8,5.5 11.7,8.3 3.9,2.6 8,5 11.7,7.4 3.9,2.3 7.6,4.3 11,6.2 2.9,1.7 5.9,3 8.6,4.4 2.8,1.3 5.3,2.8 7.9,3.8 q 3.8,1.7 7.2,3.1 1.7,0.8 3.3,1.5 1.7,0.6 3.2,1.2 c 4.1,1.5 7.6,2.9 10.6,3.9 q 4.7,1.5 7.8,2.5 c 34.1,10 55.6,8.3 84.1,1.8 -14.3,-3.7 -25.7,-7.4 -37.6,-10.9 -11.9,-3.7 -24.3,-7.2 -39.9,-12.1 q -2.8,-1 -7.1,-2.4 c -2.8,-0.9 -6,-2.2 -9.8,-3.6 q -1.4,-0.6 -2.9,-1.1 -1.4,-0.7 -3,-1.4 -3.1,-1.3 -6.6,-2.8 c -2.4,-1 -4.7,-2.3 -7.3,-3.5 -2.5,-1.3 -5.3,-2.5 -7.9,-4.1 -3.1,-1.8 -6.6,-3.6 -10.1,-5.7 -3.4,-2.2 -7.2,-4.4 -10.8,-6.8 -3.6,-2.6 -7.3,-5 -10.8,-7.6 -3.4,-2.7 -6.9,-5.3 -10,-7.9 -3.1,-2.6 -6.1,-5.1 -8.7,-7.4 -2.6,-2.4 -4.8,-4.5 -6.7,-6.3 -1.9,-1.8 -3.5,-3.3 -4.5,-4.3 -1,-1.1 -1.5,-1.7 -1.5,-1.7 0,0 -2.6,-2.8 -6.8,-7.2 -2,-2.3 -4.4,-5.1 -7,-8.2 -2.6,-3 -5.2,-6.6 -8.1,-10.2 -2.7,-3.7 -5.4,-7.8 -8.2,-11.7 -2.5,-4.1 -5.2,-8.2 -7.5,-12.2 -2.3,-4.1 -4.6,-7.9 -6.4,-11.6 -1.9,-3.7 -3.5,-7.1 -5,-10 -1.8,-4.3 -3.5,-8 -4.9,-11.3 -1.3,-3.3 -2.3,-6.2 -3.3,-8.7 -1,-2.4 -1.7,-4.5 -2.2,-6.4 -0.6,-1.8 -1.1,-3.3 -1.6,-4.6 -4.9,-15.6 -8.4,-28 -12.1,-39.9 -3.5,-11.9 -7.2,-23.3 -10.9,-37.6 z" /><path
       id="path58"
       class="s3"
       d="m 576.9,129.2 c -7.1,-1.5 -13.8,-3.2 -20.4,-3.9 -3.3,-0.4 -6.5,-0.9 -9.7,-1 Q 541.9,124 537,124 c -13.2,0.1 -27.2,1.8 -44.2,7 -2.9,0.9 -6.6,2.2 -12.1,4 -5.3,2.1 -12.5,4.7 -21.7,9 -3.2,1.4 -6.8,3.3 -10.8,5.3 -2,1.1 -4.1,2.1 -6.2,3.3 q -3.2,1.8 -6.5,3.7 c -4.4,2.4 -8.8,5.4 -13.2,8.2 -4.4,2.9 -8.6,6 -12.7,8.9 -3.9,3.1 -7.7,6.1 -11.2,8.8 -3.3,2.9 -6.2,5.4 -8.8,7.6 -2.5,2.2 -4.3,4.2 -5.7,5.4 -1.4,1.3 -2.1,2 -2.1,2 0,0 -0.6,0.6 -1.8,1.7 -1.1,1.1 -2.7,2.7 -4.7,4.8 -1.9,2.1 -4.3,4.4 -6.8,7.3 -2.5,2.8 -5.3,6 -8.2,9.4 -2.7,3.4 -5.6,7.1 -8.5,10.9 -2.7,3.8 -5.6,7.7 -8.3,11.7 -2.5,4 -5.2,7.9 -7.4,11.7 -2.2,3.9 -4.4,7.6 -6.2,10.9 -12.7,24.1 -17.7,40.4 -20.4,48.7 -5.2,17 -6.9,31 -7,44.2 q 0,4.9 0.3,9.8 c 0.1,3.2 0.6,6.5 1,9.7 0.7,6.6 2.4,13.3 3.9,20.4 2,-7.1 3.5,-13.6 5.5,-19.7 1,-3 1.7,-6.1 2.7,-9 q 1.4,-4.5 2.7,-8.9 c 3.7,-11.9 7.1,-24.3 12.1,-39.9 2.6,-7.6 7.2,-22.5 18.9,-44.6 1.7,-3.2 3.7,-6.5 5.7,-10.1 2.1,-3.5 4.5,-7.1 6.9,-10.8 2.4,-3.6 5,-7.2 7.5,-10.8 2.7,-3.5 5.4,-6.8 7.9,-10.1 2.6,-3 5.1,-6 7.4,-8.6 2.3,-2.6 4.6,-4.8 6.3,-6.7 1.8,-1.9 3.3,-3.5 4.3,-4.5 1.1,-1 1.7,-1.5 1.7,-1.5 0,0 0.7,-0.7 1.9,-1.9 1.3,-1.1 3,-2.9 5.3,-4.9 2.3,-2 5.1,-4.4 8.1,-7 3.2,-2.5 6.7,-5.2 10.3,-8.1 3.8,-2.6 7.7,-5.5 11.7,-8.1 4.1,-2.6 8.1,-5.4 12.2,-7.6 q 3.1,-1.7 6,-3.4 c 1.9,-1.1 3.8,-2 5.7,-3 3.6,-1.9 7,-3.7 9.9,-4.9 8.5,-4 15.1,-6.4 20,-8.4 5,-1.7 8.4,-2.8 11,-3.7 15.6,-5 28,-8.4 39.9,-12.1 q 4.4,-1.3 8.9,-2.7 c 2.9,-1 6,-1.7 9,-2.7 6.1,-2 12.6,-3.5 19.7,-5.5 z" /><path
       id="path59"
       class="s3"
       d="m 957.6,1048.3 c 7.1,1.5 13.8,3.2 20.4,3.9 3.3,0.4 6.5,0.9 9.7,1 q 4.9,0.3 9.8,0.3 c 13.2,-0.1 27.2,-1.8 44.2,-7 2.9,-0.9 6.6,-2.2 12.1,-4 5.3,-2.1 12.5,-4.7 21.7,-9 3.2,-1.4 6.8,-3.3 10.8,-5.3 2,-1.1 4.1,-2.1 6.2,-3.3 q 3.2,-1.8 6.5,-3.7 c 4.4,-2.4 8.8,-5.4 13.2,-8.2 4.4,-2.9 8.6,-6 12.7,-8.9 3.9,-3.1 7.7,-6.1 11.2,-8.8 3.3,-2.9 6.2,-5.4 8.8,-7.6 2.5,-2.2 4.3,-4.2 5.7,-5.4 1.4,-1.3 2.1,-2 2.1,-2 0,0 0.6,-0.6 1.8,-1.7 1.1,-1.1 2.7,-2.7 4.7,-4.8 1.9,-2.1 4.3,-4.4 6.8,-7.3 2.5,-2.8 5.3,-6 8.2,-9.4 2.7,-3.4 5.6,-7.1 8.5,-10.9 2.7,-3.8 5.6,-7.7 8.3,-11.7 2.5,-4 5.2,-7.9 7.4,-11.7 2.2,-3.9 4.4,-7.6 6.2,-10.9 12.7,-24.1 17.7,-40.4 20.4,-48.7 5.2,-17 6.9,-31 7,-44.2 q 0,-4.9 -0.3,-9.8 c -0.1,-3.2 -0.6,-6.5 -1,-9.7 -0.7,-6.6 -2.4,-13.3 -3.9,-20.4 -2,7.1 -3.5,13.6 -5.5,19.7 -1,3 -1.7,6.1 -2.7,9 q -1.4,4.5 -2.7,8.9 c -3.7,11.9 -7.1,24.3 -12.1,39.9 -2.6,7.6 -7.2,22.5 -18.9,44.6 -1.7,3.2 -3.7,6.5 -5.7,10.1 -2.1,3.5 -4.5,7.1 -6.9,10.8 -2.4,3.6 -5,7.2 -7.5,10.8 -2.7,3.5 -5.4,6.8 -7.9,10.1 -2.6,3 -5.1,6 -7.4,8.6 -2.3,2.6 -4.6,4.8 -6.3,6.7 -1.8,1.9 -3.3,3.5 -4.3,4.5 -1.1,1 -1.7,1.5 -1.7,1.5 0,0 -0.7,0.7 -1.9,1.9 -1.3,1.1 -3,2.9 -5.3,4.9 -2.3,2 -5.1,4.4 -8.1,7 -3.2,2.5 -6.7,5.2 -10.3,8.1 -3.8,2.6 -7.7,5.5 -11.7,8.1 -4.1,2.6 -8.1,5.4 -12.2,7.6 q -3.1,1.7 -6,3.4 c -1.9,1.1 -3.8,2 -5.7,3 -3.6,1.9 -7,3.7 -9.9,4.9 -8.5,4 -15.1,6.4 -20,8.4 -5,1.7 -8.4,2.8 -11,3.7 -15.6,5 -28,8.4 -39.9,12.1 q -4.4,1.3 -8.9,2.7 c -2.9,1 -6,1.7 -9,2.7 -6.1,2 -12.6,3.5 -19.7,5.5 z" /><path
       id="path60"
       class="s4"
       d="m 846.3,779.4 c -48.9,-48.7 -79.2,-116.2 -79.2,-190.7 0,-74.5 30.2,-141.8 79,-190.5" /><path
       id="path61"
       class="s4"
       d="m 688.3,779.4 c 48.9,-48.7 79.2,-116.2 79.2,-190.7 0,-74.5 -30.2,-141.8 -79,-190.5" /><path
       id="path62"
       class="s4"
       d="m 576.7,667.8 c 48.7,-48.9 116.2,-79.2 190.7,-79.2 74.4,0 141.8,30.2 190.5,79" /><path
       id="path63"
       class="s4"
       d="m 576.7,509.7 c 48.7,49 116.2,79.3 190.7,79.3 74.4,0 141.8,-30.2 190.5,-79" /><path
       id="path64"
       class="s4"
       d="m 688.4,779.5 c -0.1,-69.1 26.1,-138.2 78.8,-190.9 52.7,-52.7 121.7,-78.9 190.6,-78.9" /><path
       id="path65"
       class="s4"
       d="m 576.6,667.7 c 69.1,0.1 138.2,-26.2 190.9,-78.9 52.6,-52.6 78.9,-121.6 78.9,-190.5" /><path
       id="path66"
       class="s4"
       d="m 576.6,509.9 c 69.1,-0.2 138.2,26.1 190.9,78.8 52.6,52.6 78.9,121.6 78.9,190.6" /><path
       id="path67"
       class="s4"
       d="m 688.4,398.1 c -0.1,69.1 26.1,138.2 78.8,190.9 52.7,52.6 121.7,78.9 190.6,78.8" /></g></svg>
