<svg version="1.2" xmlns="http://www.w3.org/2000/svg" viewBox="0 0 4263 1175" width="4263" height="1175">
	<title>Fodian-logo-chinese</title>
	<defs>
		<clipPath clipPathUnits="userSpaceOnUse" id="cp1">
			<path d="m4263 0v1175h-4263v-1175z"/>
		</clipPath>
	</defs>
	<style>
		.s0 { fill: #c6a04f } 
		.s1 { fill: #c6a04e } 
		.s2 { fill: none;stroke: #fefefe;stroke-miterlimit:10;stroke-width: 3.5 } 
		.s3 { fill: #fefefe } 
		.s4 { fill: none;stroke: #fefefe;stroke-linecap: round;stroke-linejoin: round;stroke-width: 7 } 
	</style>
	<g id="Clip-Path" clip-path="url(#cp1)">
	</g>
	<path id="佛典華藏" class="s0" aria-label="佛典華藏"  d="m1662.2 276.4l54.1 16.2-48.7 124.4v481.2h-54v-378.5l-67.6 94.6-27.1-54q100.1-135.2 143.3-283.9zm51.4 121.7v-51.4h113.5v-70.3h51.4v70.3h70.3v-70.3h48.7v70.3h121.6v189.2h-121.6v89.2h148.7q-2.7 135.2-18.9 167.6-16.3 29.8-48.7 29.8l-54.1-2.7-8.1-51.4 51.4 2.7q13.5 0 16.2-10.8 5.4-13.5 10.8-83.8h-97.3v221.7h-48.7v-221.7h-75.7q-27 132.5-151.4 221.7l-29.7-46q102.7-75.7 127-175.7h-124.3l29.7-191.9h102.7v-86.5zm235.3 0h-70.3v86.5h70.3zm116.2 0h-67.6v86.5h67.6zm-186.5 227.1h70.3v-89.3h-70.3zm-124.4 0h73v-89.2h-59.5zm820.6-275.7h151.4v348.7h67.6v51.4h-640.7v-51.4h67.6v-348.7h151.4v-78.4h54v78.4h94.7v-78.4h54zm-300.1 51.4v127h97.4v-127zm246 0h-94.6v127h94.6zm151.4 0h-97.3v127.1h97.3zm-397.4 173v124.3h97.3v-124.3zm151.4 0v124.3h94.6v-124.3zm148.7 0v124.3h97.4v-124.3zm-197.4 189.2l43.3 32.5q-81.2 62.1-194.7 102.7l-40.6-54.1q105.5-29.7 192-81.1zm151.4 56.8l27-48.7q105.5 29.8 202.8 73l-24.3 56.8q-102.8-51.4-205.5-81.1zm277.2-446.1v-48.6h162.2v-48.7h56.8v48.7h175.7v-48.7h54.1v48.7h162.2v48.6h-162.2v43.3h-54.1v-43.3h-175.7v43.3h-56.8v-43.3zm27 102.8v-46h554.3v46h-75.7v70.3h94.6v45.9h-94.6v64.9h62.2v45.9h-235.2v51.4h275.7v46h-275.7v102.7h-54.1v-102.7h-278.5v-46h278.5v-51.4h-232.5v-45.9h56.7v-64.9h-91.9v-45.9h91.9v-70.3zm305.6 70.3h118.9v-70.3h-118.9zm-175.8 0h121.7v-70.3h-121.7zm0 45.9v64.9h121.7v-64.9zm294.7 0h-119v64.9h119zm187.9-229.8v-48.6h159.6v-37.9h56.7v37.9h175.8v-37.9h54.1v37.9h162.2v48.6h-162.2v35.2h-54.1v-35.2h-175.8v37.9h-56.7v-37.9zm13.5 224.4v-132.5h45.9v92h54.1v-108.2h310.9l-2.7-32.4h48.7v32.4h40.6l-19-21.6 37.9-24.3 35.1 45.9h29.8v43.3h-121.7q2.7 129.7 18.9 213.5 24.4-64.8 43.3-164.9l43.2 10.9q-24.3 151.3-64.8 229.7 21.6 67.6 40.5 67.6 10.8 0 16.2-62.2l46 10.9q-13.5 105.4-62.2 105.4-40.5 0-73-70.3-29.7 43.3-73 81.1l-37.8-40.5 21.6-19h-202.8v-321.7h210.9v40.6h-67.6v56.7h67.6v127.1h-67.6v54.1h70.3v32.4l56.8-73q-24.3-83.8-35.2-278.4h-262.2v170.3q0 143.3-54.1 251.4l-46-27q46-100.1 48.7-200.1h-40.5q0 127.1-40.6 178.4l-37.8-35.1q35.1-37.8 35.1-143.3h-29.7v-45.9h116.2v-43.3zm270.4 32.4v-56.7h-48.7v56.7zm73 37.9h-121.6v51.4h121.6zm-73 89.2h-48.6v54h48.6z"/>
	<g id="Folder 1">
		<path id="&lt;Path&gt;" fill-rule="evenodd" class="s1" d="m767.2 1127.4c-148.8 0-269.1-120.3-269.1-269.2 0-148.9 120.3-269.2 269.1-269.2 148.9 0 269.2 120.3 269.2 269.2 0 148.9-120.3 269.2-269.2 269.2z"/>
		<path id="&lt;Path&gt;" fill-rule="evenodd" class="s1" d="m767.2 589c-148.8 0-269.1-120.3-269.1-269.2 0-148.9 120.3-269.2 269.1-269.2 148.9 0 269.2 120.3 269.2 269.2 0 148.9-120.3 269.2-269.2 269.2z"/>
		<path id="&lt;Path&gt;" class="s1" d="m1226.8 398.6c105.1 105.2 105.1 275.6 0 380.7-105.1 105.2-275.6 105.2-380.7 0-105.1-105.1-105.1-275.5 0-380.7 105.1-105.1 275.6-105.1 380.7 0z"/>
		<path id="&lt;Path&gt;" class="s1" d="m307.7 779.3c-105.1-105.1-105.1-275.5 0-380.7 105.1-105.1 275.6-105.1 380.7 0 105.1 105.2 105.1 275.6 0 380.7-105.1 105.2-275.6 105.2-380.7 0z"/>
		<path id="&lt;Path&gt;" class="s1" d="m1147.9 208.3c105.2 105.1 105.2 275.6 0 380.7-105.1 105.1-275.5 105.1-380.7 0-105.1-105.1-105.1-275.6 0-380.7 105.2-105.1 275.6-105.1 380.7 0z"/>
		<path id="&lt;Path&gt;" class="s1" d="m386.5 969.7c-105.1-105.1-105.1-275.6 0-380.7 105.2-105.1 275.6-105.1 380.7 0 105.2 105.1 105.2 275.6 0 380.7-105.1 105.1-275.5 105.1-380.7 0z"/>
		<path id="&lt;Path&gt;" fill-rule="evenodd" class="s1" d="m957.6 1048.5c-148.9 0-269.2-120.3-269.2-269.2 0-148.8 120.3-269.1 269.2-269.1 148.9 0 269.2 120.3 269.2 269.1 0 148.9-120.3 269.2-269.2 269.2z"/>
		<path id="&lt;Path&gt;" fill-rule="evenodd" class="s1" d="m576.9 667.8c-148.9 0-269.2-120.3-269.2-269.2 0-148.8 120.3-269.1 269.2-269.1 148.9 0 269.2 120.3 269.2 269.1 0 148.9-120.3 269.2-269.2 269.2z"/>
		<path id="&lt;Path&gt;" fill-rule="evenodd" class="s1" d="m767.2 858.2c-148.8 0-269.1-120.3-269.1-269.2 0-148.9 120.3-269.2 269.1-269.2 148.9 0 269.2 120.3 269.2 269.2 0 148.9-120.3 269.2-269.2 269.2z"/>
		<path id="&lt;Path&gt;" class="s1" d="m1036.4 857.9c0-148.6-120.5-269.1-269.2-269.1-148.6 0-269.1 120.5-269.1 269.1"/>
		<path id="&lt;Path&gt;" class="s1" d="m1036.4 319.6c0 148.6-120.5 269.2-269.2 269.2-148.6 0-269.1-120.6-269.1-269.2"/>
		<path id="&lt;Path&gt;" class="s1" d="m498.1 857.9c148.6 0 269.1-120.5 269.1-269.2 0-148.6-120.5-269.1-269.1-269.1"/>
		<path id="&lt;Path&gt;" class="s1" d="m1036.4 857.9c-148.6 0-269.2-120.5-269.2-269.2 0-148.6 120.6-269.1 269.2-269.1"/>
		<path id="&lt;Path&gt;" class="s1" d="m767.2 969.5c105.2-105.2 105.2-275.6 0-380.8-105.1-105.1-275.5-105.1-380.7 0.1"/>
		<path id="&lt;Path&gt;" class="s1" d="m1148 588.7c-105.2 105.2-275.6 105.2-380.8 0-105.1-105.1-105.1-275.5 0.1-380.7"/>
		<path id="&lt;Path&gt;" class="s1" d="m386.5 588.7c105.2 105.2 275.6 105.2 380.8 0 105.1-105.1 105.1-275.5-0.1-380.7"/>
		<path id="&lt;Path&gt;" class="s1" d="m767.3 969.5c-105.2-105.2-105.2-275.6 0-380.8 105.1-105.1 275.5-105.1 380.7 0.1"/>
		<path id="&lt;Path&gt;" fill-rule="evenodd" class="s1" d="m767.2 856.7c-148.1 0-267.9-119.8-267.9-267.9 0-148.2 119.8-268 267.9-268 148.2 0 268 119.8 268 268 0 148.1-119.8 267.9-268 267.9z"/>
		<path id="&lt;Path&gt;" class="s1" d="m576.9 1048.3c48.7 48.7 116 78.8 190.3 78.8 74.4 0 141.7-30.1 190.4-78.8"/>
		<path id="&lt;Path&gt;" class="s1" d="m957.6 129.2c-48.7-48.7-116-78.8-190.4-78.8-74.3 0-141.6 30.1-190.3 78.8"/>
		<path id="&lt;Path&gt;" class="s1" d="m1226.8 779.1c105.1-105.1 105.1-275.6 0-380.7"/>
		<path id="&lt;Path&gt;" class="s1" d="m307.7 398.4c-105.1 105.1-105.1 275.6 0 380.7"/>
		<path id="&lt;Path&gt;" class="s1" d="m1226.8 398.4c0-68.9-26.3-137.8-78.8-190.3-52.6-52.6-121.5-78.9-190.4-78.9"/>
		<path id="&lt;Path&gt;" class="s1" d="m307.7 779.1c0 68.9 26.3 137.8 78.8 190.4 52.6 52.5 121.5 78.8 190.4 78.8"/>
		<path id="&lt;Path&gt;" class="s1" d="m576.9 129.2c-148.7 0-269.2 120.5-269.2 269.2"/>
		<path id="&lt;Path&gt;" class="s1" d="m957.6 1048.3c148.7 0 269.2-120.5 269.2-269.2"/>
		<path id="&lt;Path&gt;" class="s1" d="m846.3 779.4c-48.9-48.7-79.2-116.2-79.2-190.7 0-74.5 30.2-141.8 79-190.5"/>
		<path id="&lt;Path&gt;" class="s1" d="m688.3 779.4c48.9-48.7 79.2-116.2 79.2-190.7 0-74.5-30.2-141.8-79-190.5"/>
		<path id="&lt;Path&gt;" class="s1" d="m576.7 667.8c48.7-48.9 116.2-79.2 190.7-79.2 74.4 0 141.8 30.2 190.5 79"/>
		<path id="&lt;Path&gt;" class="s1" d="m576.7 509.7c48.7 49 116.2 79.3 190.7 79.3 74.4 0 141.8-30.2 190.5-79"/>
		<path id="&lt;Path&gt;" class="s1" d="m688.4 779.5c-0.1-69.1 26.1-138.2 78.8-190.9 52.7-52.7 121.7-78.9 190.6-78.9"/>
		<path id="&lt;Path&gt;" class="s1" d="m576.6 667.7c69.1 0.1 138.2-26.2 190.9-78.9 52.6-52.6 78.9-121.6 78.9-190.5"/>
		<path id="&lt;Path&gt;" class="s1" d="m576.6 509.9c69.1-0.2 138.2 26.1 190.9 78.8 52.6 52.6 78.9 121.6 78.9 190.6"/>
		<path id="&lt;Path&gt;" class="s1" d="m688.4 398.1c-0.1 69.1 26.1 138.2 78.8 190.9 52.7 52.6 121.7 78.9 190.6 78.8"/>
		<path id="&lt;Path&gt;" fill-rule="evenodd" class="s2" d="m767.2 1127.4c-148.8 0-269.1-120.3-269.1-269.2 0-148.9 120.3-269.2 269.1-269.2 148.9 0 269.2 120.3 269.2 269.2 0 148.9-120.3 269.2-269.2 269.2z"/>
		<path id="&lt;Path&gt;" fill-rule="evenodd" class="s2" d="m767.2 589c-148.8 0-269.1-120.3-269.1-269.2 0-148.9 120.3-269.2 269.1-269.2 148.9 0 269.2 120.3 269.2 269.2 0 148.9-120.3 269.2-269.2 269.2z"/>
		<path id="&lt;Path&gt;" class="s2" d="m1226.8 398.6c105.1 105.2 105.1 275.6 0 380.7-105.1 105.2-275.6 105.2-380.7 0-105.1-105.1-105.1-275.5 0-380.7 105.1-105.1 275.6-105.1 380.7 0z"/>
		<path id="&lt;Path&gt;" class="s2" d="m307.7 779.3c-105.1-105.1-105.1-275.5 0-380.7 105.1-105.1 275.6-105.1 380.7 0 105.1 105.2 105.1 275.6 0 380.7-105.1 105.2-275.6 105.2-380.7 0z"/>
		<path id="&lt;Path&gt;" class="s2" d="m1147.9 208.3c105.2 105.1 105.2 275.6 0 380.7-105.1 105.1-275.5 105.1-380.7 0-105.1-105.1-105.1-275.6 0-380.7 105.2-105.1 275.6-105.1 380.7 0z"/>
		<path id="&lt;Path&gt;" class="s2" d="m386.5 969.7c-105.1-105.1-105.1-275.6 0-380.7 105.2-105.1 275.6-105.1 380.7 0 105.2 105.1 105.2 275.6 0 380.7-105.1 105.1-275.5 105.1-380.7 0z"/>
		<path id="&lt;Path&gt;" fill-rule="evenodd" class="s2" d="m957.6 1048.5c-148.9 0-269.2-120.3-269.2-269.2 0-148.8 120.3-269.1 269.2-269.1 148.9 0 269.2 120.3 269.2 269.1 0 148.9-120.3 269.2-269.2 269.2z"/>
		<path id="&lt;Path&gt;" fill-rule="evenodd" class="s2" d="m576.9 667.8c-148.9 0-269.2-120.3-269.2-269.2 0-148.8 120.3-269.1 269.2-269.1 148.9 0 269.2 120.3 269.2 269.1 0 148.9-120.3 269.2-269.2 269.2z"/>
		<path id="&lt;Path&gt;" fill-rule="evenodd" class="s2" d="m767.2 858.2c-148.8 0-269.1-120.3-269.1-269.2 0-148.9 120.3-269.2 269.1-269.2 148.9 0 269.2 120.3 269.2 269.2 0 148.9-120.3 269.2-269.2 269.2z"/>
		<path id="&lt;Path&gt;" class="s3" d="m1036.4 857.9c1.3-5.7 2.4-10.5 2.8-15.7 0.2-2.6 0.3-5.2 0.3-8.1-0.1-1.4-0.1-2.9-0.2-4.5q-0.2-2.3-0.5-4.9c-0.2-1.9-0.6-4.7-1-8.2q-0.5-2.6-1-5.6-0.6-3.5-1.3-7.1c-0.5-2.7-1.2-5.5-1.8-8.2-1.2-5.6-2.9-11.2-4.5-16.9-3.5-11.4-7.7-23.1-13.2-34.7q-0.9-2.2-1.9-4.4-1.1-2.2-2.2-4.4c-1.5-2.8-3-5.8-4.6-8.7q-2.4-4.2-4.9-8.5c-1.6-2.9-3.5-5.7-5.3-8.5-7.3-11.2-15.4-22.1-24.4-32.3-9.1-10.1-18.6-19.8-29-28.4-20.6-17.3-43.2-31.2-65.4-41-22.2-10-44-15.8-62.6-19.1q-3.5-0.7-6.8-1.3-3.4-0.4-6.6-0.8-3.2-0.4-6.2-0.8c-2-0.2-4-0.3-5.9-0.5-3.8-0.2-7.3-0.6-10.6-0.7q-4.9-0.1-9-0.2c-2.7-0.1-5.1-0.1-7.2 0q-3.2 0.1-5.3 0.1c-2.9 0.1-4.4 0.1-4.4 0.1 0 0-0.4 0-1.2 0.1q-1.1 0.1-3.3 0.3c-2.8 0.2-7.1 0.4-12.5 1-10.7 1.2-26.2 3.6-44.4 8.8-18.2 5.2-39.3 13.1-60.3 25.3-21.2 12-42.4 28-61.1 47.3-9.4 9.5-18.1 20.1-26 31.1-1.9 2.8-4 5.5-5.8 8.4q-2.8 4.3-5.5 8.5c-3.4 5.9-6.9 11.6-9.8 17.6-3.2 5.9-5.8 12-8.5 18-2.4 6.1-5 12.1-6.9 18.2-1 3.1-2.2 6.1-3 9.1q-1.3 4.5-2.6 9c-0.9 3-1.4 6-2.2 9q-0.5 2.2-1 4.4l-0.5 2.2-0.3 1.6c-0.8 4.5-1.5 8.6-2.1 12-0.4 3.5-0.8 6.3-1 8.2q-0.3 2.6-0.5 4.9c-0.1 1.6-0.1 3.1-0.2 4.5 0 2.9 0.1 5.5 0.3 8.1 0.4 5.2 1.5 10 2.8 15.7 1.6-5.7 2.6-10.4 3.7-15.3 0.6-2.5 1-5 1.4-7.8q0.3-2.1 0.6-4.3 0.4-2.3 0.7-4.8c0.3-1.8 0.6-4.5 1-7.8 0.6-3.4 1.3-7.3 2.1-11.7l0.3-1.5 0.5-2.1q0.5-2.2 1-4.3c0.7-2.9 1.2-5.8 2.1-8.7q1.2-4.3 2.5-8.7c0.8-2.9 1.9-5.8 2.8-8.8 1.9-5.9 4.4-11.7 6.7-17.6 2.6-5.8 5.2-11.7 8.2-17.4 2.9-5.8 6.3-11.3 9.5-17q2.7-4.1 5.3-8.3c1.8-2.8 3.8-5.4 5.7-8.1 7.6-10.6 16-20.8 25.1-30.1 18.1-18.7 38.6-34.2 59.1-45.7 20.3-11.8 40.7-19.5 58.3-24.5 17.6-5 32.6-7.4 43-8.5 5.2-0.7 9.3-0.8 12.1-1.1q2.1-0.1 3.2-0.2c0.7-0.1 1.1-0.1 1.1-0.1 0 0 1.5 0 4.3-0.1q2.1 0 5.1-0.1c2-0.1 4.4-0.1 7 0q3.9 0.1 8.7 0.2c3.2 0.1 6.6 0.5 10.3 0.7 1.8 0.2 3.7 0.2 5.7 0.5q2.9 0.4 6 0.7 3.1 0.4 6.3 0.9 3.3 0.5 6.7 1.1c18 3.3 39 8.9 60.4 18.6 21.5 9.5 43.4 22.9 63.3 39.7 10.1 8.2 19.3 17.6 28.1 27.4 8.7 9.8 16.6 20.4 23.6 31.3 1.7 2.7 3.6 5.3 5.1 8.2q2.4 4.1 4.8 8.3c1.5 2.7 2.9 5.6 4.4 8.4q1 2.1 2.1 4.2 1 2.1 1.9 4.2c5.3 11.2 9.3 22.6 12.8 33.6 1.5 5.5 3.2 10.9 4.3 16.3 0.6 2.7 1.3 5.3 1.8 7.9q0.6 3.5 1.2 6.9 0.5 3 1 5.5c0.4 3.3 0.7 6 1 7.8q0.3 2.5 0.7 4.8 0.3 2.2 0.6 4.3c0.4 2.8 0.8 5.3 1.4 7.8 1.1 4.9 2.1 9.6 3.7 15.3z"/>
		<path id="&lt;Path&gt;" class="s3" d="m1036.4 319.6c-1.6 5.7-2.6 10.4-3.7 15.3-0.6 2.5-1 5-1.4 7.8q-0.3 2.1-0.6 4.3-0.4 2.3-0.7 4.8c-0.3 1.8-0.6 4.5-1 7.8q-0.5 2.5-1 5.5-0.6 3.4-1.2 6.9c-0.5 2.6-1.2 5.2-1.8 7.9-1.1 5.4-2.8 10.8-4.3 16.3-3.5 11-7.5 22.4-12.8 33.6q-0.9 2.1-1.9 4.3-1.1 2-2.1 4.1c-1.5 2.8-2.9 5.7-4.4 8.4q-2.4 4.2-4.8 8.3c-1.5 2.9-3.4 5.5-5.1 8.2-7 10.9-14.9 21.5-23.6 31.3-8.8 9.8-18 19.2-28.1 27.4-19.9 16.8-41.8 30.2-63.3 39.7-21.4 9.7-42.4 15.3-60.4 18.6q-3.4 0.6-6.7 1.1-3.2 0.5-6.3 0.9-3.1 0.3-6 0.7c-2 0.3-3.9 0.3-5.7 0.5-3.7 0.2-7.1 0.6-10.3 0.7q-4.8 0.1-8.7 0.2c-2.6 0.1-5 0.1-7 0q-3-0.1-5.1-0.1c-2.8-0.1-4.3-0.1-4.3-0.1 0 0-0.4 0-1.1-0.1q-1.1-0.1-3.2-0.2c-2.8-0.3-6.9-0.4-12.1-1.1-10.4-1.1-25.4-3.5-43-8.5-17.6-5-38-12.7-58.3-24.5-20.5-11.5-41-27-59.1-45.7-9.1-9.3-17.5-19.5-25.1-30.1-1.9-2.7-3.9-5.3-5.7-8.1q-2.6-4.2-5.3-8.3c-3.2-5.7-6.6-11.2-9.5-17-3-5.7-5.6-11.6-8.2-17.4-2.3-5.9-4.8-11.7-6.7-17.6-0.9-3-2-5.9-2.8-8.8q-1.3-4.4-2.5-8.7c-0.9-2.9-1.4-5.8-2.1-8.7q-0.5-2.1-1-4.3l-0.5-2.1-0.3-1.5c-0.8-4.4-1.5-8.3-2.1-11.7-0.4-3.3-0.7-6-1-7.8q-0.3-2.5-0.7-4.8-0.3-2.2-0.6-4.3c-0.4-2.8-0.8-5.3-1.4-7.8-1.1-4.9-2.1-9.6-3.7-15.3-1.3 5.7-2.4 10.5-2.8 15.7-0.2 2.6-0.3 5.2-0.3 8.1 0.1 1.4 0.1 2.9 0.2 4.5q0.2 2.3 0.5 4.9c0.2 1.9 0.6 4.7 1 8.2 0.6 3.4 1.3 7.5 2.1 12l0.3 1.6 0.5 2.2q0.5 2.2 1 4.4c0.8 3 1.3 6 2.2 9q1.3 4.5 2.6 9c0.8 3 2 6 3 9.1 1.9 6.1 4.5 12.1 6.9 18.2 2.7 6 5.3 12.1 8.5 18 2.9 6 6.4 11.7 9.8 17.6q2.7 4.2 5.5 8.5c1.8 2.9 3.9 5.6 5.8 8.4 7.9 11 16.6 21.6 26 31.1 18.7 19.3 39.9 35.3 61.1 47.3 21 12.2 42.1 20.1 60.3 25.3 18.2 5.2 33.7 7.6 44.4 8.8 5.4 0.6 9.7 0.8 12.5 1q2.2 0.2 3.3 0.3c0.8 0.1 1.2 0.1 1.2 0.1 0 0 1.5 0 4.4 0.1q2.1 0 5.3 0.1c2.1 0.1 4.5 0.1 7.2 0q4.1-0.1 9-0.2c3.3-0.1 6.8-0.5 10.6-0.7 1.9-0.2 3.9-0.3 5.9-0.5q3-0.4 6.2-0.8 3.2-0.4 6.6-0.8 3.3-0.6 6.8-1.3c18.6-3.3 40.4-9.1 62.6-19.1 22.2-9.8 44.8-23.7 65.4-41 10.4-8.6 19.9-18.3 29-28.4 9-10.2 17.1-21.1 24.4-32.3 1.8-2.8 3.7-5.6 5.3-8.5q2.5-4.3 4.9-8.5c1.6-2.9 3.1-5.9 4.6-8.7q1.1-2.2 2.2-4.4 1-2.2 1.9-4.4c5.5-11.6 9.7-23.3 13.2-34.7 1.6-5.7 3.3-11.3 4.5-16.9 0.6-2.7 1.3-5.5 1.8-8.2q0.7-3.6 1.3-7.1 0.5-3 1-5.6c0.4-3.5 0.8-6.3 1-8.2q0.3-2.6 0.5-4.9c0.1-1.6 0.1-3.1 0.2-4.5 0-2.9-0.1-5.5-0.3-8.1-0.4-5.2-1.5-10-2.8-15.7z"/>
		<path id="&lt;Path&gt;" class="s3" d="m498.1 857.9c5.7 1.3 10.5 2.4 15.7 2.8 2.6 0.2 5.2 0.3 8.1 0.3 1.4-0.1 2.9-0.1 4.5-0.2q2.3-0.2 4.9-0.5c1.9-0.2 4.7-0.6 8.2-1q2.6-0.5 5.6-1 3.5-0.6 7.1-1.3c2.7-0.5 5.5-1.2 8.2-1.8 5.6-1.2 11.2-2.9 16.9-4.5 11.4-3.5 23.1-7.7 34.7-13.2q2.2-0.9 4.4-1.9 2.2-1.1 4.4-2.2c2.8-1.5 5.8-3 8.7-4.6q4.2-2.4 8.5-4.9c2.9-1.6 5.7-3.5 8.5-5.3 11.2-7.3 22.1-15.4 32.3-24.4 10.1-9 19.8-18.6 28.4-29 17.3-20.6 31.2-43.2 41-65.4 10-22.2 15.8-44 19.1-62.6q0.7-3.5 1.3-6.8 0.4-3.4 0.8-6.6 0.4-3.2 0.8-6.2c0.2-2 0.3-4 0.5-5.9 0.2-3.8 0.6-7.3 0.7-10.6q0.1-4.9 0.2-9c0.1-2.7 0.1-5.1 0-7.2q-0.1-3.2-0.1-5.3c-0.1-2.9-0.1-4.4-0.1-4.4 0 0 0-0.4-0.1-1.2q-0.1-1.1-0.3-3.3c-0.2-2.8-0.4-7.1-1-12.5-1.2-10.7-3.6-26.2-8.8-44.4-5.2-18.2-13.1-39.3-25.3-60.3-12-21.2-28-42.4-47.3-61.1-9.5-9.4-20.1-18.1-31.1-26-2.8-1.9-5.5-4-8.4-5.8q-4.3-2.8-8.5-5.5c-5.9-3.4-11.6-6.9-17.6-9.8-5.9-3.2-12-5.8-18-8.5-6.1-2.4-12.1-5-18.2-6.9-3.1-1-6.1-2.2-9.1-3q-4.5-1.3-9-2.6c-3-0.9-6-1.4-9-2.2q-2.2-0.5-4.4-1l-2.2-0.5-1.6-0.3c-4.5-0.8-8.6-1.5-12-2.1-3.5-0.4-6.3-0.8-8.2-1q-2.6-0.3-4.9-0.5c-1.6-0.1-3.1-0.1-4.5-0.2-2.9 0-5.5 0.1-8.1 0.3-5.2 0.4-10 1.5-15.7 2.8 5.7 1.6 10.4 2.6 15.3 3.7 2.5 0.6 5 1 7.8 1.4q2.1 0.3 4.3 0.6 2.3 0.4 4.8 0.7c1.8 0.3 4.5 0.6 7.8 1 3.4 0.6 7.3 1.3 11.7 2.1l1.5 0.3 2.1 0.5q2.2 0.5 4.3 1c2.9 0.7 5.8 1.2 8.7 2.1q4.3 1.2 8.7 2.5c2.9 0.8 5.8 1.9 8.8 2.8 5.9 1.9 11.7 4.4 17.6 6.7 5.8 2.6 11.7 5.2 17.4 8.2 5.8 2.9 11.3 6.3 17 9.5q4.1 2.7 8.3 5.3c2.8 1.8 5.4 3.8 8.1 5.7 10.6 7.6 20.8 16 30.1 25.1 18.7 18.1 34.2 38.6 45.7 59.1 11.8 20.3 19.5 40.7 24.5 58.3 5 17.6 7.4 32.6 8.5 43 0.7 5.2 0.8 9.3 1.1 12.1q0.1 2.1 0.2 3.2c0.1 0.7 0.1 1.1 0.1 1.1 0 0 0 1.5 0.1 4.3q0 2.1 0.1 5.1c0.1 2 0.1 4.4 0 7q-0.1 3.9-0.2 8.7c-0.1 3.2-0.5 6.6-0.7 10.3-0.2 1.8-0.2 3.7-0.5 5.7q-0.4 2.9-0.7 6-0.4 3.1-0.9 6.3-0.5 3.3-1.1 6.7c-3.3 18-8.9 39-18.6 60.4-9.5 21.5-22.9 43.4-39.7 63.3-8.2 10.1-17.6 19.3-27.4 28.1-9.8 8.7-20.4 16.6-31.3 23.6-2.7 1.7-5.3 3.6-8.2 5.1q-4.1 2.4-8.3 4.8c-2.7 1.5-5.6 2.9-8.4 4.4q-2.1 1-4.1 2.1-2.2 1-4.3 1.9c-11.2 5.3-22.6 9.3-33.6 12.8-5.5 1.5-10.9 3.2-16.3 4.3-2.7 0.6-5.3 1.3-7.9 1.8q-3.5 0.6-6.9 1.2-3 0.5-5.5 1c-3.3 0.4-6 0.7-7.8 1q-2.5 0.3-4.8 0.7-2.2 0.3-4.3 0.6c-2.8 0.4-5.3 0.8-7.8 1.4-4.9 1.1-9.6 2.1-15.3 3.7z"/>
		<path id="&lt;Path&gt;" class="s3" d="m1036.4 857.9c-5.7-1.6-10.4-2.6-15.3-3.7-2.5-0.6-5-1-7.8-1.4q-2.1-0.3-4.3-0.6-2.3-0.4-4.8-0.7c-1.8-0.3-4.5-0.6-7.8-1q-2.5-0.5-5.5-1-3.4-0.6-6.9-1.2c-2.6-0.5-5.2-1.2-7.9-1.8-5.4-1.1-10.8-2.8-16.3-4.3-11-3.5-22.4-7.5-33.6-12.8q-2.1-0.9-4.3-1.9-2-1.1-4.1-2.1c-2.8-1.5-5.7-2.9-8.4-4.4q-4.2-2.4-8.4-4.8c-2.8-1.5-5.4-3.4-8.1-5.1-10.9-7-21.5-14.9-31.3-23.6-9.8-8.8-19.2-18-27.4-28.1-16.8-19.9-30.2-41.8-39.7-63.3-9.7-21.4-15.3-42.4-18.6-60.4q-0.6-3.4-1.1-6.7-0.5-3.2-0.9-6.3-0.3-3.1-0.7-6c-0.3-2-0.3-3.9-0.5-5.7-0.2-3.7-0.6-7.1-0.7-10.3q-0.1-4.8-0.2-8.7c-0.1-2.6-0.1-5 0-7q0.1-3 0.1-5.1c0.1-2.8 0.1-4.3 0.1-4.3 0 0 0-0.4 0.1-1.1q0.1-1.1 0.2-3.2c0.3-2.8 0.4-6.9 1.1-12.1 1.1-10.4 3.5-25.4 8.5-43 5-17.6 12.7-38 24.5-58.3 11.5-20.5 27-41 45.7-59.1 9.3-9.1 19.5-17.5 30.1-25.1 2.7-1.9 5.3-3.9 8.1-5.7q4.2-2.6 8.3-5.3c5.7-3.2 11.2-6.6 17-9.5 5.7-3 11.6-5.6 17.4-8.2 5.9-2.3 11.7-4.8 17.6-6.7 3-0.9 5.9-2 8.8-2.8q4.4-1.3 8.7-2.5c2.9-0.9 5.8-1.4 8.7-2.1q2.1-0.5 4.3-1l2.1-0.5 1.5-0.3c4.4-0.8 8.3-1.5 11.7-2.1 3.3-0.4 6-0.7 7.8-1q2.5-0.3 4.8-0.7 2.2-0.3 4.3-0.6c2.8-0.4 5.3-0.8 7.8-1.4 4.9-1.1 9.6-2.1 15.3-3.7-5.7-1.3-10.5-2.4-15.7-2.8-2.6-0.2-5.2-0.3-8.1-0.3-1.4 0.1-2.9 0.1-4.5 0.2q-2.3 0.2-4.9 0.5c-1.9 0.2-4.7 0.6-8.2 1-3.4 0.6-7.5 1.3-12 2.1l-1.6 0.3-2.2 0.5q-2.2 0.5-4.4 1c-3 0.8-6 1.3-9 2.2q-4.5 1.3-9 2.6c-3 0.8-6 2-9.1 3-6.1 1.9-12.1 4.5-18.2 6.9-6 2.7-12.1 5.3-18 8.5-6 2.9-11.7 6.4-17.6 9.8q-4.2 2.7-8.5 5.5c-2.9 1.8-5.6 3.9-8.4 5.8-11 7.9-21.6 16.6-31.1 26-19.3 18.7-35.3 39.9-47.3 61.1-12.2 21-20.1 42.1-25.3 60.3-5.2 18.2-7.6 33.7-8.8 44.4-0.6 5.4-0.8 9.7-1 12.5q-0.2 2.2-0.3 3.3c-0.1 0.8-0.1 1.2-0.1 1.2 0 0 0 1.5-0.1 4.4q0 2.1-0.1 5.3c-0.1 2.1-0.1 4.5 0 7.2q0.1 4.1 0.2 9c0.1 3.3 0.5 6.8 0.7 10.6 0.2 1.9 0.3 3.9 0.5 5.9q0.4 3 0.8 6.2 0.4 3.2 0.8 6.6 0.6 3.3 1.3 6.8c3.3 18.6 9.1 40.4 19.1 62.6 9.8 22.2 23.7 44.8 41 65.4 8.6 10.4 18.3 20 28.4 29 10.2 9 21.1 17.1 32.3 24.4 2.8 1.8 5.6 3.7 8.5 5.3q4.3 2.5 8.5 4.9c2.9 1.6 5.9 3.1 8.7 4.6q2.2 1.1 4.4 2.2 2.2 1 4.4 1.9c11.6 5.5 23.3 9.7 34.7 13.2 5.7 1.6 11.3 3.3 16.9 4.5 2.7 0.6 5.5 1.3 8.2 1.8q3.6 0.7 7.1 1.3 3 0.5 5.6 1c3.5 0.4 6.3 0.8 8.2 1q2.6 0.3 4.9 0.5c1.6 0.1 3.1 0.1 4.5 0.2 2.9 0 5.5-0.1 8.1-0.3 5.2-0.4 10-1.5 15.7-2.8z"/>
		<path id="&lt;Path&gt;" class="s3" d="m767.2 969.5c5-3.2 9.2-5.9 13.1-9.2 2-1.7 3.9-3.5 6-5.6 1-1 2-2.1 3-3.3q1.5-1.8 3.1-3.8c1.2-1.5 2.9-3.7 5.1-6.5q1.5-2.1 3.3-4.7 2-2.9 4.1-5.9c1.6-2.3 3-4.7 4.5-7.1 3.1-4.7 5.9-9.9 8.8-15.1 5.5-10.5 10.9-21.8 15.2-33.9q0.9-2.2 1.7-4.5 0.8-2.3 1.5-4.6c1-3.1 2.1-6.2 3-9.3q1.3-4.8 2.6-9.6c0.9-3.2 1.4-6.5 2.2-9.7 2.8-13.1 4.8-26.6 5.5-40.1 0.8-13.6 0.9-27.2-0.4-40.6-2.2-26.8-8.4-52.6-17.2-75.3-8.6-22.7-19.9-42.2-30.7-57.7q-2-2.9-4-5.7-2.1-2.7-4-5.3-2-2.5-3.9-4.9c-1.2-1.6-2.6-3.1-3.8-4.5-2.5-2.9-4.7-5.7-7-8q-3.4-3.6-6.2-6.6c-1.8-2-3.6-3.6-5.1-5.1q-2.3-2.1-3.9-3.6c-2.1-2-3.2-3.1-3.2-3.1 0 0-0.2-0.2-0.8-0.7q-0.9-0.7-2.5-2.2c-2.2-1.8-5.3-4.7-9.6-8-8.5-6.8-21.1-16-37.6-25.3-16.6-9.2-37.1-18.5-60.6-24.7-23.4-6.5-49.7-10.2-76.6-9.8-13.4 0.1-27 1.5-40.4 3.6-3.3 0.6-6.7 1-10 1.8q-5 1.1-9.9 2.2c-6.6 1.7-13.1 3.3-19.4 5.5-6.5 1.9-12.6 4.4-18.8 6.7-6 2.6-12 5-17.7 8-2.9 1.5-5.8 2.8-8.5 4.3q-4.2 2.3-8.2 4.6c-2.8 1.4-5.3 3.2-7.9 4.8q-2 1.2-3.9 2.4l-1.9 1.2-1.3 0.9c-3.7 2.6-7.2 5-10 7-2.8 2.2-5 3.9-6.5 5.1q-2 1.6-3.8 3.1c-1.2 1-2.3 2-3.3 3-2.1 2.1-3.9 4-5.6 6-3.3 3.9-6 8.1-9.2 13.1 5.2-2.9 9.3-5.5 13.6-8.3 2.1-1.3 4.2-2.8 6.5-4.4q1.6-1.3 3.4-2.7 1.9-1.3 3.9-2.8c1.4-1.2 3.6-2.8 6.3-4.9 2.7-1.9 6.1-4.2 9.7-6.8l1.3-0.8 1.8-1.2q1.9-1.2 3.7-2.3c2.5-1.5 5-3.3 7.6-4.7q4-2.2 8-4.4c2.6-1.5 5.5-2.7 8.2-4.2 5.5-2.8 11.4-5.1 17.2-7.7 5.9-2.2 11.9-4.6 18.1-6.5 6.1-2.1 12.4-3.6 18.8-5.3q4.8-1 9.6-2.1c3.2-0.8 6.4-1.1 9.6-1.7 13-2.1 26.1-3.5 39.2-3.5 26-0.4 51.4 3.1 74.1 9.4 22.7 6 42.5 15 58.5 23.9 16 8.9 28.3 17.8 36.4 24.4 4.2 3.2 7.2 6 9.3 7.8q1.6 1.4 2.5 2.1c0.5 0.5 0.8 0.7 0.8 0.7 0 0 1 1 3.1 3q1.5 1.4 3.7 3.5c1.5 1.4 3.2 3 4.9 5q2.8 2.8 6 6.3c2.2 2.3 4.4 5 6.8 7.7 1.2 1.4 2.5 2.8 3.7 4.4q1.8 2.3 3.7 4.8 1.9 2.5 3.9 5 1.9 2.7 3.9 5.6c10.4 15 21.3 33.8 29.6 55.8 8.5 21.9 14.6 46.9 16.7 72.8 1.3 13 1.2 26.2 0.4 39.3-0.7 13.1-2.7 26.1-5.4 38.8-0.7 3.1-1.2 6.3-2.1 9.4q-1.3 4.7-2.5 9.3c-0.9 3-1.9 6-2.9 9q-0.7 2.2-1.4 4.5-0.9 2.1-1.7 4.3c-4.2 11.7-9.4 22.6-14.7 32.8-2.8 5-5.5 10-8.5 14.6-1.5 2.3-2.8 4.6-4.3 6.8q-2.1 3-4 5.8-1.8 2.4-3.2 4.5c-2.1 2.7-3.7 4.9-4.9 6.3q-1.5 2-2.8 3.9-1.4 1.8-2.7 3.4c-1.6 2.3-3.1 4.4-4.4 6.5-2.8 4.3-5.4 8.4-8.3 13.6z"/>
		<path id="&lt;Path&gt;" class="s3" d="m1148 588.7c-5.2 2.9-9.3 5.5-13.6 8.3-2.1 1.3-4.2 2.8-6.5 4.4q-1.6 1.3-3.4 2.7-1.9 1.3-3.9 2.8c-1.4 1.2-3.6 2.8-6.3 4.9q-2.1 1.4-4.5 3.2-2.8 1.9-5.8 4c-2.2 1.5-4.5 2.8-6.8 4.3-4.6 3-9.6 5.7-14.6 8.5-10.2 5.3-21.1 10.5-32.8 14.7q-2.2 0.8-4.3 1.7-2.3 0.7-4.5 1.4c-3 1-6 2-9 2.9q-4.6 1.2-9.3 2.5c-3.1 0.9-6.3 1.4-9.4 2.1-12.7 2.7-25.7 4.7-38.8 5.4-13.1 0.8-26.3 0.9-39.3-0.4-25.9-2.1-50.9-8.2-72.8-16.7-22-8.3-40.8-19.2-55.8-29.6q-2.9-2-5.6-3.9-2.5-2-5-3.9-2.5-1.9-4.8-3.7c-1.6-1.2-3-2.5-4.4-3.7-2.7-2.4-5.4-4.6-7.7-6.8q-3.5-3.2-6.3-6c-2-1.7-3.6-3.4-5-4.9q-2.1-2.2-3.5-3.7c-2-2.1-3-3.1-3-3.1 0 0-0.2-0.3-0.7-0.8q-0.7-0.9-2.1-2.5c-1.8-2.1-4.6-5.1-7.8-9.3-6.6-8.1-15.5-20.4-24.4-36.4-8.9-16-17.9-35.8-23.9-58.5-6.3-22.7-9.8-48.1-9.4-74.1 0-13.1 1.4-26.2 3.5-39.2 0.6-3.2 0.9-6.4 1.7-9.6q1.1-4.8 2.1-9.6c1.7-6.4 3.2-12.7 5.3-18.8 1.9-6.2 4.3-12.2 6.5-18.1 2.6-5.8 4.9-11.7 7.7-17.2 1.5-2.7 2.7-5.6 4.2-8.2q2.2-4 4.4-8c1.4-2.6 3.2-5.1 4.7-7.6q1.1-1.8 2.3-3.7l1.2-1.8 0.8-1.3c2.6-3.6 4.9-7 6.8-9.7 2.1-2.7 3.7-4.9 4.9-6.3q1.5-2 2.8-3.9 1.4-1.8 2.7-3.4c1.6-2.3 3.1-4.4 4.4-6.5 2.8-4.3 5.4-8.4 8.3-13.6-5 3.2-9.2 5.9-13.1 9.2-2 1.7-3.9 3.5-6 5.6-1 1-2 2.1-3 3.3q-1.5 1.8-3.1 3.8c-1.2 1.5-2.9 3.7-5.1 6.5-2 2.8-4.4 6.3-7 10l-0.9 1.3-1.2 1.9q-1.2 1.9-2.4 3.9c-1.6 2.6-3.4 5.1-4.8 7.9q-2.3 4-4.6 8.2c-1.5 2.7-2.8 5.6-4.3 8.5-3 5.7-5.4 11.7-8 17.7-2.3 6.2-4.8 12.3-6.7 18.8-2.2 6.3-3.8 12.8-5.5 19.4q-1.1 4.9-2.2 9.9c-0.8 3.3-1.2 6.7-1.8 10-2.1 13.4-3.5 27-3.6 40.4-0.4 26.9 3.3 53.2 9.8 76.6 6.2 23.5 15.5 44 24.7 60.6 9.3 16.5 18.5 29.1 25.3 37.6 3.3 4.3 6.2 7.4 8 9.6q1.5 1.6 2.2 2.5c0.5 0.6 0.7 0.8 0.7 0.8 0 0 1.1 1.1 3.1 3.2q1.5 1.6 3.6 3.9c1.5 1.5 3.1 3.3 5.1 5.1q3 2.8 6.6 6.2c2.3 2.3 5.1 4.5 8 7 1.4 1.2 2.9 2.6 4.5 3.8q2.4 1.9 4.9 3.9 2.6 1.9 5.3 4 2.8 2 5.7 4c15.5 10.8 35 22.1 57.7 30.7 22.7 8.8 48.5 15 75.3 17.2 13.4 1.3 27 1.2 40.6 0.4 13.5-0.7 27-2.7 40.1-5.5 3.2-0.8 6.5-1.3 9.7-2.2q4.8-1.3 9.6-2.6c3.1-0.9 6.2-2 9.3-3q2.3-0.7 4.6-1.5 2.3-0.8 4.5-1.7c12.1-4.3 23.4-9.7 33.9-15.2 5.2-2.9 10.4-5.7 15.1-8.8 2.4-1.5 4.8-2.9 7.1-4.5q3-2.1 5.9-4.1 2.6-1.8 4.7-3.3c2.8-2.2 5-3.9 6.5-5.1q2-1.6 3.8-3.1c1.2-1 2.3-2 3.3-3 2.1-2.1 3.9-4 5.6-6 3.3-3.9 6-8.1 9.2-13.1z"/>
		<path id="&lt;Path&gt;" class="s3" d="m386.5 588.8c3.2 4.9 5.9 9.1 9.2 13 1.7 2 3.5 3.9 5.6 6 1 1 2.1 2 3.3 3q1.8 1.5 3.8 3.1c1.5 1.2 3.7 2.9 6.5 5.1q2.1 1.5 4.7 3.3 2.9 2 5.9 4.1c2.3 1.6 4.7 3 7.1 4.5 4.7 3.1 9.9 5.9 15.1 8.8 10.5 5.5 21.8 10.9 33.9 15.2q2.2 0.9 4.5 1.7 2.3 0.8 4.6 1.5c3.1 1 6.2 2.1 9.3 3q4.8 1.3 9.6 2.6c3.2 0.9 6.5 1.4 9.7 2.2 13.1 2.8 26.6 4.8 40.1 5.5 13.6 0.8 27.2 0.9 40.6-0.4 26.8-2.2 52.6-8.4 75.3-17.2 22.7-8.6 42.2-19.9 57.7-30.7q2.9-2 5.7-4 2.7-2.1 5.3-4 2.5-2 4.9-3.9c1.6-1.2 3.1-2.6 4.5-3.8 2.9-2.5 5.7-4.7 8-7q3.6-3.4 6.6-6.2c2-1.8 3.6-3.6 5.1-5.1q2.1-2.3 3.6-3.9c2-2.1 3.1-3.2 3.1-3.2 0 0 0.2-0.2 0.7-0.8q0.7-0.9 2.2-2.5c1.8-2.2 4.7-5.3 8-9.6 6.8-8.5 16-21.1 25.3-37.6 9.2-16.6 18.5-37.1 24.7-60.6 6.5-23.4 10.2-49.7 9.8-76.6-0.1-13.4-1.5-27-3.6-40.4-0.6-3.3-1-6.7-1.8-10q-1.1-5-2.2-9.9c-1.7-6.6-3.3-13.1-5.5-19.4-1.9-6.5-4.4-12.6-6.7-18.8-2.6-6-5-12-8-17.7-1.5-2.9-2.8-5.8-4.3-8.5q-2.3-4.2-4.6-8.2c-1.4-2.8-3.2-5.3-4.8-7.9q-1.2-2-2.4-3.9l-1.2-1.9-0.9-1.3c-2.6-3.7-5-7.2-7-10-2.2-2.8-3.9-5-5.1-6.5q-1.6-2-3.1-3.8c-1-1.2-2-2.3-3-3.3-2.1-2.1-4-3.9-6-5.6-3.9-3.3-8.1-6-13.1-9.2 2.9 5.2 5.5 9.3 8.3 13.6 1.3 2.1 2.8 4.2 4.4 6.5q1.3 1.6 2.7 3.4 1.3 1.9 2.8 3.9c1.2 1.4 2.8 3.6 4.9 6.3 1.9 2.7 4.2 6.1 6.8 9.7l0.8 1.3 1.2 1.8q1.2 1.9 2.3 3.7c1.5 2.6 3.3 5 4.7 7.6q2.2 4 4.4 8c1.5 2.6 2.7 5.5 4.2 8.2 2.8 5.5 5.1 11.4 7.7 17.2 2.2 5.9 4.6 11.9 6.5 18.1 2.1 6.1 3.6 12.4 5.3 18.8q1 4.8 2.1 9.6c0.8 3.2 1.1 6.4 1.7 9.6 2.1 13 3.5 26.1 3.5 39.2 0.4 26-3.1 51.4-9.4 74.1-6 22.7-15 42.5-23.9 58.5-8.9 16-17.8 28.3-24.4 36.4-3.2 4.2-6 7.2-7.8 9.3q-1.4 1.6-2.1 2.5c-0.5 0.5-0.7 0.8-0.7 0.8 0 0-1 1-3 3.1q-1.4 1.5-3.5 3.7c-1.4 1.5-3 3.2-5 4.9q-2.8 2.8-6.3 6c-2.3 2.2-5 4.4-7.7 6.8-1.4 1.2-2.8 2.5-4.4 3.7q-2.3 1.8-4.8 3.7-2.5 1.9-5 3.9-2.7 1.9-5.6 3.9c-15 10.4-33.8 21.3-55.8 29.6-21.9 8.5-46.9 14.6-72.8 16.7-13 1.3-26.2 1.2-39.3 0.4-13.1-0.7-26.1-2.7-38.8-5.4-3.1-0.7-6.3-1.2-9.4-2.1q-4.7-1.3-9.3-2.5c-3-0.9-6-1.9-9-2.9q-2.2-0.7-4.5-1.4-2.1-0.9-4.3-1.7c-11.7-4.2-22.6-9.4-32.8-14.7-5-2.8-10-5.5-14.6-8.5-2.3-1.5-4.6-2.8-6.8-4.3q-3-2.1-5.8-4-2.4-1.8-4.5-3.2c-2.7-2.1-4.9-3.7-6.3-4.9q-2-1.5-3.9-2.8-1.8-1.4-3.4-2.7c-2.3-1.6-4.4-3.1-6.5-4.4-4.3-2.8-8.4-5.4-13.6-8.2z"/>
		<path id="&lt;Path&gt;" class="s3" d="m767.3 969.5c-2.9-5.2-5.5-9.3-8.3-13.6-1.3-2.1-2.8-4.2-4.4-6.5q-1.3-1.6-2.7-3.4-1.3-1.9-2.8-3.9c-1.2-1.4-2.8-3.6-4.9-6.3q-1.4-2.1-3.2-4.5-1.9-2.8-4-5.8c-1.5-2.2-2.8-4.5-4.3-6.8-3-4.6-5.7-9.6-8.5-14.6-5.3-10.2-10.5-21.1-14.7-32.8q-0.8-2.2-1.7-4.3-0.7-2.3-1.4-4.5c-1-3-2-6-2.9-9q-1.2-4.6-2.5-9.3c-0.9-3.1-1.4-6.3-2.1-9.4-2.7-12.7-4.7-25.7-5.4-38.8-0.8-13.1-0.9-26.3 0.4-39.3 2.1-25.9 8.2-50.9 16.7-72.8 8.3-22 19.2-40.8 29.6-55.8q2-2.9 3.9-5.6 2-2.5 3.9-5 1.9-2.5 3.7-4.8c1.2-1.6 2.5-3 3.7-4.4 2.4-2.7 4.6-5.4 6.8-7.7q3.2-3.5 6-6.3c1.7-2 3.4-3.6 4.9-5q2.2-2.1 3.7-3.5c2.1-2 3.1-3 3.1-3 0 0 0.3-0.2 0.8-0.7q0.9-0.7 2.5-2.1c2.1-1.8 5.1-4.6 9.3-7.8 8.1-6.6 20.4-15.5 36.4-24.4 16-8.9 35.8-17.9 58.5-23.9 22.7-6.3 48.1-9.8 74.1-9.4 13.1 0 26.2 1.4 39.2 3.5 3.2 0.6 6.4 0.9 9.6 1.7q4.8 1.1 9.6 2.1c6.4 1.7 12.7 3.2 18.8 5.3 6.2 1.9 12.2 4.3 18.1 6.5 5.8 2.6 11.7 4.9 17.2 7.7 2.7 1.5 5.6 2.7 8.2 4.2q4 2.2 8 4.4c2.6 1.4 5.1 3.2 7.6 4.7q1.8 1.1 3.7 2.3l1.8 1.2 1.3 0.8c3.6 2.6 7 4.9 9.7 6.8 2.7 2.1 4.9 3.7 6.3 4.9q2 1.5 3.9 2.8 1.8 1.4 3.4 2.7c2.3 1.6 4.4 3.1 6.5 4.4 4.3 2.8 8.4 5.4 13.6 8.3-3.2-5-5.9-9.2-9.2-13.1-1.7-2-3.5-3.9-5.6-6-1-1-2.1-2-3.3-3q-1.8-1.5-3.8-3.1c-1.5-1.2-3.7-2.9-6.5-5.1-2.8-2-6.3-4.4-10-7l-1.3-0.9-1.9-1.2q-1.9-1.2-3.9-2.4c-2.6-1.6-5.1-3.4-7.9-4.8q-4-2.3-8.2-4.6c-2.7-1.5-5.6-2.8-8.5-4.3-5.7-3-11.7-5.4-17.7-8-6.2-2.3-12.3-4.8-18.8-6.7-6.3-2.2-12.8-3.8-19.4-5.5q-4.9-1.1-9.9-2.2c-3.3-0.8-6.7-1.2-10-1.8-13.4-2.1-27-3.5-40.4-3.6-26.9-0.4-53.2 3.3-76.6 9.8-23.5 6.2-44 15.5-60.6 24.7-16.5 9.3-29.1 18.5-37.6 25.3-4.3 3.3-7.4 6.2-9.6 8q-1.6 1.5-2.5 2.2c-0.6 0.5-0.8 0.7-0.8 0.7 0 0-1.1 1.1-3.2 3.1q-1.6 1.5-3.9 3.6c-1.5 1.5-3.3 3.1-5.1 5.1q-2.8 3-6.2 6.6c-2.3 2.3-4.5 5.1-7 8-1.2 1.4-2.6 2.9-3.8 4.5q-1.9 2.4-3.9 4.9-1.9 2.6-4 5.3-2 2.8-4 5.7c-10.8 15.5-22.1 35-30.7 57.7-8.8 22.7-15 48.5-17.2 75.3-1.3 13.4-1.2 27-0.4 40.6 0.7 13.5 2.7 27 5.5 40.1 0.8 3.2 1.3 6.5 2.2 9.7q1.3 4.8 2.6 9.6c0.9 3.1 2 6.2 3 9.3q0.7 2.3 1.5 4.6 0.8 2.3 1.7 4.5c4.3 12.1 9.7 23.4 15.2 33.9 2.9 5.2 5.7 10.4 8.8 15.1 1.5 2.4 2.9 4.8 4.5 7.1q2.1 3 4.1 5.9 1.8 2.6 3.3 4.7c2.2 2.8 3.9 5 5.1 6.5q1.6 2 3.1 3.8c1 1.2 2 2.3 3 3.3 2.1 2.1 4 3.9 6 5.6 3.9 3.3 8.1 6 13.1 9.2z"/>
		<path id="&lt;Path&gt;" class="s3" d="m576.9 1048.3c15.6 24.8 29.6 41.1 60.8 58.2 1.3 0.7 2.8 1.5 4.7 2.4 1.8 1 4 2.1 6.6 3.3 2.7 1.1 5.7 2.5 9.2 4.1 3.6 1.4 7.8 3.1 12.5 4.9 3.3 1.2 7.2 2.5 11.4 3.9 4.3 1.4 9 2.7 13.9 4.1 4.9 1.2 10.1 2.4 15.2 3.5 5.2 0.9 10.3 1.9 15.3 2.6 5 0.6 9.7 1.3 14.1 1.7 4.3 0.3 8.3 0.6 11.6 0.9 6.6 0.1 10.8 0.2 10.8 0.2 0 0 0.8 0.1 2.4 0.1 1.6 0.1 3.9 0 6.7 0 2.8-0.1 6.2-0.2 10-0.3 3.8-0.3 8-0.6 12.4-0.9 4.4-0.4 9-1.1 13.7-1.7 4.7-0.7 9.5-1.6 14.2-2.4 4.6-0.9 9.2-2.1 13.5-3.1 4.4-1.1 8.4-2.3 12.1-3.3 3.3-0.9 6.3-2.1 9.3-3 2.9-1.1 5.7-1.9 8.3-2.9q3.8-1.6 7.3-2.9 1.7-0.7 3.3-1.4 1.6-0.7 3.1-1.3c3.9-1.9 7.4-3.4 10.3-4.8q4.3-2.2 7.2-3.7c31.2-17.1 45.2-33.4 60.8-58.2-12.7 7.5-23.4 12.9-34.3 18.9-11 5.8-22.2 12-36.8 19.6q-2.6 1.4-6.6 3.4c-2.7 1.3-5.9 2.6-9.6 4.3q-1.3 0.6-2.8 1.3-1.5 0.6-3.1 1.2-3.1 1.2-6.7 2.6c-2.3 1-4.9 1.7-7.6 2.7-2.7 0.8-5.5 2-8.5 2.7-3.4 1-7.1 2.1-11.1 3.1-4 0.9-8.2 2-12.5 2.8-4.3 0.8-8.7 1.7-13 2.3-4.4 0.5-8.6 1.2-12.7 1.5-4 0.4-7.9 0.7-11.4 0.9-3.4 0.1-6.6 0.2-9.2 0.3-2.6 0.1-4.7 0.2-6.2 0.1-1.4-0.1-2.2-0.1-2.2-0.1 0 0-3.8-0.1-9.9-0.3-3.1-0.2-6.7-0.5-10.7-0.8-4.1-0.3-8.4-1-13-1.6-4.6-0.6-9.3-1.6-14.1-2.4-4.7-1.1-9.4-2.1-13.9-3.3-4.5-1.3-8.9-2.4-12.8-3.7-3.9-1.3-7.5-2.5-10.5-3.5-4.4-1.8-8.2-3.3-11.5-4.6-3.2-1.4-6-2.7-8.4-3.8-2.5-1-4.5-2-6.2-2.9-1.7-0.9-3.1-1.6-4.3-2.2-14.6-7.6-25.8-13.8-36.8-19.6-10.9-6-21.6-11.4-34.3-18.9z"/>
		<path id="&lt;Path&gt;" class="s3" d="m957.6 129.2c-15.6-24.8-29.6-41.1-60.8-58.2-1.3-0.7-2.8-1.5-4.7-2.4-1.8-1-4-2.1-6.6-3.3-2.7-1.1-5.7-2.5-9.2-4.1-3.6-1.4-7.8-3.1-12.5-4.9-3.3-1.2-7.2-2.5-11.4-3.9-4.3-1.4-9-2.7-13.9-4.1-4.9-1.2-10.1-2.4-15.2-3.5-5.2-0.9-10.3-1.9-15.3-2.6-5-0.6-9.7-1.3-14.1-1.7-4.3-0.3-8.3-0.6-11.6-0.9-6.6-0.1-10.8-0.2-10.8-0.2 0 0-0.8-0.1-2.4-0.1-1.6-0.1-3.9 0-6.7 0-2.8 0.1-6.2 0.2-10 0.3-3.8 0.3-8 0.6-12.4 0.9-4.4 0.4-9 1.1-13.7 1.7-4.7 0.7-9.5 1.6-14.2 2.4-4.6 0.9-9.2 2.1-13.6 3.1-4.3 1.1-8.3 2.3-12 3.3-3.3 0.9-6.3 2.1-9.3 3-2.9 1.1-5.7 1.9-8.3 2.9q-3.8 1.6-7.3 2.9-1.7 0.7-3.3 1.4-1.6 0.7-3.1 1.3c-3.9 1.9-7.4 3.4-10.3 4.8q-4.3 2.2-7.2 3.7c-31.2 17.1-45.2 33.4-60.8 58.2 12.7-7.5 23.4-12.9 34.3-18.9 11-5.8 22.2-12 36.8-19.6q2.6-1.4 6.6-3.4c2.7-1.3 5.9-2.6 9.6-4.3q1.3-0.6 2.8-1.3 1.5-0.6 3.1-1.2 3.1-1.2 6.7-2.6c2.3-1 4.9-1.7 7.6-2.7 2.7-0.8 5.5-2 8.5-2.7 3.4-1 7.1-2.1 11.1-3.1 4-0.9 8.2-2 12.5-2.8 4.3-0.8 8.7-1.7 13-2.3 4.4-0.5 8.6-1.2 12.7-1.5 4-0.4 7.9-0.7 11.4-0.9 3.4-0.1 6.6-0.2 9.2-0.3 2.6-0.1 4.7-0.2 6.2-0.1 1.4 0.1 2.2 0.1 2.2 0.1 0 0 3.8 0.1 9.9 0.3 3.1 0.2 6.7 0.5 10.7 0.8 4.1 0.3 8.4 1 13 1.6 4.6 0.6 9.3 1.6 14.1 2.4 4.7 1.1 9.4 2.1 13.9 3.3 4.5 1.3 8.9 2.4 12.8 3.7 3.9 1.3 7.5 2.5 10.5 3.5 4.4 1.8 8.2 3.3 11.5 4.6 3.2 1.4 6 2.7 8.4 3.8 2.5 1 4.5 2 6.2 2.9 1.7 0.9 3.1 1.6 4.3 2.2 14.6 7.6 25.8 13.8 36.8 19.6 10.9 6 21.6 11.4 34.3 18.9z"/>
		<path id="&lt;Path&gt;" class="s3" d="m1226.8 779.1c6.1-3.9 12-7.5 17.1-11.7 2.6-2 5.3-3.9 7.7-6.1q3.6-3.3 7.2-6.7c9.2-9.4 17.9-20.5 26.2-36.2 1.4-2.7 3.2-6.3 5.7-11.4 2.3-5.3 5.5-12.1 9-21.7 1.3-3.3 2.5-7.2 3.9-11.5 0.6-2.1 1.5-4.3 2.1-6.6q0.9-3.5 1.9-7.2c1.4-4.9 2.4-10.1 3.5-15.2 1.2-5.1 1.9-10.3 2.7-15.3 0.6-4.9 1.2-9.7 1.7-14.1 0.3-4.3 0.6-8.3 0.8-11.6 0.3-3.3 0.2-6 0.3-7.9 0-1.8 0.1-2.9 0.1-2.9 0 0 0-0.8 0-2.4 0.1-1.6 0-3.9 0-6.7-0.1-2.8-0.1-6.2-0.3-10-0.3-3.8-0.6-8-0.9-12.4-0.6-4.4-1.1-9-1.7-13.7-0.8-4.7-1.5-9.5-2.4-14.2-1.1-4.6-2-9.2-3.1-13.5-1.2-4.3-2.2-8.4-3.3-12.1-8.1-26-16.1-41-20-48.9-8.3-15.7-17-26.8-26.2-36.2q-3.6-3.4-7.2-6.7c-2.4-2.2-5.1-4.1-7.7-6.1-5.1-4.2-11-7.8-17.1-11.7 3.6 6.5 7.1 12.1 10 17.8 1.5 2.9 3.1 5.5 4.5 8.3q2.1 4.1 4.4 8.2c5.7 11 12.1 22.2 19.6 36.7 3.6 7.3 10.8 21.1 18.2 45 1 3.4 2 7.2 3.1 11.1 1 4 1.8 8.2 2.8 12.5 0.9 4.3 1.5 8.7 2.3 13 0.5 4.4 1.1 8.6 1.6 12.7 0.3 4 0.5 7.9 0.8 11.4 0.2 3.4 0.2 6.6 0.3 9.2 0.1 2.6 0.2 4.7 0.1 6.2-0.1 1.4-0.1 2.2-0.1 2.2 0 0 0 1 0 2.7-0.1 1.7-0.1 4.2-0.3 7.2-0.2 3.1-0.5 6.7-0.8 10.7-0.5 4-1 8.4-1.6 13-0.8 4.5-1.4 9.3-2.5 14-1.1 4.8-1.9 9.5-3.2 14q-1 3.4-1.8 6.6c-0.6 2.2-1.3 4.2-1.9 6.2-1.3 3.9-2.4 7.5-3.6 10.5-3.2 8.8-6.1 15.1-8.2 20-2.3 4.7-3.9 8-5.2 10.5-7.5 14.5-13.8 25.7-19.6 36.7q-2.3 4.1-4.4 8.2c-1.4 2.8-3 5.4-4.5 8.3-2.9 5.7-6.4 11.3-10 17.8z"/>
		<path id="&lt;Path&gt;" class="s3" d="m307.7 398.4c-6.1 3.9-12 7.5-17.1 11.7-2.6 2-5.3 3.9-7.7 6.1q-3.6 3.3-7.2 6.7c-9.2 9.4-17.9 20.5-26.2 36.2-1.4 2.7-3.2 6.3-5.7 11.4-2.3 5.3-5.5 12.1-9 21.7-1.3 3.3-2.5 7.2-3.9 11.5-0.6 2.1-1.5 4.3-2.1 6.6q-0.9 3.5-1.9 7.2c-1.4 4.9-2.4 10.1-3.5 15.2-1.2 5.1-1.9 10.3-2.7 15.3-0.6 4.9-1.2 9.7-1.7 14.1-0.3 4.3-0.6 8.3-0.8 11.6-0.3 3.3-0.2 6-0.3 7.9 0 1.8-0.1 2.9-0.1 2.9 0 0 0 0.8 0 2.4-0.1 1.6 0 3.9 0 6.7 0.1 2.8 0.1 6.2 0.3 10 0.3 3.8 0.6 8 0.9 12.4 0.6 4.4 1.1 9 1.7 13.7 0.8 4.7 1.5 9.5 2.4 14.2 1.1 4.6 2 9.2 3.1 13.5 1.2 4.3 2.2 8.4 3.3 12.1 8.1 26 16.1 41 20 48.9 8.3 15.7 17 26.8 26.2 36.2q3.6 3.4 7.2 6.7c2.4 2.2 5.1 4.1 7.7 6.1 5.1 4.2 11 7.8 17.1 11.7-3.6-6.5-7.1-12.1-10-17.8-1.5-2.9-3.1-5.5-4.5-8.3q-2.1-4.1-4.4-8.2c-5.7-11-12.1-22.2-19.6-36.7-3.6-7.3-10.8-21.1-18.2-45-1-3.4-2-7.2-3.1-11.1-1-4-1.8-8.2-2.8-12.5-0.9-4.3-1.5-8.7-2.3-13-0.5-4.4-1.1-8.6-1.6-12.7-0.3-4-0.5-7.9-0.8-11.4-0.2-3.4-0.2-6.6-0.3-9.2-0.1-2.6-0.2-4.7-0.1-6.2 0-1.4 0.1-2.2 0.1-2.2 0 0 0-1 0-2.7 0.1-1.7 0.1-4.2 0.3-7.2 0.2-3.1 0.5-6.7 0.8-10.7 0.5-4 1-8.4 1.6-13 0.8-4.5 1.4-9.3 2.5-14 1.1-4.7 1.9-9.5 3.2-14q1-3.4 1.8-6.6c0.6-2.2 1.3-4.2 1.9-6.2 1.3-3.9 2.4-7.5 3.6-10.5 3.2-8.8 6.1-15.1 8.2-20 2.3-4.7 3.9-8 5.2-10.5 7.5-14.5 13.8-25.7 19.6-36.7q2.3-4.1 4.4-8.2c1.4-2.8 3-5.4 4.5-8.3 2.9-5.7 6.4-11.3 10-17.8z"/>
		<path id="&lt;Path&gt;" class="s3" d="m1226.8 398.4c6.5-28.5 8.2-50-1.8-84.1-0.5-1.4-1-3.1-1.6-5.1-0.7-2-1.4-4.3-2.5-7-1-2.7-2.1-5.8-3.5-9.4-1.6-3.6-3.3-7.6-5.3-12.3-1.6-3.1-3.4-6.8-5.4-10.8-2-4.1-4.5-8.3-6.9-12.7-2.6-4.4-5.5-8.8-8.3-13.2-3-4.3-5.9-8.7-8.9-12.7-3.1-3.9-6-7.8-8.8-11.1-2.9-3.4-5.4-6.4-7.6-8.9-4.6-4.8-7.4-7.8-7.4-7.8 0 0-0.6-0.6-1.7-1.8-1.1-1.1-2.7-2.7-4.8-4.7-2.1-1.9-4.5-4.3-7.3-6.9-2.8-2.4-6-5.2-9.4-8.1-3.4-2.8-7.1-5.6-10.9-8.5-3.7-2.9-7.8-5.5-11.7-8.3-3.9-2.6-8-5-11.7-7.4-3.9-2.3-7.6-4.3-11-6.2-2.9-1.7-5.9-3-8.6-4.4-2.8-1.3-5.3-2.8-7.9-3.8q-3.8-1.7-7.2-3.1-1.7-0.8-3.3-1.5-1.7-0.6-3.2-1.2c-4.1-1.5-7.6-2.9-10.6-3.9q-4.7-1.5-7.8-2.5c-34.1-10-55.6-8.3-84.1-1.8 14.3 3.7 25.7 7.4 37.6 10.9 11.9 3.7 24.3 7.2 39.9 12.1q2.8 1 7.1 2.4c2.8 0.9 6 2.2 9.8 3.6q1.4 0.6 2.9 1.1 1.4 0.7 3 1.4 3.1 1.3 6.6 2.8c2.4 1 4.7 2.3 7.3 3.5 2.5 1.3 5.3 2.5 7.9 4.1 3.1 1.8 6.6 3.6 10.1 5.7 3.4 2.2 7.2 4.4 10.8 6.8 3.6 2.6 7.3 5 10.8 7.6 3.4 2.7 6.9 5.3 10 7.9 3.1 2.6 6.1 5.1 8.7 7.4 2.6 2.4 4.8 4.5 6.7 6.3 1.9 1.8 3.5 3.3 4.5 4.3 1 1.1 1.5 1.7 1.5 1.7 0 0 2.6 2.8 6.8 7.2 2 2.3 4.4 5.1 7 8.2 2.6 3 5.2 6.6 8.1 10.2 2.7 3.7 5.4 7.8 8.2 11.7 2.5 4.1 5.2 8.2 7.5 12.2 2.3 4.1 4.6 8 6.4 11.6 1.9 3.7 3.5 7.1 5 10 1.8 4.3 3.5 8 4.9 11.3 1.3 3.3 2.3 6.2 3.3 8.7 1 2.4 1.7 4.5 2.2 6.4 0.6 1.8 1.1 3.3 1.6 4.6 4.9 15.6 8.4 28 12.1 39.9 3.5 11.9 7.2 23.3 10.9 37.6z"/>
		<path id="&lt;Path&gt;" class="s3" d="m307.7 779.1c-6.5 28.5-8.2 50 1.8 84.1 0.5 1.4 1 3.1 1.6 5.1 0.7 2 1.4 4.3 2.5 7 1 2.7 2.1 5.8 3.5 9.4 1.6 3.6 3.3 7.6 5.3 12.3 1.6 3.1 3.4 6.8 5.4 10.8 2 4.1 4.5 8.3 6.9 12.7 2.6 4.4 5.5 8.8 8.3 13.3 3 4.2 5.9 8.6 8.9 12.6 3.1 3.9 6 7.8 8.8 11.1 2.9 3.4 5.4 6.4 7.6 8.9 4.6 4.8 7.4 7.8 7.4 7.8 0 0 0.6 0.6 1.7 1.8 1.1 1.1 2.7 2.7 4.8 4.7 2.1 1.9 4.5 4.3 7.3 6.9 2.8 2.4 6 5.2 9.4 8.1 3.4 2.8 7.1 5.6 10.9 8.5 3.7 2.9 7.8 5.5 11.7 8.3 3.9 2.6 8 5 11.7 7.4 3.9 2.3 7.6 4.3 11 6.2 2.9 1.7 5.9 3 8.6 4.4 2.8 1.3 5.3 2.8 7.9 3.8q3.8 1.7 7.2 3.1 1.7 0.8 3.3 1.5 1.7 0.6 3.2 1.2c4.1 1.5 7.6 2.9 10.6 3.9q4.7 1.5 7.8 2.5c34.1 10 55.6 8.3 84.1 1.8-14.3-3.7-25.7-7.4-37.6-10.9-11.9-3.7-24.3-7.2-39.9-12.1q-2.8-1-7.1-2.4c-2.8-0.9-6-2.2-9.8-3.6q-1.4-0.6-2.9-1.1-1.4-0.7-3-1.4-3.1-1.3-6.6-2.8c-2.4-1-4.7-2.3-7.3-3.5-2.5-1.3-5.3-2.5-7.9-4.1-3.1-1.8-6.6-3.6-10.1-5.7-3.4-2.2-7.2-4.4-10.8-6.8-3.6-2.6-7.3-5-10.8-7.6-3.4-2.7-6.9-5.3-10-7.9-3.1-2.6-6.1-5.1-8.7-7.4-2.6-2.4-4.8-4.5-6.7-6.3-1.9-1.8-3.5-3.3-4.5-4.3-1-1.1-1.5-1.7-1.5-1.7 0 0-2.6-2.8-6.8-7.2-2-2.3-4.4-5.1-7-8.2-2.6-3-5.2-6.6-8.1-10.2-2.7-3.7-5.4-7.8-8.2-11.7-2.5-4.1-5.2-8.2-7.5-12.2-2.3-4.1-4.6-7.9-6.4-11.6-1.9-3.7-3.5-7.1-5-10-1.8-4.3-3.5-8-4.9-11.3-1.3-3.3-2.3-6.2-3.3-8.7-1-2.4-1.7-4.5-2.2-6.4-0.6-1.8-1.1-3.3-1.6-4.6-4.9-15.6-8.4-28-12.1-39.9-3.5-11.9-7.2-23.3-10.9-37.6z"/>
		<path id="&lt;Path&gt;" class="s3" d="m576.9 129.2c-7.1-1.5-13.8-3.2-20.4-3.9-3.3-0.4-6.5-0.9-9.7-1q-4.9-0.3-9.8-0.3c-13.2 0.1-27.2 1.8-44.2 7-2.9 0.9-6.6 2.2-12.1 4-5.3 2.1-12.5 4.7-21.7 9-3.2 1.4-6.8 3.3-10.8 5.3-2 1.1-4.1 2.1-6.2 3.3q-3.2 1.8-6.5 3.7c-4.4 2.4-8.8 5.4-13.2 8.2-4.4 2.9-8.6 6-12.7 8.9-3.9 3.1-7.7 6.1-11.2 8.8-3.3 2.9-6.2 5.4-8.8 7.6-2.5 2.2-4.3 4.2-5.7 5.4-1.4 1.3-2.1 2-2.1 2 0 0-0.6 0.6-1.8 1.7-1.1 1.1-2.7 2.7-4.7 4.8-1.9 2.1-4.3 4.4-6.8 7.3-2.5 2.8-5.3 6-8.2 9.4-2.7 3.4-5.6 7.1-8.5 10.9-2.7 3.8-5.6 7.7-8.3 11.7-2.5 4-5.2 7.9-7.4 11.7-2.2 3.9-4.4 7.6-6.2 10.9-12.7 24.1-17.7 40.4-20.4 48.7-5.2 17-6.9 31-7 44.2q0 4.9 0.3 9.8c0.1 3.2 0.6 6.5 1 9.7 0.7 6.6 2.4 13.3 3.9 20.4 2-7.1 3.5-13.6 5.5-19.7 1-3 1.7-6.1 2.7-9q1.4-4.5 2.7-8.9c3.7-11.9 7.1-24.3 12.1-39.9 2.6-7.6 7.2-22.5 18.9-44.6 1.7-3.2 3.7-6.5 5.7-10.1 2.1-3.5 4.5-7.1 6.9-10.8 2.4-3.6 5-7.2 7.5-10.8 2.7-3.5 5.4-6.8 7.9-10.1 2.6-3 5.1-6 7.4-8.6 2.3-2.6 4.6-4.8 6.3-6.7 1.8-1.9 3.3-3.5 4.3-4.5 1.1-1 1.7-1.5 1.7-1.5 0 0 0.7-0.7 1.9-1.9 1.3-1.1 3-2.9 5.3-4.9 2.3-2 5.1-4.4 8.1-7 3.2-2.5 6.7-5.2 10.3-8.1 3.8-2.6 7.7-5.5 11.7-8.1 4.1-2.6 8.1-5.4 12.2-7.6q3.1-1.7 6-3.4c1.9-1.1 3.8-2 5.7-3 3.6-1.9 7-3.7 9.9-4.9 8.5-4 15.1-6.4 20-8.4 5-1.7 8.4-2.8 11-3.7 15.6-5 28-8.4 39.9-12.1q4.4-1.3 8.9-2.7c2.9-1 6-1.7 9-2.7 6.1-2 12.6-3.5 19.7-5.5z"/>
		<path id="&lt;Path&gt;" class="s3" d="m957.6 1048.3c7.1 1.5 13.8 3.2 20.4 3.9 3.3 0.4 6.5 0.9 9.7 1q4.9 0.3 9.8 0.3c13.2-0.1 27.2-1.8 44.2-7 2.9-0.9 6.6-2.2 12.1-4 5.3-2.1 12.5-4.7 21.7-9 3.2-1.4 6.8-3.3 10.8-5.3 2-1.1 4.1-2.1 6.2-3.3q3.2-1.8 6.5-3.7c4.4-2.4 8.8-5.4 13.2-8.2 4.4-2.9 8.6-6 12.7-8.9 3.9-3.1 7.7-6.1 11.2-8.8 3.3-2.9 6.2-5.4 8.8-7.6 2.5-2.2 4.3-4.2 5.7-5.4 1.4-1.3 2.1-2 2.1-2 0 0 0.6-0.6 1.8-1.7 1.1-1.1 2.7-2.7 4.7-4.8 1.9-2.1 4.3-4.4 6.8-7.3 2.5-2.8 5.3-6 8.2-9.4 2.7-3.4 5.6-7.1 8.5-10.9 2.7-3.8 5.6-7.7 8.3-11.7 2.5-4 5.2-7.9 7.4-11.7 2.2-3.9 4.4-7.6 6.2-10.9 12.7-24.1 17.7-40.4 20.4-48.7 5.2-17 6.9-31 7-44.2q0-4.9-0.3-9.8c-0.1-3.2-0.6-6.5-1-9.7-0.7-6.6-2.4-13.3-3.9-20.4-2 7.1-3.5 13.6-5.5 19.7-1 3-1.7 6.1-2.7 9q-1.4 4.5-2.7 8.9c-3.7 11.9-7.1 24.3-12.1 39.9-2.6 7.6-7.2 22.5-18.9 44.6-1.7 3.2-3.7 6.5-5.7 10.1-2.1 3.5-4.5 7.1-6.9 10.8-2.4 3.6-5 7.2-7.5 10.8-2.7 3.5-5.4 6.8-7.9 10.1-2.6 3-5.1 6-7.4 8.6-2.3 2.6-4.6 4.8-6.3 6.7-1.8 1.9-3.3 3.5-4.3 4.5-1.1 1-1.7 1.5-1.7 1.5 0 0-0.7 0.7-1.9 1.9-1.3 1.1-3 2.9-5.3 4.9-2.3 2-5.1 4.4-8.1 7-3.2 2.5-6.7 5.2-10.3 8.1-3.8 2.6-7.7 5.5-11.7 8.1-4.1 2.6-8.1 5.4-12.2 7.6q-3.1 1.7-6 3.4c-1.9 1.1-3.8 2-5.7 3-3.6 1.9-7 3.7-9.9 4.9-8.5 4-15.1 6.4-20 8.4-5 1.7-8.4 2.8-11 3.7-15.6 5-28 8.4-39.9 12.1q-4.4 1.3-8.9 2.7c-2.9 1-6 1.7-9 2.7-6.1 2-12.6 3.5-19.7 5.5z"/>
		<path id="&lt;Path&gt;" class="s4" d="m846.3 779.4c-48.9-48.7-79.2-116.2-79.2-190.7 0-74.5 30.2-141.8 79-190.5"/>
		<path id="&lt;Path&gt;" class="s4" d="m688.3 779.4c48.9-48.7 79.2-116.2 79.2-190.7 0-74.5-30.2-141.8-79-190.5"/>
		<path id="&lt;Path&gt;" class="s4" d="m576.7 667.8c48.7-48.9 116.2-79.2 190.7-79.2 74.4 0 141.8 30.2 190.5 79"/>
		<path id="&lt;Path&gt;" class="s4" d="m576.7 509.7c48.7 49 116.2 79.3 190.7 79.3 74.4 0 141.8-30.2 190.5-79"/>
		<path id="&lt;Path&gt;" class="s4" d="m688.4 779.5c-0.1-69.1 26.1-138.2 78.8-190.9 52.7-52.7 121.7-78.9 190.6-78.9"/>
		<path id="&lt;Path&gt;" class="s4" d="m576.6 667.7c69.1 0.1 138.2-26.2 190.9-78.9 52.6-52.6 78.9-121.6 78.9-190.5"/>
		<path id="&lt;Path&gt;" class="s4" d="m576.6 509.9c69.1-0.2 138.2 26.1 190.9 78.8 52.6 52.6 78.9 121.6 78.9 190.6"/>
		<path id="&lt;Path&gt;" class="s4" d="m688.4 398.1c-0.1 69.1 26.1 138.2 78.8 190.9 52.7 52.6 121.7 78.9 190.6 78.8"/>
	</g>
</svg>