<svg width="73" height="25" viewBox="0 0 73 25" fill="none" xmlns="http://www.w3.org/2000/svg">
<path d="M43.6477 18.7383C41.4716 18.7383 39.892 17.4181 39.892 14.7378C39.892 12.0956 41.4589 10.6992 43.6477 10.6992C45.7985 10.6992 47.3853 12.0774 47.3853 14.7378C47.3853 17.3982 45.8184 18.7383 43.6477 18.7383ZM43.6296 20.4375C46.4405 20.4375 49.0827 18.7564 49.0827 14.7378C49.0827 10.7754 46.4604 9 43.6423 9C40.8242 9 38.1892 10.7935 38.1892 14.7559C38.1892 18.7764 40.8314 20.4375 43.6296 20.4375ZM27.1271 9.22668V15.5738H31.0133V13.8692H28.8081V10.9259H34.4698V15.7008C34.4698 17.4743 33.4887 18.4373 31.5682 18.4373H27.1289V20.1347H31.6625C34.5133 20.1347 36.1726 18.5878 36.1726 15.8513V9.22668H27.1271ZM22.9144 20.1347H24.6136V13.8129C24.6136 10.7935 22.7076 9.22668 19.7444 9.22668H16.0649V10.9259H19.7263C21.8771 10.9259 22.9144 11.9831 22.9144 13.8274V20.1347ZM12.8732 15.7951H14.5724V9.22668H12.8732V15.7951ZM10.6971 20.1347L7.92972 16.2992L10.4015 13.8256V9.22668H8.70407V13.1329L6.92868 14.9083L2.83387 9.22668H0.683105L2.67792 11.9831C1.35771 13.2526 0.753833 15.0969 0.753833 17.0028V20.1347H2.45123V16.7562C2.45123 15.737 2.67792 14.3987 3.64087 13.3215L8.58437 20.1347H10.6971Z" fill="black"/>
<path d="M71.3241 16.0413C70.6809 19.0768 68.4977 20.365 63.6322 20.365C51.6781 20.365 55.9137 10.7032 57.5844 8.71175C58.2864 7.82877 58.7775 7.10145 60.5603 7.10145H63.9525C68.6819 7.10145 69.584 7.3269 70.769 9.75846C71.4095 11.0682 71.7805 13.8943 71.3241 16.0467V16.0413ZM72.6079 10.0134C72.2075 7.41814 71.6871 4.59474 69.4452 3.03543C68.0867 2.08535 66.6855 2.01557 65.1188 2.01557C64.0513 2.01557 60.2854 1.96994 58.636 1.96994C57.0346 1.96994 55.9671 0.644122 55.9671 0C54.9235 1.28556 54.1255 2.70532 54.4057 4.42298C54.6566 5.96887 55.7108 6.95652 57.2535 7.15244C55.5053 9.635 53.9253 12.4933 54.0027 15.5207C54.0508 17.4289 54.4858 25 62.9997 25H64.5504C68.1855 25 70.3873 22.2866 71.0279 21.2426C72.9095 18.1562 73.2244 13.3816 72.6292 10.0295" fill="#5D956F"/>
</svg>
