<svg
   id="Layer_1"
   data-name="Layer 1"
   viewBox="0 0 148.33 206.05"
   version="1.1"
   sodipodi:docname="aleph.svg"
   inkscape:version="1.3.2 (1:1.3.2+202311252150+091e20ef0f)"
   xmlns:inkscape="http://www.inkscape.org/namespaces/inkscape"
   xmlns:sodipodi="http://sodipodi.sourceforge.net/DTD/sodipodi-0.dtd"
   xmlns="http://www.w3.org/2000/svg"
   xmlns:svg="http://www.w3.org/2000/svg">
  <defs
     id="defs1" />
  <sodipodi:namedview
     id="namedview1"
     pagecolor="#505050"
     bordercolor="#eeeeee"
     borderopacity="1"
     inkscape:showpageshadow="0"
     inkscape:pageopacity="0"
     inkscape:pagecheckerboard="0"
     inkscape:deskcolor="#505050"
     inkscape:zoom="1.8636565"
     inkscape:cx="-39.170309"
     inkscape:cy="160.43729"
     inkscape:window-width="1920"
     inkscape:window-height="1016"
     inkscape:window-x="0"
     inkscape:window-y="27"
     inkscape:window-maximized="1"
     inkscape:current-layer="Layer_1" />
  <title
     id="title1">aleph</title>
  <path
     d="M 140.21357,0.80211196 144.6701,4.0369411 V 19.962253 l -4.45653,4.727827 V 202.108 q 0,1.99067 -1.48551,2.98601 -1.18841,1.24416 -2.67392,1.24416 -1.48551,0 -2.97102,-1.24416 -1.18841,-0.99534 -1.18841,-2.98601 v -44.5411 q 0,-3.7325 -0.5942,-12.69048 -0.5942,-8.95799 -1.78261,-20.65314 -0.89131,-11.94399 -2.67392,-25.6298 Q 125.35847,84.658835 123.27876,71.22185 121.49615,57.536035 119.11933,45.592051 116.74252,33.399235 114.0686,24.69008 H 87.032322 q -1.188407,0 -2.079714,0.248832 -1.782611,0.497666 -1.782611,2.239498 v 85.84738 q 0,2.73716 -2.97102,2.73716 -2.971014,0 -2.971014,-2.73716 Q 75.742445,89.137827 72.77143,72.466015 69.800405,55.545371 65.938079,45.094385 62.372858,34.394567 57.916336,29.666739 53.756907,24.69008 49.894581,24.69008 h -5.94204 q -3.565221,0 -4.753636,4.976659 -0.8913,4.727828 -1.188403,10.202153 -0.297104,7.713823 -3.565222,13.188149 -2.971026,5.225493 -8.021755,8.957988 -5.050729,3.732495 -12.181183,6.220825 -6.83334,2.48833 -15.15219804,4.230161 L 2.358273,58.282534 q 0.8913,-4.230161 5.3478327,-5.971992 4.4565323,-1.990664 9.2101583,-3.483661 4.753636,-1.492999 8.615961,-3.732496 3.862326,-2.239497 3.862326,-6.967324 0,-5.723159 -2.673922,-9.455654 Q 24.343811,24.69008 13.648146,24.69008 L 9.7858202,21.704084 V 9.7600997 L 21.075693,0.80211196 Z"
     id="text1"
     style="-inkscape-font-specification:Dyuthi;stroke-width:19.643;stroke-linecap:round;stroke-linejoin:round;paint-order:stroke markers fill"
     aria-label="ཀ&#10;" />
</svg>
