<svg width="12" height="16" viewBox="0 0 12 16" fill="none" xmlns="http://www.w3.org/2000/svg">
<path d="M9.74648 1.35037C10.712 1.70345 11.1963 2.33527 11.1963 3.25203C11.156 4.10664 10.8341 4.92262 10.2825 5.56872H10.0511V5.05459C10.062 4.92522 10.031 4.79578 9.96273 4.68602C9.90486 4.6086 9.77085 4.56833 9.56069 4.56833C9.1681 5.16364 8.83545 5.79763 8.56777 6.4607C8.38488 6.93678 8.2879 7.44248 8.28147 7.95354C8.28424 8.66034 8.5422 9.34149 9.00636 9.8676L10.2673 11.3511C10.9243 12.0361 11.3047 12.9468 11.3333 13.9032C11.3301 14.304 11.2409 14.6992 11.072 15.0613C10.9032 15.4235 10.6587 15.7438 10.3556 16H9.99015C9.9826 15.3339 9.72932 14.695 9.28048 14.2098L3.36863 7.30314C2.35337 7.8214 1.84574 8.48729 1.84574 9.30081C1.85162 9.63687 1.94065 9.96601 2.10463 10.2578C2.28154 10.5844 2.49516 10.8889 2.7412 11.1653L3.49351 12.0108C3.74034 12.2938 3.95303 12.6057 4.12703 12.94C4.29117 13.2374 4.38013 13.5715 4.38592 13.9125C4.38101 14.3735 4.22204 14.8191 3.93514 15.1762C3.83256 15.3419 3.69368 15.4812 3.52936 15.5833C3.36504 15.6854 3.17972 15.7474 2.98791 15.7646H0.368539V15.3744C0.913733 15.2288 1.18481 14.9098 1.18481 14.4173C1.18481 14.1696 0.989877 13.5656 0.593926 12.6086C0.197975 11.6516 0 10.9547 0 10.5304C0 9.08504 0.950282 7.81417 2.85085 6.71777L1.18785 4.78823C0.546117 4.10172 0.176262 3.19842 0.149243 2.25165C0.161747 1.40736 0.494576 0.600638 1.0782 0L1.42847 0C1.41566 0.714047 1.66673 1.407 2.13204 1.94193L7.26722 7.86372C7.49975 6.64711 7.96659 5.48927 8.64087 4.45683C7.28651 4.24003 6.60933 3.39244 6.60933 1.91405C6.5943 1.23208 6.79034 0.562546 7.16976 0L7.52307 0C7.57899 0.261827 7.70779 0.501774 7.8941 0.69123C8.08041 0.880686 8.31638 1.01166 8.57386 1.06853L9.74648 1.35037Z" fill="#666666"/>
</svg>
