<svg width="17" height="16" viewBox="0 0 17 16" fill="none" xmlns="http://www.w3.org/2000/svg">
<path d="M11.6162 13.6672C11.8047 14.2327 11.9225 14.6568 11.9225 14.9161C11.9225 15.1517 11.5926 15.2931 11.0978 15.3402L10.4144 15.4109C10.2495 15.5287 10.273 15.9057 10.4615 16C11.1449 15.9764 12.0403 15.9293 13.1714 15.9293C14.2318 15.9293 15.0565 15.9529 16.0227 16C16.1405 15.9057 16.1876 15.5287 16.0227 15.4109L15.3864 15.3402C14.3732 15.2224 14.0668 14.8689 13.3835 12.8424L10.1552 3.36966C9.80175 2.33284 9.42472 1.2489 9.11839 0.212077C9.07126 0.0471289 8.90631 0 8.76493 0C8.50572 0.306333 8.10513 0.730486 7.5396 0.895436C7.61029 1.27246 7.4689 1.72018 7.13901 2.56848L4.73547 8.93078C3.74578 11.57 3.08599 13.1016 2.66183 14.1856C2.33194 15.0339 1.81353 15.2931 1.24799 15.3402L0.470377 15.4109C0.328993 15.5287 0.376121 15.9057 0.517505 16C1.15373 15.9764 2.00204 15.9293 2.77966 15.9293C3.88717 15.9529 4.61765 15.9529 5.23032 16C5.44239 15.9057 5.44239 15.5287 5.27745 15.4109L4.49983 15.3402C3.93429 15.2931 3.81647 15.1517 3.81647 14.8689C3.81647 14.6097 3.98142 13.9735 4.33488 12.9131L5.15963 10.4389C5.32457 9.94404 5.46596 9.87334 6.05506 9.87334H9.61323C10.3202 9.87334 10.4144 9.94404 10.5794 10.4624L11.6162 13.6672ZM7.39821 4.2651C7.65742 3.55817 7.89306 2.99264 7.96375 2.87482H8.01088C8.15226 3.15758 8.36434 3.79381 8.55285 4.35935L9.82531 8.2003C10.0374 8.83652 9.99026 8.93078 9.3069 8.93078H6.40852C5.74873 8.93078 5.72516 8.90722 5.91368 8.36524L7.39821 4.2651Z" fill="#666666"/>
</svg>
