<?xml version="1.0" encoding="UTF-8"?>
<svg id="Layer_2" data-name="Layer 2" xmlns="http://www.w3.org/2000/svg" viewBox="0 0 956.19 155.35">
  <defs>
    <style>
      .cls-1 {
        fill: #231f20;
      }

      .cls-2 {
        fill: #0b3560;
      }
    </style>
  </defs>
  <g id="Layer_1-2" data-name="Layer 1">
    <g>
      <path class="cls-2" d="M114.61,61.33c-2.47-15.9-5.67-33.19-19.48-42.74-8.37-5.82-17-6.25-26.65-6.25-6.58,0-29.77-.28-39.93-.28S12.12,3.95,12.12,0C5.69,7.87.77,16.57,2.5,27.09c1.55,9.47,8.04,15.52,17.54,16.72C9.27,59.01-.46,76.52.02,95.06c.3,11.69,2.98,58.06,55.41,58.06h9.55c22.39,0,35.95-16.62,39.89-23.01,11.59-18.9,13.53-48.15,9.86-68.68M106.7,98.25c-3.96,18.59-17.41,26.48-47.37,26.48-73.63,0-47.54-59.18-37.25-71.37,4.32-5.41,7.35-9.86,18.33-9.86h20.89c29.13,0,34.68,1.38,41.98,16.27,3.95,8.02,6.23,25.33,3.42,38.51"/>
      <path class="cls-1" d="M917.84,155.35l38.35-88.12h-12.41l-16.75,38.47-18.24-38.47h-12.66l24.95,52.25-15.76,35.87h12.53ZM889.99,66.37c-1.37-.25-3.35-.37-4.59-.37-8.56,0-14.64,3.97-17.5,7.94v-6.7h-11.42v58.33h11.79v-38.6c3.23-5.59,9.68-9.8,15.76-9.8,1.86,0,3.23.12,4.59.5l1.37-11.29ZM827.59,107.32c-3.97,5.34-10.05,8.32-16.01,8.32-11.29,0-19.36-8.81-19.36-19.24s7.45-19.24,18.74-19.24c7.07,0,13.03,3.6,16.63,8.32v21.84ZM827.96,125.57h11.42v-58.33h-11.42v5.34c-5.34-4.59-11.67-6.58-18.24-6.58-5.46,0-10.3,1.36-14.27,3.72-8.81,5.21-15.02,15.02-15.02,26.68s6.08,21.35,14.89,26.56c3.97,2.36,9.43,3.85,14.64,3.85,6.95,0,13.28-2.36,18-6.58v5.34ZM775.59,66.37c-1.36-.25-3.35-.37-4.59-.37-8.56,0-14.64,3.97-17.5,7.94v-6.7h-11.42v58.33h11.79v-38.6c3.23-5.59,9.68-9.8,15.76-9.8,1.86,0,3.23.12,4.59.5l1.36-11.29ZM681.82,85.48c3.6-4.72,9.56-8.32,16.63-8.32,11.29,0,18.74,9.06,18.74,19.24s-8.07,19.24-19.36,19.24c-5.96,0-12.04-2.98-16.01-8.32v-21.84ZM681.44,120.23c4.72,4.22,11.05,6.58,18,6.58,5.21,0,10.67-1.49,14.64-3.85,8.81-5.21,14.89-14.89,14.89-26.56s-6.2-21.47-15.02-26.68c-3.97-2.36-8.81-3.72-14.27-3.72-6.33,0-12.66,1.99-17.87,6.33v-34.87h-11.79v88.12h11.42v-5.34ZM639.37,46.51c0,4.34,3.35,7.69,7.69,7.69s7.82-3.35,7.82-7.69-3.47-7.82-7.82-7.82-7.69,3.47-7.69,7.82M641.23,125.57h11.79v-58.33h-11.79v58.33ZM593.53,38.69h-12.41v86.87h50.88v-11.79h-38.47V38.69ZM529.61,107.32c-3.97,5.34-10.05,8.32-16.01,8.32-11.29,0-19.36-8.81-19.36-19.24s7.45-19.24,18.74-19.24c7.07,0,13.03,3.6,16.63,8.32v21.84ZM529.98,125.57h11.42v-58.33h-11.42v5.34c-5.34-4.59-11.67-6.58-18.24-6.58-5.46,0-10.3,1.36-14.27,3.72-8.81,5.21-15.02,15.02-15.02,26.68s6.08,21.35,14.89,26.56c3.97,2.36,9.43,3.85,14.65,3.85,6.95,0,13.28-2.36,17.99-6.58v5.34ZM456.07,46.51c0,4.34,3.35,7.69,7.69,7.69s7.82-3.35,7.82-7.69-3.48-7.82-7.82-7.82-7.69,3.47-7.69,7.82M457.93,125.57h11.79v-58.33h-11.79v58.33ZM447.58,66.37c-1.36-.25-3.35-.37-4.59-.37-8.56,0-14.64,3.97-17.5,7.94v-6.7h-11.42v58.33h11.79v-38.6c3.23-5.59,9.68-9.8,15.76-9.8,1.86,0,3.23.12,4.59.5l1.36-11.29ZM385.18,107.32c-3.97,5.34-10.05,8.32-16.01,8.32-11.29,0-19.36-8.81-19.36-19.24s7.45-19.24,18.74-19.24c7.07,0,13.03,3.6,16.63,8.32v21.84ZM385.55,125.57h11.42v-58.33h-11.42v5.34c-5.34-4.59-11.67-6.58-18.24-6.58-5.46,0-10.3,1.36-14.27,3.72-8.81,5.21-15.02,15.02-15.02,26.68s6.08,21.35,14.89,26.56c3.97,2.36,9.43,3.85,14.64,3.85,6.95,0,13.28-2.36,18-6.58v5.34ZM332.43,37.08c-1.61-.49-4.47-.87-6.95-.87-7.94,0-14.89,3.6-19.11,9.68-2.61,3.72-3.72,8.56-3.72,16.38v4.96h-13.65v10.55h13.65v47.78h11.79v-47.78h17.99v-10.55h-17.99v-5.34c0-5.34.62-8.31,2.23-10.43,1.99-2.6,5.59-4.09,8.93-4.09,1.61,0,3.48.25,4.34.5l2.48-10.8ZM255.67,76.3c6.95,0,13.65,5.21,15.39,12.66h-31.77c1.99-7.57,8.81-12.66,16.38-12.66M283.23,98.88c.12-1.12.12-1.99.12-2.48,0-17.25-11.79-30.4-28.05-30.4s-28.42,12.91-28.42,30.4,13.16,30.41,30.16,30.41c11.91,0,20.23-5.34,24.57-10.92l-7.69-7.32c-3.35,3.72-8.07,7.94-16.75,7.94-10.18,0-18.24-7.82-18.87-17.62h44.93ZM161.38,112.29c7.69,9.31,18.49,14.52,30.41,14.52,15.14,0,26.93-9.93,26.93-25.19,0-9.93-5.46-16.01-11.29-19.86-11.17-7.45-29.66-9.8-29.66-20.85,0-7.57,7.2-11.67,14.4-11.67,5.46,0,10.8,1.99,15.51,5.96l7.32-9.06c-4.59-3.85-12.29-8.69-23.33-8.69-15.14,0-26.31,10.43-26.31,23.08,0,9.06,4.84,15.02,11.05,19.11,11.54,7.57,29.91,9.06,29.91,22.34,0,7.82-7.07,13.03-15.14,13.03-8.93,0-16.13-4.96-21.22-11.17l-8.56,8.44Z"/>
    </g>
  </g>
</svg>