<?xml version="1.0" encoding="UTF-8"?>
<svg id="Layer_2" data-name="Layer 2" xmlns="http://www.w3.org/2000/svg" viewBox="0 0 861.37 153.12">
  <defs>
    <style>
      .cls-1 {
        fill: #231f20;
      }

      .cls-2 {
        fill: #0b3560;
      }
    </style>
  </defs>
  <g id="Layer_1-2" data-name="Layer 1">
    <g>
      <path class="cls-2" d="M859.56,61.33c-2.47-15.9-5.67-33.19-19.48-42.74-8.37-5.82-17-6.25-26.65-6.25-6.58,0-29.77-.28-39.93-.28s-16.44-8.12-16.44-12.07c-6.43,7.87-11.34,16.57-9.62,27.09,1.55,9.47,8.04,15.52,17.54,16.72-10.77,15.21-20.5,32.71-20.02,51.25.3,11.69,2.98,58.06,55.41,58.06h9.55c22.39,0,35.95-16.62,39.89-23.01,11.59-18.9,13.53-48.15,9.86-68.68M851.65,98.25c-3.96,18.59-17.41,26.48-47.37,26.48-73.63,0-47.54-59.18-37.25-71.37,4.32-5.41,7.35-9.86,18.33-9.86h20.89c29.13,0,34.68,1.38,41.98,16.27,3.94,8.02,6.23,25.33,3.42,38.51"/>
      <path class="cls-1" d="M641.82,89.01c0-15.53,10.6-26.75,25.4-26.75s25.52,11.22,25.52,26.75-10.85,27-25.52,27-25.4-11.34-25.4-27M667.21,126.36c21.33,0,37.35-16.52,37.35-37.35s-15.9-37.11-37.23-37.11-37.35,16.4-37.35,37.23,15.9,37.23,37.23,37.23M558.48,124.64h29.59c18.61,0,29.46-10.11,29.46-27.98v-43.27h-59.05v41.42h25.4v-11.1h-14.43v-19.23h36.99v31.19c0,11.59-6.41,17.88-18.99,17.88h-28.97v11.1ZM529.75,83.46v41.18h11.1v-41.3c0-19.72-12.45-29.96-31.81-29.96h-24.04v11.1h23.92c14.05,0,20.83,6.9,20.83,18.99M463.79,96.28h11.1v-42.9h-11.1v42.9ZM439.88,96.28h11.1v-42.9h-11.1v42.9ZM413,69.53v55.11h11.09v-59.42c0-7.15-4.68-11.84-11.84-11.84h-57.82v11.1h11.84v49.07h-11.84v11.1h22.93v-60.16h30.7c2.96,0,4.93,2.1,4.93,5.05M256.06,89.01c0-15.53,10.6-26.75,25.4-26.75s25.52,11.22,25.52,26.75-10.85,27-25.52,27-25.4-11.34-25.4-27M281.46,126.36c21.33,0,37.36-16.52,37.36-37.35s-15.9-37.11-37.23-37.11-37.36,16.4-37.36,37.23,15.9,37.23,37.23,37.23M172.72,124.64h29.59c18.61,0,29.47-10.11,29.47-27.98v-43.27h-59.05v41.42h25.4v-11.1h-14.42v-19.23h36.99v31.19c0,11.59-6.41,17.88-18.99,17.88h-28.97v11.1ZM143.99,83.46v41.18h11.1v-41.3c0-19.72-12.45-29.96-31.81-29.96h-24.04v11.1h23.92c14.05,0,20.83,6.9,20.83,18.99M78.04,96.28h11.1v-42.9h-11.1v42.9ZM51.65,124.64h13.81l-18.12-25.03,16.15-16.15v-30.08h-11.1v25.52l-11.59,11.59L14.05,53.38H0l13.07,18C4.44,79.64.49,91.72.49,104.17v20.47h11.1v-22.07c0-6.66,1.48-15.41,7.77-22.44l32.3,44.5Z"/>
    </g>
  </g>
</svg>