<?xml version="1.0" encoding="utf-8"?>
<!-- Generator: Adobe Illustrator 24.2.3, SVG Export Plug-In . SVG Version: 6.00 Build 0)  -->
<svg version="1.1" id="Layer_1" xmlns="http://www.w3.org/2000/svg" xmlns:xlink="http://www.w3.org/1999/xlink" x="0px" y="0px"
	 viewBox="0 0 341 93.2" style="enable-background:new 0 0 341 93.2;" xml:space="preserve">
<style type="text/css">
	.st0{fill:#FFFFFF;}
</style>
<path d="M23.2,90H1l1.6-23.1h10.6c-0.6-4.1-1.1-7.6-1.4-10.7c-0.3-3-0.6-6.3-0.6-9.8c-0.1-3.5,0.2-6.9,0.7-10.3
	c0.5-3.4,1.5-6.6,2.8-9.6H9.1c-1.1,0-2-0.2-2.8-0.5c-0.8-0.3-1.5-0.8-2-1.6c-0.5-0.7-0.9-1.7-1.2-2.8c-0.3-1.1-0.4-2.4-0.4-4V3.4
	h59.7c3.3,0,6.2,0.4,8.7,1.3c2.5,0.9,4.5,2.2,6.2,4c1.7,1.8,3,4.2,3.8,7.1c0.8,2.9,1.3,6.4,1.3,10.4v50.3c0,1.8-0.5,3.6-1.6,5.3
	c-1.1,1.7-2.5,3.1-4.4,4.3c-1.8,1.2-4,2.1-6.3,2.8c-2.4,0.7-4.8,1-7.4,1V35.6c0-1.5-0.2-2.9-0.6-4c-0.4-1.1-0.9-2.1-1.7-2.8
	c-0.7-0.8-1.7-1.3-2.8-1.7c-1.2-0.4-2.5-0.6-4-0.6H33.8c-1.8,4.5-3,9.3-3.3,14.3c-0.4,5-0.4,9.6,0.1,13.7c0.4,4.2,1,8.7,1.8,13.6
	c0.8,4.9,1.2,8.1,1.2,9.6c0,2.2-0.2,4.1-0.6,5.7c-0.4,1.6-1,2.8-1.8,3.8c-0.8,1-1.8,1.7-3.1,2.1c-1.3,0.4-2.8,0.6-4.7,0.6H23.2z"/>
<g>
	<path d="M61.5,51.1l0-1c0-5.2-0.1-15.2-0.2-16.1c-0.1-0.9-0.3-1.7-0.6-2.5c-0.3-0.7-0.7-1.4-1.3-2c-0.6-0.6-1.4-1.1-2.3-1.5
		c-0.8-0.3-5.1-0.6-7-0.6h-3.8c-1.3,0-2.5-0.2-3.5-0.6c-1.1-0.4-2.1-1.1-2.8-2c-0.7-0.9-1.3-1.9-1.7-3.1c-0.4-1.2-0.6-2.6-0.6-4.1
		V2.4h24.3c2.8,0,5.4,0.3,7.6,0.8c2.3,0.5,4.3,1.4,6,2.6c1.7,1.2,3.2,2.8,4.3,4.8c1.1,2,2.5,5.7,2.9,8.4c0.5,3.5,0.5,5.9,0.5,8.8
		c0,0.6,0,1.3,0,2l0,9.2L83,39c-0.3,1.2-0.8,2.4-1.5,3.5c-1.2,1.8-2.7,3.3-4.7,4.6c-1.9,1.2-4.1,2.2-6.6,2.9c-2.5,0.7-5,1.1-7.7,1.1
		H61.5z"/>
	<path class="st0" d="M61.9,3.4c2.8,0,5.2,0.3,7.4,0.8c2.2,0.5,4,1.3,5.7,2.4c1.6,1.1,2.9,2.6,4,4.4c1,1.8,2.4,5.4,2.8,8.1
		c0.6,4.2,0.5,6.8,0.5,10.7l0,9.2l-0.1-1.1c-0.2,1.4-0.7,2.8-1.5,4.1c-1.1,1.7-2.5,3.1-4.4,4.3c-1.8,1.2-4,2.1-6.3,2.8
		c-2.4,0.7-4.8,1-7.4,1c0,0-0.1-14.9-0.2-16.2c-0.1-1-0.3-1.9-0.6-2.8c-0.3-0.8-0.9-1.6-1.6-2.3c-0.7-0.7-1.6-1.3-2.7-1.7
		c-1.1-0.4-5.8-0.6-7.4-0.6h-3.8c-1.2,0-2.2-0.2-3.2-0.6c-1-0.4-1.8-1-2.4-1.7c-0.7-0.8-1.2-1.7-1.5-2.8c-0.3-1.1-0.5-2.3-0.5-3.8
		V3.4H61.9 M61.9,1.4H38.6h-2v2v14.2c0,1.7,0.2,3.1,0.6,4.4c0.4,1.3,1.1,2.5,1.9,3.5c0.9,1,1.9,1.8,3.2,2.3c1.2,0.5,2.5,0.7,3.9,0.7
		h3.8c1.9,0,5.9,0.2,6.7,0.5c0.8,0.3,1.5,0.7,2,1.2c0.5,0.5,0.9,1.1,1.1,1.7c0.3,0.6,0.4,1.4,0.5,2.2c0,0.8,0.1,10,0.2,16l0,2h2
		c2.7,0,5.4-0.4,7.9-1.1c2.6-0.7,4.9-1.8,6.9-3.1c2.1-1.3,3.7-3,5-4.9c0.8-1.3,1.4-2.6,1.7-4l0.2,0l0-9.2c0-0.8,0-1.4,0-2.1
		c0-2.9-0.1-5.3-0.5-8.9c-0.4-2.9-1.8-6.7-3-8.8C79.5,8,77.9,6.2,76.1,5c-1.8-1.3-3.9-2.2-6.3-2.7C67.4,1.7,64.8,1.4,61.9,1.4
		L61.9,1.4z"/>
</g>
<g>
	<path d="M131.8,28.6v41.5h-7.7V28.6h-11.7v-6.9h31v6.9H131.8z"/>
	<path d="M147.3,54.6c0-4.4,1.7-8.2,5-11.3c3.3-3.1,7.4-4.6,12.1-4.6c4.8,0,8.8,1.6,12.2,4.7c3.3,3.1,4.9,6.9,4.9,11.5
		c0,4.6-1.7,8.4-5,11.5c-3.3,3.1-7.4,4.6-12.3,4.6c-4.8,0-8.8-1.6-12.1-4.7C148.9,63.2,147.3,59.3,147.3,54.6z M154.9,54.7
		c0,3.1,0.9,5.5,2.6,7.2c1.8,1.8,4.1,2.7,6.9,2.7c2.9,0,5.2-0.9,6.9-2.7c1.7-1.8,2.6-4.1,2.6-7.1c0-3-0.9-5.3-2.6-7.1
		c-1.8-1.8-4.1-2.7-6.9-2.7c-2.8,0-5.1,0.9-6.9,2.7C155.8,49.6,154.9,51.9,154.9,54.7z"/>
	<path d="M189.4,39.6h7.4v2.7c1.4-1.4,2.6-2.3,3.6-2.8c1.1-0.5,2.3-0.8,3.8-0.8c2,0,4,0.6,6.1,1.8l-3.4,6.5c-1.4-1-2.8-1.4-4.1-1.4
		c-4,0-6.1,2.9-6.1,8.7v15.8h-7.4V39.6z"/>
	<path d="M238.2,39.6h7.4v30.5h-7.4v-3.2c-3.1,2.7-6.3,4.1-9.8,4.1c-4.4,0-8.1-1.5-11-4.6c-2.9-3.1-4.3-7-4.3-11.7
		c0-4.6,1.4-8.4,4.3-11.4c2.9-3.1,6.5-4.6,10.8-4.6c3.7,0,7.1,1.5,10,4.4V39.6z M220.6,54.7c0,2.9,0.8,5.3,2.5,7.1
		c1.7,1.9,3.8,2.8,6.4,2.8c2.7,0,5-0.9,6.6-2.7c1.7-1.9,2.5-4.2,2.5-7.1c0-2.9-0.8-5.2-2.5-7.1c-1.7-1.8-3.9-2.7-6.6-2.7
		c-2.5,0-4.7,0.9-6.4,2.8C221.5,49.7,220.6,52,220.6,54.7z"/>
	<path d="M262.6,46.2v24h-7.4v-24h-3.2v-6.6h3.2V28.4h7.4v11.2h5.8v6.6H262.6z"/>
	<path d="M297.1,39.6h7.4v30.5h-7.4v-3.2c-3.1,2.7-6.3,4.1-9.8,4.1c-4.4,0-8.1-1.5-11-4.6c-2.9-3.1-4.3-7-4.3-11.7
		c0-4.6,1.4-8.4,4.3-11.4c2.9-3.1,6.5-4.6,10.8-4.6c3.7,0,7.1,1.5,10,4.4V39.6z M279.5,54.7c0,2.9,0.8,5.3,2.5,7.1
		c1.7,1.9,3.8,2.8,6.4,2.8c2.7,0,5-0.9,6.6-2.7c1.7-1.9,2.5-4.2,2.5-7.1c0-2.9-0.8-5.2-2.5-7.1c-1.7-1.8-3.9-2.7-6.6-2.7
		c-2.5,0-4.7,0.9-6.4,2.8C280.3,49.7,279.5,52,279.5,54.7z"/>
	<path d="M313.9,17.2h7.4v25c2.6-2.3,5.5-3.4,8.7-3.4c3.6,0,6.5,1.1,8.7,3.4c1.8,1.9,2.8,5,2.8,9.3v18.7H334V52
		c0-2.4-0.5-4.2-1.4-5.3c-0.9-1.1-2.4-1.6-4.4-1.6c-2.6,0-4.4,0.8-5.5,2.3c-1,1.5-1.5,4.2-1.5,8v14.8h-7.4V17.2z"/>
</g>
</svg>
