<svg id="Layer_1" data-name="Layer 1" xmlns="http://www.w3.org/2000/svg" viewBox="0 0 337.28 72.42"><title>LOGO2</title><path d="M80.7,52.71L84.85,47a18.38,18.38,0,0,0,13.48,5.88c6.13,0,8.56-3,8.56-5.81,0-3.83-4.54-5-9.71-6.33C90.22,39,82,36.93,82,27.92c0-7,6.2-12.46,15.52-12.46,6.64,0,12,2.11,16,5.94L109.26,27a17.32,17.32,0,0,0-12.33-4.86c-4.41,0-7.22,2.11-7.22,5.3s4.34,4.41,9.39,5.69c7,1.79,15.4,4,15.4,13.22,0,7.09-5,13.16-16.48,13.16C90.16,59.48,84.47,56.74,80.7,52.71Z"/><path d="M122.68,58.72V16.1h29.2v6.58H130.15V33.74h21.27v6.58H130.15V52.14h21.72v6.58h-29.2Z"/><path d="M160.82,58.72V16.1H190v6.58H168.29V33.74h21.27v6.58H168.29v18.4h-7.48Z"/><path d="M225.28,58.72l-3.13-8.18H202.6l-3.13,8.18H191L207.71,16.1H217l16.74,42.61h-8.5ZM212.38,23.64L204.71,44H220Z"/><path d="M264.07,58.72l-9.46-15.91H247.2V58.72h-7.48V16.1h18.72c8.43,0,13.93,5.49,13.93,13.35,0,7.6-5,11.69-10.09,12.52l10.41,16.74h-8.62Zm0.64-29.26c0-4.09-3.07-6.77-7.28-6.77H247.2V36.23h10.22C261.64,36.23,264.7,33.54,264.7,29.46Z"/><path d="M281.12,58.72V16.1h7.48V58.72h-7.48Z"/><path d="M328.79,58.72l-3.13-8.18H306.11L303,58.72h-8.5L311.22,16.1h9.33l16.74,42.61h-8.5ZM315.88,23.64L308.21,44h15.33Z"/><path d="M27.87,20.68H18.6c-0.63,0-1.26.05-1.89,0.09-0.84.05-1.68,0.15-2.52,0.17a1.76,1.76,0,0,0-1.23.48A30.86,30.86,0,0,0,6.7,29a26.46,26.46,0,0,0-3.17,8.74,29.41,29.41,0,0,0-.4,3.89,22.13,22.13,0,0,0,.5,6,12.29,12.29,0,0,0,5.46,7.78,18.71,18.71,0,0,0,4.62,2.09,34.76,34.76,0,0,0,7.24,1.33q2.52,0.22,5.06.21,2.14,0,4.29,0,2.43,0,4.84-.25a40.7,40.7,0,0,0,4.64-.66,22.4,22.4,0,0,0,4.47-1.39,12.64,12.64,0,0,0,7.09-7.44,21.07,21.07,0,0,0,1.18-6.34,47.77,47.77,0,0,0-.09-5.38,36.19,36.19,0,0,0-.6-4.67,21.13,21.13,0,0,0-1.39-4.5,12.6,12.6,0,0,0-3-4.24,12.22,12.22,0,0,0-4.95-2.67,21.84,21.84,0,0,0-5.84-.79c-2.93,0-5.87,0-8.8,0M5.76,0C5.82,0.2,5.86.33,5.9,0.47A5.8,5.8,0,0,0,7.58,3,9.9,9.9,0,0,0,11.15,5a14.19,14.19,0,0,0,3.69.76c0.83,0.06,1.67.1,2.5,0.1,5.9,0,11.8,0,17.7,0A15.14,15.14,0,0,1,42.74,8a18.77,18.77,0,0,1,6,5.51,27.86,27.86,0,0,1,3.4,6.46,42.49,42.49,0,0,1,1.93,6.89,54.79,54.79,0,0,1,.83,5.77c0.13,1.52.24,3,.29,4.57s0.07,3.27,0,4.9a44,44,0,0,1-.46,5.62,38.93,38.93,0,0,1-2.24,8.75,29.14,29.14,0,0,1-4.7,8.1,22.79,22.79,0,0,1-7.54,6A18.05,18.05,0,0,1,35,72.26a14.45,14.45,0,0,1-2.15.15c-3.27,0-6.54,0-9.81,0a22.87,22.87,0,0,1-10.82-2.7,20.39,20.39,0,0,1-8.11-8A27.73,27.73,0,0,1,1.23,54.6a39.48,39.48,0,0,1-.92-5.13A49.56,49.56,0,0,1,0,43.3,18.74,18.74,0,0,1,.62,39a41.13,41.13,0,0,1,2.72-7.44,74.43,74.43,0,0,1,6-10.47l0.19-.28L9,20.73a11.8,11.8,0,0,1-2.93-.88A8.06,8.06,0,0,1,1.72,15a12.75,12.75,0,0,1-.65-3.23c0-.35,0-0.69-0.06-1a10.51,10.51,0,0,1,.84-4.55A21.06,21.06,0,0,1,4.91,1C5.17,0.7,5.45.38,5.76,0"/></svg>