<svg width="24" height="24" viewBox="0 0 24 24" fill="none" xmlns="http://www.w3.org/2000/svg">
<path d="M8.3406 7.27334L12.8625 12.9231H10.353L3.98845 4.98054C3.12368 5.47055 2.6913 6.31161 2.6913 7.50372V12.9231H0.509164V8.23874C0.509164 7.11976 0.719296 6.20556 1.13956 5.49615C1.55982 4.77942 2.21042 4.23821 3.09136 3.87253L0 0H2.52158L6.94646 5.52906L10.3894 0H12.9231L8.3406 7.27334Z" fill="#999999"/>
<path d="M20.5161 20.1124H15.4839L14.4396 23.0769H12L16.9422 10.1538H18.4906H19.0398L24 23.0769H21.5604L20.5161 20.1124ZM19.859 18.2574L17.9955 12.9585L16.132 18.2574H19.859Z" fill="#999999"/>
</svg>
