<svg width="18" height="11" viewBox="0 0 18 11" fill="none" xmlns="http://www.w3.org/2000/svg">
<path d="M11.7581 1.74194C11.9985 1.74194 12.1935 1.93703 12.1935 2.17742V8.27419C12.1935 8.51458 11.9985 8.70968 11.7581 8.70968H2.17742C1.93703 8.70968 1.74194 8.51458 1.74194 8.27419V2.17742C1.74194 1.93703 1.93703 1.74194 2.17742 1.74194H11.7581ZM13.9355 1.74194C13.9355 0.780387 13.1551 0 12.1935 0H1.74194C0.780387 0 0 0.780387 0 1.74194V8.70968C0 9.67123 0.780387 10.4516 1.74194 10.4516H12.1935C13.1551 10.4516 13.9355 9.67123 13.9355 8.70968V1.74194ZM16.2581 3.35671V7.09577L13.9355 5.86945V4.58216L16.2581 3.35671ZM18 0L12.1935 3.6781V6.77352L18 10.4516V0Z" fill="#000000"/>
</svg>

