<svg width="1072" height="154" viewBox="0 0 1072 154" fill="none" xmlns="http://www.w3.org/2000/svg">
<g clip-path="url(#clip0_1_12)">
<path d="M114.61 61.33C112.14 45.43 108.94 28.14 95.13 18.59C86.76 12.77 78.13 12.34 68.48 12.34C61.9 12.34 38.71 12.06 28.55 12.06C18.39 12.06 12.12 3.95 12.12 0C5.68998 7.87 0.769975 16.57 2.49998 27.09C4.04998 36.56 10.54 42.61 20.04 43.81C9.26998 59.01 -0.460025 76.52 0.0199753 95.06C0.319975 106.75 2.99998 153.12 55.43 153.12H64.98C87.37 153.12 100.93 136.5 104.87 130.11C116.46 111.21 118.4 81.96 114.73 61.43M106.7 98.25C102.74 116.84 89.29 124.73 59.33 124.73C-14.3 124.73 11.79 65.55 22.08 53.36C26.4 47.95 29.43 43.5 40.41 43.5H61.3C90.43 43.5 95.98 44.88 103.28 59.77C107.23 67.79 109.51 85.1 106.7 98.28" fill="#518159"/>
<path d="M1059.32 107.32C1055.35 112.66 1049.27 115.64 1043.31 115.64C1032.02 115.64 1023.95 106.83 1023.95 96.4C1023.95 85.97 1031.4 77.16 1042.69 77.16C1049.77 77.16 1055.72 80.76 1059.32 85.47V107.31V107.32ZM1059.69 125.57H1071.11V67.24H1059.69V72.57C1054.35 67.98 1048.02 65.99 1041.45 65.99C1035.99 65.99 1031.15 67.35 1027.18 69.71C1018.37 74.92 1012.16 84.73 1012.16 96.39C1012.16 108.05 1018.24 117.74 1027.05 122.95C1031.02 125.31 1036.48 126.8 1041.69 126.8C1048.64 126.8 1054.97 124.44 1059.68 120.22V125.56L1059.69 125.57ZM985.78 46.51C985.78 50.85 989.13 54.2 993.47 54.2C997.81 54.2 1001.29 50.85 1001.29 46.51C1001.29 42.17 997.82 38.69 993.47 38.69C989.12 38.69 985.78 42.17 985.78 46.51ZM987.64 125.57H999.43V67.24H987.64V125.57ZM977.29 66.37C975.92 66.12 973.94 66 972.7 66C964.14 66 958.05 69.97 955.2 73.94V67.24H943.78V125.57H955.57V86.97C958.8 81.38 965.25 77.17 971.33 77.17C973.19 77.17 974.56 77.29 975.92 77.66L977.29 66.37ZM914.89 107.32C910.92 112.66 904.84 115.64 898.88 115.64C887.59 115.64 879.52 106.83 879.52 96.4C879.52 85.97 886.97 77.16 898.26 77.16C905.33 77.16 911.29 80.76 914.89 85.47V107.31V107.32ZM915.26 125.57H926.68V67.24H915.26V72.57C909.92 67.98 903.59 65.99 897.02 65.99C891.56 65.99 886.72 67.35 882.75 69.71C873.94 74.92 867.73 84.73 867.73 96.39C867.73 108.05 873.81 117.74 882.62 122.95C886.59 125.31 892.05 126.8 897.27 126.8C904.22 126.8 910.55 124.44 915.26 120.22V125.56V125.57ZM862.14 37.08C860.53 36.58 857.67 36.21 855.19 36.21C847.25 36.21 840.3 39.81 836.08 45.89C833.47 49.61 832.36 54.45 832.36 62.27V67.23H818.71V77.78H832.36V125.56H844.15V77.78H862.15V67.23H844.15V61.89C844.15 56.55 844.77 53.57 846.38 51.46C848.37 48.85 851.97 47.37 855.31 47.37C856.92 47.37 858.79 47.62 859.66 47.86L862.14 37.06V37.08ZM785.38 76.3C792.33 76.3 799.03 81.51 800.77 88.96H769C770.99 81.39 777.81 76.3 785.38 76.3ZM812.93 98.88C813.05 97.76 813.05 96.89 813.05 96.4C813.05 79.15 801.26 65.99 785 65.99C768.74 65.99 756.58 78.9 756.58 96.4C756.58 113.9 769.74 126.81 786.74 126.81C798.65 126.81 806.97 121.47 811.31 115.89L803.62 108.57C800.27 112.29 795.55 116.51 786.87 116.51C776.69 116.51 768.63 108.69 768.01 98.89H812.93V98.88ZM691.09 112.29C698.78 121.6 709.58 126.81 721.5 126.81C736.64 126.81 748.43 116.88 748.43 101.62C748.43 91.69 742.97 85.61 737.14 81.76C725.97 74.31 707.48 71.96 707.48 60.91C707.48 53.34 714.68 49.24 721.88 49.24C727.34 49.24 732.68 51.23 737.39 55.2L744.71 46.14C740.12 42.29 732.42 37.45 721.38 37.45C706.24 37.45 695.07 47.87 695.07 60.53C695.07 69.59 699.91 75.55 706.11 79.64C717.65 87.21 736.02 88.7 736.02 101.98C736.02 109.8 728.95 115.01 720.88 115.01C711.95 115.01 704.75 110.05 699.66 103.84L691.1 112.28L691.09 112.29ZM616.6 67.24H605.18V125.57H616.97V85.48C620.45 81.26 626.03 77.17 633.73 77.17C638.57 77.17 643.04 79.4 645.77 82.88C647.88 85.49 649.24 88.96 649.24 96.41V125.57H661.03V97.02C661.03 86.97 659.04 81.01 655.32 76.3C650.36 69.97 642.66 66 634.1 66C625.54 66 619.7 69.85 616.6 72.83V67.25V67.24ZM543.55 96.4C543.55 85.73 551.12 77.16 561.92 77.16C572.72 77.16 580.29 85.72 580.29 96.4C580.29 107.08 572.72 115.64 561.92 115.64C551.12 115.64 543.55 107.08 543.55 96.4ZM531.76 96.4C531.76 113.77 544.67 126.81 561.92 126.81C579.17 126.81 592.08 113.78 592.08 96.4C592.08 79.02 579.17 65.99 561.92 65.99C544.67 65.99 531.76 79.02 531.76 96.4ZM457.64 118.74C464.09 123.95 471.91 126.81 481.22 126.81C492.64 126.81 502.94 119.98 502.94 108.94C502.94 96.9 490.9 92.81 481.72 90.45C475.89 88.96 471.29 87.6 471.29 83.62C471.29 79.03 476.13 76.3 481.84 76.3C486.56 76.3 490.78 78.16 494.37 80.89L500.45 72.45C495.86 68.73 489.65 66 481.09 66C470.66 66 459.49 71.71 459.49 84.24C459.49 92.43 465.82 96.9 472.89 99.26C481.45 102.11 491.13 102.49 491.13 109.19C491.13 113.78 486.04 116.51 480.95 116.51C475.12 116.51 469.16 114.28 463.7 110.06L457.62 118.75L457.64 118.74ZM422.25 76.3C429.2 76.3 435.9 81.51 437.64 88.96H405.87C407.86 81.39 414.68 76.3 422.25 76.3ZM449.8 98.88C449.92 97.76 449.92 96.89 449.92 96.4C449.92 79.15 438.13 65.99 421.87 65.99C405.61 65.99 393.45 78.9 393.45 96.4C393.45 113.9 406.61 126.81 423.61 126.81C435.53 126.81 443.84 121.47 448.18 115.89L440.49 108.57C437.14 112.29 432.42 116.51 423.73 116.51C413.55 116.51 405.49 108.69 404.87 98.89H449.8V98.88ZM378.35 106.58C374.63 111.54 369.17 115.64 361.47 115.64C350.3 115.64 342.11 107.82 342.11 96.4C342.11 84.98 350.18 77.16 360.72 77.16C368.17 77.16 373.63 81.5 376.85 85.97L385.54 78.65C380.08 71.08 370.9 65.99 360.72 65.99C343.22 65.99 330.31 79.15 330.31 96.4C330.31 113.65 343.47 126.81 361.46 126.81C372.13 126.81 382.56 121.22 387.4 113.16L378.34 106.58H378.35ZM303.94 46.51C303.94 50.85 307.29 54.2 311.63 54.2C315.97 54.2 319.45 50.85 319.45 46.51C319.45 42.17 315.97 38.69 311.63 38.69C307.29 38.69 303.94 42.17 303.94 46.51ZM305.8 125.57H317.59V67.24H305.8V125.57ZM244.41 96.4C244.41 85.73 251.98 77.16 262.78 77.16C273.58 77.16 281.15 85.72 281.15 96.4C281.15 107.08 273.58 115.64 262.78 115.64C251.98 115.64 244.41 107.08 244.41 96.4ZM232.62 96.4C232.62 113.77 245.53 126.81 262.78 126.81C280.03 126.81 292.94 113.78 292.94 96.4C292.94 79.02 280.03 65.99 262.78 65.99C245.53 65.99 232.62 79.02 232.62 96.4ZM235.84 38.69H222.93L197.37 104.22L171.8 38.69H158.89L193.02 125.56H201.71L235.84 38.69Z" fill="#231F20"/>
</g>
<defs>
<clipPath id="clip0_1_12">
<rect width="1071.11" height="153.12" fill="white"/>
</clipPath>
</defs>
</svg>
