<svg width="912" height="154" viewBox="0 0 912 154" fill="none" xmlns="http://www.w3.org/2000/svg">
<g clip-path="url(#clip0_1_27)">
<path d="M909.96 61.33C907.49 45.43 904.29 28.14 890.48 18.59C882.11 12.77 873.48 12.34 863.83 12.34C857.25 12.34 834.06 12.06 823.9 12.06C813.74 12.06 807.46 3.93999 807.46 -0.0100098C801.03 7.85999 796.12 16.56 797.84 27.08C799.39 36.55 805.88 42.6 815.38 43.8C804.61 59.01 794.88 76.51 795.36 95.05C795.66 106.74 798.34 153.11 850.77 153.11H860.32C882.71 153.11 896.27 136.49 900.21 130.1C911.8 111.2 913.74 81.95 910.07 61.42M902.05 98.25C898.09 116.84 884.64 124.73 854.68 124.73C781.05 124.73 807.14 65.55 817.43 53.36C821.75 47.95 824.78 43.5 835.76 43.5H856.65C885.78 43.5 891.33 44.88 898.63 59.77C902.57 67.79 904.86 85.1 902.05 98.28" fill="#518159"/>
<path d="M738.94 67.68V124.64H750.04V63.49C750.04 57.45 745.97 53.38 739.93 53.38H688.4V124.64H699.5V64.48H735.62C737.59 64.48 738.95 65.84 738.95 67.69M663.08 96.28H674.18V53.38H663.08V96.28ZM592.77 124.64H659.84V113.54H648.87V83.33C648.87 63.6 636.42 53.37 617.06 53.37H594.99V64.47H616.93C630.98 64.47 637.77 71.13 637.77 83.46V113.54H592.77V124.64ZM572.7 124.64H583.8V53.38H572.7V124.64ZM546.73 83.46V124.64H557.83V83.34C557.83 63.61 545.38 53.38 526.02 53.38H501.98V64.48H525.9C539.95 64.48 546.74 71.38 546.74 83.47M484.64 96.28H495.74V53.38H484.64V96.28ZM421.17 113.54V64.47H439.29C454.08 64.47 460.62 73.35 460.62 84.94V113.54H421.17ZM410.08 124.64H471.72V84.2C471.72 64.84 459.02 53.38 439.42 53.38H410.08V124.64ZM310.34 124.64H377.41V113.54H366.44V83.33C366.44 63.6 353.99 53.37 334.63 53.37H312.56V64.47H334.5C348.55 64.47 355.34 71.13 355.34 83.46V113.54H310.34V124.64ZM244.6 89.01C244.6 73.48 255.2 62.26 269.99 62.26C284.78 62.26 295.51 73.48 295.51 89.01C295.51 104.54 284.66 116.01 269.99 116.01C255.32 116.01 244.6 104.67 244.6 89.01ZM269.99 126.36C291.32 126.36 307.35 109.84 307.35 89C307.35 68.16 291.45 51.89 270.12 51.89C248.79 51.89 232.76 68.29 232.76 89.12C232.76 109.95 248.66 126.35 269.99 126.35M163.91 124.64H193.5C212.11 124.64 222.96 114.53 222.96 96.65V53.38H163.91V94.8H189.31V83.7H174.88V64.47H211.87V95.66C211.87 107.25 205.46 113.54 192.88 113.54H163.91V124.64ZM138.66 83.46V124.64H149.76V83.34C149.76 63.61 137.31 53.38 117.95 53.38H93.91V64.48H117.83C131.88 64.48 138.67 71.38 138.67 83.47M76.57 96.28H87.67V53.38H76.57V96.28ZM51.65 124.64H65.46L47.34 99.61L63.49 83.46V53.38H52.39V78.9L40.8 90.49L14.05 53.38H0L13.07 71.38C4.44 79.64 0.49 91.72 0.49 104.17V124.64H11.59V102.57C11.59 95.91 13.07 87.16 19.36 80.13L51.66 124.63L51.65 124.64Z" fill="#231F20"/>
</g>
<defs>
<clipPath id="clip0_1_27">
<rect width="911.76" height="153.12" fill="white"/>
</clipPath>
</defs>
</svg>
