<?xml version="1.0" encoding="UTF-8"?>
<svg id="Layer_2" data-name="Layer 2" xmlns="http://www.w3.org/2000/svg" viewBox="0 0 1071.11 153.12">
  <defs>
    <style>
      .cls-1 {
        fill: #231f20;
      }

      .cls-2 {
        fill: #49966c;
      }
    </style>
  </defs>
  <g id="Layer_1-2" data-name="Layer 1">
    <g>
      <path class="cls-2" d="M114.61,61.33c-2.47-15.9-5.67-33.19-19.48-42.74-8.37-5.82-17-6.25-26.65-6.25-6.58,0-29.77-.28-39.93-.28S12.12,3.95,12.12,0C5.69,7.87.77,16.57,2.5,27.09c1.55,9.47,8.04,15.52,17.54,16.72C9.27,59.01-.46,76.52.02,95.06c.3,11.69,2.98,58.06,55.41,58.06h9.55c22.39,0,35.95-16.62,39.89-23.01,11.59-18.9,13.53-48.15,9.86-68.68M106.7,98.25c-3.96,18.59-17.41,26.48-47.37,26.48-73.63,0-47.54-59.18-37.25-71.37,4.32-5.41,7.35-9.86,18.33-9.86h20.89c29.13,0,34.68,1.38,41.98,16.27,3.95,8.02,6.23,25.33,3.42,38.51"/>
      <path class="cls-1" d="M1059.32,107.32c-3.97,5.34-10.05,8.32-16.01,8.32-11.29,0-19.36-8.81-19.36-19.24s7.45-19.24,18.74-19.24c7.08,0,13.03,3.6,16.63,8.31v21.84ZM1059.69,125.57h11.42v-58.33h-11.42v5.33c-5.34-4.59-11.67-6.58-18.24-6.58-5.46,0-10.3,1.36-14.27,3.72-8.81,5.21-15.02,15.02-15.02,26.68s6.08,21.35,14.89,26.56c3.97,2.36,9.43,3.85,14.64,3.85,6.95,0,13.28-2.36,17.99-6.58v5.34ZM985.78,46.51c0,4.34,3.35,7.69,7.69,7.69s7.82-3.35,7.82-7.69-3.47-7.82-7.82-7.82-7.69,3.48-7.69,7.82M987.64,125.57h11.79v-58.33h-11.79v58.33ZM977.29,66.37c-1.37-.25-3.35-.37-4.59-.37-8.56,0-14.65,3.97-17.5,7.94v-6.7h-11.42v58.33h11.79v-38.6c3.23-5.59,9.68-9.8,15.76-9.8,1.86,0,3.23.12,4.59.49l1.37-11.29ZM914.89,107.32c-3.97,5.34-10.05,8.32-16.01,8.32-11.29,0-19.36-8.81-19.36-19.24s7.45-19.24,18.74-19.24c7.07,0,13.03,3.6,16.63,8.31v21.84ZM915.26,125.57h11.42v-58.33h-11.42v5.33c-5.34-4.59-11.67-6.58-18.24-6.58-5.46,0-10.3,1.36-14.27,3.72-8.81,5.21-15.02,15.02-15.02,26.68s6.08,21.35,14.89,26.56c3.97,2.36,9.43,3.85,14.65,3.85,6.95,0,13.28-2.36,17.99-6.58v5.34ZM862.14,37.08c-1.61-.5-4.47-.87-6.95-.87-7.94,0-14.89,3.6-19.11,9.68-2.61,3.72-3.72,8.56-3.72,16.38v4.96h-13.65v10.55h13.65v47.78h11.79v-47.78h18v-10.55h-18v-5.34c0-5.34.62-8.32,2.23-10.43,1.99-2.61,5.59-4.09,8.93-4.09,1.61,0,3.48.25,4.35.49l2.48-10.8ZM785.38,76.3c6.95,0,13.65,5.21,15.39,12.66h-31.77c1.99-7.57,8.81-12.66,16.38-12.66M812.93,98.88c.12-1.12.12-1.99.12-2.48,0-17.25-11.79-30.41-28.05-30.41s-28.42,12.91-28.42,30.41,13.16,30.41,30.16,30.41c11.91,0,20.23-5.34,24.57-10.92l-7.69-7.32c-3.35,3.72-8.07,7.94-16.75,7.94-10.18,0-18.24-7.82-18.86-17.62h44.92ZM691.09,112.29c7.69,9.31,18.49,14.52,30.41,14.52,15.14,0,26.93-9.93,26.93-25.19,0-9.93-5.46-16.01-11.29-19.86-11.17-7.45-29.66-9.8-29.66-20.85,0-7.57,7.2-11.67,14.4-11.67,5.46,0,10.8,1.99,15.51,5.96l7.32-9.06c-4.59-3.85-12.29-8.69-23.33-8.69-15.14,0-26.31,10.42-26.31,23.08,0,9.06,4.84,15.02,11.04,19.11,11.54,7.57,29.91,9.06,29.91,22.34,0,7.82-7.07,13.03-15.14,13.03-8.93,0-16.13-4.96-21.22-11.17l-8.56,8.44ZM616.6,67.24h-11.42v58.33h11.79v-40.09c3.48-4.22,9.06-8.31,16.76-8.31,4.84,0,9.31,2.23,12.04,5.71,2.11,2.61,3.47,6.08,3.47,13.53v29.16h11.79v-28.55c0-10.05-1.99-16.01-5.71-20.72-4.96-6.33-12.66-10.3-21.22-10.3s-14.4,3.85-17.5,6.83v-5.58ZM543.55,96.4c0-10.67,7.57-19.24,18.37-19.24s18.37,8.56,18.37,19.24-7.57,19.24-18.37,19.24-18.37-8.56-18.37-19.24M531.76,96.4c0,17.37,12.91,30.41,30.16,30.41s30.16-13.03,30.16-30.41-12.91-30.41-30.16-30.41-30.16,13.03-30.16,30.41M457.64,118.74c6.45,5.21,14.27,8.07,23.58,8.07,11.42,0,21.72-6.83,21.72-17.87,0-12.04-12.04-16.13-21.22-18.49-5.83-1.49-10.43-2.85-10.43-6.83,0-4.59,4.84-7.32,10.55-7.32,4.72,0,8.94,1.86,12.53,4.59l6.08-8.44c-4.59-3.72-10.8-6.45-19.36-6.45-10.43,0-21.6,5.71-21.6,18.24,0,8.19,6.33,12.66,13.4,15.02,8.56,2.85,18.24,3.23,18.24,9.93,0,4.59-5.09,7.32-10.18,7.32-5.83,0-11.79-2.23-17.25-6.45l-6.08,8.69ZM422.25,76.3c6.95,0,13.65,5.21,15.39,12.66h-31.77c1.99-7.57,8.81-12.66,16.38-12.66M449.8,98.88c.12-1.12.12-1.99.12-2.48,0-17.25-11.79-30.41-28.05-30.41s-28.42,12.91-28.42,30.41,13.16,30.41,30.16,30.41c11.92,0,20.23-5.34,24.57-10.92l-7.69-7.32c-3.35,3.72-8.07,7.94-16.76,7.94-10.18,0-18.24-7.82-18.86-17.62h44.93ZM378.35,106.58c-3.72,4.96-9.18,9.06-16.88,9.06-11.17,0-19.36-7.82-19.36-19.24s8.07-19.24,18.61-19.24c7.45,0,12.91,4.34,16.13,8.81l8.69-7.32c-5.46-7.57-14.64-12.66-24.82-12.66-17.5,0-30.41,13.16-30.41,30.41s13.16,30.41,31.15,30.41c10.67,0,21.1-5.59,25.94-13.65l-9.06-6.58ZM303.94,46.51c0,4.34,3.35,7.69,7.69,7.69s7.82-3.35,7.82-7.69-3.48-7.82-7.82-7.82-7.69,3.48-7.69,7.82M305.8,125.57h11.79v-58.33h-11.79v58.33ZM244.41,96.4c0-10.67,7.57-19.24,18.37-19.24s18.37,8.56,18.37,19.24-7.57,19.24-18.37,19.24-18.37-8.56-18.37-19.24M232.62,96.4c0,17.37,12.91,30.41,30.16,30.41s30.16-13.03,30.16-30.41-12.91-30.41-30.16-30.41-30.16,13.03-30.16,30.41M235.84,38.69h-12.91l-25.56,65.53-25.57-65.53h-12.91l34.13,86.87h8.69l34.13-86.87Z"/>
    </g>
  </g>
</svg>