<svg width="117" height="154" viewBox="0 0 117 154" fill="none" xmlns="http://www.w3.org/2000/svg">
<path d="M114.607 61.33C112.137 45.43 108.937 28.14 95.127 18.59C86.757 12.77 78.1271 12.34 68.4771 12.34C61.8971 12.34 38.707 12.06 28.547 12.06C18.387 12.06 12.117 3.95 12.117 0C5.68705 7.87 0.767045 16.57 2.49705 27.09C4.04705 36.56 10.537 42.61 20.037 43.81C9.26705 59.01 -0.462954 76.52 0.0170456 95.06C0.317046 106.75 2.99705 153.12 55.427 153.12H64.9771C87.3671 153.12 100.927 136.5 104.867 130.11C116.457 111.21 118.397 81.96 114.727 61.43M106.697 98.25C102.737 116.84 89.287 124.73 59.327 124.73C-14.3029 124.73 11.787 65.55 22.077 53.36C26.397 47.95 29.427 43.5 40.407 43.5H61.297C90.427 43.5 95.977 44.88 103.277 59.77C107.227 67.79 109.507 85.1 106.697 98.28" fill="#518159"/>
</svg>
