<svg version="1" xmlns="http://www.w3.org/2000/svg" width="480" height="480" viewBox="0 0 360.000000 360.000000"><path d="M0 180v180h360V0H0v180zM118.5 64.7c2.7 4.9 7.8 8.8 15 11.5 5.7 2.1 7.9 2.3 46 2.8 38.6.6 40.2.7 45.7 2.9 22.5 8.9 36.9 30.3 43.9 64.9 3.1 15.3 3.9 51.6 1.4 66.4-6 36.7-25.5 63.4-53.4 73-6.2 2.2-8.1 2.3-32.1 2.3-23.6 0-26.1-.2-33.5-2.3-30.5-8.7-48.4-33.2-52.6-72-1.5-13.8-.7-24.5 2.6-35.7 3-10.5 13-31.2 20.8-43.6l5.5-8.7-3.7-.6c-2-.3-6.1-2-9.1-3.8-7.1-4.3-11.4-11.2-13-20.9-1.4-8.4-.7-14.5 2.6-21.9C107 73.6 115 61 116 61c.3 0 1.4 1.7 2.5 3.7z"/><path d="M145 126.7c-3.9.4-5.3 1.2-10.3 6.1-7.2 7.1-16.5 20.6-19.9 29.3-3.9 9.6-5.8 20.4-5.8 32.6 0 17.1 3.1 26.2 12 35 11.6 11.4 30.6 16.3 63.8 16.3 50.3 0 70.2-9.8 76.8-37.7 2.1-9 1.4-37.6-1.1-47.3-5.4-20.4-16.3-30.8-35.7-34-5.8-.9-69.4-1.2-79.8-.3z"/></svg>