<svg width="4" height="14" viewBox="0 0 4 14" fill="none" xmlns="http://www.w3.org/2000/svg">
<path d="M1.75 10.5C2.71658 10.5 3.5 11.2834 3.5 12.25C3.5 13.2166 2.71658 14 1.75 14C0.783417 14 0 13.2166 0 12.25C0 11.2834 0.783417 10.5 1.75 10.5ZM1.75 5.25C2.71658 5.25 3.5 6.03342 3.5 7C3.5 7.96658 2.71658 8.75 1.75 8.75C0.783417 8.75 0 7.96658 0 7C0 6.03342 0.783417 5.25 1.75 5.25ZM1.75 0C2.71658 0 3.5 0.783417 3.5 1.75C3.5 2.71658 2.71658 3.5 1.75 3.5C0.783417 3.5 0 2.71658 0 1.75C0 0.783417 0.783417 0 1.75 0Z" fill="#fff"/>
</svg>
