<svg width="24" height="12" viewBox="0 0 24 12" fill="none" xmlns="http://www.w3.org/2000/svg">
<path d="M13.5 2C13.776 2 14 2.224 14 2.5V9.5C14 9.776 13.776 10 13.5 10H2.5C2.224 10 2 9.776 2 9.5V2.5C2 2.224 2.224 2 2.5 2H13.5ZM16 2C16 0.896 15.104 0 14 0H2C0.896 0 0 0.896 0 2V10C0 11.104 0.896 12 2 12H14C15.104 12 16 11.104 16 10V2ZM22 3.854V8.147L20 6.739V5.261L22 3.854ZM24 0L18 4.223V7.777L24 12V0Z" fill="white"/>
<path d="M11 5.25H8.75V3H7.25V5.25H5V6.75H7.25V9H8.75V6.75H11V5.25Z" fill="white"/>
</svg>