<svg width="15" height="18" viewBox="0 0 15 18" fill="none" xmlns="http://www.w3.org/2000/svg">
<path d="M14.484 9.483C13.755 8.59125 11.7495 6.324 11.0363 5.52L9.69825 6.2835L13.191 10.296C13.6582 10.815 13.5352 11.574 12.909 11.9753C12.3293 12.348 8.90325 14.5073 8.1195 15.0015C8.064 14.4608 7.851 13.9583 7.5 13.5405C7.14825 13.1228 2.91375 8.0085 1.85775 6.657C1.506 6.20625 1.4265 5.7225 1.6365 5.29425C1.8375 4.8825 2.268 4.60575 2.709 4.60575C3.39825 4.60575 3.765 5.097 3.87075 5.517C3.99075 5.99775 3.8445 6.44025 3.4035 6.78075L4.40025 7.99875L10.2472 4.66425C11.3138 3.876 11.6138 2.421 10.9447 1.2795C10.4813 0.489751 9.6255 6.00689e-07 8.71125 6.00689e-07C7.82025 6.00689e-07 8.1165 -0.0119995 1.5375 3.35625C0.612 3.7995 0 4.6965 0 5.75775C0 6.41025 0.231 7.07475 0.66675 7.623C1.737 8.9685 6.3375 14.5117 6.37875 14.5658C6.657 14.9355 6.699 15.405 6.49125 15.8205C6.2835 16.2367 5.88225 16.485 5.4195 16.485C4.73025 16.485 4.3635 15.9937 4.25775 15.573C4.14075 15.1012 4.26675 14.667 4.71075 14.3325L3.753 13.1737C3.1365 13.6725 2.79525 14.2957 2.72025 15.0052C2.54625 16.659 3.864 18 5.43 18C5.877 18 6.41325 17.8673 6.81075 17.6175L13.881 13.158C14.5987 12.66 15 11.8223 15 10.9853C15 10.4273 14.82 9.89475 14.484 9.483ZM8.265 1.614C8.406 1.54875 8.5635 1.5135 8.72175 1.5135C9.12075 1.5135 9.4695 1.72425 9.654 2.0775C9.888 2.5245 9.8235 3.17925 9.243 3.5115L5.42025 5.6775C5.382 4.86075 4.986 4.11675 4.329 3.6285L8.265 1.614ZM10.7055 9.15525L7.0845 11.2725L6.60075 10.6868L10.2045 8.58075L10.7055 9.15525ZM5.4855 9.33375L9.048 7.251L9.549 7.827L5.96925 9.92025L5.4855 9.33375ZM11.853 10.473L8.19225 12.6135L7.7085 12.0278L11.352 9.89775L11.853 10.473Z" fill="#999999"/>
</svg>
