<svg width="18" height="6" viewBox="0 0 18 6" fill="none" xmlns="http://www.w3.org/2000/svg">
<path d="M4.5 3C4.5 4.24275 3.49275 5.25 2.25 5.25C1.00725 5.25 0 4.24275 0 3C0 1.75725 1.00725 0.75 2.25 0.75C3.49275 0.75 4.5 1.75725 4.5 3ZM11.25 3C11.25 4.24275 10.2428 5.25 9 5.25C7.75725 5.25 6.75 4.24275 6.75 3C6.75 1.75725 7.75725 0.75 9 0.75C10.2428 0.75 11.25 1.75725 11.25 3ZM18 3C18 4.24275 16.9928 5.25 15.75 5.25C14.5072 5.25 13.5 4.24275 13.5 3C13.5 1.75725 14.5072 0.75 15.75 0.75C16.9928 0.75 18 1.75725 18 3Z" fill="#b5343c"/>
</svg>
