<svg width="13" height="18" viewBox="0 0 13 18" fill="none" xmlns="http://www.w3.org/2000/svg">
<path fill-rule="evenodd" clip-rule="evenodd" d="M11.75 14L0.999999 3.75001L1.99243 2.62525L12.7424 12.8753L11.75 14Z" fill="white"/>
<path fill-rule="evenodd" clip-rule="evenodd" d="M8.25 3C8.25 2.17275 7.57727 1.5 6.75 1.5C5.92273 1.5 5.25 2.17275 5.25 3V4.88194L3.75 3.5584V3C3.75 1.34324 5.09326 0 6.75 0C8.40674 0 9.75 1.34324 9.75 3V8.25C9.75 8.44032 9.73224 8.62651 9.69836 8.80698L8.25 7.529V3ZM5.25 6.88236V8.25C5.25 9.07725 5.92273 9.75 6.75 9.75C7.20914 9.75 7.62067 9.54282 7.89597 9.217L9.02124 10.2099C8.4711 10.8469 7.65756 11.25 6.75 11.25C5.09326 11.25 3.75 9.90676 3.75 8.25V5.55883L5.25 6.88236ZM10.1447 11.2012C9.31915 12.1497 8.10352 12.75 6.75 12.75C4.26828 12.75 2.25 10.7317 2.25 8.25V6.75H0.75V8.25C0.75 11.5635 3.43652 14.25 6.75 14.25C8.55331 14.25 10.1709 13.4543 11.2708 12.1948L10.1447 11.2012ZM12.115 10.9392C12.5213 10.1303 12.75 9.21684 12.75 8.25V6.75H11.25V8.25C11.25 8.83212 11.1389 9.38876 10.9369 9.8998L12.115 10.9392ZM7.5 15V16.5H10.5V18H3V16.5H6V15H7.5Z" fill="white"/>
</svg>
