<svg xmlns="http://www.w3.org/2000/svg" fill="#666" width="24" height="24" viewBox="0 0 24 24"><path d="M12 0c-6.627 0-12 5.373-12 12s5.373 12 12 12 12-5.373 12-12-5.373-12-12-12zm5.73 20.183c-.106-.526-.236-1.046-.398-1.555.897-.811.86-2.197-.072-2.883.582-2.318.61-4.849-.002-7.288.186-.111.348-.254.475-.425 1.466.412 2.831 1.066 4.052 1.911.14.665.215 1.352.215 2.057 0 3.382-1.692 6.372-4.27 8.183zm-15.73-8.183c0-.855.12-1.682.323-2.475.699-.044 1.393-.04 2.147.032l.04.226c-.921.775-1.75 1.661-2.487 2.674l-.023-.457zm3.183-1.19c.848.643 2.083.436 2.662-.49 2.898 1.06 5.339 3.077 6.94 5.666-.766.775-.756 1.998.019 2.695-.681 1.231-1.548 2.345-2.56 3.307-4.902.117-8.924-3.262-9.969-7.697.772-1.316 1.755-2.494 2.908-3.481zm2.886-1.901c1.991-.974 4.155-1.432 6.324-1.377.305.611.93 1.076 1.666 1.166h.006c.557 2.157.583 4.472.029 6.7l-.223.023c-1.724-2.825-4.433-5.131-7.763-6.301l-.039-.211zm6.062 12.857c.702-.817 1.311-1.695 1.813-2.627l.27-.008c.172.562.308 1.139.408 1.729-.777.406-1.612.714-2.491.906zm7.103-13.598c-1.009-.56-2.076-1.002-3.189-1.311-.108-.995-1.041-1.824-2.119-1.816-.552-1.019-1.232-1.975-2.024-2.854 3.321.642 6.061 2.93 7.332 5.981zm-6.472-2.708c-.257.22-.443.515-.524.858-2.456-.03-4.778.526-6.848 1.565-.85-.638-2.07-.421-2.646.483-.728-.076-1.379-.092-2.024-.072 1.476-3.683 5.076-6.294 9.28-6.294h.001c1.097.994 2.034 2.16 2.761 3.46z" fill="#FFFFFF"/></svg>
