<svg xmlns="http://www.w3.org/2000/svg" width="24" height="24" viewBox="0 0 24 24"><path d="M19.271 14.521c.358.74.728 1.803.728 2.818 0 4.658-4 6.661-8.498 6.661-2.183 0-4.483-.472-6.5-1.341v-4.659h2c.227 1.809 1.875 3 4.444 3 2.503 0 4.415-1.046 4.63-3.28.127-1.321-.65-2.451-1.653-3.199h4.849zm-4.583-3.521c-3.124-1.398-6.281-2.75-5.639-5.669.714-3.244 7.265-3.206 7.951.669h1.979v-5.109c-2.028-.604-3.936-.891-5.649-.891-4.927 0-8.252 2.375-8.252 6.454 0 1.899.862 3.554 2.113 4.546h-7.191v2h24v-2h-9.312z" fill="#999999"/></svg>