<?xml version="1.0" encoding="UTF-8" standalone="no"?>
<!-- Created with Inkscape (http://www.inkscape.org/) -->

<svg
   width="5.7540092mm"
   height="6.0271034mm"
   viewBox="0 0 5.7540092 6.0271034"
   version="1.1"
   id="svg1"
   xml:space="preserve"
   xmlns="http://www.w3.org/2000/svg"
   xmlns:svg="http://www.w3.org/2000/svg"><defs
     id="defs1" /><g
     id="layer1"
     transform="translate(-91.765604,-151.30697)"><g
       id="g7"><g
         id="g8"><g
           style="fill:none"
           id="g1"
           transform="matrix(0.26458333,0,0,0.26458333,91.169609,151.2283)"><path
             d="m 20.5161,20.1124 h -5.0322 l -1.0443,2.9645 H 12 l 4.9422,-12.9231 h 1.5484 0.5492 L 24,23.0769 h -2.4396 z m -0.6571,-1.855 -1.8635,-5.2989 -1.8635,5.2989 z"
             fill="#999999"
             id="path2" /></g><path
           d="m 94.656888,151.35696 0.08918,0.061 v 0.30081 l -0.08918,0.0893 v 3.35116 q 0,0.0376 -0.02972,0.0564 -0.02378,0.0235 -0.05349,0.0235 -0.02972,0 -0.05946,-0.0235 -0.02378,-0.0187 -0.02378,-0.0564 v -0.84132 q 0,-0.0705 -0.01184,-0.23971 -0.01184,-0.1692 -0.03566,-0.39011 -0.01783,-0.22559 -0.05352,-0.48411 -0.02972,-0.2632 -0.07135,-0.517 -0.03566,-0.2585 -0.08324,-0.4841 -0.04758,-0.23031 -0.101071,-0.39481 h -0.541062 q -0.02378,0 -0.04161,0.005 -0.03566,0.009 -0.03566,0.0423 v 1.62152 q 0,0.0517 -0.05946,0.0517 -0.05946,0 -0.05946,-0.0517 -0.02972,-0.45121 -0.08918,-0.76612 -0.05946,-0.31961 -0.136746,-0.517 -0.07135,-0.2021 -0.160542,-0.2914 -0.08324,-0.094 -0.160542,-0.094 H 92.73058 q -0.07135,0 -0.09513,0.094 -0.01783,0.0892 -0.02378,0.1927 -0.0059,0.14568 -0.07135,0.24911 -0.05946,0.0986 -0.160543,0.1692 -0.101071,0.0705 -0.243775,0.11752 -0.136745,0.0469 -0.303232,0.0799 l 0.06541,-0.26791 q 0.01783,-0.0799 0.107027,-0.11274 0.08918,-0.0376 0.184321,-0.0658 0.09513,-0.0282 0.172431,-0.0705 0.0773,-0.0423 0.0773,-0.13158 0,-0.10808 -0.05352,-0.17861 -0.04758,-0.0752 -0.261612,-0.0752 l -0.07729,-0.0564 v -0.22559 l 0.225936,-0.16921 z"
           id="text6"
           style="font-size:3.175px;-inkscape-font-specification:sans-serif;fill:#999999;stroke:#999999;stroke-width:0.1;stroke-linecap:square;stroke-dasharray:none;paint-order:fill markers stroke"
           aria-label="ཀ&#10;" /></g></g></g></svg>
