<svg width="12" height="18" viewBox="0 0 12 18" fill="none" xmlns="http://www.w3.org/2000/svg">
<path d="M6 1.5C6.82725 1.5 7.5 2.17275 7.5 3V8.25C7.5 9.07725 6.82725 9.75 6 9.75C5.17275 9.75 4.5 9.07725 4.5 8.25V3C4.5 2.17275 5.17275 1.5 6 1.5ZM6 0C4.34325 0 3 1.34325 3 3V8.25C3 9.90675 4.34325 11.25 6 11.25C7.65675 11.25 9 9.90675 9 8.25V3C9 1.34325 7.65675 0 6 0ZM12 6.75V8.25C12 11.5635 9.3135 14.25 6 14.25C2.6865 14.25 0 11.5635 0 8.25V6.75H1.5V8.25C1.5 10.7318 3.51825 12.75 6 12.75C8.48175 12.75 10.5 10.7318 10.5 8.25V6.75H12ZM6.75 16.5V15H5.25V16.5H2.25V18H9.75V16.5H6.75Z" fill="white"/>
</svg>
