<svg width="24" height="24" viewBox="0 0 24 24" fill="none" xmlns="http://www.w3.org/2000/svg">
<path d="M12 4.707C9.062 2.877 4.584 2.14 0 2V19.714C3.937 19.834 7.795 20.395 10.667 21.709C11.513 22.097 12.484 22.097 13.334 21.709C16.206 20.395 20.063 19.834 24 19.714V2C19.416 2.14 14.938 2.877 12 4.707ZM2 17.811V4.107C7.157 4.496 9.527 5.57 11 6.441V19.609C9.475 19.063 6.284 18.104 2 17.811ZM22 17.811C17.717 18.104 14.525 19.063 13 19.61V6.439C14.453 5.578 16.83 4.497 22 4.107V17.811Z" fill="#999999"/>
</svg>
