<svg xmlns="http://www.w3.org/2000/svg" width="24" height="24" viewBox="0 0 24 24"><path d="M4.508 16.557l1.406-1.9c-.289-1.201-.005-2.543.869-4.008.341-.572.753-1.128 1.211-1.668.277.649.857 1.694 1.131 2.081-.036-.519-.267-2.085.002-3.286 1.036-.995 2.232-1.903 3.49-2.693.094.599.311 1.812.449 2.135.06-.433.336-1.993.77-2.851 1.875-1.032 3.814-1.787 5.516-2.141-.459 1.311-1.147 2.976-2.021 4.713-.85.59-2.346 1.092-2.908 1.189.469.132 1.544.22 2.152.247-.193.348-.392.696-.599 1.042-.526.879-1.069 1.664-1.617 2.39-.943.464-2.371.845-2.937.875.362.19 1.237.413 1.777.54-1.717 1.904-3.436 3.015-4.907 3.179 1.232-2.189 2.239-3.938 2.642-4.505-4.444 3.412-7.182 8.675-8.934 12.104l2.505-.789c.421-.77 1.727-2.952 2.772-4.829.268.041.535.06.801.06 7.398.001 13.598-15.213 13.922-18.442-8.141 0-21.536 8.975-17.492 16.557z"/></svg>