<?xml version="1.0" encoding="UTF-8" standalone="no"?>
<svg
   width="14"
   height="14.00073"
   viewBox="0 0 14 14.00073"
   version="1.1"
   id="svg4"
   sodipodi:docname="link_grey.svg"
   inkscape:version="1.1 (ce6663b3b7, 2021-05-25)"
   xmlns:inkscape="http://www.inkscape.org/namespaces/inkscape"
   xmlns:sodipodi="http://sodipodi.sourceforge.net/DTD/sodipodi-0.dtd"
   xmlns="http://www.w3.org/2000/svg"
   xmlns:svg="http://www.w3.org/2000/svg">
  <defs
     id="defs8" />
  <sodipodi:namedview
     id="namedview6"
     pagecolor="#ffffff"
     bordercolor="#666666"
     borderopacity="1.0"
     inkscape:pageshadow="2"
     inkscape:pageopacity="0.0"
     inkscape:pagecheckerboard="0"
     showgrid="false"
     inkscape:zoom="34.25"
     inkscape:cx="7.7956204"
     inkscape:cy="11.985401"
     inkscape:window-width="1920"
     inkscape:window-height="1016"
     inkscape:window-x="0"
     inkscape:window-y="27"
     inkscape:window-maximized="1"
     inkscape:current-layer="svg4"
     fit-margin-top="0"
     fit-margin-left="0"
     fit-margin-right="0"
     fit-margin-bottom="0" />
  <path
     d="m 12.787631,1.2132444 c 1.616492,1.6170758 1.616492,4.2404487 0,5.8581079 L 10.547526,9.3108739 9.3102177,8.0729826 11.549739,5.8328776 C 12.482533,4.9006672 12.482533,3.3833461 11.549156,2.4511357 10.616946,1.518342 9.0996244,1.518342 8.1674141,2.4505524 L 5.9273091,4.690074 4.6900011,3.452766 6.9301061,1.2132444 c 1.6164924,-1.6176592 4.2392819,-1.6176592 5.8575249,0 z M 8.0729097,9.3097072 5.8328047,11.549229 c -0.9322104,0.933377 -2.4495315,0.932794 -3.3829086,0 -0.9322104,-0.932211 -0.9322104,-2.450115 0,-3.381742 L 4.6900011,5.927382 3.4526931,4.690074 1.2125881,6.930179 c -1.61649245,1.6170758 -1.61707581,4.239865 0,5.857525 1.6176591,1.617075 4.2410321,1.617659 5.8575245,0 l 2.2401051,-2.240105 z"
     id="path2"
     style="stroke-width:0.583361;fill:#999999;fill-opacity:1" />
</svg>
