<svg width="14" height="11" viewBox="0 0 14 11" fill="none" xmlns="http://www.w3.org/2000/svg">
<path d="M7.58333 6.83958C7.58333 3.84067 9.85367 0.7035 13.4167 0L13.9907 1.24017C12.6986 1.72725 11.5622 3.423 11.4357 4.592C12.8887 4.82067 14 6.07775 14 7.59558C14 9.45175 12.4927 10.5 10.9672 10.5C9.2085 10.5 7.58333 9.15542 7.58333 6.83958ZM0 6.83958C0 3.84067 2.27033 0.7035 5.83333 0L6.40733 1.24017C5.11525 1.72725 3.97892 3.423 3.85233 4.592C5.30542 4.82067 6.41667 6.07775 6.41667 7.59558C6.41667 9.45175 4.90933 10.5 3.38392 10.5C1.62517 10.5 0 9.15542 0 6.83958Z" fill="#666666"/>
</svg>
