<svg width="18" height="18" viewBox="0 0 18 18" xmlns="http://www.w3.org/2000/svg">
<path d="M3.75 5.25C5.82075 5.25 7.5 6.92925 7.5 9C7.5 11.0708 5.82075 12.75 3.75 12.75C1.67925 12.75 0 11.0708 0 9C0 6.92925 1.67925 5.25 3.75 5.25ZM12.0915 14.2987C12.0367 14.5245 12 14.757 12 15C12 16.6567 13.3433 18 15 18C16.6567 18 18 16.6567 18 15C18 13.3433 16.6567 12 15 12C14.1263 12 13.347 12.3795 12.7987 12.9757L8.68275 10.7805C8.51025 11.2575 8.271 11.7023 7.9755 12.1035L12.0915 14.2987ZM18 3C18 1.34325 16.6567 0 15 0C13.3433 0 12 1.34325 12 3C12 3.243 12.0367 3.4755 12.0915 3.70125L7.9755 5.8965C8.27175 6.29775 8.51025 6.74175 8.68275 7.2195L12.7987 5.02425C13.347 5.6205 14.1263 6 15 6C16.6567 6 18 4.65675 18 3Z" fill="#999999"/>
</svg>