<svg width="18" height="15" viewBox="0 0 18 15" fill="none" xmlns="http://www.w3.org/2000/svg">
<path d="M18 1.73175C17.3377 2.02575 16.626 2.22375 15.879 2.313C16.6418 1.85625 17.2275 1.1325 17.5028 0.27C16.7895 0.693 15.999 1.0005 15.1575 1.16625C14.4847 0.4485 13.524 0 12.462 0C10.0777 0 8.32575 2.2245 8.86425 4.53375C5.796 4.38 3.075 2.91 1.25325 0.67575C0.28575 2.3355 0.7515 4.50675 2.3955 5.60625C1.791 5.58675 1.221 5.421 0.72375 5.14425C0.68325 6.855 1.9095 8.4555 3.6855 8.81175C3.16575 8.95275 2.5965 8.98575 2.0175 8.87475C2.487 10.3417 3.8505 11.409 5.4675 11.439C3.915 12.6562 1.959 13.2 0 12.969C1.63425 14.0168 3.576 14.628 5.661 14.628C12.5175 14.628 16.3912 8.83725 16.1572 3.6435C16.8787 3.12225 17.505 2.472 18 1.73175Z" fill="#b5343c"/>
</svg>
