<svg width="24" height="24" viewBox="0 0 24 24" fill="none" xmlns="http://www.w3.org/2000/svg">
<path d="M10.325 14.125L8.925 12.725C8.725 12.525 8.49167 12.425 8.225 12.425C7.95833 12.425 7.725 12.525 7.525 12.725C7.325 12.925 7.225 13.1627 7.225 13.438C7.225 13.7133 7.325 13.9507 7.525 14.15L9.65 16.3C9.85 16.5 10.0833 16.6 10.35 16.6C10.6167 16.6 10.85 16.5 11.05 16.3L15.275 12.075C15.475 11.875 15.575 11.6333 15.575 11.35C15.575 11.0667 15.475 10.825 15.275 10.625C15.075 10.425 14.8333 10.325 14.55 10.325C14.2667 10.325 14.025 10.425 13.825 10.625L10.325 14.125ZM6.5 20C4.98333 20 3.68767 19.475 2.613 18.425C1.53833 17.375 1.00067 16.0917 1 14.575C1 13.275 1.39167 12.1167 2.175 11.1C2.95833 10.0833 3.98333 9.43333 5.25 9.15C5.66667 7.61667 6.5 6.375 7.75 5.425C9 4.475 10.4167 4 12 4C13.95 4 15.6043 4.67933 16.963 6.038C18.3217 7.39667 19.0007 9.05067 19 11C20.15 11.1333 21.1043 11.6293 21.863 12.488C22.6217 13.3467 23.0007 14.3507 23 15.5C23 16.75 22.5627 17.8127 21.688 18.688C20.8133 19.5633 19.7507 20.0007 18.5 20H6.5Z" fill="#666666"/>
</svg>
