<svg width="24" height="24" viewBox="0 0 24 24" fill="none" xmlns="http://www.w3.org/2000/svg">
<path d="M6.5 20C4.96667 20 3.66667 19.4667 2.6 18.4C1.53333 17.3333 1 16.0333 1 14.5C1 13.2167 1.396 12.075 2.188 11.075C2.98 10.075 4.00067 9.43333 5.25 9.15C5.3 9.01667 5.35 8.88767 5.4 8.763C5.45 8.63833 5.5 8.50067 5.55 8.35L2.1 4.9C1.91667 4.71667 1.825 4.48333 1.825 4.2C1.825 3.91667 1.91667 3.68333 2.1 3.5C2.28333 3.31667 2.51667 3.225 2.8 3.225C3.08333 3.225 3.31667 3.31667 3.5 3.5L20.5 20.5C20.6833 20.6833 20.7793 20.9127 20.788 21.188C20.7967 21.4633 20.7007 21.7007 20.5 21.9C20.3167 22.0833 20.0877 22.1793 19.813 22.188C19.5383 22.1967 19.3007 22.109 19.1 21.925L17.15 20H6.5ZM21.6 18.75L8.05 5.225C8.63333 4.825 9.25433 4.521 9.913 4.313C10.5717 4.105 11.2673 4.00067 12 4C13.95 4 15.6043 4.67933 16.963 6.038C18.3217 7.39667 19.0007 9.05067 19 11C20.15 11.1333 21.1043 11.6293 21.863 12.488C22.6217 13.3467 23.0007 14.3507 23 15.5C23 16.15 22.875 16.7543 22.625 17.313C22.375 17.8717 22.0333 18.3507 21.6 18.75Z" fill="#666666"/>
</svg>
