<svg width="24" height="24" viewBox="0 0 24 24" fill="none" xmlns="http://www.w3.org/2000/svg">
<path d="M3 12C3 9.5 3.875 7.375 5.625 5.625C7.375 3.875 9.5 3 12 3V2C12 1.8 12.0917 1.65 12.275 1.55C12.4583 1.45 12.6333 1.46667 12.8 1.6L15.925 3.95C16.1917 4.15 16.325 4.41667 16.325 4.75C16.325 5.08333 16.1917 5.35 15.925 5.55L12.8 7.9C12.6333 8.03333 12.4583 8.05 12.275 7.95C12.0917 7.85 12 7.7 12 7.5V6.5C10.4833 6.5 9.18733 7.03767 8.112 8.113C7.03667 9.18833 6.49933 10.484 6.5 12C6.5 12.55 6.57933 13.0793 6.738 13.588C6.89667 14.0967 7.11733 14.5673 7.4 15C7.58333 15.2667 7.65833 15.5543 7.625 15.863C7.59167 16.1717 7.45 16.4173 7.2 16.6L6.35 17.225C6.05 17.4583 5.71667 17.55 5.35 17.5C4.98333 17.45 4.69167 17.2667 4.475 16.95C3.99167 16.2333 3.625 15.4583 3.375 14.625C3.125 13.7917 3 12.9167 3 12ZM12 21V22C12 22.2 11.9083 22.35 11.725 22.45C11.5417 22.55 11.3667 22.5333 11.2 22.4L8.075 20.05C7.80833 19.85 7.675 19.5833 7.675 19.25C7.675 18.9167 7.80833 18.65 8.075 18.45L11.2 16.1C11.3667 15.9667 11.5417 15.95 11.725 16.05C11.9083 16.15 12 16.3 12 16.5V17.5C13.5167 17.5 14.8127 16.9623 15.888 15.887C16.9633 14.8117 17.5007 13.516 17.5 12C17.5 11.45 17.4207 10.9207 17.262 10.412C17.1033 9.90333 16.8827 9.43267 16.6 9C16.4167 8.73333 16.3417 8.446 16.375 8.138C16.4083 7.83 16.55 7.584 16.8 7.4L17.65 6.775C17.95 6.54167 18.2833 6.454 18.65 6.512C19.0167 6.57 19.3083 6.74933 19.525 7.05C19.9917 7.76667 20.3543 8.54167 20.613 9.375C20.8717 10.2083 21.0007 11.0833 21 12C21 14.5 20.125 16.625 18.375 18.375C16.625 20.125 14.5 21 12 21Z" fill="currentColor"/>
</svg>
