<svg width="24" height="24" viewBox="0 0 24 24" fill="none" xmlns="http://www.w3.org/2000/svg">
<g id="material-symbols:error-rounded">
<path id="Vector" d="M12 17C12.2833 17 12.521 16.904 12.713 16.712C12.905 16.52 13.0007 16.2827 13 16C12.9993 15.7173 12.9033 15.48 12.712 15.288C12.5207 15.096 12.2833 15 12 15C11.7167 15 11.4793 15.096 11.288 15.288C11.0967 15.48 11.0007 15.7173 11 16C10.9993 16.2827 11.0953 16.5203 11.288 16.713C11.4807 16.9057 11.718 17.0013 12 17ZM12 13C12.2833 13 12.521 12.904 12.713 12.712C12.905 12.52 13.0007 12.2827 13 12V8C13 7.71667 12.904 7.47933 12.712 7.288C12.52 7.09667 12.2827 7.00067 12 7C11.7173 6.99933 11.48 7.09533 11.288 7.288C11.096 7.48067 11 7.718 11 8V12C11 12.2833 11.096 12.521 11.288 12.713C11.48 12.905 11.7173 13.0007 12 13ZM12 22C10.6167 22 9.31667 21.7373 8.1 21.212C6.88334 20.6867 5.825 19.9743 4.925 19.075C4.025 18.1757 3.31267 17.1173 2.788 15.9C2.26333 14.6827 2.00067 13.3827 2 12C1.99933 10.6173 2.262 9.31733 2.788 8.1C3.314 6.88267 4.02633 5.82433 4.925 4.925C5.82367 4.02567 6.882 3.31333 8.1 2.788C9.318 2.26267 10.618 2 12 2C13.382 2 14.682 2.26267 15.9 2.788C17.118 3.31333 18.1763 4.02567 19.075 4.925C19.9737 5.82433 20.6863 6.88267 21.213 8.1C21.7397 9.31733 22.002 10.6173 22 12C21.998 13.3827 21.7353 14.6827 21.212 15.9C20.6887 17.1173 19.9763 18.1757 19.075 19.075C18.1737 19.9743 17.1153 20.687 15.9 21.213C14.6847 21.739 13.3847 22.0013 12 22Z" fill="#18345D"/>
</g>
</svg>
