<svg width="24" height="24" viewBox="0 0 24 24" fill="none" xmlns="http://www.w3.org/2000/svg">
<path d="M19.775 22.625L17.15 20H4V17.2C4 16.6333 4.146 16.1127 4.438 15.638C4.73 15.1633 5.11733 14.8007 5.6 14.55C6.35 14.1667 7.11267 13.8583 7.888 13.625C8.66333 13.3917 9.45067 13.2167 10.25 13.1L1.375 4.225L2.8 2.8L21.2 21.2L19.775 22.625ZM18.4 14.55C18.8833 14.7833 19.2667 15.1373 19.55 15.612C19.8333 16.0867 19.9833 16.5993 20 17.15L16.65 13.8C16.95 13.9167 17.246 14.0333 17.538 14.15C17.83 14.2667 18.1173 14.4 18.4 14.55ZM14.2 11.35L8.65 5.8C9.03333 5.23333 9.51667 4.79167 10.1 4.475C10.6833 4.15833 11.3167 4 12 4C13.1 4 14.0417 4.39167 14.825 5.175C15.6083 5.95833 16 6.9 16 8C16 8.68333 15.8417 9.31667 15.525 9.9C15.2083 10.4833 14.7667 10.9667 14.2 11.35Z" fill="#666666"/>
</svg>
