<?xml version="1.0" encoding="utf-8"?>
<!-- Generator: Adobe Illustrator 16.0.0, SVG Export Plug-In . SVG Version: 6.00 Build 0)  -->
<!DOCTYPE svg PUBLIC "-//W3C//DTD SVG 1.1//EN" "http://www.w3.org/Graphics/SVG/1.1/DTD/svg11.dtd">
<svg version="1.1" id="Layer_1" xmlns="http://www.w3.org/2000/svg" xmlns:xlink="http://www.w3.org/1999/xlink" x="0px" y="0px"
	 width="138px" height="40px" viewBox="0 0 138 40" enable-background="new 0 0 138 40" xml:space="preserve">
<path fill="#010101" d="M15.847,11.337v-0.004c-1.608,0-3.215-0.003-4.823,0.002c-0.328,0.001-0.655,0.027-0.983,0.047
	c-0.437,0.028-0.875,0.078-1.313,0.087c-0.257,0.004-0.448,0.082-0.639,0.252c-1.284,1.149-2.392,2.439-3.255,3.935
	c-0.819,1.418-1.365,2.935-1.647,4.547c-0.117,0.67-0.184,1.345-0.21,2.024c-0.041,1.057,0.015,2.105,0.261,3.138
	c0.412,1.724,1.345,3.081,2.841,4.043c0.747,0.481,1.556,0.825,2.402,1.088c1.227,0.379,2.488,0.578,3.765,0.69
	c0.875,0.078,1.752,0.114,2.63,0.111c0.744-0.003,1.488-0.012,2.231-0.025c0.841-0.015,1.68-0.059,2.518-0.131
	c0.811-0.072,1.616-0.177,2.412-0.342c0.798-0.166,1.576-0.393,2.323-0.721c1.768-0.777,3.015-2.049,3.686-3.869
	c0.391-1.064,0.561-2.17,0.614-3.296c0.043-0.933,0.016-1.866-0.046-2.798c-0.054-0.816-0.151-1.627-0.311-2.43
	c-0.161-0.804-0.386-1.588-0.721-2.338c-0.374-0.836-0.87-1.586-1.55-2.207c-0.742-0.676-1.613-1.113-2.572-1.39
	c-0.993-0.285-2.01-0.401-3.038-0.411C18.897,11.327,17.372,11.337,15.847,11.337 M4.349,0.585c0.03,0.104,0.049,0.174,0.071,0.243
	C4.584,1.35,4.897,1.771,5.293,2.139c0.538,0.498,1.172,0.832,1.86,1.069c0.622,0.216,1.263,0.351,1.92,0.396
	c0.432,0.031,0.867,0.051,1.301,0.051c3.067,0.004,6.135,0.013,9.202-0.002c1.439-0.008,2.764,0.369,4.004,1.074
	c1.259,0.713,2.274,1.697,3.116,2.867c0.747,1.037,1.316,2.17,1.768,3.361c0.442,1.164,0.762,2.361,1.003,3.583
	c0.195,0.993,0.342,1.993,0.43,3c0.069,0.792,0.123,1.585,0.15,2.378c0.029,0.85,0.034,1.7,0.023,2.55
	c-0.013,0.979-0.103,1.954-0.241,2.925c-0.221,1.561-0.592,3.082-1.165,4.551c-0.598,1.529-1.391,2.947-2.442,4.213
	c-1.091,1.312-2.381,2.381-3.92,3.135c-0.881,0.432-1.803,0.73-2.775,0.874c-0.37,0.056-0.744,0.08-1.118,0.08
	c-1.7,0.001-3.401,0.009-5.101-0.002c-1.986-0.015-3.871-0.459-5.627-1.402c-1.805-0.97-3.193-2.37-4.215-4.14
	c-0.675-1.168-1.144-2.417-1.473-3.723c-0.221-0.879-0.374-1.77-0.477-2.67c-0.121-1.065-0.174-2.136-0.162-3.207
	c0.009-0.758,0.139-1.498,0.32-2.23c0.331-1.341,0.832-2.621,1.413-3.871c0.883-1.9,1.929-3.71,3.106-5.443
	c0.029-0.043,0.057-0.084,0.098-0.146c-0.096-0.017-0.174-0.031-0.253-0.044c-0.525-0.092-1.036-0.232-1.521-0.456
	c-1.123-0.519-1.865-1.378-2.269-2.538c-0.19-0.544-0.294-1.105-0.339-1.68c-0.014-0.18-0.02-0.359-0.03-0.538
	C1.834,5.329,2.008,4.546,2.314,3.788C2.707,2.816,3.26,1.941,3.906,1.121C4.043,0.947,4.188,0.78,4.349,0.585"/>
<path fill="#010101" d="M131.308,22.681h-5.354l2.666-6.222L131.308,22.681z M129.931,13.191h-2.533l-6.844,15.667h2.799
	l1.601-3.756h7.354l1.578,3.756h2.889L129.931,13.191z M115.354,28.858h2.733V13.303h-2.733V28.858z M109.533,18.392
	c0,1.6-1.245,2.622-3.2,2.622h-4v-5.223h3.979C108.333,15.791,109.533,16.681,109.533,18.392 M112.799,28.858l-4.198-5.89
	c2.176-0.6,3.711-2.155,3.711-4.732c0-3.045-2.201-4.934-5.778-4.934h-6.933v15.556h2.732v-5.422h3.422l3.822,5.422H112.799z
	 M92.035,22.681h-5.354l2.666-6.222L92.035,22.681z M90.657,13.191h-2.533L81.28,28.858h2.8l1.601-3.756h7.354l1.578,3.756h2.889
	L90.657,13.191z M81.722,13.303H70.144v15.556h2.734v-6.334h7.844v-2.487h-7.844v-4.246h8.844V13.303z M66.76,13.303H55.226v15.556
	h11.645v-2.444H57.96v-4.178h7.8v-2.445h-7.8v-4.043h8.8V13.303z M43.544,17.369c0-1.044,0.933-1.867,2.533-1.867
	c1.422,0,2.822,0.557,4.222,1.601l1.467-2.065c-1.578-1.268-3.378-1.957-5.644-1.957c-3.089,0-5.311,1.822-5.311,4.533
	c0,2.889,1.866,3.867,5.177,4.667c2.889,0.667,3.511,1.267,3.511,2.4c0,1.2-1.066,1.978-2.755,1.978
	c-1.933,0-3.422-0.734-4.911-2.021l-1.644,1.955c1.866,1.666,4.111,2.488,6.488,2.488c3.267,0,5.556-1.732,5.556-4.666
	c0-2.601-1.711-3.777-5-4.578C44.255,19.125,43.544,18.592,43.544,17.369"/>
</svg>
