<svg width="22" height="24" viewBox="0 0 22 24" fill="none" xmlns="http://www.w3.org/2000/svg">
<path fill-rule="evenodd" clip-rule="evenodd" d="M6.902 14C5.18 12.61 4 10.032 4 7.963C4 4.869 6.158 3.073 8.187 3.002C9.028 2.989 9.916 3.201 10.581 3.572C10.406 2.294 9.834 1.313 9.237 0.614L10.604 0C10.887 0.407 11.176 1.129 11.365 1.979C11.748 1.284 12.213 0.717 12.84 0.351C13.509 -0.04 14.618 -0.061 15.358 0.079C15.171 0.737 14.781 1.592 13.867 2.154C13.305 2.499 12.4 2.676 11.483 2.607C11.525 2.89 11.556 3.181 11.57 3.474C12.252 3.11 13.01 2.99 13.813 3.002C15.842 3.073 18 4.869 18 7.963C18 10.032 16.82 12.61 15.098 14H22V16H2.5C2.224 16 2 16.224 2 16.5C2 16.776 2.224 17 2.5 17H22V19H3.5C2.672 19 2 19.672 2 20.5C2 21.328 2.672 22 3.5 22H22V24H3.5C1.568 24 0 22.432 0 20.5C0 19.67 0.29 18.907 0.773 18.307C0.297 17.852 0 17.21 0 16.5C0 15.12 1.12 14 2.5 14H6.902ZM22 21H4V20H22V21ZM11.014 6C10.351 5.448 9.579 4.934 8.178 5.004C7.178 5.074 5.914 6.106 6.004 8.166C6.076 9.848 7.254 11.917 8.477 12.67C9.474 13.296 10.188 12.939 11 12.456L11.038 12.479C11.834 12.95 12.542 13.286 13.523 12.67C14.746 11.917 15.924 9.848 15.996 8.166C16.086 6.106 14.822 5.074 13.822 5.004C12.596 4.942 11.802 5.434 11.014 6ZM12.764 6.548C13.936 7.871 13.737 9.113 12.604 11.455C13.674 11.014 14.613 9.548 14.604 8.522C14.593 7.276 13.717 6.492 12.764 6.548Z" fill="currentColor"/>
</svg>
