<svg width="24" height="24" viewBox="0 0 24 24" fill="none" xmlns="http://www.w3.org/2000/svg">
<path fill-rule="evenodd" clip-rule="evenodd" d="M17.151 9.538C18.463 9.589 19.47 10.642 19.489 11.992V13.118C19.873 13.196 21.255 13.478 21.628 13.565C23.252 13.982 23.995 15.252 23.989 16.893C23.978 18.504 23.294 19.301 22.857 20.301C22.599 20.913 22.506 21.412 22.49 22.076V24H15.768C15.772 23.238 15.683 22.255 15.363 21.563C14.934 20.63 13.988 19.814 12.903 18.647C12.098 17.73 11.999 16.631 12.464 15.777C12.863 15.044 13.638 14.571 14.689 14.652C14.689 13.746 14.678 12.84 14.689 11.935C14.759 10.458 15.883 9.523 17.151 9.538ZM20.589 22C20.616 20.362 21.125 19.444 21.535 18.662C21.857 18.048 22.088 17.606 22.088 16.89C22.088 16.075 21.828 15.744 21.505 15.583C21.269 15.466 20.997 15.648 20.997 15.923V16.406C20.997 16.572 20.869 16.707 20.712 16.707C20.553 16.707 20.425 16.572 20.425 16.406V15.596C20.425 15.382 20.283 15.2 20.086 15.159C19.825 15.104 19.581 15.316 19.581 15.596V16.034C19.581 16.201 19.453 16.336 19.296 16.336C19.137 16.336 19.009 16.201 19.009 16.034V15.362C19.009 15.148 18.866 14.964 18.668 14.922C18.405 14.867 18.16 15.08 18.16 15.362V15.665C18.16 15.832 18.032 15.967 17.876 15.967C17.716 15.967 17.588 15.832 17.588 15.665V11.997C17.588 11.724 17.36 11.493 17.089 11.493C16.818 11.493 16.589 11.724 16.589 11.997V18.294C16.057 17.597 15.159 16.599 14.528 16.603C14.111 16.603 13.963 16.965 14.307 17.328C15.62 18.716 17.162 19.984 17.525 22H20.589ZM24 12.638C23.861 12.529 23.715 12.428 23.565 12.334C23.082 12.036 22.551 11.832 22 11.701V2.107C16.83 2.497 14.453 3.579 13 4.439V13C12.14 13.289 11.468 13.852 11 14.533V4.442C9.526 3.571 7.157 2.496 2 2.107V15.811C5.724 16.066 8.622 16.824 10.318 17.377C10.359 17.727 10.443 18.073 10.566 18.403C10.782 18.986 11.118 19.51 11.537 19.967C11.239 19.924 10.946 19.838 10.667 19.71C7.795 18.395 3.937 17.835 0 17.715V0C4.584 0.141 9.062 0.877 12 2.707C14.938 0.877 19.416 0.141 24 0V12.638ZM4 13.731C6.086 14.043 8.451 14.755 10 15.405V14.34C8.332 13.718 6.119 13.026 4 12.714V13.731ZM4 11.7C6.086 12.012 8.451 12.723 10 13.373V12.309C8.332 11.687 6.119 10.993 4 10.684V11.7ZM4 9.669C6.086 9.98 8.451 10.692 10 11.342V10.278C8.332 9.656 6.119 8.962 4 8.652V9.669ZM4 7.638C6.086 7.949 8.451 8.662 10 9.31V8.246C8.332 7.624 6.119 6.932 4 6.621V7.638ZM20 6.621C17.88 6.932 15.668 7.624 14 8.246V9.31C15.548 8.662 17.914 7.949 20 7.638V6.621ZM4 4.58C6.119 4.889 8.332 5.583 10 6.205V7.269C8.451 6.62 6.086 5.908 4 5.596V4.58ZM20 5.596C17.914 5.908 15.548 6.62 14 7.269V6.205C15.668 5.583 17.88 4.889 20 4.58V5.596Z" fill="currentColor"/>
</svg>
