<svg width="20" height="24" viewBox="0 0 20 24" fill="none" xmlns="http://www.w3.org/2000/svg">
<path fill-rule="evenodd" clip-rule="evenodd" d="M1.405 14.899C3.379 16.92 5.685 18.049 8.5 18.049C13.743 18.049 18 13.793 18 8.549C18 5.509 16.75 3.34 14.802 1.409L16.211 0C18.517 2.098 19.99 5.119 20 8.48C20.016 14.324 15.643 19.169 10 19.92V20C10 21.875 11.526 23 13 23H14V24H3V23H4C5.499 23 7 21.849 7 20V19.929C4.245 19.578 1.792 18.25 0 16.303L1.405 14.899ZM0 8.6C0 3.905 3.805 0.1 8.5 0.1C13.195 0.1 17 3.899 17 8.6C17 13.301 13.194 17.099 8.5 17.099C3.806 17.099 0 13.293 0 8.6ZM8.883 1.536C8.72 1.541 8.605 1.723 8.479 1.827C8.227 2.036 7.582 2.446 7.222 2.321C6.854 2.195 6.067 2.789 5.941 2.794C5.894 2.794 5.943 2.344 6.194 2.311C6.085 2.327 7.077 1.81 7.05 1.702C7.018 1.574 5.068 2.284 5.155 2.427C5.196 2.492 5.366 2.492 5.143 2.635C5.016 2.712 4.879 3.202 4.759 3.202C4.402 3.358 4.379 2.895 3.982 3.492L3.348 3.748C2.408 4.746 1.757 6.012 1.521 7.418C1.512 7.475 1.758 7.578 1.789 7.617C1.869 7.712 1.869 8.122 1.908 8.255C2.006 8.594 2.247 8.782 2.432 9.09C2.541 9.274 2.722 9.738 2.665 9.93C2.742 9.804 3.424 10.508 3.548 10.654C3.841 11 4.068 11.417 3.591 11.758C3.437 11.869 3.824 12.558 3.625 12.728L3.368 12.793C3.116 12.948 3.23 13.329 3.384 13.489C4.672 14.836 6.487 15.675 8.498 15.675C12.405 15.675 15.573 12.507 15.573 8.6C15.573 7.866 15.448 7.126 15.32 6.736C15.28 6.613 15.186 6.514 15.066 6.468C14.884 6.398 14.118 6.89 14.003 6.648L13.598 6.653C13.513 6.607 13.277 6.289 13.169 6.327C12.95 6.407 13.505 7.01 13.656 7.09C13.798 6.982 14.259 6.761 14.359 7.063C14.549 7.632 13.837 8.256 13.473 8.586C12.929 9.077 13.03 8.267 12.66 7.982C12.465 7.833 12.467 7.514 12.271 7.404C12.187 7.357 11.819 6.936 11.785 6.84L11.772 6.945C11.705 6.997 11.564 6.756 11.548 6.718C11.548 6.927 11.889 7.26 12.001 7.427C12.192 7.714 12.295 8.132 12.53 8.367C12.656 8.493 13.139 9.014 13.264 9.003L13.909 8.696C14.365 8.804 12.836 10.967 12.691 11.234C12.571 11.46 12.787 12.014 12.771 12.28C12.75 12.586 12.509 12.686 12.28 12.852C12.034 13.032 12.092 13.38 11.886 13.507C11.52 13.733 11.256 14.466 10.737 14.462C10.583 14.462 9.929 14.717 9.843 14.467C9.777 14.286 9.687 14.148 9.593 13.969C9.502 13.794 9.583 13.612 9.471 13.457C9.393 13.349 9.135 13.105 9.112 12.977C9.11 12.868 9.195 12.534 9.31 12.475C9.473 12.393 9.341 12.151 9.321 12.011C9.287 11.76 9.132 11.553 8.945 11.408C8.67 11.196 8.813 11.028 8.877 10.725C8.877 10.581 8.789 10.392 8.594 10.448C8.195 10.565 8.317 10.136 8.026 10.156C7.816 10.17 7.644 10.304 7.449 10.362C7.204 10.436 6.953 10.305 6.711 10.274C5.714 10.148 5.389 9.009 5.649 8.187L5.615 7.699C5.727 7.449 5.956 7.17 6.155 6.981C6.267 6.874 6.41 6.901 6.542 6.819C6.746 6.691 6.749 6.427 6.947 6.266C7.231 6.035 7.617 6.04 7.988 5.991C8.184 5.964 8.934 5.802 9.052 5.948C9.052 5.975 9.18 6.356 9.05 6.355C9.356 6.382 9.786 6.883 10.073 6.764C10.223 6.702 10.168 6.242 10.476 6.465C10.66 6.598 11.492 6.657 11.665 6.514C11.772 6.426 11.832 5.855 11.701 5.791C11.783 5.873 11.27 5.879 11.221 5.86C11.14 5.83 11.065 5.931 10.939 5.886L10.926 5.881C10.965 5.896 10.474 5.619 10.766 5.406L10.384 5.482L10.294 5.675C10.08 5.785 9.918 5.304 9.838 5.25C9.756 5.196 9.12 4.75 9.293 5.041L9.852 5.597C9.824 5.615 9.705 5.395 9.705 5.556C9.742 5.461 9.718 5.966 9.631 5.801L9.635 5.612C9.635 5.551 9.474 5.493 9.442 5.452C9.354 5.342 9.118 5.1 8.991 5.042C8.956 5.025 8.45 5.103 8.407 5.12L8.28 5.34C8.175 5.379 8.077 5.429 7.984 5.491L7.873 5.741C7.824 5.784 7.331 5.947 7.328 5.953C7.349 5.9 6.983 5.832 7.007 5.726C7.034 5.609 7.158 5.244 7.126 5.111C7.092 4.971 7.887 5.312 7.939 4.944C7.959 4.785 7.97 4.599 7.716 4.572C7.764 4.578 8.208 4.398 8.282 4.317C8.385 4.198 8.623 4.003 8.795 4.003C8.996 4.003 8.952 3.711 9.045 3.567C9.138 3.605 8.995 3.834 9.107 3.927C9.099 3.854 9.422 3.966 9.453 3.95C9.528 3.91 9.938 3.934 9.874 3.74C9.803 3.544 9.91 3.602 10.003 3.561C9.987 3.567 10.243 3.123 10.287 3.269C10.257 3.119 9.989 3.321 9.896 3.314C9.68 3.296 9.771 2.946 9.853 2.842C9.916 2.761 9.681 2.662 9.678 2.817C9.674 3.05 9.457 3.261 9.507 3.571C9.584 4.038 8.986 3.459 8.934 3.49C8.736 3.61 8.574 3.339 8.676 3.175L9.138 2.838C9.212 2.712 9.297 2.566 9.411 2.47C9.79 2.152 9.894 2.407 10.272 2.441C10.641 2.475 10.396 2.529 10.346 2.671C10.297 2.806 10.549 2.854 10.636 2.741C10.685 2.676 10.799 2.512 10.847 2.391C10.91 2.234 11.485 2.252 11.084 2.011C10.819 1.854 9.664 1.535 8.89 1.535L8.883 1.536ZM9.31 5.887C9.285 5.84 9.552 5.816 9.599 5.816C9.652 5.822 9.462 6.135 9.31 5.887ZM11.113 4.795C11.11 4.691 10.979 4.594 10.843 4.773C10.748 4.897 10.765 5.085 10.714 5.168C10.639 5.292 11.115 5.408 11.115 5.291C11.133 5.094 11.634 5.246 11.732 5.273C11.907 5.321 12.187 5.113 11.881 5.003C11.628 4.911 11.496 4.814 11.474 4.633C11.474 4.633 11.608 4.509 11.549 4.516C11.394 4.534 11.113 5.072 11.113 4.795ZM7.786 3.711L7.863 3.69L7.826 3.786C7.887 3.896 7.842 3.961 7.832 4.021L7.727 4.086C7.689 4.133 7.909 4.14 7.912 4.146C7.92 4.17 7.646 4.209 7.697 4.267C7.764 4.364 8.28 4.129 8.198 4.143C8.357 4.063 8.219 4.054 8.13 4.008C8.099 3.856 8.074 3.621 7.979 3.526L8.041 3.455C7.895 3.243 7.786 3.711 7.786 3.711ZM7.421 4.097C7.361 4.122 7.301 4.084 7.36 4.024L7.422 3.949L7.416 3.915L7.465 3.853L7.516 3.84L7.621 3.767C7.652 3.773 7.725 3.833 7.7 3.871L7.643 3.941C7.631 4.059 7.511 4.058 7.423 4.097H7.419H7.421Z" fill="currentColor"/>
</svg>
