<svg width="24" height="24" viewBox="0 0 24 24" fill="none" xmlns="http://www.w3.org/2000/svg">
<path fill-rule="evenodd" clip-rule="evenodd" d="M17 24H7V22.658C8.808 21.673 9.005 20.453 9 19H1C0.735 19 0.48 18.895 0.293 18.707C0.105 18.52 0 18.265 0 18V1C0 0.735 0.105 0.48 0.293 0.293C0.48 0.105 0.735 0 1 0H23C23.265 0 23.52 0.105 23.707 0.293C23.895 0.48 24 0.735 24 1V18C24 18.265 23.895 18.52 23.707 18.707C23.52 18.895 23.265 19 23 19H15C15.004 20.374 15.155 21.66 17 22.658V24ZM13.016 19H10.972C10.957 19.802 10.976 21.003 10.253 22H13.746C12.989 20.98 13.03 19.75 13.016 19ZM22 14H2V17H22V14ZM12 14.537C12.552 14.537 13 14.985 13 15.537C13 16.089 12.552 16.537 12 16.537C11.448 16.537 11 16.089 11 15.537C11 14.985 11.448 14.537 12 14.537ZM2 2V12H22V2H2Z" fill="currentColor"/>
</svg>
