<svg width="24" height="19" viewBox="0 0 24 19" fill="none" xmlns="http://www.w3.org/2000/svg">
<path d="M15.6 1.1875C15.6 0.558125 15.036 0 14.4 0H1.2C0.564 0 0 0.558125 0 1.1875V17.8125C0 18.4419 0.564 19 1.2 19H14.4C15.036 19 15.6 18.4419 15.6 17.8125V1.1875ZM24 14.9625C24 14.3331 23.436 13.775 22.8 13.775H18.48C17.844 13.775 17.28 14.3331 17.28 14.9625V17.8125C17.28 18.4419 17.844 19 18.48 19H22.8C23.436 19 24 18.4419 24 17.8125V14.9625ZM1.8 1.78125H13.8V17.2188H1.8V1.78125ZM19.08 15.5563H22.2V17.2188H19.08V15.5563ZM24 8.075C24 7.44563 23.436 6.8875 22.8 6.8875H18.48C17.844 6.8875 17.28 7.44563 17.28 8.075V10.925C17.28 11.5544 17.844 12.1125 18.48 12.1125H22.8C23.436 12.1125 24 11.5544 24 10.925V8.075ZM19.08 8.66875H22.2V10.3313H19.08V8.66875ZM24 1.1875C24 0.558125 23.436 0 22.8 0H18.48C17.844 0 17.28 0.558125 17.28 1.1875V4.0375C17.28 4.66687 17.844 5.225 18.48 5.225H22.8C23.436 5.225 24 4.66687 24 4.0375V1.1875ZM19.08 1.78125H22.2V3.44375H19.08V1.78125Z" fill="currentColor"/>
</svg>
