<svg width="24" height="18" viewBox="0 0 24 18" fill="none" xmlns="http://www.w3.org/2000/svg">
<path d="M20 13.78C20.002 11.98 20.003 10.968 20 9.753C20 9.336 20.284 9.115 20.567 9.115C20.813 9.115 21.057 9.283 21.105 9.635C21.295 11.047 21.516 12.451 21.652 12.781C21.694 12.88 21.765 12.922 21.837 12.922C21.96 12.922 22.081 12.799 22.043 12.638C21.788 11.569 21.55 10.119 21.436 9.304C23.34 11.158 23.75 11.309 23.628 12.852C23.539 13.981 23.108 15.36 24.001 17.107L21.438 18C21.376 17.686 21.3 17.363 21.212 17.067C20.697 15.346 19.998 15.315 20 13.78ZM3.433 9.115C3.187 9.115 2.943 9.283 2.895 9.635C2.705 11.047 2.484 12.451 2.348 12.781C2.306 12.88 2.235 12.922 2.163 12.922C2.04 12.922 1.919 12.799 1.957 12.638C2.212 11.569 2.45 10.119 2.564 9.304C0.66 11.158 0.25 11.309 0.372 12.852C0.462 13.98 0.893 15.359 0 17.106L2.562 18C2.624 17.686 2.7 17.363 2.788 17.067C3.303 15.346 4.002 15.315 4 13.78C3.998 11.98 3.997 10.968 4 9.753C4 9.335 3.715 9.115 3.433 9.115ZM19.001 12.394C16.647 12.588 14.651 13.014 13 13.639V3.763L13.057 3.727C14.368 2.911 16.4 2.366 19 2.124V9.757C18.998 9.298 19.165 8.876 19.469 8.571C19.846 8.193 20.416 8.009 21 8.18V0C17.562 0.105 14.204 0.658 12 2.03C9.796 0.658 6.438 0.105 3 0V8.18C3.583 8.01 4.153 8.192 4.531 8.571C4.835 8.876 5.002 9.297 5 9.755V2.124C7.6 2.366 9.632 2.912 10.943 3.728L11 3.763V13.639C9.349 13.013 7.355 12.587 5 12.393V13.778C5 14.012 4.979 14.209 4.954 14.4C7.203 14.593 9.326 15.015 11 15.781C11.638 16.073 12.362 16.072 13 15.781C14.675 15.015 16.798 14.593 19.046 14.4C19.021 14.209 19 14.014 19 13.779L19.001 12.394ZM7 9.968C8.088 10.267 9.122 10.608 10 10.936V12C9.177 11.655 8.121 11.295 7 10.985V9.968ZM7 8.954C8.121 9.264 9.177 9.624 10 9.969V8.905C9.122 8.577 8.088 8.236 7 7.937V8.954ZM7 3.864V4.881C8.121 5.192 9.177 5.551 10 5.896V4.832C9.122 4.504 8.088 4.163 7 3.864ZM7 6.922C8.121 7.232 9.177 7.592 10 7.937V6.874C9.122 6.546 8.088 6.205 7 5.906V6.922ZM17 10.985C15.879 11.295 14.823 11.655 14 12V10.936C14.878 10.608 15.912 10.267 17 9.968V10.985ZM17 7.937C15.912 8.236 14.878 8.577 14 8.905V9.969C14.823 9.624 15.879 9.264 17 8.954V7.937ZM14 4.832V5.896C14.823 5.551 15.879 5.191 17 4.881V3.864C15.912 4.163 14.878 4.504 14 4.832ZM17 5.906C15.912 6.205 14.878 6.546 14 6.874V7.938C14.823 7.593 15.879 7.233 17 6.923V5.906Z" fill="currentColor"/>
</svg>
