<?xml version="1.0" standalone="no"?>
<!DOCTYPE svg PUBLIC "-//W3C//DTD SVG 20010904//EN"
 "http://www.w3.org/TR/2001/REC-SVG-20010904/DTD/svg10.dtd">
<svg version="1.0" xmlns="http://www.w3.org/2000/svg"
 width="1602.000000pt" height="496.000000pt" viewBox="0 0 1602.000000 496.000000"
 preserveAspectRatio="xMidYMid meet">

<g transform="translate(0.000000,496.000000) scale(0.100000,-0.100000)"
fill="#000000" stroke="none">
<path d="M2068 4289 c-42 -4 -119 -22 -170 -39 -100 -33 -342 -156 -334 -169
3 -5 34 -11 70 -14 154 -14 333 -90 466 -196 l75 -60 35 33 c117 112 336 209
501 223 38 3 69 9 69 14 0 10 -178 110 -245 137 -92 39 -179 62 -270 72 -49 5
-97 9 -105 9 -8 -1 -50 -5 -92 -10z"/>
<path d="M1445 4043 c-63 -15 -277 -89 -320 -111 -192 -96 -339 -253 -426
-456 -32 -74 -92 -273 -87 -288 2 -6 20 3 38 19 127 111 324 192 507 209 l71
7 11 91 c26 202 89 344 233 524 11 12 7 13 -27 5z"/>
<path d="M1499 4023 c-127 -137 -218 -345 -236 -535 l-6 -68 51 0 c100 0 261
-43 370 -99 35 -18 36 -18 84 6 27 14 72 33 101 42 51 18 52 19 78 87 46 124
101 216 173 292 l41 43 -35 30 c-157 133 -320 202 -530 224 -62 6 -66 6 -91
-22z"/>
<path d="M2706 4039 c-181 -27 -402 -129 -489 -227 -18 -20 -18 -22 37 -88 57
-69 119 -180 151 -269 23 -63 30 -71 63 -80 15 -4 59 -21 98 -39 l71 -33 34
18 c103 55 260 99 357 99 l52 0 0 43 c0 156 -73 350 -190 506 -68 90 -62 88
-184 70z"/>
<path d="M2887 4018 c110 -116 205 -342 220 -520 l6 -78 41 0 c62 0 213 -34
291 -65 87 -35 171 -84 241 -141 30 -24 54 -40 54 -35 0 31 -88 289 -121 356
-89 177 -225 311 -409 401 -58 29 -315 114 -343 114 -6 0 3 -15 20 -32z"/>
<path d="M6929 3713 c-51 -93 -116 -195 -145 -229 -105 -124 -161 -249 -195
-430 -21 -112 -21 -121 -6 -184 9 -37 42 -125 75 -196 32 -71 72 -167 87 -213
l28 -85 19 49 c54 137 71 217 72 340 1 107 -2 130 -28 208 -26 81 -28 96 -23
195 6 134 27 205 76 253 60 59 130 79 324 91 l168 10 54 -27 c59 -29 99 -72
146 -161 28 -54 31 -65 25 -123 -8 -92 -43 -193 -64 -187 -57 17 -195 36 -257
36 l-73 0 -42 -47 c-40 -46 -107 -170 -148 -278 l-20 -51 66 23 c90 30 245 32
356 3 143 -36 279 -124 382 -247 61 -74 155 -211 193 -283 l24 -45 -42 -82
-41 -82 53 24 c154 70 517 72 769 5 188 -50 468 -178 554 -253 l47 -42 -7 255
c-3 140 -6 460 -6 710 0 634 20 828 127 1193 5 16 -6 17 -144 17 l-148 0 -63
-190 -63 -190 27 -23 27 -23 -138 -160 c-75 -87 -143 -165 -149 -172 -11 -11
-34 -7 -132 20 -110 30 -130 33 -269 33 -90 0 -163 -5 -182 -12 -34 -13 -43
-4 -43 41 0 84 62 184 144 231 86 49 132 59 311 64 l169 6 68 175 c37 96 68
178 68 182 0 5 -172 7 -382 6 l-382 -3 -63 -165 c-35 -91 -66 -173 -69 -182
-5 -16 4 -18 85 -18 50 0 91 -2 91 -4 0 -2 -20 -61 -44 -132 -24 -71 -49 -163
-55 -204 -14 -85 -57 -238 -101 -355 -16 -44 -30 -82 -30 -84 0 -1 16 11 35
28 50 43 122 63 258 68 191 9 330 -19 496 -100 154 -74 269 -165 380 -302 92
-114 89 -103 97 -291 l7 -168 -64 51 c-322 255 -673 403 -961 403 -100 0 -106
-4 -163 -119 -27 -55 -52 -101 -56 -101 -8 0 -24 56 -44 149 -50 240 -156 443
-312 602 l-75 77 51 75 c130 190 145 309 55 438 l-25 36 71 148 c38 81 70 152
70 156 0 5 -182 9 -404 9 l-404 0 -93 -167z m2261 -489 c37 -218 70 -504 70
-599 l0 -70 -41 80 c-81 157 -128 220 -268 352 -80 76 -85 82 -70 100 9 10 73
87 143 171 71 84 130 152 132 150 2 -3 17 -85 34 -184z"/>
<path d="M13800 3860 c-4 -8 -33 -80 -63 -160 -30 -80 -58 -152 -62 -161 -5
-13 7 -18 69 -28 42 -7 76 -16 76 -20 0 -4 -22 -74 -50 -156 -27 -82 -50 -161
-50 -176 0 -67 -120 -386 -191 -508 -11 -18 -18 -36 -15 -38 2 -3 11 8 20 24
17 34 74 75 131 94 60 21 336 17 445 -5 101 -20 267 -86 367 -144 157 -92 270
-200 357 -341 26 -43 47 -68 50 -60 3 8 9 318 14 689 11 727 8 696 70 902 l29
98 -594 2 c-521 3 -596 1 -603 -12z m808 -395 c46 -14 53 -20 76 -68 46 -95
82 -319 111 -680 21 -266 24 -258 -45 -134 -165 297 -361 468 -597 521 -101
23 -253 21 -323 -4 -30 -11 -59 -19 -64 -20 -14 0 2 113 24 174 16 42 34 66
73 99 147 123 157 126 453 127 187 0 252 -3 292 -15z"/>
<path d="M4773 3858 c-13 -17 -163 -304 -163 -312 0 -3 18 -6 39 -6 l39 0
-104 -260 c-57 -143 -104 -262 -104 -265 0 -2 16 6 36 20 59 40 122 48 267 36
202 -17 352 -54 506 -123 35 -16 65 -27 67 -25 10 10 -92 145 -165 217 -125
124 -236 176 -413 195 -32 4 -58 11 -58 16 0 19 50 88 82 112 60 45 94 57 161
57 58 0 70 -4 128 -41 35 -23 101 -73 146 -111 86 -72 407 -398 463 -468 l32
-40 -493 0 -493 1 -53 -133 c-29 -73 -56 -141 -59 -151 -6 -18 -1 -18 70 -12
42 4 76 5 76 2 0 -3 -45 -108 -100 -233 -55 -125 -100 -228 -100 -229 0 -1 24
6 53 16 60 21 152 24 282 8 180 -22 343 -78 483 -166 47 -30 87 -51 90 -49 2
3 -3 132 -12 288 -9 156 -16 302 -16 326 l0 42 90 0 c106 0 120 -9 149 -105
42 -136 78 -459 60 -545 -6 -30 -11 -61 -12 -68 -1 -32 -136 -88 -277 -117
l-81 -17 -122 33 c-67 17 -158 47 -202 65 -193 79 -376 124 -500 124 -117 0
-116 -5 35 -176 72 -82 145 -174 162 -204 18 -30 71 -94 118 -141 140 -141
283 -198 499 -199 148 0 252 30 330 95 17 15 31 25 31 23 0 -2 -29 -90 -64
-196 -36 -106 -63 -192 -62 -192 2 0 33 16 70 35 53 28 79 35 122 35 128 0
197 -82 123 -144 -58 -49 -89 -59 -197 -64 -129 -6 -210 12 -350 78 -148 71
-252 142 -381 263 -145 136 -335 293 -487 401 -97 70 -120 82 -127 70 -5 -9
-7 -17 -5 -18 1 -2 66 -52 143 -112 237 -184 350 -286 610 -549 244 -247 361
-347 460 -395 39 -19 58 -22 113 -18 107 8 141 31 206 140 72 122 122 237 152
355 32 129 32 192 -2 232 -39 46 -87 57 -190 41 -47 -7 -87 -10 -89 -8 -15 15
41 140 163 364 164 302 160 294 136 294 -14 0 -35 -29 -74 -102 -127 -234
-267 -318 -536 -318 -318 0 -589 106 -841 328 -35 31 -61 57 -60 59 11 11 237
-54 382 -109 271 -104 343 -123 455 -121 108 2 181 22 293 80 71 37 124 88
131 126 2 12 12 143 21 291 14 239 44 552 61 643 l6 33 -46 0 -46 0 0 348 c0
348 0 349 30 497 17 81 30 152 30 157 0 4 -51 8 -112 8 l-113 0 -54 -156 c-51
-147 -53 -157 -36 -167 56 -31 97 -108 131 -247 22 -92 51 -287 43 -294 -2 -2
-53 57 -113 131 -61 74 -163 194 -228 266 l-117 132 31 5 c30 5 32 9 84 155
29 83 53 156 53 163 1 9 -73 12 -338 12 -259 0 -341 -3 -348 -12z m404 -1299
c107 -27 174 -155 207 -393 3 -22 1 -35 -3 -30 -5 5 -28 32 -51 59 -89 105
-222 192 -328 214 -29 6 -83 11 -119 11 l-67 0 33 34 c41 43 121 86 186 102
65 16 87 16 142 3z"/>
<path d="M10861 3833 c-6 -21 -28 -97 -50 -170 -33 -112 -37 -134 -25 -144 24
-20 71 -130 93 -219 36 -145 99 -654 89 -723 -2 -17 -20 2 -82 92 -135 196
-316 363 -408 377 -21 4 -38 9 -38 13 0 3 19 49 41 101 73 169 86 290 40 381
l-23 46 46 128 c25 70 46 131 46 136 0 5 -141 9 -313 9 l-312 0 -78 -149 c-65
-125 -89 -161 -146 -218 -115 -115 -177 -268 -187 -463 -6 -100 -4 -113 35
-260 22 -85 46 -191 54 -234 l13 -79 67 83 c36 46 83 117 104 159 54 110 52
153 -12 301 -49 114 -50 116 -50 220 0 95 3 110 28 162 53 108 142 155 278
145 141 -9 234 -69 294 -189 37 -74 41 -102 29 -216 l-7 -60 -91 -7 c-107 -9
-136 -21 -177 -78 -49 -67 -159 -300 -159 -337 0 -6 19 3 42 20 57 42 127 60
229 60 159 0 355 -65 494 -164 81 -58 207 -193 273 -292 l54 -79 -7 240 c-24
840 -23 963 14 1167 11 62 31 148 45 190 13 42 21 80 18 83 -3 3 -61 5 -128 5
l-123 0 -10 -37z"/>
<path d="M11841 3708 c-23 -90 -44 -171 -47 -180 -5 -16 3 -18 66 -18 39 0 70
-3 68 -7 -2 -5 -17 -35 -34 -68 -49 -94 -85 -191 -95 -258 -10 -59 -66 -235
-122 -380 -27 -69 -25 -71 28 -31 17 12 62 34 100 50 66 27 78 29 205 27 264
-3 453 -80 645 -264 136 -131 177 -207 250 -460 35 -119 119 -518 112 -525 -2
-2 -30 19 -63 48 -184 162 -366 286 -539 368 -178 85 -299 119 -476 134 l-65
5 -137 -194 c-75 -107 -137 -197 -137 -200 0 -3 10 0 23 7 16 10 83 13 252 13
256 -1 340 -13 541 -80 207 -69 506 -228 622 -331 l62 -56 0 35 c0 20 5 37 11
39 12 4 -170 1223 -196 1314 -48 168 -173 328 -310 396 -124 62 -181 73 -355
72 -163 -1 -232 -14 -377 -72 -34 -14 -51 -17 -48 -9 2 7 13 42 24 79 37 124
93 201 185 257 115 69 149 74 548 79 323 3 358 5 362 20 3 9 23 87 46 172 22
85 43 161 45 168 3 9 -116 12 -574 12 l-578 0 -42 -162z"/>
<path d="M15217 3863 c-2 -5 -30 -86 -62 -181 l-57 -174 21 -19 c29 -28 48
-66 71 -151 60 -222 81 -646 102 -2040 l12 -828 27 0 28 0 4 1387 c3 960 8
1419 16 1488 21 186 52 343 97 503 l6 22 -130 0 c-72 0 -133 -3 -135 -7z"/>
<path d="M6206 3838 c-3 -13 -22 -84 -41 -159 -19 -75 -37 -144 -41 -153 -5
-14 8 -16 125 -16 l130 0 12 43 c6 23 26 98 45 167 19 69 34 128 34 132 0 5
-58 8 -129 8 -125 0 -129 -1 -135 -22z"/>
<path d="M11311 3823 c-25 -98 -73 -280 -77 -295 -5 -17 6 -18 125 -18 72 0
131 2 131 4 0 3 20 79 45 170 25 92 45 168 45 171 0 3 -58 5 -130 5 l-129 0
-10 -37z"/>
<path d="M13246 3843 c-3 -10 -21 -81 -41 -158 -20 -77 -39 -148 -41 -157 -5
-17 6 -18 125 -18 72 0 131 2 131 5 0 3 20 79 45 171 25 91 45 167 45 170 0 2
-58 4 -129 4 -115 0 -130 -2 -135 -17z"/>
<path d="M2143 3737 c-55 -63 -112 -153 -148 -235 -42 -95 -43 -107 -12 -97
45 13 264 18 332 6 37 -7 69 -11 71 -9 1 2 -12 40 -31 86 -32 80 -95 183 -152
251 l-29 34 -31 -36z"/>
<path d="M1057 3374 c-140 -30 -299 -108 -404 -199 -42 -35 -43 -39 -43 -95 0
-168 93 -399 220 -543 l33 -38 46 45 c66 64 233 157 342 190 10 2 25 28 34 58
10 29 29 75 42 102 l25 49 -36 76 c-42 89 -72 199 -82 300 l-7 71 -51 -1 c-28
0 -82 -7 -119 -15z"/>
<path d="M1264 3334 c11 -91 45 -222 77 -293 l29 -63 45 59 c50 68 177 191
224 219 17 10 31 22 31 27 0 26 -219 94 -339 104 l-74 6 7 -59z"/>
<path d="M2000 3377 l-55 -12 -11 -65 c-19 -105 -17 -144 7 -166 71 -63 170
-228 209 -347 l23 -67 24 72 c36 106 85 195 163 292 l68 85 -9 73 c-16 131
-12 125 -83 137 -80 14 -264 13 -336 -2z"/>
<path d="M2905 3370 c-80 -18 -169 -49 -213 -73 -23 -13 -22 -14 48 -66 64
-48 140 -128 211 -221 l26 -34 30 75 c40 94 63 184 70 271 l6 68 -49 -1 c-27
0 -85 -9 -129 -19z"/>
<path d="M3110 3339 c0 -98 -44 -254 -99 -359 -19 -34 -19 -35 4 -80 12 -25
32 -73 45 -106 19 -53 26 -63 51 -68 79 -16 282 -130 342 -194 l29 -30 32 36
c107 120 181 278 211 451 24 136 24 139 -45 194 -140 113 -327 191 -487 204
l-83 6 0 -54z"/>
<path d="M1813 3319 l-73 -31 60 -45 c33 -24 62 -49 65 -54 14 -22 23 -4 29
60 3 38 9 76 12 85 9 23 -11 20 -93 -15z"/>
<path d="M2446 3303 c3 -27 9 -65 13 -85 l6 -37 60 47 c34 26 62 51 64 57 3 9
-119 65 -141 65 -5 0 -6 -21 -2 -47z"/>
<path d="M1643 3224 c-74 -55 -160 -142 -209 -211 -44 -60 -45 -63 -30 -90 8
-15 35 -53 59 -84 l45 -56 84 -6 c113 -9 226 -39 326 -87 45 -21 82 -37 82
-34 0 2 -13 30 -29 62 -44 87 -78 208 -90 315 -6 53 -11 100 -11 106 0 13
-144 121 -162 121 -9 0 -38 -16 -65 -36z"/>
<path d="M2563 3216 c-86 -65 -90 -71 -96 -161 -8 -107 -38 -217 -85 -319
l-40 -84 84 40 c102 47 205 75 318 84 83 6 87 8 119 43 18 20 47 57 65 83 l31
46 -31 43 c-84 118 -247 269 -290 269 -9 0 -42 -20 -75 -44z"/>
<path d="M539 3040 c-127 -226 -167 -346 -176 -515 -10 -191 23 -315 144 -541
l68 -129 7 65 c21 191 106 389 223 518 l36 41 -55 68 c-107 132 -185 320 -204
488 l-7 70 -36 -65z"/>
<path d="M3766 3055 c-35 -223 -92 -363 -206 -506 -28 -34 -50 -65 -50 -68 0
-3 19 -29 43 -58 95 -116 167 -268 192 -408 32 -169 22 -167 98 -23 183 346
190 596 27 925 -38 76 -75 147 -83 158 -14 19 -16 18 -21 -20z"/>
<path d="M1940 3024 c0 -54 39 -186 80 -273 40 -83 108 -186 117 -177 3 2 0
31 -7 63 -26 133 -83 269 -154 368 l-36 50 0 -31z"/>
<path d="M2364 2994 c-78 -112 -135 -253 -149 -370 l-7 -59 35 44 c53 66 116
204 143 310 34 133 29 149 -22 75z"/>
<path d="M1332 2833 c-17 -43 -29 -79 -28 -80 4 -5 157 15 163 21 3 3 -8 21
-25 40 -16 19 -38 48 -48 65 -10 17 -22 31 -25 31 -4 0 -21 -35 -37 -77z"/>
<path d="M2923 2840 l-52 -68 37 -6 c114 -16 132 -17 132 -6 0 13 -49 132 -58
142 -4 4 -30 -24 -59 -62z"/>
<path d="M1420 2730 c-141 -18 -132 -11 -150 -120 -18 -117 -4 -327 24 -348
14 -12 119 -32 163 -32 26 0 51 14 116 65 83 66 219 143 292 165 22 6 47 14
55 17 8 2 -18 17 -60 32 -136 50 -270 132 -339 205 -14 14 -29 25 -35 25 -6
-1 -36 -5 -66 -9z"/>
<path d="M2788 2682 c-84 -73 -200 -140 -300 -173 l-78 -27 52 -17 c128 -42
245 -108 334 -188 58 -53 76 -56 194 -34 l65 12 11 50 c16 65 17 261 3 341
-12 69 -10 67 -104 79 -27 3 -63 8 -80 10 -25 3 -41 -6 -97 -53z"/>
<path d="M1650 2680 c85 -61 206 -117 303 -140 131 -31 146 -25 69 28 -89 61
-173 98 -287 127 -139 36 -151 33 -85 -15z"/>
<path d="M2622 2700 c-94 -22 -242 -89 -317 -145 l-50 -37 62 7 c107 11 261
71 369 145 79 55 70 60 -64 30z"/>
<path d="M1169 2667 c-122 -54 -279 -159 -279 -188 0 -29 244 -176 338 -204
23 -7 23 -6 15 57 -11 83 -8 272 5 326 5 23 7 42 3 42 -3 0 -40 -15 -82 -33z"/>
<path d="M3097 2657 c10 -55 10 -290 0 -346 l-8 -43 28 7 c56 14 190 85 263
140 41 31 76 60 78 65 8 23 -196 154 -306 196 l-62 24 7 -43z"/>
<path d="M820 2413 c-117 -133 -210 -370 -210 -533 0 -45 4 -54 35 -82 128
-111 279 -183 452 -213 137 -24 127 -30 140 83 12 100 48 222 89 304 l24 47
-30 65 c-16 37 -35 84 -41 106 -7 22 -17 40 -22 40 -20 0 -184 75 -237 108
-30 19 -78 54 -107 78 l-51 44 -42 -47z"/>
<path d="M3440 2423 c-89 -77 -247 -166 -333 -187 -15 -4 -30 -14 -33 -24 -3
-9 -22 -56 -41 -104 l-35 -87 35 -83 c45 -103 77 -234 77 -312 l0 -58 73 7
c171 17 359 93 487 198 l65 54 -2 67 c-6 178 -89 379 -220 534 l-29 33 -44
-38z"/>
<path d="M1955 2426 c-113 -30 -187 -63 -278 -123 -65 -43 -69 -48 -46 -51 78
-9 322 86 418 163 39 31 41 35 20 35 -13 -1 -64 -12 -114 -24z"/>
<path d="M2290 2421 c43 -37 170 -105 248 -132 52 -19 203 -51 210 -45 6 6
-119 86 -187 120 -72 37 -171 67 -261 80 l-45 7 35 -30z"/>
<path d="M2104 2357 c-52 -71 -94 -151 -124 -239 -25 -76 -49 -198 -38 -198 3
0 19 20 36 44 49 67 109 196 131 277 20 75 36 159 29 159 -1 -1 -17 -20 -34
-43z"/>
<path d="M2214 2338 c16 -120 89 -290 171 -398 l27 -35 -7 55 c-9 69 -50 200
-83 265 -28 57 -100 165 -109 165 -3 0 -2 -24 1 -52z"/>
<path d="M1930 2279 c-91 -47 -202 -77 -323 -90 -104 -11 -114 -17 -179 -112
l-40 -59 35 -51 c51 -77 129 -159 206 -216 38 -28 72 -51 75 -51 8 0 111 71
142 98 18 15 24 37 33 118 14 125 41 225 90 325 22 44 38 78 38 77 -1 0 -36
-18 -77 -39z"/>
<path d="M2376 2243 c46 -95 83 -231 91 -336 l6 -88 41 -33 c23 -18 60 -46 84
-61 l42 -28 42 29 c66 45 191 168 236 232 l41 59 -26 39 c-15 21 -42 58 -60
81 -31 38 -39 42 -91 48 -162 16 -274 45 -379 99 -29 14 -54 26 -57 26 -2 0
11 -30 30 -67z"/>
<path d="M2155 2190 c-37 -114 -109 -239 -192 -335 -47 -55 -50 -70 -32 -171
17 -97 11 -91 107 -104 83 -12 258 -9 325 6 35 8 43 28 57 136 l10 82 -34 36
c-85 89 -157 212 -201 340 l-22 65 -18 -55z"/>
<path d="M1305 2199 c14 -47 58 -140 65 -137 4 2 30 33 57 69 l50 66 -66 6
c-36 4 -77 9 -90 13 -21 6 -23 5 -16 -17z"/>
<path d="M2995 2210 c-16 -4 -51 -8 -77 -9 -46 -1 -61 -12 -37 -27 6 -3 30
-33 54 -65 l43 -58 25 57 c30 67 43 112 31 111 -5 -1 -22 -5 -39 -9z"/>
<path d="M1331 1900 c-32 -82 -54 -172 -66 -274 l-8 -59 64 7 c90 10 180 32
258 62 95 38 100 45 53 77 -63 41 -158 134 -209 203 -26 35 -50 64 -54 64 -3
0 -20 -36 -38 -80z"/>
<path d="M2938 1937 c-35 -55 -138 -159 -211 -213 l-58 -43 28 -14 c83 -43
288 -97 364 -97 24 0 25 46 5 152 -16 82 -76 250 -91 255 -5 2 -22 -16 -37
-40z"/>
<path d="M7853 1945 c-3 -9 -4 -17 -2 -19 2 -1 56 -36 119 -77 276 -180 646
-520 865 -794 108 -135 212 -215 279 -215 66 0 101 23 166 111 34 46 83 128
110 183 68 139 93 242 94 385 1 110 0 114 -24 133 -41 30 -129 50 -167 37 -41
-13 -96 -77 -133 -154 -26 -55 -82 -226 -75 -233 1 -1 25 12 54 29 87 55 183
51 210 -8 46 -101 -68 -175 -243 -158 -90 8 -210 48 -251 83 -431 368 -691
561 -892 665 -50 26 -94 47 -97 47 -4 0 -9 -7 -13 -15z"/>
<path d="M1840 1751 c-25 -20 -58 -46 -74 -57 l-29 -21 81 -32 c45 -17 84 -31
87 -31 3 0 3 10 0 23 -4 13 -9 53 -13 89 l-7 65 -45 -36z"/>
<path d="M2451 1703 c-7 -47 -10 -87 -8 -90 3 -2 40 10 83 28 l77 32 -24 19
c-13 10 -45 36 -70 58 l-46 39 -12 -86z"/>
<path d="M3680 1744 c-126 -103 -299 -174 -473 -195 l-94 -12 -6 -76 c-12
-156 -88 -346 -192 -481 -29 -38 -41 -60 -32 -60 25 0 264 77 321 103 178 82
332 236 421 422 37 78 122 332 113 340 -2 2 -28 -17 -58 -41z"/>
<path d="M610 1771 c0 -32 88 -289 121 -351 82 -158 216 -292 376 -377 81 -43
348 -132 360 -120 3 4 -5 20 -19 35 -106 114 -192 325 -213 519 l-7 61 -61 7
c-93 10 -223 42 -291 72 -71 31 -205 114 -231 143 -19 21 -35 26 -35 11z"/>
<path d="M1659 1635 c-92 -48 -274 -95 -368 -95 l-33 0 7 -72 c19 -189 105
-386 227 -519 l33 -37 84 9 c185 19 375 102 503 217 l38 34 -36 41 c-60 65
-127 178 -164 275 -31 82 -38 92 -65 98 -16 3 -63 21 -104 40 -41 19 -74 34
-75 34 -1 -1 -22 -12 -47 -25z"/>
<path d="M2585 1637 c-22 -12 -67 -31 -99 -43 -58 -21 -61 -23 -78 -74 -31
-93 -87 -194 -148 -271 -33 -41 -58 -78 -57 -84 6 -21 145 -117 225 -156 93
-45 235 -84 331 -91 l63 -4 49 58 c123 148 209 362 209 522 l0 42 -97 12 c-99
13 -253 58 -311 93 -39 22 -35 22 -87 -4z"/>
<path d="M1965 1539 c27 -90 142 -286 194 -333 18 -16 21 -13 69 51 57 78 111
174 142 252 l21 53 -58 -8 c-74 -11 -252 -12 -322 0 -53 8 -53 8 -46 -15z"/>
<path d="M2123 1109 c-135 -118 -375 -219 -520 -219 -24 0 -43 -4 -43 -8 0
-16 307 -162 385 -184 119 -32 336 -32 455 1 77 21 270 110 360 164 l35 22
-65 7 c-193 21 -388 105 -522 226 l-36 33 -49 -42z"/>
</g>
</svg>
