<svg id="Layer_1" data-name="Layer 1" xmlns="http://www.w3.org/2000/svg" xmlns:xlink="http://www.w3.org/1999/xlink" viewBox="0 0 340.96 93.15"><defs><style>.cls-1{fill:none;}.cls-2{clip-path:url(#clip-path);}.cls-3{fill:#231f20;}</style><clipPath id="clip-path" transform="translate(-389 -337.85)"><rect class="cls-1" x="389" y="337.85" width="340.96" height="93.15"/></clipPath></defs><title>sefarialogo</title><g class="cls-2"><path class="cls-3" d="M454,397.67c-2.41,11.31-10.59,16.11-28.82,16.11-44.79,0-28.92-36-22.66-43.42,2.63-3.29,4.47-6,11.15-6h12.71c17.72,0,21.1.84,25.54,9.9,2.4,4.88,3.79,15.41,2.08,23.43m4.81-22.48c-1.5-9.67-3.45-20.19-11.85-26-5.09-3.54-10.34-3.8-16.21-3.8-4,0-18.11-.17-24.29-.17-6,0-10-4.94-10-7.34-3.91,4.79-6.9,10.08-5.85,16.48.94,5.76,4.89,9.44,10.67,10.17-6.55,9.25-12.47,19.9-12.18,31.18.18,7.11,1.81,35.32,33.71,35.32h5.81c13.62,0,21.87-10.11,24.27-14,7.05-11.5,8.23-29.29,6-41.78" transform="translate(-389 -337.85)"/><path class="cls-3" d="M722.79,402.89a12.32,12.32,0,0,1-9.74,5.06,11.59,11.59,0,0,1-11.78-11.7c0-6.19,4.53-11.7,11.4-11.7a12.78,12.78,0,0,1,10.12,5.06ZM723,414H730V378.51H723v3.24a16.65,16.65,0,0,0-11.1-4,16.87,16.87,0,0,0-8.69,2.27,19,19,0,0,0-.07,32.39,18.26,18.26,0,0,0,8.91,2.34,16.31,16.31,0,0,0,10.95-4ZM676,365.9a4.61,4.61,0,0,0,4.68,4.68,4.68,4.68,0,0,0,4.76-4.68,4.75,4.75,0,0,0-4.76-4.76A4.68,4.68,0,0,0,676,365.9M677.11,414h7.17V378.51h-7.17Zm-8.68-36a18.29,18.29,0,0,0-2.79-.23c-5.21,0-8.91,2.42-10.65,4.83v-4.07h-7V414h7.18V390.51c2-3.4,5.89-6,9.59-6a10.06,10.06,0,0,1,2.79.3ZM628,402.89A12.32,12.32,0,0,1,618.3,408a11.59,11.59,0,0,1-11.78-11.7c0-6.19,4.53-11.7,11.4-11.7A12.8,12.8,0,0,1,628,389.61Zm.22,11.1h7V378.51h-7v3.24a16.62,16.62,0,0,0-11.1-4,16.83,16.83,0,0,0-8.68,2.27,19,19,0,0,0-.07,32.39,18.2,18.2,0,0,0,8.91,2.34,16.3,16.3,0,0,0,10.94-4Zm-33.07-53.83a16.61,16.61,0,0,0-4.23-.53,13.88,13.88,0,0,0-11.62,5.89c-1.59,2.27-2.27,5.21-2.27,10v3h-8.3v6.41h8.3V414h7.18V384.92h10.94v-6.41H584.25v-3.25c0-3.25.37-5.06,1.35-6.34a7,7,0,0,1,5.44-2.49,11.64,11.64,0,0,1,2.64.3ZM546.65,384a9.92,9.92,0,0,1,9.36,7.7H536.68a10.31,10.31,0,0,1,10-7.7m16.76,13.74a14,14,0,0,0,.07-1.51c0-10.5-7.17-18.5-17.06-18.5s-17.29,7.85-17.29,18.5a18,18,0,0,0,18.35,18.5c7.24,0,12.3-3.25,14.95-6.65l-4.69-4.45a12.78,12.78,0,0,1-10.19,4.83,11.43,11.43,0,0,1-11.47-10.72Zm-75.58,8.15a23.68,23.68,0,0,0,18.5,8.84c9.21,0,16.38-6,16.38-15.33,0-6-3.32-9.74-6.87-12.08-6.79-4.53-18-6-18-12.68,0-4.61,4.38-7.1,8.75-7.1a14.55,14.55,0,0,1,9.44,3.62l4.46-5.51a21.76,21.76,0,0,0-14.2-5.28c-9.21,0-16,6.34-16,14,0,5.51,2.94,9.14,6.72,11.63,7,4.6,18.19,5.51,18.19,13.59,0,4.75-4.3,7.92-9.21,7.92-5.44,0-9.81-3-12.91-6.79Z" transform="translate(-389 -337.85)"/></g></svg>