<?xml version="1.0" encoding="UTF-8"?>
<svg id="Layer_1" data-name="Layer 1" xmlns="http://www.w3.org/2000/svg" viewBox="0 0 203.53 202.35">
  <defs>
    <style>
      .cls-1 {
        fill: #fff;
        stroke: #999;
        stroke-miterlimit: 10;
        stroke-width: 7px;
      }

      .cls-2 {
        fill: #999;
      }
    </style>
  </defs>
  <circle class="cls-1" cx="99.91" cy="103.01" r="93.53"/>
  <g>
    <path class="cls-2" d="M90.76,113.97c-.87-2.73-1.36-3.1-5.08-3.1h-18.72c-3.1,0-3.84.37-4.71,2.98l-4.34,13.02c-1.86,5.58-2.73,8.93-2.73,10.29,0,1.49.62,2.23,3.6,2.48l4.09.37c.87.62.87,2.6-.25,3.1-3.22-.25-7.07-.25-12.9-.37-4.09,0-8.56.25-11.9.37-.74-.5-.99-2.48-.25-3.1l4.09-.37c2.98-.25,5.7-1.61,7.44-6.08,2.23-5.7,5.7-13.76,10.91-27.65l12.65-33.48c1.74-4.46,2.48-6.82,2.11-8.8,2.98-.87,5.08-3.1,6.45-4.71.74,0,1.61.25,1.86,1.12,1.61,5.46,3.6,11.16,5.46,16.61l16.99,49.85c3.6,10.66,5.21,12.52,10.54,13.14l3.35.37c.87.62.62,2.6,0,3.1-5.08-.25-9.42-.37-15-.37-5.95,0-10.66.25-14.26.37-.99-.5-1.12-2.48-.25-3.1l3.6-.37c2.6-.25,4.34-.99,4.34-2.23,0-1.36-.62-3.6-1.61-6.57l-5.46-16.86ZM66.21,102.93c-.99,2.85-.87,2.98,2.6,2.98h15.25c3.6,0,3.84-.5,2.73-3.84l-6.7-20.21c-.99-2.98-2.11-6.32-2.85-7.81h-.25c-.37.62-1.61,3.6-2.98,7.32l-7.81,21.57Z"/>
    <path class="cls-2" d="M133.41,79.74c0-13.14-.25-15.25-7.56-15.87l-3.1-.25c-.74-.5-.5-2.73.25-3.1,6.2.25,10.42.37,15.62.37s9.18-.12,15.38-.37c.74.37.99,2.6.25,3.1l-3.1.25c-7.32.62-7.56,2.73-7.56,15.87v44.14c0,13.14.25,14.88,7.56,15.75l3.1.37c.74.5.5,2.73-.25,3.1-6.2-.25-10.42-.37-15.38-.37-5.21,0-9.42.12-15.62.37-.74-.37-.99-2.36-.25-3.1l3.1-.37c7.32-.87,7.56-2.6,7.56-15.75v-44.14Z"/>
  </g>
</svg>